<svg width="1440" height="1024" viewBox="0 0 1440 1024" fill="none" xmlns="http://www.w3.org/2000/svg">
<g clip-path="url(#clip0_3125_27739)">
<rect width="1440" height="1024" fill="#0F2028"/>
<g opacity="0.5" filter="url(#filter0_f_3125_27739)">
<ellipse cx="217.04" cy="866.974" rx="162.04" ry="157.025" fill="#D2F801" fill-opacity="0.34"/>
</g>
<g opacity="0.5" filter="url(#filter1_f_3125_27739)">
<ellipse cx="501.642" cy="413.248" rx="162.04" ry="157.025" fill="#D2F801" fill-opacity="0.34"/>
</g>
<g opacity="0.5" filter="url(#filter2_f_3125_27739)">
<ellipse cx="1270.91" cy="111.126" rx="114.674" ry="111.126" fill="#D2F801"/>
</g>
<g opacity="0.15">
<g clip-path="url(#clip1_3125_27739)">
<rect x="272.165" y="195.336" width="65" height="59" stroke="#F2F4F7" stroke-opacity="0.1"/>
<rect x="337.165" y="195.336" width="65" height="59" stroke="#F2F4F7" stroke-opacity="0.1"/>
<rect x="402.165" y="195.336" width="65" height="59" stroke="#F2F4F7" stroke-opacity="0.1"/>
<rect x="467.165" y="195.336" width="65" height="59" stroke="#F2F4F7" stroke-opacity="0.1"/>
<rect x="532.165" y="195.336" width="65" height="59" stroke="#F2F4F7" stroke-opacity="0.1"/>
<rect x="597.165" y="195.336" width="65" height="59" stroke="#F2F4F7" stroke-opacity="0.1"/>
<rect x="662.165" y="195.336" width="65" height="59" stroke="#F2F4F7" stroke-opacity="0.1"/>
<rect x="727.165" y="195.336" width="65" height="59" stroke="#F2F4F7" stroke-opacity="0.1"/>
<rect x="792.165" y="195.336" width="65" height="59" stroke="#F2F4F7" stroke-opacity="0.1"/>
<rect x="857.165" y="195.336" width="65" height="59" stroke="#F2F4F7" stroke-opacity="0.1"/>
<rect x="922.165" y="195.336" width="65" height="59" stroke="#F2F4F7" stroke-opacity="0.1"/>
<rect x="987.165" y="195.336" width="65" height="59" stroke="#F2F4F7" stroke-opacity="0.1"/>
<rect x="1052.17" y="195.336" width="65" height="59" stroke="#F2F4F7" stroke-opacity="0.1"/>
<rect x="1117.17" y="195.336" width="65" height="59" stroke="#F2F4F7" stroke-opacity="0.1"/>
<rect x="272.165" y="254.336" width="65" height="59" stroke="#F2F4F7" stroke-opacity="0.1"/>
<rect x="337.165" y="254.336" width="65" height="59" stroke="#F2F4F7" stroke-opacity="0.1"/>
<rect x="402.165" y="254.336" width="65" height="59" stroke="#F2F4F7" stroke-opacity="0.1"/>
<rect x="467.165" y="254.336" width="65" height="59" stroke="#F2F4F7" stroke-opacity="0.1"/>
<rect x="532.165" y="254.336" width="65" height="59" stroke="#F2F4F7" stroke-opacity="0.1"/>
<rect x="597.165" y="254.336" width="65" height="59" stroke="#F2F4F7" stroke-opacity="0.1"/>
<rect x="662.165" y="254.336" width="65" height="59" stroke="#F2F4F7" stroke-opacity="0.1"/>
<rect x="727.165" y="254.336" width="65" height="59" stroke="#F2F4F7" stroke-opacity="0.1"/>
<rect x="792.165" y="254.336" width="65" height="59" stroke="#F2F4F7" stroke-opacity="0.1"/>
<rect x="857.165" y="254.336" width="65" height="59" stroke="#F2F4F7" stroke-opacity="0.1"/>
<rect x="922.165" y="254.336" width="65" height="59" stroke="#F2F4F7" stroke-opacity="0.1"/>
<rect x="987.165" y="254.336" width="65" height="59" stroke="#F2F4F7" stroke-opacity="0.1"/>
<rect x="1052.17" y="254.336" width="65" height="59" stroke="#F2F4F7" stroke-opacity="0.1"/>
<rect x="1117.17" y="254.336" width="65" height="59" stroke="#F2F4F7" stroke-opacity="0.1"/>
<rect x="272.165" y="313.336" width="65" height="59" stroke="#F2F4F7" stroke-opacity="0.1"/>
<rect x="337.165" y="313.336" width="65" height="59" stroke="#F2F4F7" stroke-opacity="0.1"/>
<rect x="402.165" y="313.336" width="65" height="59" stroke="#F2F4F7" stroke-opacity="0.1"/>
<rect x="467.165" y="313.336" width="65" height="59" stroke="#F2F4F7" stroke-opacity="0.1"/>
<rect x="532.165" y="313.336" width="65" height="59" stroke="#F2F4F7" stroke-opacity="0.1"/>
<rect x="597.165" y="313.336" width="65" height="59" stroke="#F2F4F7" stroke-opacity="0.1"/>
<rect x="662.165" y="313.336" width="65" height="59" stroke="#F2F4F7" stroke-opacity="0.1"/>
<rect x="727.165" y="313.336" width="65" height="59" stroke="#F2F4F7" stroke-opacity="0.1"/>
<rect x="792.165" y="313.336" width="65" height="59" stroke="#F2F4F7" stroke-opacity="0.1"/>
<rect x="857.165" y="313.336" width="65" height="59" stroke="#F2F4F7" stroke-opacity="0.1"/>
<rect x="922.165" y="313.336" width="65" height="59" stroke="#F2F4F7" stroke-opacity="0.1"/>
<rect x="987.165" y="313.336" width="65" height="59" stroke="#F2F4F7" stroke-opacity="0.1"/>
<rect x="1052.17" y="313.336" width="65" height="59" stroke="#F2F4F7" stroke-opacity="0.1"/>
<rect x="1117.17" y="313.336" width="65" height="59" stroke="#F2F4F7" stroke-opacity="0.1"/>
<rect x="272.165" y="372.336" width="65" height="59" stroke="#F2F4F7" stroke-opacity="0.1"/>
<rect x="337.165" y="372.336" width="65" height="59" stroke="#F2F4F7" stroke-opacity="0.1"/>
<rect x="402.165" y="372.336" width="65" height="59" stroke="#F2F4F7" stroke-opacity="0.1"/>
<rect x="467.165" y="372.336" width="65" height="59" stroke="#F2F4F7" stroke-opacity="0.1"/>
<rect x="532.165" y="372.336" width="65" height="59" stroke="#F2F4F7" stroke-opacity="0.1"/>
<rect x="597.165" y="372.336" width="65" height="59" stroke="#F2F4F7" stroke-opacity="0.1"/>
<rect x="662.165" y="372.336" width="65" height="59" stroke="#F2F4F7" stroke-opacity="0.1"/>
<rect x="727.165" y="372.336" width="65" height="59" stroke="#F2F4F7" stroke-opacity="0.1"/>
<rect x="792.165" y="372.336" width="65" height="59" stroke="#F2F4F7" stroke-opacity="0.1"/>
<rect x="857.165" y="372.336" width="65" height="59" stroke="#F2F4F7" stroke-opacity="0.1"/>
<rect x="922.165" y="372.336" width="65" height="59" stroke="#F2F4F7" stroke-opacity="0.1"/>
<rect x="987.165" y="372.336" width="65" height="59" stroke="#F2F4F7" stroke-opacity="0.1"/>
<rect x="1052.17" y="372.336" width="65" height="59" stroke="#F2F4F7" stroke-opacity="0.1"/>
<rect x="1117.17" y="372.336" width="65" height="59" stroke="#F2F4F7" stroke-opacity="0.1"/>
<rect x="272.165" y="431.336" width="65" height="59" stroke="#F2F4F7" stroke-opacity="0.1"/>
<rect x="337.165" y="431.336" width="65" height="59" stroke="#F2F4F7" stroke-opacity="0.1"/>
<rect x="402.165" y="431.336" width="65" height="59" stroke="#F2F4F7" stroke-opacity="0.1"/>
<rect x="467.165" y="431.336" width="65" height="59" stroke="#F2F4F7" stroke-opacity="0.1"/>
<rect x="532.165" y="431.336" width="65" height="59" stroke="#F2F4F7" stroke-opacity="0.1"/>
<rect x="597.165" y="431.336" width="65" height="59" stroke="#F2F4F7" stroke-opacity="0.1"/>
<rect x="662.165" y="431.336" width="65" height="59" stroke="#F2F4F7" stroke-opacity="0.1"/>
<rect x="727.165" y="431.336" width="65" height="59" stroke="#F2F4F7" stroke-opacity="0.1"/>
<rect x="792.165" y="431.336" width="65" height="59" stroke="#F2F4F7" stroke-opacity="0.1"/>
<rect x="857.165" y="431.336" width="65" height="59" stroke="#F2F4F7" stroke-opacity="0.1"/>
<rect x="922.165" y="431.336" width="65" height="59" stroke="#F2F4F7" stroke-opacity="0.1"/>
<rect x="987.165" y="431.336" width="65" height="59" stroke="#F2F4F7" stroke-opacity="0.1"/>
<rect x="1052.17" y="431.336" width="65" height="59" stroke="#F2F4F7" stroke-opacity="0.1"/>
<rect x="1117.17" y="431.336" width="65" height="59" stroke="#F2F4F7" stroke-opacity="0.1"/>
<rect x="272.165" y="490.336" width="65" height="59" stroke="#F2F4F7" stroke-opacity="0.1"/>
<rect x="337.165" y="490.336" width="65" height="59" stroke="#F2F4F7" stroke-opacity="0.1"/>
<rect x="402.165" y="490.336" width="65" height="59" stroke="#F2F4F7" stroke-opacity="0.1"/>
<rect x="467.165" y="490.336" width="65" height="59" stroke="#F2F4F7" stroke-opacity="0.1"/>
<rect x="532.165" y="490.336" width="65" height="59" stroke="#F2F4F7" stroke-opacity="0.1"/>
<rect x="597.165" y="490.336" width="65" height="59" stroke="#F2F4F7" stroke-opacity="0.1"/>
<rect x="662.165" y="490.336" width="65" height="59" stroke="#F2F4F7" stroke-opacity="0.1"/>
<rect x="727.165" y="490.336" width="65" height="59" stroke="#F2F4F7" stroke-opacity="0.1"/>
<rect x="792.165" y="490.336" width="65" height="59" stroke="#F2F4F7" stroke-opacity="0.1"/>
<rect x="857.165" y="490.336" width="65" height="59" stroke="#F2F4F7" stroke-opacity="0.1"/>
<rect x="922.165" y="490.336" width="65" height="59" stroke="#F2F4F7" stroke-opacity="0.1"/>
<rect x="987.165" y="490.336" width="65" height="59" stroke="#F2F4F7" stroke-opacity="0.1"/>
<rect x="1052.17" y="490.336" width="65" height="59" stroke="#F2F4F7" stroke-opacity="0.1"/>
<rect x="1117.17" y="490.336" width="65" height="59" stroke="#F2F4F7" stroke-opacity="0.1"/>
<rect x="272.165" y="549.336" width="65" height="59" stroke="#F2F4F7" stroke-opacity="0.1"/>
<rect x="337.165" y="549.336" width="65" height="59" stroke="#F2F4F7" stroke-opacity="0.1"/>
<rect x="402.165" y="549.336" width="65" height="59" stroke="#F2F4F7" stroke-opacity="0.1"/>
<rect x="467.165" y="549.336" width="65" height="59" stroke="#F2F4F7" stroke-opacity="0.1"/>
<rect x="532.165" y="549.336" width="65" height="59" stroke="#F2F4F7" stroke-opacity="0.1"/>
<rect x="597.165" y="549.336" width="65" height="59" stroke="#F2F4F7" stroke-opacity="0.1"/>
<rect x="662.165" y="549.336" width="65" height="59" stroke="#F2F4F7" stroke-opacity="0.1"/>
<rect x="727.165" y="549.336" width="65" height="59" stroke="#F2F4F7" stroke-opacity="0.1"/>
<rect x="792.165" y="549.336" width="65" height="59" stroke="#F2F4F7" stroke-opacity="0.1"/>
<rect x="857.165" y="549.336" width="65" height="59" stroke="#F2F4F7" stroke-opacity="0.1"/>
<rect x="922.165" y="549.336" width="65" height="59" stroke="#F2F4F7" stroke-opacity="0.1"/>
<rect x="987.165" y="549.336" width="65" height="59" stroke="#F2F4F7" stroke-opacity="0.1"/>
<rect x="1052.17" y="549.336" width="65" height="59" stroke="#F2F4F7" stroke-opacity="0.1"/>
<rect x="1117.17" y="549.336" width="65" height="59" stroke="#F2F4F7" stroke-opacity="0.1"/>
<path d="M272.165 608.336H1377.17V639.336H272.165V608.336Z" stroke="#F2F4F7" stroke-opacity="0.1"/>
<rect x="272.165" y="639.336" width="65" height="59" stroke="#F2F4F7" stroke-opacity="0.1"/>
<rect x="337.165" y="639.336" width="65" height="59" stroke="#F2F4F7" stroke-opacity="0.1"/>
<rect x="402.165" y="639.336" width="65" height="59" stroke="#F2F4F7" stroke-opacity="0.1"/>
<rect x="467.165" y="639.336" width="65" height="59" stroke="#F2F4F7" stroke-opacity="0.1"/>
<rect x="532.165" y="639.336" width="65" height="59" stroke="#F2F4F7" stroke-opacity="0.1"/>
<rect x="597.165" y="639.336" width="65" height="59" stroke="#F2F4F7" stroke-opacity="0.1"/>
<rect x="662.165" y="639.336" width="65" height="59" stroke="#F2F4F7" stroke-opacity="0.1"/>
<rect x="727.165" y="639.336" width="65" height="59" stroke="#F2F4F7" stroke-opacity="0.1"/>
<rect x="792.165" y="639.336" width="65" height="59" stroke="#F2F4F7" stroke-opacity="0.1"/>
<rect x="857.165" y="639.336" width="65" height="59" stroke="#F2F4F7" stroke-opacity="0.1"/>
<rect x="922.165" y="639.336" width="65" height="59" stroke="#F2F4F7" stroke-opacity="0.1"/>
<rect x="987.165" y="639.336" width="65" height="59" stroke="#F2F4F7" stroke-opacity="0.1"/>
<rect x="1052.17" y="639.336" width="65" height="59" stroke="#F2F4F7" stroke-opacity="0.1"/>
<rect x="1117.17" y="639.336" width="65" height="59" stroke="#F2F4F7" stroke-opacity="0.1"/>
<rect x="272.165" y="698.336" width="65" height="59" stroke="#F2F4F7" stroke-opacity="0.1"/>
<rect x="337.165" y="698.336" width="65" height="59" stroke="#F2F4F7" stroke-opacity="0.1"/>
<rect x="402.165" y="698.336" width="65" height="59" stroke="#F2F4F7" stroke-opacity="0.1"/>
<rect x="467.165" y="698.336" width="65" height="59" stroke="#F2F4F7" stroke-opacity="0.1"/>
<rect x="532.165" y="698.336" width="65" height="59" stroke="#F2F4F7" stroke-opacity="0.1"/>
<rect x="597.165" y="698.336" width="65" height="59" stroke="#F2F4F7" stroke-opacity="0.1"/>
<rect x="662.165" y="698.336" width="65" height="59" stroke="#F2F4F7" stroke-opacity="0.1"/>
<rect x="727.165" y="698.336" width="65" height="59" stroke="#F2F4F7" stroke-opacity="0.1"/>
<rect x="792.165" y="698.336" width="65" height="59" stroke="#F2F4F7" stroke-opacity="0.1"/>
<rect x="857.165" y="698.336" width="65" height="59" stroke="#F2F4F7" stroke-opacity="0.1"/>
<rect x="922.165" y="698.336" width="65" height="59" stroke="#F2F4F7" stroke-opacity="0.1"/>
<rect x="987.165" y="698.336" width="65" height="59" stroke="#F2F4F7" stroke-opacity="0.1"/>
<rect x="1052.17" y="698.336" width="65" height="59" stroke="#F2F4F7" stroke-opacity="0.1"/>
<rect x="1117.17" y="698.336" width="65" height="59" stroke="#F2F4F7" stroke-opacity="0.1"/>
<rect x="272.165" y="757.336" width="65" height="59" stroke="#F2F4F7" stroke-opacity="0.1"/>
<rect x="337.165" y="757.336" width="65" height="59" stroke="#F2F4F7" stroke-opacity="0.1"/>
<rect x="402.165" y="757.336" width="65" height="59" stroke="#F2F4F7" stroke-opacity="0.1"/>
<rect x="467.165" y="757.336" width="65" height="59" stroke="#F2F4F7" stroke-opacity="0.1"/>
<rect x="532.165" y="757.336" width="65" height="59" stroke="#F2F4F7" stroke-opacity="0.1"/>
<rect x="597.165" y="757.336" width="65" height="59" stroke="#F2F4F7" stroke-opacity="0.1"/>
<rect x="662.165" y="757.336" width="65" height="59" stroke="#F2F4F7" stroke-opacity="0.1"/>
<rect x="727.165" y="757.336" width="65" height="59" stroke="#F2F4F7" stroke-opacity="0.1"/>
<rect x="792.165" y="757.336" width="65" height="59" stroke="#F2F4F7" stroke-opacity="0.1"/>
<rect x="857.165" y="757.336" width="65" height="59" stroke="#F2F4F7" stroke-opacity="0.1"/>
<rect x="922.165" y="757.336" width="65" height="59" stroke="#F2F4F7" stroke-opacity="0.1"/>
<rect x="987.165" y="757.336" width="65" height="59" stroke="#F2F4F7" stroke-opacity="0.1"/>
<rect x="1052.17" y="757.336" width="65" height="59" stroke="#F2F4F7" stroke-opacity="0.1"/>
<rect x="1117.17" y="757.336" width="65" height="59" stroke="#F2F4F7" stroke-opacity="0.1"/>
</g>
<g opacity="0.2" clip-path="url(#clip2_3125_27739)">
<rect x="215.663" y="435.935" width="318" height="52" rx="4" fill="#337E89" fill-opacity="0.1"/>
<rect x="216.163" y="436.435" width="317" height="51" rx="3.5" stroke="#337E89" stroke-opacity="0.5"/>
<path d="M222.479 453.935V445.535H227.903V446.771H224.015V449.123H227.159V450.335H224.015V453.935H222.479ZM231.284 454.079C230.54 454.079 229.964 453.847 229.556 453.383C229.156 452.919 228.956 452.239 228.956 451.343V447.983H230.48V451.199C230.48 451.711 230.584 452.103 230.792 452.375C231 452.647 231.328 452.783 231.776 452.783C232.2 452.783 232.548 452.631 232.82 452.327C233.1 452.023 233.24 451.599 233.24 451.055V447.983H234.776V453.935H233.42L233.3 452.927C233.116 453.279 232.848 453.559 232.496 453.767C232.152 453.975 231.748 454.079 231.284 454.079ZM236.353 453.935V445.295H237.889V453.935H236.353ZM239.458 453.935V445.295H240.994V453.935H239.458ZM248.159 454.079C247.599 454.079 247.099 453.943 246.659 453.671C246.219 453.399 245.871 453.027 245.615 452.555C245.359 452.083 245.231 451.547 245.231 450.947C245.231 450.347 245.359 449.815 245.615 449.351C245.871 448.879 246.219 448.511 246.659 448.247C247.099 447.975 247.599 447.839 248.159 447.839C248.607 447.839 248.999 447.923 249.335 448.091C249.671 448.259 249.943 448.495 250.151 448.799V445.295H251.687V453.935H250.319L250.151 453.083C249.959 453.347 249.703 453.579 249.383 453.779C249.071 453.979 248.663 454.079 248.159 454.079ZM248.483 452.735C248.979 452.735 249.383 452.571 249.695 452.243C250.015 451.907 250.175 451.479 250.175 450.959C250.175 450.439 250.015 450.015 249.695 449.687C249.383 449.351 248.979 449.183 248.483 449.183C247.995 449.183 247.591 449.347 247.271 449.675C246.951 450.003 246.791 450.427 246.791 450.947C246.791 451.467 246.951 451.895 247.271 452.231C247.591 452.567 247.995 452.735 248.483 452.735ZM255.303 454.079C254.791 454.079 254.371 453.999 254.043 453.839C253.715 453.671 253.471 453.451 253.311 453.179C253.151 452.907 253.071 452.607 253.071 452.279C253.071 451.727 253.287 451.279 253.719 450.935C254.151 450.591 254.799 450.419 255.663 450.419H257.175V450.275C257.175 449.867 257.059 449.567 256.827 449.375C256.595 449.183 256.307 449.087 255.963 449.087C255.651 449.087 255.379 449.163 255.147 449.315C254.915 449.459 254.771 449.675 254.715 449.963H253.215C253.255 449.531 253.399 449.155 253.647 448.835C253.903 448.515 254.231 448.271 254.631 448.103C255.031 447.927 255.479 447.839 255.975 447.839C256.823 447.839 257.491 448.051 257.979 448.475C258.467 448.899 258.711 449.499 258.711 450.275V453.935H257.403L257.259 452.975C257.083 453.295 256.835 453.559 256.515 453.767C256.203 453.975 255.799 454.079 255.303 454.079ZM255.651 452.879C256.091 452.879 256.431 452.735 256.671 452.447C256.919 452.159 257.075 451.803 257.139 451.379H255.831C255.423 451.379 255.131 451.455 254.955 451.607C254.779 451.751 254.691 451.931 254.691 452.147C254.691 452.379 254.779 452.559 254.955 452.687C255.131 452.815 255.363 452.879 255.651 452.879ZM260.722 456.575L262.102 453.539H261.742L259.426 447.983H261.094L262.762 452.171L264.502 447.983H266.134L262.354 456.575H260.722Z" fill="#595959"/>
<path d="M225.323 470.079C224.771 470.079 224.275 469.979 223.835 469.779C223.395 469.571 223.047 469.287 222.791 468.927C222.543 468.559 222.419 468.135 222.419 467.655C222.419 467.143 222.567 466.683 222.863 466.275C223.167 465.867 223.567 465.595 224.063 465.459C223.607 465.307 223.255 465.063 223.007 464.727C222.759 464.391 222.635 464.023 222.635 463.623C222.635 463.215 222.743 462.843 222.959 462.507C223.175 462.163 223.483 461.891 223.883 461.691C224.283 461.491 224.763 461.391 225.323 461.391C225.883 461.391 226.363 461.491 226.763 461.691C227.163 461.891 227.471 462.163 227.687 462.507C227.903 462.843 228.011 463.215 228.011 463.623C228.011 464.015 227.887 464.383 227.639 464.727C227.391 465.063 227.039 465.307 226.583 465.459C227.079 465.595 227.475 465.867 227.771 466.275C228.075 466.683 228.227 467.143 228.227 467.655C228.227 468.135 228.099 468.559 227.843 468.927C227.595 469.287 227.251 469.571 226.811 469.779C226.371 469.979 225.875 470.079 225.323 470.079ZM225.323 465.099C225.835 465.099 226.239 464.971 226.535 464.715C226.839 464.451 226.991 464.107 226.991 463.683C226.991 463.211 226.843 462.855 226.547 462.615C226.251 462.375 225.843 462.255 225.323 462.255C224.803 462.255 224.395 462.375 224.099 462.615C223.811 462.855 223.667 463.211 223.667 463.683C223.667 464.107 223.815 464.451 224.111 464.715C224.407 464.971 224.811 465.099 225.323 465.099ZM225.323 469.191C225.955 469.191 226.427 469.047 226.739 468.759C227.059 468.463 227.219 468.075 227.219 467.595C227.219 467.051 227.047 466.639 226.703 466.359C226.359 466.079 225.899 465.939 225.323 465.939C224.747 465.939 224.287 466.079 223.943 466.359C223.599 466.639 223.427 467.051 223.427 467.595C223.427 468.075 223.583 468.463 223.895 468.759C224.215 469.047 224.691 469.191 225.323 469.191ZM230.163 469.995C229.963 469.995 229.795 469.931 229.659 469.803C229.531 469.667 229.467 469.503 229.467 469.311C229.467 469.119 229.531 468.959 229.659 468.831C229.795 468.695 229.963 468.627 230.163 468.627C230.355 468.627 230.515 468.695 230.643 468.831C230.779 468.959 230.847 469.119 230.847 469.311C230.847 469.503 230.779 469.667 230.643 469.803C230.515 469.931 230.355 469.995 230.163 469.995ZM230.163 465.207C229.963 465.207 229.795 465.143 229.659 465.015C229.531 464.879 229.467 464.715 229.467 464.523C229.467 464.331 229.531 464.171 229.659 464.043C229.795 463.907 229.963 463.839 230.163 463.839C230.355 463.839 230.515 463.907 230.643 464.043C230.779 464.171 230.847 464.331 230.847 464.523C230.847 464.715 230.779 464.879 230.643 465.015C230.515 465.143 230.355 465.207 230.163 465.207ZM235.541 470.079C234.797 470.079 234.153 469.899 233.609 469.539C233.073 469.171 232.661 468.663 232.373 468.015C232.085 467.359 231.941 466.599 231.941 465.735C231.941 464.871 232.085 464.115 232.373 463.467C232.661 462.811 233.073 462.303 233.609 461.943C234.153 461.575 234.797 461.391 235.541 461.391C236.285 461.391 236.925 461.575 237.461 461.943C237.997 462.303 238.409 462.811 238.697 463.467C238.985 464.115 239.129 464.871 239.129 465.735C239.129 466.599 238.985 467.359 238.697 468.015C238.409 468.663 237.997 469.171 237.461 469.539C236.925 469.899 236.285 470.079 235.541 470.079ZM235.541 469.191C236.029 469.191 236.465 469.055 236.849 468.783C237.241 468.503 237.545 468.107 237.761 467.595C237.985 467.075 238.097 466.455 238.097 465.735C238.097 465.015 237.985 464.399 237.761 463.887C237.545 463.375 237.241 462.983 236.849 462.711C236.465 462.431 236.029 462.291 235.541 462.291C235.045 462.291 234.605 462.431 234.221 462.711C233.837 462.983 233.533 463.375 233.309 463.887C233.085 464.399 232.973 465.015 232.973 465.735C232.973 466.455 233.085 467.075 233.309 467.595C233.533 468.107 233.837 468.503 234.221 468.783C234.605 469.055 235.045 469.191 235.541 469.191ZM243.862 470.079C243.118 470.079 242.474 469.899 241.93 469.539C241.394 469.171 240.982 468.663 240.694 468.015C240.406 467.359 240.262 466.599 240.262 465.735C240.262 464.871 240.406 464.115 240.694 463.467C240.982 462.811 241.394 462.303 241.93 461.943C242.474 461.575 243.118 461.391 243.862 461.391C244.606 461.391 245.246 461.575 245.782 461.943C246.318 462.303 246.73 462.811 247.018 463.467C247.306 464.115 247.45 464.871 247.45 465.735C247.45 466.599 247.306 467.359 247.018 468.015C246.73 468.663 246.318 469.171 245.782 469.539C245.246 469.899 244.606 470.079 243.862 470.079ZM243.862 469.191C244.35 469.191 244.786 469.055 245.17 468.783C245.562 468.503 245.866 468.107 246.082 467.595C246.306 467.075 246.418 466.455 246.418 465.735C246.418 465.015 246.306 464.399 246.082 463.887C245.866 463.375 245.562 462.983 245.17 462.711C244.786 462.431 244.35 462.291 243.862 462.291C243.366 462.291 242.926 462.431 242.542 462.711C242.158 462.983 241.854 463.375 241.63 463.887C241.406 464.399 241.294 465.015 241.294 465.735C241.294 466.455 241.406 467.075 241.63 467.595C241.854 468.107 242.158 468.503 242.542 468.783C242.926 469.055 243.366 469.191 243.862 469.191ZM251.902 466.875V466.023H256.654V466.875H251.902ZM262.238 469.935V462.663L260.882 462.963V462.267L262.574 461.535H263.258V469.935H262.238ZM268.055 470.079C267.447 470.079 266.935 469.967 266.519 469.743C266.103 469.511 265.767 469.203 265.511 468.819C265.263 468.435 265.079 468.007 264.959 467.535C264.847 467.055 264.791 466.567 264.791 466.071C264.791 465.143 264.919 464.331 265.175 463.635C265.431 462.931 265.799 462.383 266.279 461.991C266.767 461.591 267.355 461.391 268.043 461.391C268.571 461.391 269.023 461.495 269.399 461.703C269.775 461.911 270.071 462.191 270.287 462.543C270.511 462.887 270.651 463.271 270.707 463.695H269.771C269.683 463.239 269.487 462.887 269.183 462.639C268.879 462.391 268.495 462.267 268.031 462.267C267.399 462.267 266.867 462.567 266.435 463.167C266.011 463.759 265.783 464.687 265.751 465.951C265.943 465.575 266.247 465.251 266.663 464.979C267.087 464.699 267.595 464.559 268.187 464.559C268.667 464.559 269.115 464.671 269.531 464.895C269.955 465.119 270.299 465.435 270.563 465.843C270.827 466.243 270.959 466.715 270.959 467.259C270.959 467.731 270.843 468.183 270.611 468.615C270.379 469.047 270.043 469.399 269.603 469.671C269.171 469.943 268.655 470.079 268.055 470.079ZM267.983 469.191C268.359 469.191 268.695 469.111 268.991 468.951C269.287 468.791 269.519 468.571 269.687 468.291C269.855 468.003 269.939 467.675 269.939 467.307C269.939 466.739 269.751 466.287 269.375 465.951C269.007 465.607 268.543 465.435 267.983 465.435C267.607 465.435 267.271 465.523 266.975 465.699C266.679 465.867 266.443 466.095 266.267 466.383C266.099 466.671 266.015 466.983 266.015 467.319C266.015 467.679 266.099 468.003 266.267 468.291C266.443 468.571 266.679 468.791 266.975 468.951C267.271 469.111 267.607 469.191 267.983 469.191ZM272.878 469.995C272.678 469.995 272.51 469.931 272.374 469.803C272.246 469.667 272.182 469.503 272.182 469.311C272.182 469.119 272.246 468.959 272.374 468.831C272.51 468.695 272.678 468.627 272.878 468.627C273.07 468.627 273.23 468.695 273.358 468.831C273.494 468.959 273.562 469.119 273.562 469.311C273.562 469.503 273.494 469.667 273.358 469.803C273.23 469.931 273.07 469.995 272.878 469.995ZM272.878 465.207C272.678 465.207 272.51 465.143 272.374 465.015C272.246 464.879 272.182 464.715 272.182 464.523C272.182 464.331 272.246 464.171 272.374 464.043C272.51 463.907 272.678 463.839 272.878 463.839C273.07 463.839 273.23 463.907 273.358 464.043C273.494 464.171 273.562 464.331 273.562 464.523C273.562 464.715 273.494 464.879 273.358 465.015C273.23 465.143 273.07 465.207 272.878 465.207ZM278.256 470.079C277.512 470.079 276.868 469.899 276.324 469.539C275.788 469.171 275.376 468.663 275.088 468.015C274.8 467.359 274.656 466.599 274.656 465.735C274.656 464.871 274.8 464.115 275.088 463.467C275.376 462.811 275.788 462.303 276.324 461.943C276.868 461.575 277.512 461.391 278.256 461.391C279 461.391 279.64 461.575 280.176 461.943C280.712 462.303 281.124 462.811 281.412 463.467C281.7 464.115 281.844 464.871 281.844 465.735C281.844 466.599 281.7 467.359 281.412 468.015C281.124 468.663 280.712 469.171 280.176 469.539C279.64 469.899 279 470.079 278.256 470.079ZM278.256 469.191C278.744 469.191 279.18 469.055 279.564 468.783C279.956 468.503 280.26 468.107 280.476 467.595C280.7 467.075 280.812 466.455 280.812 465.735C280.812 465.015 280.7 464.399 280.476 463.887C280.26 463.375 279.956 462.983 279.564 462.711C279.18 462.431 278.744 462.291 278.256 462.291C277.76 462.291 277.32 462.431 276.936 462.711C276.552 462.983 276.248 463.375 276.024 463.887C275.8 464.399 275.688 465.015 275.688 465.735C275.688 466.455 275.8 467.075 276.024 467.595C276.248 468.107 276.552 468.503 276.936 468.783C277.32 469.055 277.76 469.191 278.256 469.191ZM286.577 470.079C285.833 470.079 285.189 469.899 284.645 469.539C284.109 469.171 283.697 468.663 283.409 468.015C283.121 467.359 282.977 466.599 282.977 465.735C282.977 464.871 283.121 464.115 283.409 463.467C283.697 462.811 284.109 462.303 284.645 461.943C285.189 461.575 285.833 461.391 286.577 461.391C287.321 461.391 287.961 461.575 288.497 461.943C289.033 462.303 289.445 462.811 289.733 463.467C290.021 464.115 290.165 464.871 290.165 465.735C290.165 466.599 290.021 467.359 289.733 468.015C289.445 468.663 289.033 469.171 288.497 469.539C287.961 469.899 287.321 470.079 286.577 470.079ZM286.577 469.191C287.065 469.191 287.501 469.055 287.885 468.783C288.277 468.503 288.581 468.107 288.797 467.595C289.021 467.075 289.133 466.455 289.133 465.735C289.133 465.015 289.021 464.399 288.797 463.887C288.581 463.375 288.277 462.983 287.885 462.711C287.501 462.431 287.065 462.291 286.577 462.291C286.081 462.291 285.641 462.431 285.257 462.711C284.873 462.983 284.569 463.375 284.345 463.887C284.121 464.399 284.009 465.015 284.009 465.735C284.009 466.455 284.121 467.075 284.345 467.595C284.569 468.107 284.873 468.503 285.257 468.783C285.641 469.055 286.081 469.191 286.577 469.191Z" fill="#747474"/>
</g>
<g opacity="0.2" clip-path="url(#clip3_3125_27739)">
<rect x="1051.11" y="383.444" width="135" height="52" rx="4" fill="#FFAE00" fill-opacity="0.1"/>
<rect x="1051.61" y="383.944" width="134" height="51" rx="3.5" stroke="#FFAE00" stroke-opacity="0.5"/>
<path d="M1057.37 401.444L1060.44 393.044H1062.28L1065.34 401.444H1063.62L1061.36 394.892L1059.08 401.444H1057.37ZM1058.73 399.536L1059.16 398.276H1063.43L1063.85 399.536H1058.73ZM1068.81 401.588C1068.26 401.588 1067.77 401.452 1067.33 401.18C1066.89 400.908 1066.55 400.532 1066.31 400.052C1066.06 399.572 1065.93 399.032 1065.93 398.432C1065.93 397.816 1066.06 397.272 1066.31 396.8C1066.56 396.32 1066.91 395.944 1067.35 395.672C1067.8 395.392 1068.3 395.252 1068.85 395.252C1069.28 395.252 1069.66 395.332 1069.99 395.492C1070.32 395.652 1070.58 395.88 1070.78 396.176V392.804H1072.4V401.444H1070.96L1070.78 400.616C1070.66 400.784 1070.51 400.944 1070.33 401.096C1070.15 401.248 1069.94 401.368 1069.69 401.456C1069.44 401.544 1069.15 401.588 1068.81 401.588ZM1069.2 400.172C1069.52 400.172 1069.8 400.1 1070.04 399.956C1070.29 399.804 1070.48 399.596 1070.61 399.332C1070.75 399.068 1070.82 398.764 1070.82 398.42C1070.82 398.076 1070.75 397.772 1070.61 397.508C1070.48 397.244 1070.29 397.04 1070.04 396.896C1069.8 396.744 1069.52 396.668 1069.2 396.668C1068.89 396.668 1068.62 396.744 1068.37 396.896C1068.12 397.04 1067.93 397.244 1067.78 397.508C1067.65 397.772 1067.58 398.072 1067.58 398.408C1067.58 398.76 1067.65 399.068 1067.78 399.332C1067.93 399.596 1068.12 399.804 1068.36 399.956C1068.61 400.1 1068.89 400.172 1069.2 400.172ZM1075.61 401.444L1073.39 395.396H1075.09L1076.59 399.92L1078.09 395.396H1079.79L1077.58 401.444H1075.61ZM1082.45 401.588C1081.95 401.588 1081.53 401.508 1081.2 401.348C1080.88 401.18 1080.63 400.96 1080.47 400.688C1080.32 400.408 1080.24 400.1 1080.24 399.764C1080.24 399.396 1080.34 399.072 1080.52 398.792C1080.71 398.512 1081 398.292 1081.37 398.132C1081.76 397.972 1082.24 397.892 1082.81 397.892H1084.31C1084.31 397.596 1084.27 397.352 1084.19 397.16C1084.11 396.96 1083.99 396.812 1083.82 396.716C1083.65 396.62 1083.43 396.572 1083.15 396.572C1082.84 396.572 1082.58 396.64 1082.37 396.776C1082.16 396.904 1082.03 397.104 1081.98 397.376H1080.41C1080.45 396.944 1080.59 396.572 1080.83 396.26C1081.08 395.94 1081.4 395.692 1081.8 395.516C1082.21 395.34 1082.66 395.252 1083.16 395.252C1083.73 395.252 1084.22 395.348 1084.64 395.54C1085.05 395.732 1085.37 396.008 1085.6 396.368C1085.82 396.728 1085.93 397.172 1085.93 397.7V401.444H1084.56L1084.38 400.52C1084.3 400.68 1084.19 400.824 1084.07 400.952C1083.95 401.08 1083.81 401.192 1083.65 401.288C1083.49 401.384 1083.31 401.456 1083.11 401.504C1082.91 401.56 1082.69 401.588 1082.45 401.588ZM1082.84 400.34C1083.04 400.34 1083.23 400.304 1083.39 400.232C1083.56 400.152 1083.7 400.048 1083.82 399.92C1083.94 399.784 1084.03 399.632 1084.1 399.464C1084.17 399.288 1084.22 399.1 1084.24 398.9V398.888H1083C1082.76 398.888 1082.55 398.92 1082.39 398.984C1082.24 399.04 1082.13 399.124 1082.06 399.236C1081.98 399.348 1081.95 399.476 1081.95 399.62C1081.95 399.78 1081.98 399.912 1082.06 400.016C1082.13 400.12 1082.23 400.2 1082.37 400.256C1082.5 400.312 1082.66 400.34 1082.84 400.34ZM1087.44 401.444V395.396H1088.87L1088.99 396.38C1089.17 396.044 1089.43 395.772 1089.77 395.564C1090.11 395.356 1090.52 395.252 1090.99 395.252C1091.5 395.252 1091.92 395.356 1092.27 395.564C1092.61 395.772 1092.87 396.076 1093.05 396.476C1093.23 396.876 1093.32 397.368 1093.32 397.952V401.444H1091.71V398.108C1091.71 397.628 1091.61 397.26 1091.4 397.004C1091.2 396.748 1090.89 396.62 1090.47 396.62C1090.19 396.62 1089.95 396.684 1089.73 396.812C1089.53 396.94 1089.36 397.124 1089.24 397.364C1089.12 397.596 1089.06 397.88 1089.06 398.216V401.444H1087.44ZM1097.78 401.588C1097.17 401.588 1096.63 401.452 1096.16 401.18C1095.68 400.908 1095.32 400.536 1095.05 400.064C1094.79 399.592 1094.66 399.052 1094.66 398.444C1094.66 397.82 1094.79 397.272 1095.05 396.8C1095.32 396.32 1095.68 395.944 1096.16 395.672C1096.63 395.392 1097.17 395.252 1097.78 395.252C1098.55 395.252 1099.2 395.456 1099.73 395.864C1100.26 396.272 1100.6 396.832 1100.74 397.544H1099.02C1098.95 397.264 1098.8 397.044 1098.57 396.884C1098.34 396.724 1098.08 396.644 1097.76 396.644C1097.48 396.644 1097.23 396.716 1097.01 396.86C1096.79 396.996 1096.62 397.2 1096.49 397.472C1096.37 397.736 1096.31 398.052 1096.31 398.42C1096.31 398.7 1096.35 398.952 1096.42 399.176C1096.49 399.392 1096.59 399.58 1096.72 399.74C1096.85 399.892 1097 400.008 1097.18 400.088C1097.36 400.168 1097.56 400.208 1097.76 400.208C1097.97 400.208 1098.16 400.172 1098.33 400.1C1098.5 400.028 1098.65 399.928 1098.77 399.8C1098.89 399.664 1098.98 399.5 1099.02 399.308H1100.74C1100.6 400.004 1100.26 400.56 1099.72 400.976C1099.19 401.384 1098.54 401.588 1097.78 401.588ZM1105.04 401.588C1104.43 401.588 1103.89 401.46 1103.42 401.204C1102.96 400.94 1102.59 400.576 1102.33 400.112C1102.07 399.64 1101.95 399.096 1101.95 398.48C1101.95 397.848 1102.07 397.292 1102.33 396.812C1102.59 396.324 1102.95 395.944 1103.41 395.672C1103.88 395.392 1104.43 395.252 1105.04 395.252C1105.64 395.252 1106.17 395.384 1106.61 395.648C1107.06 395.912 1107.41 396.268 1107.66 396.716C1107.91 397.164 1108.03 397.672 1108.03 398.24C1108.03 398.32 1108.03 398.412 1108.03 398.516C1108.03 398.612 1108.02 398.712 1108.01 398.816H1103.1V397.832H1106.4C1106.37 397.44 1106.23 397.132 1105.98 396.908C1105.73 396.684 1105.42 396.572 1105.04 396.572C1104.77 396.572 1104.52 396.636 1104.29 396.764C1104.05 396.884 1103.87 397.072 1103.73 397.328C1103.61 397.584 1103.54 397.908 1103.54 398.3V398.648C1103.54 398.976 1103.6 399.264 1103.72 399.512C1103.85 399.752 1104.03 399.94 1104.25 400.076C1104.47 400.204 1104.73 400.268 1105.03 400.268C1105.33 400.268 1105.57 400.204 1105.76 400.076C1105.96 399.948 1106.11 399.784 1106.21 399.584H1107.86C1107.75 399.96 1107.56 400.3 1107.3 400.604C1107.03 400.908 1106.71 401.148 1106.33 401.324C1105.94 401.5 1105.51 401.588 1105.04 401.588ZM1112.04 401.588C1111.49 401.588 1111 401.452 1110.56 401.18C1110.12 400.908 1109.78 400.532 1109.54 400.052C1109.29 399.572 1109.16 399.032 1109.16 398.432C1109.16 397.816 1109.29 397.272 1109.54 396.8C1109.79 396.32 1110.14 395.944 1110.58 395.672C1111.03 395.392 1111.53 395.252 1112.08 395.252C1112.51 395.252 1112.89 395.332 1113.22 395.492C1113.55 395.652 1113.81 395.88 1114.01 396.176V392.804H1115.63V401.444H1114.19L1114.01 400.616C1113.89 400.784 1113.74 400.944 1113.56 401.096C1113.38 401.248 1113.17 401.368 1112.92 401.456C1112.67 401.544 1112.38 401.588 1112.04 401.588ZM1112.43 400.172C1112.75 400.172 1113.03 400.1 1113.27 399.956C1113.52 399.804 1113.71 399.596 1113.84 399.332C1113.98 399.068 1114.05 398.764 1114.05 398.42C1114.05 398.076 1113.98 397.772 1113.84 397.508C1113.71 397.244 1113.52 397.04 1113.27 396.896C1113.03 396.744 1112.75 396.668 1112.43 396.668C1112.12 396.668 1111.85 396.744 1111.6 396.896C1111.35 397.04 1111.16 397.244 1111.01 397.508C1110.88 397.772 1110.81 398.072 1110.81 398.408C1110.81 398.76 1110.88 399.068 1111.01 399.332C1111.16 399.596 1111.35 399.804 1111.59 399.956C1111.84 400.1 1112.12 400.172 1112.43 400.172ZM1122.97 401.588C1122.36 401.588 1121.82 401.484 1121.34 401.276C1120.87 401.068 1120.49 400.764 1120.21 400.364C1119.94 399.964 1119.8 399.48 1119.79 398.912H1121.51C1121.52 399.16 1121.58 399.384 1121.7 399.584C1121.82 399.784 1121.98 399.944 1122.19 400.064C1122.41 400.176 1122.66 400.232 1122.96 400.232C1123.22 400.232 1123.44 400.192 1123.62 400.112C1123.81 400.024 1123.96 399.904 1124.06 399.752C1124.17 399.6 1124.22 399.42 1124.22 399.212C1124.22 398.972 1124.16 398.772 1124.04 398.612C1123.93 398.452 1123.77 398.316 1123.56 398.204C1123.36 398.092 1123.12 397.992 1122.85 397.904C1122.59 397.808 1122.31 397.708 1122.01 397.604C1121.35 397.388 1120.84 397.1 1120.49 396.74C1120.14 396.38 1119.97 395.904 1119.97 395.312C1119.97 394.808 1120.09 394.376 1120.33 394.016C1120.58 393.656 1120.92 393.38 1121.35 393.188C1121.78 392.996 1122.28 392.9 1122.83 392.9C1123.4 392.9 1123.89 393 1124.32 393.2C1124.75 393.392 1125.09 393.672 1125.34 394.04C1125.59 394.408 1125.72 394.84 1125.73 395.336H1124C1124 395.152 1123.94 394.98 1123.84 394.82C1123.74 394.652 1123.6 394.52 1123.43 394.424C1123.25 394.32 1123.04 394.268 1122.8 394.268C1122.6 394.26 1122.4 394.292 1122.23 394.364C1122.06 394.436 1121.92 394.544 1121.82 394.688C1121.72 394.824 1121.68 394.996 1121.68 395.204C1121.68 395.404 1121.72 395.572 1121.82 395.708C1121.92 395.844 1122.06 395.964 1122.24 396.068C1122.42 396.164 1122.62 396.256 1122.86 396.344C1123.1 396.424 1123.36 396.508 1123.64 396.596C1124.06 396.74 1124.44 396.912 1124.8 397.112C1125.15 397.304 1125.43 397.556 1125.64 397.868C1125.84 398.18 1125.95 398.592 1125.95 399.104C1125.95 399.544 1125.83 399.952 1125.6 400.328C1125.37 400.704 1125.03 401.008 1124.59 401.24C1124.16 401.472 1123.62 401.588 1122.97 401.588ZM1128.47 401.444L1126.7 395.396H1128.29L1129.47 400.304L1129.17 400.292L1130.51 395.396H1132.31L1133.66 400.292L1133.35 400.304L1134.53 395.396H1136.13L1134.35 401.444H1132.67L1131.25 396.404H1131.58L1130.15 401.444H1128.47ZM1137.17 401.444V395.396H1138.79V401.444H1137.17ZM1137.98 394.568C1137.69 394.568 1137.45 394.484 1137.26 394.316C1137.08 394.14 1136.99 393.92 1136.99 393.656C1136.99 393.392 1137.08 393.176 1137.26 393.008C1137.45 392.832 1137.69 392.744 1137.98 392.744C1138.28 392.744 1138.52 392.832 1138.7 393.008C1138.89 393.176 1138.99 393.392 1138.99 393.656C1138.99 393.92 1138.89 394.14 1138.7 394.316C1138.52 394.484 1138.28 394.568 1137.98 394.568ZM1140.42 401.444V395.396H1141.85L1141.98 396.2C1142.17 395.912 1142.43 395.684 1142.74 395.516C1143.06 395.34 1143.42 395.252 1143.83 395.252C1144.13 395.252 1144.41 395.292 1144.65 395.372C1144.89 395.452 1145.1 395.568 1145.28 395.72C1145.47 395.872 1145.63 396.064 1145.75 396.296C1145.97 395.968 1146.27 395.712 1146.63 395.528C1146.99 395.344 1147.38 395.252 1147.8 395.252C1148.33 395.252 1148.77 395.36 1149.12 395.576C1149.47 395.784 1149.74 396.088 1149.91 396.488C1150.1 396.888 1150.19 397.38 1150.19 397.964V401.444H1148.58V398.108C1148.58 397.628 1148.49 397.26 1148.29 397.004C1148.11 396.748 1147.82 396.62 1147.43 396.62C1147.17 396.62 1146.95 396.684 1146.75 396.812C1146.55 396.94 1146.39 397.124 1146.28 397.364C1146.17 397.604 1146.12 397.892 1146.12 398.228V401.444H1144.5V398.108C1144.5 397.628 1144.41 397.26 1144.21 397.004C1144.02 396.748 1143.73 396.62 1143.33 396.62C1143.08 396.62 1142.85 396.684 1142.65 396.812C1142.46 396.94 1142.31 397.124 1142.2 397.364C1142.09 397.604 1142.04 397.892 1142.04 398.228V401.444H1140.42ZM1151.72 401.444V395.396H1153.15L1153.28 396.2C1153.47 395.912 1153.72 395.684 1154.04 395.516C1154.36 395.34 1154.72 395.252 1155.13 395.252C1155.43 395.252 1155.7 395.292 1155.94 395.372C1156.18 395.452 1156.4 395.568 1156.58 395.72C1156.77 395.872 1156.93 396.064 1157.05 396.296C1157.27 395.968 1157.56 395.712 1157.92 395.528C1158.28 395.344 1158.68 395.252 1159.1 395.252C1159.63 395.252 1160.07 395.36 1160.42 395.576C1160.77 395.784 1161.04 396.088 1161.21 396.488C1161.4 396.888 1161.49 397.38 1161.49 397.964V401.444H1159.88V398.108C1159.88 397.628 1159.78 397.26 1159.59 397.004C1159.41 396.748 1159.12 396.62 1158.73 396.62C1158.47 396.62 1158.24 396.684 1158.04 396.812C1157.84 396.94 1157.69 397.124 1157.58 397.364C1157.47 397.604 1157.42 397.892 1157.42 398.228V401.444H1155.8V398.108C1155.8 397.628 1155.7 397.26 1155.51 397.004C1155.32 396.748 1155.02 396.62 1154.62 396.62C1154.38 396.62 1154.15 396.684 1153.95 396.812C1153.76 396.94 1153.61 397.124 1153.5 397.364C1153.39 397.604 1153.34 397.892 1153.34 398.228V401.444H1151.72ZM1163.05 401.444V395.396H1164.67V401.444H1163.05ZM1163.87 394.568C1163.58 394.568 1163.34 394.484 1163.15 394.316C1162.96 394.14 1162.87 393.92 1162.87 393.656C1162.87 393.392 1162.96 393.176 1163.15 393.008C1163.34 392.832 1163.58 392.744 1163.87 392.744C1164.16 392.744 1164.4 392.832 1164.59 393.008C1164.78 393.176 1164.88 393.392 1164.88 393.656C1164.88 393.92 1164.78 394.14 1164.59 394.316C1164.4 394.484 1164.16 394.568 1163.87 394.568ZM1166.31 401.444V395.396H1167.74L1167.86 396.38C1168.04 396.044 1168.3 395.772 1168.64 395.564C1168.98 395.356 1169.39 395.252 1169.86 395.252C1170.37 395.252 1170.79 395.356 1171.13 395.564C1171.48 395.772 1171.74 396.076 1171.91 396.476C1172.1 396.876 1172.19 397.368 1172.19 397.952V401.444H1170.58V398.108C1170.58 397.628 1170.48 397.26 1170.27 397.004C1170.07 396.748 1169.76 396.62 1169.33 396.62C1169.06 396.62 1168.82 396.684 1168.6 396.812C1168.39 396.94 1168.23 397.124 1168.11 397.364C1167.99 397.596 1167.93 397.88 1167.93 398.216V401.444H1166.31ZM1176.32 404.228C1175.74 404.228 1175.24 404.156 1174.81 404.012C1174.38 403.876 1174.04 403.664 1173.8 403.376C1173.57 403.096 1173.45 402.748 1173.45 402.332C1173.45 402.052 1173.52 401.788 1173.67 401.54C1173.81 401.292 1174.02 401.068 1174.29 400.868C1174.57 400.66 1174.92 400.484 1175.34 400.34L1175.95 401.132C1175.58 401.252 1175.31 401.4 1175.14 401.576C1174.98 401.76 1174.9 401.956 1174.9 402.164C1174.9 402.348 1174.96 402.504 1175.08 402.632C1175.21 402.76 1175.38 402.852 1175.59 402.908C1175.8 402.972 1176.04 403.004 1176.31 403.004C1176.56 403.004 1176.78 402.972 1176.97 402.908C1177.16 402.844 1177.31 402.748 1177.41 402.62C1177.52 402.5 1177.58 402.356 1177.58 402.188C1177.58 401.972 1177.5 401.796 1177.35 401.66C1177.2 401.524 1176.9 401.44 1176.44 401.408C1176.03 401.376 1175.67 401.332 1175.35 401.276C1175.04 401.212 1174.76 401.14 1174.52 401.06C1174.28 400.972 1174.08 400.876 1173.91 400.772C1173.75 400.668 1173.62 400.564 1173.51 400.46V400.184L1174.8 398.804L1175.96 399.176L1174.45 400.664L1174.9 399.872C1174.99 399.92 1175.08 399.968 1175.16 400.016C1175.24 400.056 1175.35 400.096 1175.48 400.136C1175.61 400.168 1175.78 400.2 1175.98 400.232C1176.19 400.264 1176.46 400.292 1176.78 400.316C1177.3 400.364 1177.74 400.464 1178.07 400.616C1178.42 400.768 1178.67 400.972 1178.83 401.228C1178.99 401.476 1179.07 401.784 1179.07 402.152C1179.07 402.512 1178.97 402.848 1178.77 403.16C1178.58 403.48 1178.28 403.736 1177.87 403.928C1177.46 404.128 1176.94 404.228 1176.32 404.228ZM1176.32 399.656C1175.82 399.656 1175.38 399.56 1175.01 399.368C1174.65 399.168 1174.37 398.904 1174.17 398.576C1173.98 398.24 1173.88 397.868 1173.88 397.46C1173.88 397.052 1173.98 396.684 1174.17 396.356C1174.37 396.02 1174.65 395.752 1175.01 395.552C1175.38 395.352 1175.82 395.252 1176.32 395.252C1176.83 395.252 1177.27 395.352 1177.63 395.552C1178 395.752 1178.28 396.02 1178.47 396.356C1178.66 396.684 1178.76 397.052 1178.76 397.46C1178.76 397.868 1178.66 398.24 1178.47 398.576C1178.28 398.904 1178 399.168 1177.63 399.368C1177.27 399.56 1176.83 399.656 1176.32 399.656ZM1176.32 398.42C1176.63 398.42 1176.88 398.34 1177.08 398.18C1177.27 398.02 1177.36 397.784 1177.36 397.472C1177.36 397.16 1177.27 396.924 1177.08 396.764C1176.88 396.596 1176.63 396.512 1176.32 396.512C1176.02 396.512 1175.76 396.596 1175.56 396.764C1175.37 396.924 1175.28 397.16 1175.28 397.472C1175.28 397.784 1175.37 398.02 1175.56 398.18C1175.76 398.34 1176.02 398.42 1176.32 398.42ZM1177.33 396.548L1177.06 395.396H1179.55V396.356L1177.33 396.548Z" fill="#FFAE00"/>
</g>
<g opacity="0.2" clip-path="url(#clip4_3125_27739)">
<rect x="335.012" y="383.444" width="188" height="52" rx="4" fill="#FFAE00" fill-opacity="0.1"/>
<rect x="335.512" y="383.944" width="187" height="51" rx="3.5" stroke="#FFAE00" stroke-opacity="0.5"/>
<path d="M344.732 401.588C344.124 401.588 343.58 401.484 343.1 401.276C342.628 401.068 342.252 400.764 341.972 400.364C341.7 399.964 341.56 399.48 341.552 398.912H343.268C343.276 399.16 343.34 399.384 343.46 399.584C343.58 399.784 343.744 399.944 343.952 400.064C344.168 400.176 344.424 400.232 344.72 400.232C344.976 400.232 345.196 400.192 345.38 400.112C345.572 400.024 345.72 399.904 345.824 399.752C345.928 399.6 345.98 399.42 345.98 399.212C345.98 398.972 345.92 398.772 345.8 398.612C345.688 398.452 345.528 398.316 345.32 398.204C345.12 398.092 344.884 397.992 344.612 397.904C344.348 397.808 344.068 397.708 343.772 397.604C343.108 397.388 342.6 397.1 342.248 396.74C341.904 396.38 341.732 395.904 341.732 395.312C341.732 394.808 341.852 394.376 342.092 394.016C342.34 393.656 342.68 393.38 343.112 393.188C343.544 392.996 344.036 392.9 344.588 392.9C345.156 392.9 345.652 393 346.076 393.2C346.508 393.392 346.848 393.672 347.096 394.04C347.352 394.408 347.484 394.84 347.492 395.336H345.764C345.756 395.152 345.7 394.98 345.596 394.82C345.5 394.652 345.364 394.52 345.188 394.424C345.012 394.32 344.804 394.268 344.564 394.268C344.356 394.26 344.164 394.292 343.988 394.364C343.82 394.436 343.684 394.544 343.58 394.688C343.484 394.824 343.436 394.996 343.436 395.204C343.436 395.404 343.484 395.572 343.58 395.708C343.684 395.844 343.824 395.964 344 396.068C344.176 396.164 344.384 396.256 344.624 396.344C344.864 396.424 345.124 396.508 345.404 396.596C345.82 396.74 346.204 396.912 346.556 397.112C346.908 397.304 347.188 397.556 347.396 397.868C347.604 398.18 347.708 398.592 347.708 399.104C347.708 399.544 347.592 399.952 347.36 400.328C347.128 400.704 346.792 401.008 346.352 401.24C345.92 401.472 345.38 401.588 344.732 401.588ZM350.234 401.444L348.458 395.396H350.054L351.23 400.304L350.93 400.292L352.274 395.396H354.074L355.418 400.292L355.106 400.304L356.294 395.396H357.89L356.114 401.444H354.434L353.006 396.404H353.342L351.914 401.444H350.234ZM358.926 401.444V395.396H360.546V401.444H358.926ZM359.742 394.568C359.454 394.568 359.214 394.484 359.022 394.316C358.838 394.14 358.746 393.92 358.746 393.656C358.746 393.392 358.838 393.176 359.022 393.008C359.214 392.832 359.454 392.744 359.742 392.744C360.038 392.744 360.278 392.832 360.462 393.008C360.654 393.176 360.75 393.392 360.75 393.656C360.75 393.92 360.654 394.14 360.462 394.316C360.278 394.484 360.038 394.568 359.742 394.568ZM362.183 401.444V395.396H363.611L363.743 396.2C363.935 395.912 364.187 395.684 364.499 395.516C364.819 395.34 365.183 395.252 365.591 395.252C365.895 395.252 366.167 395.292 366.407 395.372C366.647 395.452 366.859 395.568 367.043 395.72C367.235 395.872 367.391 396.064 367.511 396.296C367.735 395.968 368.027 395.712 368.387 395.528C368.747 395.344 369.139 395.252 369.563 395.252C370.091 395.252 370.531 395.36 370.883 395.576C371.235 395.784 371.499 396.088 371.675 396.488C371.859 396.888 371.951 397.38 371.951 397.964V401.444H370.343V398.108C370.343 397.628 370.247 397.26 370.055 397.004C369.871 396.748 369.583 396.62 369.191 396.62C368.935 396.62 368.707 396.684 368.507 396.812C368.307 396.94 368.151 397.124 368.039 397.364C367.935 397.604 367.883 397.892 367.883 398.228V401.444H366.263V398.108C366.263 397.628 366.167 397.26 365.975 397.004C365.783 396.748 365.487 396.62 365.087 396.62C364.839 396.62 364.615 396.684 364.415 396.812C364.223 396.94 364.071 397.124 363.959 397.364C363.855 397.604 363.803 397.892 363.803 398.228V401.444H362.183ZM373.48 401.444V395.396H374.908L375.04 396.2C375.232 395.912 375.484 395.684 375.796 395.516C376.116 395.34 376.48 395.252 376.888 395.252C377.192 395.252 377.464 395.292 377.704 395.372C377.944 395.452 378.156 395.568 378.34 395.72C378.532 395.872 378.688 396.064 378.808 396.296C379.032 395.968 379.324 395.712 379.684 395.528C380.044 395.344 380.436 395.252 380.86 395.252C381.388 395.252 381.828 395.36 382.18 395.576C382.532 395.784 382.796 396.088 382.972 396.488C383.156 396.888 383.248 397.38 383.248 397.964V401.444H381.64V398.108C381.64 397.628 381.544 397.26 381.352 397.004C381.168 396.748 380.88 396.62 380.488 396.62C380.232 396.62 380.004 396.684 379.804 396.812C379.604 396.94 379.448 397.124 379.336 397.364C379.232 397.604 379.18 397.892 379.18 398.228V401.444H377.56V398.108C377.56 397.628 377.464 397.26 377.272 397.004C377.08 396.748 376.784 396.62 376.384 396.62C376.136 396.62 375.912 396.684 375.712 396.812C375.52 396.94 375.368 397.124 375.256 397.364C375.152 397.604 375.1 397.892 375.1 398.228V401.444H373.48ZM384.813 401.444V395.396H386.433V401.444H384.813ZM385.629 394.568C385.341 394.568 385.101 394.484 384.909 394.316C384.725 394.14 384.633 393.92 384.633 393.656C384.633 393.392 384.725 393.176 384.909 393.008C385.101 392.832 385.341 392.744 385.629 392.744C385.925 392.744 386.165 392.832 386.349 393.008C386.541 393.176 386.637 393.392 386.637 393.656C386.637 393.92 386.541 394.14 386.349 394.316C386.165 394.484 385.925 394.568 385.629 394.568ZM388.07 401.444V395.396H389.498L389.618 396.38C389.802 396.044 390.062 395.772 390.398 395.564C390.742 395.356 391.15 395.252 391.622 395.252C392.126 395.252 392.55 395.356 392.894 395.564C393.238 395.772 393.498 396.076 393.674 396.476C393.858 396.876 393.95 397.368 393.95 397.952V401.444H392.342V398.108C392.342 397.628 392.238 397.26 392.03 397.004C391.83 396.748 391.518 396.62 391.094 396.62C390.822 396.62 390.578 396.684 390.362 396.812C390.154 396.94 389.99 397.124 389.87 397.364C389.75 397.596 389.69 397.88 389.69 398.216V401.444H388.07ZM398.08 404.228C397.504 404.228 397 404.156 396.568 404.012C396.136 403.876 395.8 403.664 395.56 403.376C395.328 403.096 395.212 402.748 395.212 402.332C395.212 402.052 395.284 401.788 395.428 401.54C395.572 401.292 395.78 401.068 396.052 400.868C396.332 400.66 396.68 400.484 397.096 400.34L397.708 401.132C397.34 401.252 397.072 401.4 396.904 401.576C396.744 401.76 396.664 401.956 396.664 402.164C396.664 402.348 396.724 402.504 396.844 402.632C396.972 402.76 397.14 402.852 397.348 402.908C397.564 402.972 397.804 403.004 398.068 403.004C398.324 403.004 398.544 402.972 398.728 402.908C398.92 402.844 399.068 402.748 399.172 402.62C399.284 402.5 399.34 402.356 399.34 402.188C399.34 401.972 399.264 401.796 399.112 401.66C398.96 401.524 398.656 401.44 398.2 401.408C397.792 401.376 397.428 401.332 397.108 401.276C396.796 401.212 396.52 401.14 396.28 401.06C396.04 400.972 395.836 400.876 395.668 400.772C395.508 400.668 395.376 400.564 395.272 400.46V400.184L396.556 398.804L397.72 399.176L396.208 400.664L396.664 399.872C396.752 399.92 396.836 399.968 396.916 400.016C397.004 400.056 397.112 400.096 397.24 400.136C397.368 400.168 397.536 400.2 397.744 400.232C397.952 400.264 398.216 400.292 398.536 400.316C399.064 400.364 399.496 400.464 399.832 400.616C400.176 400.768 400.428 400.972 400.588 401.228C400.748 401.476 400.828 401.784 400.828 402.152C400.828 402.512 400.728 402.848 400.528 403.16C400.336 403.48 400.036 403.736 399.628 403.928C399.22 404.128 398.704 404.228 398.08 404.228ZM398.08 399.656C397.576 399.656 397.14 399.56 396.772 399.368C396.412 399.168 396.132 398.904 395.932 398.576C395.74 398.24 395.644 397.868 395.644 397.46C395.644 397.052 395.74 396.684 395.932 396.356C396.132 396.02 396.412 395.752 396.772 395.552C397.14 395.352 397.576 395.252 398.08 395.252C398.592 395.252 399.028 395.352 399.388 395.552C399.756 395.752 400.036 396.02 400.228 396.356C400.42 396.684 400.516 397.052 400.516 397.46C400.516 397.868 400.42 398.24 400.228 398.576C400.036 398.904 399.756 399.168 399.388 399.368C399.028 399.56 398.592 399.656 398.08 399.656ZM398.08 398.42C398.392 398.42 398.644 398.34 398.836 398.18C399.028 398.02 399.124 397.784 399.124 397.472C399.124 397.16 399.028 396.924 398.836 396.764C398.644 396.596 398.392 396.512 398.08 396.512C397.776 396.512 397.524 396.596 397.324 396.764C397.132 396.924 397.036 397.16 397.036 397.472C397.036 397.784 397.132 398.02 397.324 398.18C397.524 398.34 397.776 398.42 398.08 398.42ZM399.088 396.548L398.824 395.396H401.308V396.356L399.088 396.548Z" fill="#FFAE00"/>
</g>
<g opacity="0.2" clip-path="url(#clip5_3125_27739)">
<rect x="1051.11" y="278.464" width="187" height="26" rx="4" fill="#1760EC" fill-opacity="0.1"/>
<rect x="1051.61" y="278.964" width="186" height="25" rx="3.5" stroke="#1760EC" stroke-opacity="0.5"/>
<path d="M1057.7 296.464V295.216L1061.57 289.408H1057.72V288.064H1063.43V289.312L1059.54 295.12H1063.46V296.464H1057.7ZM1067.08 296.608C1066.59 296.608 1066.17 296.508 1065.82 296.308C1065.48 296.1 1065.21 295.8 1065.03 295.408C1064.85 295.008 1064.75 294.516 1064.75 293.932V290.416H1066.37V293.764C1066.37 294.252 1066.47 294.62 1066.67 294.868C1066.88 295.116 1067.2 295.24 1067.62 295.24C1067.89 295.24 1068.13 295.18 1068.34 295.06C1068.55 294.932 1068.71 294.752 1068.83 294.52C1068.96 294.28 1069.03 293.988 1069.03 293.644V290.416H1070.63V296.464H1069.22L1069.09 295.48C1068.91 295.824 1068.65 296.1 1068.31 296.308C1067.96 296.508 1067.55 296.608 1067.08 296.608ZM1072.22 296.464V290.416H1073.65L1073.78 291.22C1073.97 290.932 1074.22 290.704 1074.54 290.536C1074.86 290.36 1075.22 290.272 1075.63 290.272C1075.93 290.272 1076.2 290.312 1076.44 290.392C1076.68 290.472 1076.9 290.588 1077.08 290.74C1077.27 290.892 1077.43 291.084 1077.55 291.316C1077.77 290.988 1078.06 290.732 1078.42 290.548C1078.78 290.364 1079.18 290.272 1079.6 290.272C1080.13 290.272 1080.57 290.38 1080.92 290.596C1081.27 290.804 1081.54 291.108 1081.71 291.508C1081.9 291.908 1081.99 292.4 1081.99 292.984V296.464H1080.38V293.128C1080.38 292.648 1080.28 292.28 1080.09 292.024C1079.91 291.768 1079.62 291.64 1079.23 291.64C1078.97 291.64 1078.74 291.704 1078.54 291.832C1078.34 291.96 1078.19 292.144 1078.08 292.384C1077.97 292.624 1077.92 292.912 1077.92 293.248V296.464H1076.3V293.128C1076.3 292.648 1076.2 292.28 1076.01 292.024C1075.82 291.768 1075.52 291.64 1075.12 291.64C1074.88 291.64 1074.65 291.704 1074.45 291.832C1074.26 291.96 1074.11 292.144 1074 292.384C1073.89 292.624 1073.84 292.912 1073.84 293.248V296.464H1072.22ZM1087.09 296.608C1086.78 296.608 1086.5 296.568 1086.25 296.488C1086.01 296.408 1085.8 296.3 1085.6 296.164C1085.42 296.02 1085.26 295.86 1085.14 295.684L1084.96 296.464H1083.52V287.824H1085.14V291.256C1085.33 290.976 1085.58 290.744 1085.89 290.56C1086.21 290.368 1086.61 290.272 1087.08 290.272C1087.64 290.272 1088.14 290.412 1088.57 290.692C1089.01 290.964 1089.35 291.34 1089.6 291.82C1089.86 292.292 1089.98 292.836 1089.98 293.452C1089.98 294.052 1089.86 294.592 1089.6 295.072C1089.35 295.552 1089.01 295.928 1088.58 296.2C1088.15 296.472 1087.65 296.608 1087.09 296.608ZM1086.71 295.192C1087.03 295.192 1087.31 295.12 1087.55 294.976C1087.8 294.824 1087.99 294.62 1088.12 294.364C1088.26 294.1 1088.33 293.796 1088.33 293.452C1088.33 293.108 1088.26 292.804 1088.12 292.54C1087.99 292.268 1087.8 292.06 1087.55 291.916C1087.31 291.764 1087.03 291.688 1086.71 291.688C1086.4 291.688 1086.12 291.764 1085.87 291.916C1085.63 292.06 1085.44 292.264 1085.29 292.528C1085.16 292.792 1085.09 293.096 1085.09 293.44C1085.09 293.784 1085.16 294.092 1085.29 294.364C1085.44 294.628 1085.63 294.832 1085.87 294.976C1086.12 295.12 1086.4 295.192 1086.71 295.192ZM1093.42 296.608C1092.92 296.608 1092.5 296.528 1092.17 296.368C1091.84 296.2 1091.6 295.98 1091.44 295.708C1091.29 295.428 1091.21 295.12 1091.21 294.784C1091.21 294.416 1091.3 294.092 1091.49 293.812C1091.68 293.532 1091.96 293.312 1092.34 293.152C1092.72 292.992 1093.2 292.912 1093.78 292.912H1095.28C1095.28 292.616 1095.24 292.372 1095.16 292.18C1095.08 291.98 1094.96 291.832 1094.79 291.736C1094.62 291.64 1094.4 291.592 1094.12 291.592C1093.81 291.592 1093.55 291.66 1093.34 291.796C1093.13 291.924 1093 292.124 1092.95 292.396H1091.38C1091.42 291.964 1091.56 291.592 1091.8 291.28C1092.05 290.96 1092.37 290.712 1092.77 290.536C1093.18 290.36 1093.63 290.272 1094.13 290.272C1094.7 290.272 1095.19 290.368 1095.6 290.56C1096.02 290.752 1096.34 291.028 1096.56 291.388C1096.79 291.748 1096.9 292.192 1096.9 292.72V296.464H1095.53L1095.35 295.54C1095.26 295.7 1095.16 295.844 1095.04 295.972C1094.92 296.1 1094.78 296.212 1094.62 296.308C1094.46 296.404 1094.28 296.476 1094.08 296.524C1093.88 296.58 1093.66 296.608 1093.42 296.608ZM1093.8 295.36C1094.01 295.36 1094.2 295.324 1094.36 295.252C1094.52 295.172 1094.67 295.068 1094.79 294.94C1094.91 294.804 1095 294.652 1095.06 294.484C1095.14 294.308 1095.18 294.12 1095.21 293.92V293.908H1093.97C1093.72 293.908 1093.52 293.94 1093.36 294.004C1093.21 294.06 1093.1 294.144 1093.02 294.256C1092.95 294.368 1092.92 294.496 1092.92 294.64C1092.92 294.8 1092.95 294.932 1093.02 295.036C1093.1 295.14 1093.2 295.22 1093.34 295.276C1093.47 295.332 1093.63 295.36 1093.8 295.36ZM1105.04 296.608C1104.2 296.608 1103.48 296.428 1102.87 296.068C1102.27 295.7 1101.8 295.192 1101.48 294.544C1101.16 293.888 1101 293.132 1101 292.276C1101 291.42 1101.16 290.664 1101.48 290.008C1101.8 289.352 1102.27 288.84 1102.87 288.472C1103.48 288.104 1104.2 287.92 1105.04 287.92C1106.06 287.92 1106.89 288.172 1107.54 288.676C1108.18 289.18 1108.59 289.892 1108.75 290.812H1106.98C1106.88 290.364 1106.66 290.016 1106.32 289.768C1106 289.512 1105.56 289.384 1105.03 289.384C1104.53 289.384 1104.1 289.504 1103.74 289.744C1103.39 289.976 1103.12 290.308 1102.93 290.74C1102.74 291.164 1102.64 291.676 1102.64 292.276C1102.64 292.868 1102.74 293.38 1102.93 293.812C1103.12 294.244 1103.39 294.576 1103.74 294.808C1104.1 295.04 1104.53 295.156 1105.03 295.156C1105.56 295.156 1106 295.04 1106.32 294.808C1106.65 294.568 1106.87 294.236 1106.97 293.812H1108.75C1108.59 294.684 1108.18 295.368 1107.54 295.864C1106.89 296.36 1106.06 296.608 1105.04 296.608ZM1110.09 296.464V287.824H1111.71V296.464H1110.09ZM1115.33 296.608C1114.83 296.608 1114.41 296.528 1114.09 296.368C1113.76 296.2 1113.51 295.98 1113.35 295.708C1113.2 295.428 1113.13 295.12 1113.13 294.784C1113.13 294.416 1113.22 294.092 1113.4 293.812C1113.59 293.532 1113.88 293.312 1114.25 293.152C1114.64 292.992 1115.12 292.912 1115.69 292.912H1117.19C1117.19 292.616 1117.15 292.372 1117.07 292.18C1116.99 291.98 1116.87 291.832 1116.7 291.736C1116.53 291.64 1116.31 291.592 1116.03 291.592C1115.73 291.592 1115.47 291.66 1115.25 291.796C1115.04 291.924 1114.91 292.124 1114.87 292.396H1113.29C1113.33 291.964 1113.47 291.592 1113.71 291.28C1113.96 290.96 1114.29 290.712 1114.69 290.536C1115.09 290.36 1115.55 290.272 1116.04 290.272C1116.61 290.272 1117.1 290.368 1117.52 290.56C1117.93 290.752 1118.25 291.028 1118.48 291.388C1118.7 291.748 1118.81 292.192 1118.81 292.72V296.464H1117.45L1117.27 295.54C1117.18 295.7 1117.07 295.844 1116.95 295.972C1116.83 296.1 1116.69 296.212 1116.53 296.308C1116.37 296.404 1116.19 296.476 1115.99 296.524C1115.79 296.58 1115.57 296.608 1115.33 296.608ZM1115.72 295.36C1115.93 295.36 1116.11 295.324 1116.27 295.252C1116.44 295.172 1116.58 295.068 1116.7 294.94C1116.82 294.804 1116.91 294.652 1116.98 294.484C1117.05 294.308 1117.1 294.12 1117.12 293.92V293.908H1115.89C1115.64 293.908 1115.43 293.94 1115.27 294.004C1115.12 294.06 1115.01 294.144 1114.94 294.256C1114.87 294.368 1114.83 294.496 1114.83 294.64C1114.83 294.8 1114.87 294.932 1114.94 295.036C1115.01 295.14 1115.11 295.22 1115.25 295.276C1115.39 295.332 1115.54 295.36 1115.72 295.36ZM1122.8 296.608C1122.25 296.608 1121.77 296.52 1121.36 296.344C1120.95 296.168 1120.63 295.924 1120.4 295.612C1120.17 295.3 1120.03 294.948 1120 294.556H1121.61C1121.65 294.708 1121.72 294.848 1121.81 294.976C1121.91 295.096 1122.04 295.192 1122.2 295.264C1122.36 295.336 1122.55 295.372 1122.77 295.372C1122.99 295.372 1123.17 295.344 1123.3 295.288C1123.44 295.224 1123.54 295.14 1123.6 295.036C1123.67 294.932 1123.71 294.824 1123.71 294.712C1123.71 294.544 1123.66 294.416 1123.57 294.328C1123.47 294.232 1123.33 294.156 1123.15 294.1C1122.96 294.044 1122.74 293.988 1122.47 293.932C1122.19 293.876 1121.9 293.808 1121.62 293.728C1121.35 293.64 1121.11 293.532 1120.89 293.404C1120.67 293.276 1120.5 293.112 1120.37 292.912C1120.25 292.712 1120.18 292.464 1120.18 292.168C1120.18 291.808 1120.28 291.488 1120.47 291.208C1120.66 290.92 1120.94 290.692 1121.31 290.524C1121.68 290.356 1122.12 290.272 1122.64 290.272C1123.37 290.272 1123.95 290.436 1124.37 290.764C1124.79 291.092 1125.05 291.544 1125.13 292.12H1123.6C1123.55 291.936 1123.45 291.792 1123.28 291.688C1123.12 291.576 1122.9 291.52 1122.63 291.52C1122.34 291.52 1122.12 291.572 1121.97 291.676C1121.82 291.78 1121.74 291.916 1121.74 292.084C1121.74 292.196 1121.79 292.296 1121.89 292.384C1121.99 292.472 1122.13 292.548 1122.32 292.612C1122.5 292.668 1122.73 292.724 1122.99 292.78C1123.45 292.876 1123.86 292.988 1124.21 293.116C1124.57 293.236 1124.84 293.412 1125.04 293.644C1125.24 293.868 1125.34 294.196 1125.34 294.628C1125.34 295.012 1125.24 295.356 1125.03 295.66C1124.82 295.956 1124.53 296.188 1124.14 296.356C1123.77 296.524 1123.32 296.608 1122.8 296.608ZM1129.18 296.608C1128.63 296.608 1128.15 296.52 1127.74 296.344C1127.34 296.168 1127.02 295.924 1126.78 295.612C1126.55 295.3 1126.42 294.948 1126.39 294.556H1128C1128.04 294.708 1128.1 294.848 1128.2 294.976C1128.3 295.096 1128.42 295.192 1128.58 295.264C1128.74 295.336 1128.94 295.372 1129.16 295.372C1129.38 295.372 1129.55 295.344 1129.69 295.288C1129.82 295.224 1129.92 295.14 1129.99 295.036C1130.06 294.932 1130.1 294.824 1130.1 294.712C1130.1 294.544 1130.05 294.416 1129.95 294.328C1129.86 294.232 1129.72 294.156 1129.53 294.1C1129.35 294.044 1129.12 293.988 1128.86 293.932C1128.57 293.876 1128.29 293.808 1128.01 293.728C1127.74 293.64 1127.49 293.532 1127.28 293.404C1127.06 293.276 1126.89 293.112 1126.76 292.912C1126.63 292.712 1126.57 292.464 1126.57 292.168C1126.57 291.808 1126.66 291.488 1126.86 291.208C1127.05 290.92 1127.33 290.692 1127.7 290.524C1128.06 290.356 1128.51 290.272 1129.03 290.272C1129.76 290.272 1130.33 290.436 1130.76 290.764C1131.18 291.092 1131.43 291.544 1131.51 292.12H1129.99C1129.94 291.936 1129.83 291.792 1129.66 291.688C1129.5 291.576 1129.29 291.52 1129.02 291.52C1128.73 291.52 1128.51 291.572 1128.36 291.676C1128.2 291.78 1128.13 291.916 1128.13 292.084C1128.13 292.196 1128.18 292.296 1128.27 292.384C1128.38 292.472 1128.52 292.548 1128.7 292.612C1128.89 292.668 1129.11 292.724 1129.38 292.78C1129.84 292.876 1130.25 292.988 1130.6 293.116C1130.95 293.236 1131.23 293.412 1131.43 293.644C1131.63 293.868 1131.73 294.196 1131.73 294.628C1131.73 295.012 1131.62 295.356 1131.42 295.66C1131.21 295.956 1130.91 296.188 1130.53 296.356C1130.15 296.524 1129.7 296.608 1129.18 296.608Z" fill="#1760EC"/>
</g>
</g>
</g>
<defs>
<filter id="filter0_f_3125_27739" x="-345" y="309.949" width="1124.08" height="1114.05" filterUnits="userSpaceOnUse" color-interpolation-filters="sRGB">
<feFlood flood-opacity="0" result="BackgroundImageFix"/>
<feBlend mode="normal" in="SourceGraphic" in2="BackgroundImageFix" result="shape"/>
<feGaussianBlur stdDeviation="200" result="effect1_foregroundBlur_3125_27739"/>
</filter>
<filter id="filter1_f_3125_27739" x="-60.3979" y="-143.777" width="1124.08" height="1114.05" filterUnits="userSpaceOnUse" color-interpolation-filters="sRGB">
<feFlood flood-opacity="0" result="BackgroundImageFix"/>
<feBlend mode="normal" in="SourceGraphic" in2="BackgroundImageFix" result="shape"/>
<feGaussianBlur stdDeviation="200" result="effect1_foregroundBlur_3125_27739"/>
</filter>
<filter id="filter2_f_3125_27739" x="756.238" y="-400" width="1029.35" height="1022.25" filterUnits="userSpaceOnUse" color-interpolation-filters="sRGB">
<feFlood flood-opacity="0" result="BackgroundImageFix"/>
<feBlend mode="normal" in="SourceGraphic" in2="BackgroundImageFix" result="shape"/>
<feGaussianBlur stdDeviation="200" result="effect1_foregroundBlur_3125_27739"/>
</filter>
<clipPath id="clip0_3125_27739">
<rect width="1440" height="1024" fill="white"/>
</clipPath>
<clipPath id="clip1_3125_27739">
<rect width="896.038" height="580.949" fill="white" transform="translate(271.665 194.836)"/>
</clipPath>
<clipPath id="clip2_3125_27739">
<rect width="291.947" height="46.2624" fill="white" transform="translate(215.663 435.935)"/>
</clipPath>
<clipPath id="clip3_3125_27739">
<rect width="123.94" height="46.2624" fill="white" transform="translate(1051.11 383.444)"/>
</clipPath>
<clipPath id="clip4_3125_27739">
<rect width="172.597" height="46.2624" fill="white" transform="translate(335.012 383.444)"/>
</clipPath>
<clipPath id="clip5_3125_27739">
<rect width="171.679" height="23.1312" fill="white" transform="translate(1051.11 278.464)"/>
</clipPath>
</defs>
</svg>
