<svg width="24" height="24" viewBox="0 0 24 24" fill="none" xmlns="http://www.w3.org/2000/svg">
<mask id="mask0_2319_16392" style="mask-type:alpha" maskUnits="userSpaceOnUse" x="5" y="5" width="14" height="14">
<path fill-rule="evenodd" clip-rule="evenodd" d="M18.526 5.29289C18.9009 5.68342 18.9009 6.31658 18.526 6.70711L7.00601 18.7071C6.63111 19.0976 6.02327 19.0976 5.64837 18.7071C5.27346 18.3166 5.27346 17.6834 5.64837 17.2929L17.1684 5.29289C17.5433 4.90237 18.1511 4.90237 18.526 5.29289Z" fill="#061938"/>
<path fill-rule="evenodd" clip-rule="evenodd" d="M5.64837 5.29289C6.02327 4.90237 6.63111 4.90237 7.00601 5.29289L18.526 17.2929C18.9009 17.6834 18.9009 18.3166 18.526 18.7071C18.1511 19.0976 17.5433 19.0976 17.1684 18.7071L5.64837 6.70711C5.27346 6.31658 5.27346 5.68342 5.64837 5.29289Z" fill="#061938"/>
</mask>
<g mask="url(#mask0_2319_16392)">
<rect x="0.567383" width="23.04" height="24" fill="#8993A4"/>
</g>
</svg>
