<svg width="60" height="60" viewBox="0 0 60 60" fill="none" xmlns="http://www.w3.org/2000/svg">
<path d="M11.3438 34.9688V33H9.5625V35.8125C9.5625 36.2813 9.9375 36.75 10.4063 36.75C11.9063 36.75 13.0312 37.9688 13.0312 39.5625C13.0312 41.1563 11.8125 42.375 10.4063 42.375C9 42.375 7.78125 41.1563 7.78125 39.5625C7.78125 39.0938 7.40625 38.625 6.9375 38.625C6.46875 38.625 6.09375 39 6.09375 39.5625C6.09375 42.0938 8.0625 44.1562 10.5 44.1562C12.9375 44.1562 14.9062 42.0938 14.9062 39.5625C14.8125 37.2188 13.3125 35.3438 11.3438 34.9688ZM54.375 7.5H11.1562L5.625 18.75H54.375V15.9375H52.4062L54.375 12.2813V7.5ZM9.9375 15.9375L12.0937 11.4375L14.4375 15.9375H9.9375ZM14.1562 10.3125H18.0937L16.125 13.9688L14.1562 10.3125ZM17.625 15.9375L19.5938 12.2813L21.5625 15.9375H17.625ZM21.0938 10.3125H25.0312L23.0625 13.9688L21.0938 10.3125ZM24.5625 15.9375L26.5312 12.2813L28.5 15.9375H24.5625ZM28.0312 10.3125H31.9687L30 13.9688L28.0312 10.3125ZM31.5 15.9375L33.4688 12.2813L35.4375 15.9375H31.5ZM50.9062 13.9688L48.9375 10.3125H52.875L50.9062 13.9688Z" fill="#3E4347"/>
<path d="M9.46875 17.8125H11.3438V27.1875H9.46875V17.8125Z" fill="#3E4347"/>
<path d="M12 26.25H8.90625L5.71875 30H15.0938L12 26.25Z" fill="#1D9B5E"/>
<path d="M5.71875 30L8.90625 33.75H12L15.0937 30H5.71875ZM46.3125 27.1875V30L38.0625 27.1875H35.625V58.125H38.0625V52.5L46.3125 55.3125L38.0625 58.125H48.75V27.1875H46.3125ZM46.3125 52.5L38.0625 49.6875L46.3125 46.875V52.5ZM38.0625 46.875V41.25L46.3125 44.0625L38.0625 46.875ZM46.3125 41.25L38.0625 38.4375L46.3125 35.625V41.25ZM38.0625 35.625V30L46.3125 32.8125L38.0625 35.625Z" fill="#1D9B5E"/>
<path d="M50.625 25.5C50.625 26.9062 49.5 28.125 48.1875 28.125H36.1875C34.875 28.125 33.75 26.9062 33.75 25.5V4.5C33.75 3.09375 34.875 1.875 36.1875 1.875H48.2812C49.5 1.875 50.625 3.09375 50.625 4.5V25.5Z" fill="#1D9B5E"/>
<path d="M36.4688 14.25C36.4688 15.1875 37.125 15.9375 37.875 15.9375H46.3125C47.0625 15.9375 47.7188 15.1875 47.7188 14.25V6.375C47.7188 5.4375 47.0625 4.6875 46.3125 4.6875H37.875C37.125 4.6875 36.4688 5.4375 36.4688 6.375V14.25ZM47.7188 23.4375C47.7188 24.4688 46.9687 25.3125 46.125 25.3125H38.0625C37.2187 25.3125 36.4688 24.4688 36.4688 23.4375V19.6875C36.4688 18.6562 37.2187 17.8125 38.0625 17.8125H46.125C46.9687 17.8125 47.7188 18.6562 47.7188 19.6875V23.4375Z" fill="#87CEAC"/>
</svg>
