<svg width="48" height="48" viewBox="0 0 48 48" fill="none" xmlns="http://www.w3.org/2000/svg">
<g clip-path="url(#clip0_4128_36856)">
<path d="M2.99249 44.3141V48.0228H35.67V44.3141C35.67 38.6253 27.6487 35.7378 19.455 35.7491C11.3137 35.7603 2.99249 38.2916 2.99249 44.3141Z" fill="#0F2028"/>
<path d="M19.3387 33.874H15.9337V37.4703C15.9337 39.0978 17.3212 40.4178 19.0312 40.4178H19.65C21.36 40.4178 22.7475 39.0978 22.7475 37.4703V33.874H19.3387Z" fill="#563E37"/>
<path d="M22.8188 29.3213H15.8963C15.4988 29.3213 15.33 29.5875 15.5925 29.9888C15.96 30.5475 17.3213 31.6238 19.3575 31.6238C21.3938 31.6238 22.755 30.5475 23.1225 29.9888C23.385 29.5875 23.2163 29.3213 22.8188 29.3213Z" fill="#444444"/>
<path d="M21.0113 26.3812C20.4225 26.5462 19.8113 26.6288 19.3388 26.6288C18.8663 26.6288 18.255 26.5462 17.6663 26.3812C17.415 26.31 17.3138 26.55 17.4075 26.7075C17.595 27.0375 18.345 27.6975 19.3388 27.6975C20.3325 27.6975 21.0825 27.0338 21.27 26.7075C21.36 26.5463 21.2625 26.31 21.0113 26.3812ZM31.41 19.6875C31.41 19.6875 33.6188 20.07 33.6188 22.4512C33.6188 24.5512 32.0063 25.38 30.3938 25.38V19.6875H31.41ZM7.30876 19.6875C7.30876 19.6875 5.10001 20.07 5.10001 22.4512C5.10001 24.5512 6.71251 25.38 8.32501 25.38V19.6875H7.30876Z" fill="#563E37"/>
<path d="M19.3575 4.10254C9.8325 4.10254 7.3425 11.4863 7.3425 21.8588C7.3425 32.6138 14.2537 35.3963 19.3575 35.3963C24.3862 35.3963 31.3725 32.6963 31.3725 21.8588C31.3762 11.4825 28.8825 4.10254 19.3575 4.10254Z" fill="#70534A"/>
<path d="M15.4012 22.8185C15.4012 23.891 14.685 24.7572 13.7963 24.7572C12.9113 24.7572 12.1875 23.8872 12.1875 22.8185C12.1875 21.746 12.9075 20.876 13.7963 20.876C14.685 20.876 15.4012 21.746 15.4012 22.8185ZM23.3137 22.8185C23.3137 23.891 24.03 24.7572 24.9225 24.7572C25.8075 24.7572 26.5275 23.8872 26.5275 22.8185C26.5275 21.746 25.8075 20.876 24.9225 20.876C24.03 20.876 23.3137 21.746 23.3137 22.8185ZM22.8375 29.3697H15.885C15.4875 29.3697 15.315 29.636 15.5775 30.041C15.945 30.6035 17.3175 31.6835 19.3613 31.6835C21.405 31.6835 22.7775 30.6035 23.145 30.041C23.4075 29.6397 23.235 29.3697 22.8375 29.3697Z" fill="#232020"/>
<path d="M21.0375 26.4152C20.445 26.584 19.83 26.6627 19.3575 26.6627C18.885 26.6627 18.27 26.5802 17.6775 26.4152C17.4263 26.344 17.325 26.584 17.415 26.7415C17.6025 27.0715 18.36 27.739 19.3575 27.739C20.355 27.739 21.1125 27.0715 21.3 26.7415C21.39 26.584 21.2925 26.344 21.0375 26.4152Z" fill="#563E37"/>
<path d="M19.6462 2.74503C19.6462 2.74503 19.4587 2.73753 19.38 2.74128C19.3012 2.74128 19.1137 2.74503 19.1137 2.74503C8.83499 2.94378 5.73749 9.12753 5.73749 13.4175C5.73749 17.5838 5.74124 20.6475 5.74124 20.6475C5.74124 20.6475 5.90624 20.4788 6.20624 20.2425C6.52874 19.9913 6.88499 19.8525 6.88499 19.8525L7.40249 23.3325L10.8262 16.1775C10.8487 16.1325 10.8937 16.1063 10.9425 16.1138L12.9712 16.3388C15.0112 16.5638 17.0625 16.6763 19.11 16.68V16.6838C19.2 16.6838 19.2862 16.68 19.3762 16.68C19.4662 16.68 19.5525 16.6838 19.6425 16.6838V16.68C21.69 16.6725 23.7412 16.5638 25.7812 16.3388L27.81 16.1138C27.8587 16.11 27.9037 16.1363 27.9262 16.1775L31.35 23.3325L31.875 19.8488C31.875 19.8488 32.2312 19.9913 32.5537 20.2388C32.8575 20.475 33.0187 20.6438 33.0187 20.6438C33.0187 20.6438 33.0225 17.5838 33.0225 13.4138C33.0225 9.12753 29.925 2.94378 19.6462 2.74503Z" fill="#232020"/>
<path d="M13.6275 36.203C12.9975 36.308 12.3825 36.4317 11.7825 36.5742C10.9163 36.7805 10.0838 37.0242 9.30375 37.3092C8.6925 37.5305 8.1075 37.778 7.56375 38.0517V48.0117H17.4113L15.0938 40.7705L13.6275 36.203ZM29.4563 37.3917C28.6725 37.0917 27.84 36.833 26.97 36.6117C26.3363 36.4542 25.6838 36.3117 25.0163 36.1992L23.5538 40.7705L21.2363 48.0117H31.0838V38.1117C30.57 37.8492 30.0225 37.6092 29.4563 37.3917Z" fill="#D2F801"/>
<path d="M9.29999 37.3092L9.97874 48.0117H15.2287L11.7787 36.5742C10.9125 36.7805 10.0837 37.0242 9.29999 37.3092ZM26.97 36.6117L23.5312 48.0117H28.7812L29.4562 37.3917C28.6725 37.0917 27.84 36.833 26.97 36.6117Z" fill="#1D9B5E"/>
<path d="M19.32 18.4725C28.3437 18.4725 35.6588 16.5619 35.6588 14.205C35.6588 11.8481 28.3437 9.9375 19.32 9.9375C10.2964 9.9375 2.98126 11.8481 2.98126 14.205C2.98126 16.5619 10.2964 18.4725 19.32 18.4725Z" fill="#D2F801"/>
<path d="M19.32 17.6961C28.3437 17.6961 35.6588 15.7855 35.6588 13.4286C35.6588 11.0718 28.3437 9.16113 19.32 9.16113C10.2964 9.16113 2.98126 11.0718 2.98126 13.4286C2.98126 15.7855 10.2964 17.6961 19.32 17.6961Z" fill="#1D9B5E"/>
<path d="M33.9075 12.8552C33.6638 8.25765 30.1988 0.532652 19.605 0.333902C19.605 0.333902 19.4063 0.326402 19.32 0.330152C19.2338 0.330152 19.035 0.333902 19.035 0.333902C8.43751 0.532652 4.97251 8.25765 4.73251 12.8552C4.73251 16.4514 33.9075 16.4514 33.9075 12.8552Z" fill="#1D9B5E"/>
<mask id="mask0_4128_36856" style="mask-type:luminance" maskUnits="userSpaceOnUse" x="4" y="0" width="30" height="16">
<path d="M33.9075 12.8552C33.6638 8.25765 30.1988 0.532652 19.605 0.333902C19.605 0.333902 19.4063 0.326402 19.32 0.330152C19.2338 0.330152 19.035 0.333902 19.035 0.333902C8.43751 0.532652 4.97251 8.25765 4.73251 12.8552C4.73251 16.4514 33.9075 16.4514 33.9075 12.8552Z" fill="white"/>
</mask>
<g mask="url(#mask0_4128_36856)">
<path d="M12.8325 1.21133L15.4388 0.330078V9.23633C14.91 5.38883 14.1525 2.60258 12.8325 1.21133ZM25.8038 1.21133L23.1975 0.330078V9.23633C23.73 5.38883 24.4875 2.60258 25.8038 1.21133Z" fill="#D2F801"/>
</g>
<path d="M22.3387 14.1041H16.3012C15.75 14.1041 15.3 13.6541 15.3 13.1028V1.10281C15.3 0.551563 15.75 0.101562 16.3012 0.101562H22.3387C22.89 0.101562 23.34 0.551563 23.34 1.10281V13.1028C23.34 13.6578 22.89 14.1041 22.3387 14.1041Z" fill="#1D9B5E"/>
<path d="M38.1975 40.3538C38.76 40.4926 39.12 40.8901 39.3713 41.3851C39.9975 41.2726 41.0775 41.1601 41.3925 41.1676C41.7638 41.1788 42.255 41.2201 42.3375 41.9813C42.39 42.4763 42.2025 42.8851 41.5688 42.9451C41.3325 42.9676 41.0888 42.9826 40.8488 42.9938L40.935 43.2713C41.1563 43.2676 41.355 43.2601 41.5088 43.2601C42.15 43.2526 42.5138 43.5938 42.5138 44.2726C42.5138 44.8688 42 45.1501 41.625 45.1726C41.4263 45.1838 40.8713 45.1538 40.3238 45.1013L40.2675 45.2176L40.245 45.2513C40.59 45.3038 40.92 45.3601 41.1525 45.4013C41.7788 45.5138 42.0788 45.9301 42.0075 46.4251C41.9213 47.0251 41.385 47.1901 41.0138 47.1788C40.7363 47.1713 39.7613 47.0176 39.1088 46.8788L38.9813 47.0626C39.0263 47.0701 39.075 47.0776 39.1275 47.0851C39.135 47.0851 39.1425 47.0888 39.1538 47.0888L39.285 47.1113C39.2963 47.1113 39.3038 47.1151 39.315 47.1151C39.3675 47.1226 39.42 47.1338 39.4725 47.1413H39.48C39.5363 47.1488 39.5925 47.1601 39.6488 47.1713C39.66 47.1713 39.6713 47.1751 39.6788 47.1751L39.81 47.1976C39.8288 47.2013 39.8438 47.2051 39.8625 47.2051C39.9 47.2126 39.9375 47.2201 39.9713 47.2238L40.0275 47.2351C40.065 47.2426 40.0988 47.2501 40.1325 47.2538L40.185 47.2651C40.2338 47.2763 40.2863 47.2838 40.3313 47.2951C40.905 47.4151 41.1225 47.6738 41.0513 48.1276C40.9538 48.7651 40.3125 48.9076 39.9713 48.8738C39.63 48.8438 38.4825 48.6076 38.1075 48.4426L38.04 48.4088L37.9088 48.5963C36.2213 48.4838 35.01 47.7788 35.01 47.7788C34.02 47.2238 33.855 46.7963 33.69 46.1176C33.5025 45.3451 33.5475 44.4301 33.555 44.2876C33.615 42.7501 33.9563 41.7563 35.1975 40.9313C35.4975 40.7326 35.9363 40.3838 36.9075 40.2713C37.2825 40.2338 37.8225 40.2601 38.1975 40.3538Z" fill="#70534A"/>
<path d="M39.6 42.9072C39.6 42.9072 39.615 42.1347 39.3712 41.3847L39.6412 41.3359C39.6412 41.3359 39.8325 41.8684 39.9 42.6559C39.9112 42.7834 39.915 42.8997 39.915 43.0122L40.155 42.9972L41.7637 42.9072C41.7637 42.9072 41.6437 42.9297 41.6437 43.1097C41.6437 43.1847 41.6887 43.2334 41.7225 43.2634C41.655 43.2559 41.58 43.2484 41.505 43.2522L39.9075 43.2934C39.9037 43.3384 39.9037 43.3834 39.9 43.4322C39.8625 44.0847 39.7087 44.7109 39.345 44.9509C40.5525 45.0934 41.625 45.1647 41.625 45.1647C41.415 45.2509 41.505 45.5059 41.505 45.5059C40.6912 45.2847 38.7187 45.1684 38.7187 45.1684C37.8862 45.0972 37.7737 45.6597 37.7737 45.6597C37.62 46.3384 38.3587 46.6497 38.3587 46.6497C38.4562 46.7059 39.3375 46.8822 39.9675 47.0022L40.5975 47.1184L40.7737 47.1522C40.755 47.1484 40.68 47.1447 40.65 47.2684C40.635 47.3284 40.65 47.3697 40.6612 47.3959C40.5675 47.3547 40.455 47.3172 40.3237 47.2909C40.0275 47.2309 39.1312 47.0847 39.0637 47.0734L38.8387 47.0434C38.0962 46.9459 37.9162 47.0772 37.9162 47.0772C37.5037 47.2947 37.6237 47.8197 37.6237 47.8197C37.7137 48.3259 38.2725 48.4834 38.2725 48.4834C38.4862 48.5472 39.6187 48.8209 39.6187 48.8209L37.905 48.5959C37.785 48.5584 37.74 48.5022 37.6725 48.4497C37.0687 47.9547 37.3237 47.2834 37.3237 47.2834C37.4175 47.0247 37.6125 46.9084 37.6125 46.9084C37.7287 46.8372 37.8637 46.7997 38.0025 46.7847C37.3012 46.4134 37.4137 45.6634 37.4137 45.6634C37.5037 45.2022 37.8375 45.0072 38.1 44.9247C38.0775 44.9059 38.0512 44.8872 38.0287 44.8647C38.0287 44.8647 37.5787 44.5684 37.7437 43.2972C37.8 42.8697 37.7925 42.8097 37.7475 42.5397C37.7475 42.5397 37.5862 41.9622 37.1062 42.1459C37.1062 42.1459 36.945 42.1872 36.6937 42.3859C36.6937 42.3859 36.4912 42.5434 36.495 42.2959C36.495 42.2209 36.5475 42.0859 36.6487 41.9697C36.6487 41.9697 36.7537 41.8459 37.0125 41.7747C37.0125 41.7747 37.6837 41.5084 38.0175 42.1797C38.1937 42.5322 38.16 42.7647 38.1037 43.1247C38.1037 43.1247 37.9987 44.2609 38.295 44.6247C38.295 44.6247 38.5875 44.9584 39.0562 44.7522C39.06 44.7597 39.6975 44.4072 39.6 42.9072Z" fill="#563E37"/>
<path d="M36.0937 47.3098L38.7975 27.8398L41.79 28.2898L38.5612 47.6811C38.4862 48.1798 37.875 48.5023 37.2 48.4011C36.5175 48.2998 36.0187 47.8086 36.0937 47.3098Z" fill="#F79329"/>
<path d="M32.7862 26.4446C34.0725 24.4909 36.3075 23.6846 38.0475 23.5421C38.4975 23.5046 38.9475 23.5646 39.2775 23.6021C39.8512 23.6696 41.0512 23.9096 41.0512 23.9096L42.5362 24.1684C42.5737 24.1759 42.6075 24.1871 42.645 24.1946C42.96 24.2434 43.3162 24.2734 43.6387 24.2434C44.04 24.2059 44.235 23.9771 44.6887 23.8946C44.9062 23.8571 45.1462 23.8571 45.3525 23.8759C45.4237 23.8721 45.495 23.8759 45.5662 23.8909L45.7162 23.9171C45.7987 23.9284 45.8512 23.9396 45.8512 23.9396L47.1712 24.1684C47.6962 24.2584 48.06 24.6971 47.985 25.1434L47.2087 29.6359C47.13 30.0821 46.6387 30.3709 46.1137 30.2809L44.7937 30.0521C44.7937 30.0521 44.7375 30.0446 44.6587 30.0296L44.5087 30.0034C44.4375 29.9921 44.3662 29.9696 44.3025 29.9471C44.1037 29.8909 43.53 29.1821 43.3387 29.0734C42.9375 28.8446 42.8287 29.3696 42.3262 29.5046C42.0412 29.5796 41.7 29.5196 41.61 29.5046L41.49 29.4821C41.3925 29.4671 41.3025 29.4521 41.2537 29.4409L38.6362 28.9871C38.2687 28.9234 37.9875 28.6909 37.8712 28.4059C37.8412 28.3271 37.7625 28.0796 37.7475 28.0159C37.6012 27.3709 37.3725 26.5009 36.6075 26.3696C35.7712 26.2234 34.8525 26.8234 34.8525 26.8234C34.8525 26.8234 34.0425 27.3934 33.2925 27.1421C32.55 26.8946 32.7862 26.4446 32.7862 26.4446Z" fill="#78A3AD"/>
<path d="M39.1838 23.2799C39.1275 23.4486 39.1238 23.6511 39.1125 23.8274C39.1013 23.9849 39.1838 24.1461 39.3075 24.2474C39.435 24.3524 39.615 24.4236 39.7725 24.4761C40.0875 24.5811 40.4025 24.6636 40.7325 24.7048C40.8975 24.7273 41.0588 24.7161 41.2238 24.7048C41.3813 24.6973 41.5463 24.7011 41.7 24.6523C41.835 24.6111 41.9888 24.5811 42.12 24.5249C42.285 24.4536 42.3788 24.4311 42.435 24.2549C42.4875 24.0899 42.5325 23.9361 42.5513 23.7636C42.5775 23.5236 42.5475 23.3699 42.3375 23.2311C41.94 22.9649 41.415 22.8974 40.9575 22.8374C40.5263 22.7811 40.0538 22.7774 39.645 22.9011C39.405 22.9799 39.2625 23.0399 39.1838 23.2799Z" fill="#F79329"/>
<path d="M45.2737 25.8483C44.97 25.7546 44.8537 25.6796 44.7825 25.5483C44.6887 25.3683 44.7637 25.0983 44.835 24.9071C44.8987 24.7308 45.1575 24.6746 45.4762 24.7158C45.795 24.7571 46.47 24.8471 46.56 24.8696C46.6837 24.8996 46.8 24.9483 46.8825 25.0158C47.115 25.2108 47.115 25.5896 46.95 25.8333C46.8525 25.9796 46.6837 26.0246 46.5037 26.0283C46.3087 26.0358 45.4725 25.9121 45.2737 25.8483ZM42.7612 26.0658C42.285 26.1446 41.6737 26.1146 41.5087 26.1146C40.8862 26.1108 40.08 26.0133 39.3037 25.8183C38.4975 25.6158 38.115 25.2333 37.665 25.1021C37.3125 25.0008 36.885 25.0458 36.5287 25.0008C36.4912 24.9971 36.285 24.9708 36.2287 24.8883C36.135 24.7421 36.3225 24.6258 36.6487 24.5171C36.8025 24.4646 37.5075 24.2546 38.235 24.2471C38.2762 24.2471 38.4525 24.2508 38.5312 24.3596C38.8837 24.8433 39.105 25.0721 39.7425 25.2146C40.3237 25.3458 40.9425 25.4321 41.6812 25.4096C42.42 25.3871 42.405 25.0121 42.7875 25.0496C42.8775 25.0571 42.9937 25.0721 43.095 25.0908C43.3162 25.1358 43.3275 25.2746 43.3125 25.3646C43.29 25.5071 43.245 25.6871 43.2262 25.7846C43.1925 25.9721 42.9075 26.0433 42.7612 26.0658Z" fill="white"/>
<path d="M41.5837 45.169H41.625C41.9962 45.1465 42.51 44.8652 42.5137 44.269C42.5137 43.6165 42.18 43.279 41.5837 43.2602L41.5575 43.1215L41.7525 43.1102C42.0825 43.0315 42.255 42.8327 42.315 42.5777C42.3375 42.5402 42.345 42.1127 42.3412 42.064C42.3112 41.6627 42.165 41.4752 42.165 41.4752C42.015 41.0927 41.0925 41.179 41.0925 41.179L39.4087 41.404C39.3487 41.3852 39.2887 41.3665 39.2325 41.3477C38.9887 40.9652 38.6625 40.669 38.1937 40.5527C37.8187 40.4627 37.2825 40.4327 36.9037 40.4777C35.9325 40.5902 35.4937 40.939 35.1937 41.1377C35.13 41.179 35.0775 41.224 35.0212 41.269C35.3625 41.8877 35.88 42.5365 36.5137 42.4277C36.555 42.334 36.6225 42.2365 36.6525 42.2027C36.7875 42.0565 36.975 41.9515 37.1737 41.929C37.485 41.8915 37.8075 42.0452 37.9762 42.3077C38.2387 42.7127 37.935 43.249 37.9162 43.7327C37.9087 43.9615 38.0962 44.1827 38.1412 44.4077C38.1825 44.6215 38.265 44.8465 38.4487 44.9627C38.46 44.9702 38.4787 44.9702 38.49 44.9777C38.4787 45.0152 38.4525 45.0902 38.4225 45.1877C38.3025 45.1952 38.1862 45.2177 38.085 45.274C37.8525 45.4015 37.7325 45.6827 37.7625 45.9415C37.785 46.1327 37.8862 46.309 38.0287 46.4402C37.9387 46.7327 37.8637 46.9952 37.8262 47.149C37.5675 47.3477 37.5412 47.7715 37.7212 48.0527C37.9087 48.349 38.2537 48.5102 38.595 48.5965C38.9362 48.6827 39.2887 48.7127 39.6225 48.8252C39.6037 48.8215 39.5887 48.8215 39.57 48.8177C39.7387 48.8477 39.8812 48.8702 39.9712 48.8777C40.3087 48.9077 40.9537 48.7652 41.0512 48.1315C41.1075 47.7677 40.9725 47.5315 40.6237 47.389C40.5975 47.2952 40.5525 47.1902 40.5262 47.1115C40.59 47.1227 40.6575 47.1377 40.7212 47.149C40.845 47.164 40.95 47.1752 41.0137 47.1752C41.385 47.1865 41.925 47.0215 42.0075 46.4215C42.0637 46.024 41.88 45.6827 41.4825 45.5027C41.3362 45.4727 41.1862 45.4502 41.04 45.424C41.1 45.3265 41.16 45.229 41.22 45.1352L41.5837 45.169Z" fill="#70534A"/>
<path d="M41.7487 43.2711C41.6962 43.2036 41.685 43.0948 41.685 43.0948H41.6737C41.5387 43.0836 39.9225 43.0161 39.9225 43.0161C39.915 42.4948 39.7012 41.8723 39.555 41.3736C39.4575 41.3623 39.3412 41.3736 39.24 41.3398C39.3675 41.8311 39.6037 42.4048 39.6187 42.9073C39.63 43.2448 39.6075 43.5786 39.5362 43.9086C39.48 44.1748 39.39 44.4448 39.195 44.6361C39 44.8273 38.6812 44.9061 38.4525 44.7598C38.2687 44.6436 38.19 44.4186 38.145 44.2048C38.1 43.9798 38.0812 43.7511 38.0925 43.5261C38.1112 43.0423 38.2425 42.5136 37.9837 42.1086C37.815 41.8461 37.4887 41.6923 37.1812 41.7298C36.9825 41.7523 36.795 41.8573 36.66 42.0036C36.5962 42.0748 36.3487 42.4273 36.6037 42.4348C36.675 42.4348 36.7387 42.3861 36.795 42.3411C36.9675 42.2023 37.185 42.0748 37.3987 42.1386C37.6612 42.2173 37.7625 42.5361 37.7737 42.8098C37.7887 43.1848 37.71 43.5561 37.71 43.9273C37.71 44.3023 37.8112 44.7036 38.1 44.9398C37.71 45.0261 37.4212 45.4123 37.41 45.8136C37.3987 46.2148 37.65 46.5973 37.9987 46.7923C37.6725 46.7998 37.3875 47.0623 37.3012 47.3773C37.215 47.6923 37.3125 48.0373 37.5112 48.2961C37.5975 48.4086 37.7025 48.5061 37.83 48.5661C37.8562 48.5773 37.8862 48.5848 37.9162 48.5923L38.0362 48.4198L37.995 48.4761L37.9125 48.5923C37.9987 48.6186 38.0925 48.6336 38.1825 48.6486C38.235 48.6561 38.2875 48.6636 38.3437 48.6673C38.7525 48.7198 39.1612 48.7723 39.57 48.8211C39.5887 48.8248 39.6037 48.8248 39.6225 48.8286C39.2887 48.7161 38.9362 48.6861 38.595 48.5998C38.2537 48.5136 37.9125 48.3523 37.7212 48.0561C37.5337 47.7598 37.5675 47.3061 37.8637 47.1223C38.0437 47.0098 38.265 47.0173 38.475 47.0323C38.8087 47.0548 39.1387 47.0961 39.4687 47.1486C39.5587 47.1636 39.6487 47.1786 39.735 47.1936L39.8025 47.2048C39.8212 47.2086 39.8362 47.2123 39.855 47.2123C39.8925 47.2198 39.93 47.2273 39.9637 47.2311L40.02 47.2423C40.0575 47.2498 40.0912 47.2573 40.125 47.2611L40.1775 47.2723C40.2262 47.2836 40.2787 47.2911 40.3237 47.3023C40.425 47.3248 40.5075 47.3511 40.5862 47.3773C40.6087 47.3848 40.635 47.3886 40.6575 47.3961C40.605 47.3098 40.6687 47.1786 40.7662 47.1636L40.7137 47.1523L38.88 46.7923C38.64 46.7436 38.3925 46.6948 38.1862 46.5711C37.9612 46.4361 37.7887 46.2036 37.755 45.9411C37.7212 45.6786 37.845 45.3973 38.0775 45.2736C38.2537 45.1761 38.4637 45.1798 38.6662 45.1836C39.6075 45.2136 40.5487 45.3223 41.475 45.5061C41.4825 45.5061 41.4937 45.5098 41.5012 45.5098C41.4412 45.3936 41.5012 45.2286 41.6212 45.1761C41.6062 45.1761 41.5912 45.1723 41.58 45.1723C40.8375 45.1048 40.095 45.0336 39.3525 44.9661C39.8062 44.5686 39.8737 43.8973 39.9075 43.2973C39.9075 43.2936 41.6737 43.2711 41.7487 43.2711ZM51.0525 43.4361H56.115V48.4986H51.0525V43.4361Z" fill="#563E37"/>
</g>
<defs>
<clipPath id="clip0_4128_36856">
<rect width="48" height="48" fill="white"/>
</clipPath>
</defs>
</svg>
