<svg width="48" height="51" viewBox="0 0 48 51" fill="none" xmlns="http://www.w3.org/2000/svg">
<path d="M35.0601 16.8016C34.9201 16.7808 34.7801 16.7808 34.6401 16.8016C31.5401 16.6976 29.0801 14.056 29.0801 10.8112C29.0801 7.50399 31.6601 4.79999 34.8601 4.79999C38.0401 4.79999 40.6401 7.48319 40.6401 10.8112C40.6201 14.056 38.1601 16.6976 35.0601 16.8016Z" fill="#8A8D8E"/>
<path d="M41.5802 31.216C39.3402 32.776 36.2002 33.3584 33.3002 32.9632C34.0602 31.2576 34.4602 29.3648 34.4802 27.368C34.4802 25.288 34.0402 23.312 33.2002 21.5856C36.1602 21.1696 39.3002 21.752 41.5602 23.312C44.7202 25.4752 44.7202 29.032 41.5802 31.216Z" fill="#8A8D8E"/>
<path d="M12.8798 16.8016C13.0198 16.7808 13.1598 16.7808 13.2998 16.8016C16.3998 16.6976 18.8598 14.056 18.8598 10.8112C18.8598 7.48319 16.2798 4.79999 13.0798 4.79999C9.89982 4.79999 7.31982 7.48319 7.31982 10.8112C7.31982 14.056 9.77982 16.6976 12.8798 16.8016Z" fill="#8A8D8E"/>
<path d="M13.1002 27.368C13.1002 29.3856 13.5202 31.2992 14.2802 33.0256C11.4602 33.3376 8.52023 32.7136 6.36023 31.2368C3.20023 29.0528 3.20023 25.496 6.36023 23.312C8.50023 21.8144 11.5202 21.2112 14.3602 21.544C13.5402 23.2912 13.1002 25.2672 13.1002 27.368Z" fill="#8A8D8E"/>
<path d="M24.2401 33.6496C24.0801 33.6288 23.9001 33.6288 23.7201 33.6496C20.0401 33.5248 17.1001 30.384 17.1001 26.5152C17.1201 22.5632 20.1801 19.36 24.0001 19.36C27.8001 19.36 30.8801 22.5632 30.8801 26.5152C30.8601 30.384 27.9401 33.5248 24.2401 33.6496Z" fill="#8A8D8E"/>
<path d="M17.7401 37.9552C14.7201 40.056 14.7201 43.5088 17.7401 45.5888C21.1801 47.9808 26.8201 47.9808 30.2601 45.5888C33.2801 43.488 33.2801 40.0352 30.2601 37.9552C26.8401 35.5632 21.2001 35.5632 17.7401 37.9552Z" fill="#8A8D8E"/>
</svg>
