<svg width="19" height="18" viewBox="0 0 19 18" fill="none" xmlns="http://www.w3.org/2000/svg">
<path d="M4.25 14.25H5.31875L12.65 6.91875L11.5813 5.85L4.25 13.1812V14.25ZM2.75 15.75V12.5625L12.65 2.68125C12.8 2.54375 12.9656 2.4375 13.1469 2.3625C13.3281 2.2875 13.5188 2.25 13.7188 2.25C13.9187 2.25 14.1125 2.2875 14.3 2.3625C14.4875 2.4375 14.65 2.55 14.7875 2.7L15.8188 3.75C15.9688 3.8875 16.0781 4.05 16.1469 4.2375C16.2156 4.425 16.25 4.6125 16.25 4.8C16.25 5 16.2156 5.19062 16.1469 5.37187C16.0781 5.55312 15.9688 5.71875 15.8188 5.86875L5.9375 15.75H2.75ZM12.1063 6.39375L11.5813 5.85L12.65 6.91875L12.1063 6.39375Z" fill="#8A8D8E"/>
</svg>
