<svg width="16" height="17" viewBox="0 0 16 17" fill="none" xmlns="http://www.w3.org/2000/svg">
<path d="M13.7331 3.23372V4.70039C13.7331 5.23372 13.3998 5.90039 13.0664 6.23372L10.1998 8.76706C9.79976 9.10039 9.53309 9.76706 9.53309 10.3004V13.1671C9.53309 13.5671 9.26643 14.1004 8.93309 14.3004L7.99976 14.9004C7.13309 15.4337 5.93309 14.8337 5.93309 13.7671V10.2337C5.93309 9.76706 5.66643 9.16706 5.39976 8.83372L5.08643 8.50706C4.87976 8.28706 4.83976 7.95372 5.00643 7.69372L8.41976 2.21372C8.53976 2.02039 8.75309 1.90039 8.98643 1.90039H12.3998C13.1331 1.90039 13.7331 2.50039 13.7331 3.23372Z" fill="#0F2028"/>
<path d="M6.89994 2.92039L4.53327 6.71372C4.3066 7.08039 3.7866 7.13372 3.4866 6.82039L2.8666 6.16706C2.53327 5.83372 2.2666 5.23372 2.2666 4.83372V3.30039C2.2666 2.50039 2.8666 1.90039 3.59993 1.90039H6.33327C6.85327 1.90039 7.17327 2.47372 6.89994 2.92039Z" fill="#0F2028"/>
</svg>
