<svg width="16" height="17" viewBox="0 0 16 17" fill="none" xmlns="http://www.w3.org/2000/svg">
<path d="M14.1999 5.55345H10.4799C10.2199 5.55345 10.0132 5.34678 10.0132 5.08678C10.0132 4.82678 10.2199 4.62012 10.4799 4.62012H14.1999C14.4598 4.62012 14.6665 4.82678 14.6665 5.08678C14.6665 5.34678 14.4598 5.55345 14.1999 5.55345Z" fill="#0F2028"/>
<path d="M4.28016 5.55345H1.80016C1.54016 5.55345 1.3335 5.34678 1.3335 5.08678C1.3335 4.82678 1.54016 4.62012 1.80016 4.62012H4.28016C4.54016 4.62012 4.74683 4.82678 4.74683 5.08678C4.74683 5.34678 4.5335 5.55345 4.28016 5.55345Z" fill="#0F2028"/>
<path d="M6.7598 7.71979C8.21415 7.71979 9.39313 6.54081 9.39313 5.08646C9.39313 3.63211 8.21415 2.45312 6.7598 2.45312C5.30545 2.45312 4.12646 3.63211 4.12646 5.08646C4.12646 6.54081 5.30545 7.71979 6.7598 7.71979Z" fill="#0F2028"/>
<path d="M14.2001 12.3738H11.7201C11.4601 12.3738 11.2534 12.1671 11.2534 11.9071C11.2534 11.6471 11.4601 11.4404 11.7201 11.4404H14.2001C14.4601 11.4404 14.6668 11.6471 14.6668 11.9071C14.6668 12.1671 14.4601 12.3738 14.2001 12.3738Z" fill="#0F2028"/>
<path d="M5.52016 12.3738H1.80016C1.54016 12.3738 1.3335 12.1671 1.3335 11.9071C1.3335 11.6471 1.54016 11.4404 1.80016 11.4404H5.52016C5.78016 11.4404 5.98683 11.6471 5.98683 11.9071C5.98683 12.1671 5.7735 12.3738 5.52016 12.3738Z" fill="#0F2028"/>
<path d="M9.23978 14.5469C10.6941 14.5469 11.8731 13.368 11.8731 11.9136C11.8731 10.4593 10.6941 9.28027 9.23978 9.28027C7.78543 9.28027 6.60645 10.4593 6.60645 11.9136C6.60645 13.368 7.78543 14.5469 9.23978 14.5469Z" fill="#0F2028"/>
</svg>
