<svg width="24" height="25" viewBox="0 0 24 25" fill="none" xmlns="http://www.w3.org/2000/svg">
<path d="M7.4 7.5459H4.6C4.44087 7.5459 4.28826 7.60911 4.17574 7.72163C4.06321 7.83416 4 7.98677 4 8.1459V16.9459C4 17.0247 4.01552 17.1027 4.04567 17.1755C4.07583 17.2483 4.12002 17.3144 4.17574 17.3702C4.23145 17.4259 4.29759 17.4701 4.37039 17.5002C4.44319 17.5304 4.52121 17.5459 4.6 17.5459H7.4C7.47879 17.5459 7.55681 17.5304 7.62961 17.5002C7.70241 17.4701 7.76855 17.4259 7.82426 17.3702C7.87998 17.3144 7.92417 17.2483 7.95433 17.1755C7.98448 17.1027 8 17.0247 8 16.9459V8.1459C8 7.98677 7.93679 7.83416 7.82426 7.72163C7.71174 7.60911 7.55913 7.5459 7.4 7.5459ZM19.4 7.5459H16.6C16.4409 7.5459 16.2883 7.60911 16.1757 7.72163C16.0632 7.83416 16 7.98677 16 8.1459V16.9459C16 17.0247 16.0155 17.1027 16.0457 17.1755C16.0758 17.2483 16.12 17.3144 16.1757 17.3702C16.2315 17.4259 16.2976 17.4701 16.3704 17.5002C16.4432 17.5304 16.5212 17.5459 16.6 17.5459H19.4C19.4788 17.5459 19.5568 17.5304 19.6296 17.5002C19.7024 17.4701 19.7685 17.4259 19.8243 17.3702C19.88 17.3144 19.9242 17.2483 19.9543 17.1755C19.9845 17.1027 20 17.0247 20 16.9459V8.1459C20 7.98677 19.9368 7.83416 19.8243 7.72163C19.7117 7.60911 19.5591 7.5459 19.4 7.5459Z" stroke="#8A8D8E" stroke-width="1.5" stroke-linecap="round" stroke-linejoin="round"/>
<path d="M8 12.5459H16M1 14.9459V10.1459C1 9.98677 1.06321 9.83416 1.17574 9.72163C1.28826 9.60911 1.44087 9.5459 1.6 9.5459H3.4C3.55913 9.5459 3.71174 9.60911 3.82426 9.72163C3.93679 9.83416 4 9.98677 4 10.1459V14.9459C4 15.105 3.93679 15.2576 3.82426 15.3702C3.71174 15.4827 3.55913 15.5459 3.4 15.5459H1.6C1.44087 15.5459 1.28826 15.4827 1.17574 15.3702C1.06321 15.2576 1 15.105 1 14.9459ZM23 14.9459V10.1459C23 9.98677 22.9368 9.83416 22.8243 9.72163C22.7117 9.60911 22.5591 9.5459 22.4 9.5459H20.6C20.4409 9.5459 20.2883 9.60911 20.1757 9.72163C20.0632 9.83416 20 9.98677 20 10.1459V14.9459C20 15.105 20.0632 15.2576 20.1757 15.3702C20.2883 15.4827 20.4409 15.5459 20.6 15.5459H22.4C22.5591 15.5459 22.7117 15.4827 22.8243 15.3702C22.9368 15.2576 23 15.105 23 14.9459Z" stroke="#8A8D8E" stroke-width="1.5" stroke-linecap="round" stroke-linejoin="round"/>
</svg>
