<svg width="147" height="181" viewBox="0 0 147 181" fill="none" xmlns="http://www.w3.org/2000/svg">
<path opacity="0.1" d="M133.68 0L0.290894 76.9924L0.310287 180.942L133.699 103.949L133.68 0Z" fill="url(#paint0_linear_4436_29210)"/>
<path opacity="0.2" d="M133.68 0L0.465454 76.8954V90.9945L133.68 14.0991V0Z" fill="url(#paint1_linear_4436_29210)"/>
<path d="M146.266 47.0874L111.784 66.9852V76.5462L146.266 56.6484V47.0874Z" fill="#F2994A"/>
<path d="M51.1989 100.4L16.7366 120.298V129.859L51.1989 109.961V100.4Z" fill="#F2C94C"/>
<path opacity="0.15" d="M73.8118 113.278L6.51624 152.123V181L73.8118 142.155V113.278Z" fill="url(#paint2_linear_4436_29210)"/>
<path opacity="0.07" d="M67.2956 110.02L0 148.865V177.742L67.2956 138.897V110.02Z" fill="url(#paint3_linear_4436_29210)"/>
<path opacity="0.15" d="M68.8278 122.024L58.6849 127.881V137.442L68.8278 131.585V122.024Z" fill="white"/>
<path opacity="0.15" d="M56.3383 129.568L46.1954 135.425V144.986L56.3383 139.129V129.568Z" fill="white"/>
<path opacity="0.15" d="M43.8488 136.647L33.7059 142.504V152.065L43.8488 146.208V136.647Z" fill="white"/>
<path opacity="0.15" d="M31.3594 144.191L21.2166 150.048V159.609L31.3594 153.752V144.191Z" fill="white"/>
<path opacity="0.15" d="M124.681 39.0779L48.1542 83.2564V86.5145L124.681 42.336V39.0779Z" fill="white"/>
<path opacity="0.15" d="M124.681 45.6523L58.6461 83.7607V87.0188L124.681 48.9105V45.6523Z" fill="white"/>
<path opacity="0.15" d="M124.681 52.1492L68.498 84.5752V87.8333L124.681 55.4073V52.1492Z" fill="white"/>
<path opacity="0.15" d="M143.105 70.2434L87.077 102.572V131.449L143.105 99.1204V70.2434Z" fill="url(#paint4_linear_4436_29210)"/>
<path opacity="0.07" d="M136.589 66.9854L80.5608 99.3144V128.191L136.589 95.8623V66.9854Z" fill="url(#paint5_linear_4436_29210)"/>
<path opacity="0.15" d="M139.285 79.3972L94.757 105.094V108.352L139.265 82.6553L139.285 79.3972Z" fill="white"/>
<path opacity="0.15" d="M139.285 85.9717L103.639 106.548V109.806L139.285 89.2298V85.9717Z" fill="white"/>
<path opacity="0.2" d="M119.173 15.4179C119.173 17.5318 120.415 18.5209 121.927 17.6482C123.44 16.7755 124.681 14.3513 124.681 12.2568C124.681 10.1429 123.44 9.15379 121.927 10.0265C120.395 10.8992 119.173 13.3234 119.173 15.4179Z" fill="white"/>
<path opacity="0.3" d="M122.8 126.446C122.8 130.286 123.653 132.749 125.36 133.815C127.067 134.882 129.355 134.591 132.225 132.923C135.095 131.255 137.384 128.928 139.091 125.883C140.797 122.858 141.651 119.406 141.651 115.566C141.651 111.726 140.797 109.263 139.091 108.196C137.384 107.13 135.095 107.421 132.225 109.089C129.355 110.737 127.067 113.084 125.36 116.128C123.653 119.154 122.8 122.586 122.8 126.446ZM128.812 122.974C128.812 120.88 129.122 119.193 129.762 117.874C130.402 116.555 131.217 115.624 132.206 115.042C133.234 114.441 134.068 114.441 134.708 115.004C135.309 115.605 135.619 116.943 135.619 119.018C135.619 121.113 135.309 122.819 134.708 124.138C134.068 125.457 133.234 126.407 132.206 126.989C131.217 127.571 130.402 127.571 129.762 126.989C129.142 126.407 128.812 125.049 128.812 122.974ZM112.424 121.5L105.035 125.767L125.845 156.331L133.234 152.065L112.424 121.5ZM96.5217 162.304C96.5217 166.144 97.375 168.607 99.0817 169.674C100.788 170.741 103.077 170.45 105.947 168.782C108.817 167.133 111.106 164.787 112.812 161.742C114.519 158.717 115.372 155.265 115.372 151.425C115.372 147.585 114.519 145.122 112.812 144.055C111.106 142.989 108.817 143.279 105.947 144.947C103.077 146.596 100.788 148.942 99.0817 151.987C97.375 155.013 96.5217 158.465 96.5217 162.304ZM102.534 158.833C102.534 156.739 102.844 155.051 103.484 153.733C104.124 152.414 104.939 151.483 105.928 150.901C106.955 150.3 107.789 150.3 108.429 150.862C109.031 151.463 109.341 152.802 109.341 154.877C109.341 156.971 109.031 158.678 108.429 159.997C107.789 161.315 106.955 162.266 105.928 162.847C104.939 163.429 104.124 163.429 103.484 162.847C102.863 162.285 102.534 160.928 102.534 158.833Z" fill="url(#paint6_linear_4436_29210)"/>
<defs>
<linearGradient id="paint0_linear_4436_29210" x1="40.9979" y1="64.5416" x2="90.7437" y2="114.189" gradientUnits="userSpaceOnUse">
<stop stop-color="white"/>
<stop offset="1" stop-color="white" stop-opacity="0"/>
</linearGradient>
<linearGradient id="paint1_linear_4436_29210" x1="100.625" y1="-11.3405" x2="50.0428" y2="74.3419" gradientUnits="userSpaceOnUse">
<stop stop-color="white"/>
<stop offset="1" stop-color="white" stop-opacity="0"/>
</linearGradient>
<linearGradient id="paint2_linear_4436_29210" x1="33.9127" y1="136.314" x2="45.4295" y2="156.267" gradientUnits="userSpaceOnUse">
<stop stop-color="white"/>
<stop offset="1" stop-color="white" stop-opacity="0"/>
</linearGradient>
<linearGradient id="paint3_linear_4436_29210" x1="27.3909" y1="133.053" x2="38.9079" y2="153.007" gradientUnits="userSpaceOnUse">
<stop stop-color="white"/>
<stop offset="1" stop-color="white" stop-opacity="0"/>
</linearGradient>
<linearGradient id="paint4_linear_4436_29210" x1="108.842" y1="90.0178" x2="120.359" y2="109.971" gradientUnits="userSpaceOnUse">
<stop stop-color="white"/>
<stop offset="1" stop-color="white" stop-opacity="0"/>
</linearGradient>
<linearGradient id="paint5_linear_4436_29210" x1="102.321" y1="86.7569" x2="113.838" y2="106.71" gradientUnits="userSpaceOnUse">
<stop stop-color="white"/>
<stop offset="1" stop-color="white" stop-opacity="0"/>
</linearGradient>
<linearGradient id="paint6_linear_4436_29210" x1="108.553" y1="124.178" x2="136.186" y2="162.917" gradientUnits="userSpaceOnUse">
<stop stop-color="white"/>
<stop offset="1" stop-color="white" stop-opacity="0"/>
</linearGradient>
</defs>
</svg>
