<svg width="311" height="290" viewBox="0 0 311 290" fill="none" xmlns="http://www.w3.org/2000/svg">
<path d="M276.2 200.614H295.881V192.954H276.2V200.614Z" fill="#EBEBEB"/>
<path d="M287.185 210.274L297.107 210.082L301.997 210.007C303.625 209.973 305.245 210.007 306.866 209.966L306.531 210.274V202.613L306.903 202.956L297.062 202.915C293.785 202.915 290.5 202.832 287.222 202.798L287.423 202.613C287.423 203.866 287.363 205.126 287.326 206.399L287.185 210.274ZM287.185 210.274L287.051 206.515C287.014 205.242 286.962 203.948 286.955 202.648V202.408H287.163C290.44 202.367 293.725 202.298 297.003 202.292L306.843 202.25H307.215V202.593L307.17 210.253V210.561H306.843C305.186 210.561 303.521 210.561 301.864 210.527L296.914 210.452L287.185 210.274Z" fill="#EBEBEB"/>
<path d="M142.226 135.032L152.155 134.84L157.038 134.765C158.666 134.73 160.286 134.765 161.907 134.73L161.572 135.032L161.535 127.371L161.907 127.713L152.066 127.672C148.789 127.672 145.504 127.597 142.226 127.556L142.427 127.371C142.427 128.624 142.367 129.884 142.33 131.164L142.226 135.032ZM142.226 135.032L142.122 131.212C142.085 129.938 142.04 128.644 142.025 127.344V127.159H142.233C145.511 127.125 148.796 127.049 152.074 127.043L161.914 127.001H162.286V127.344L162.248 135.004V135.319H161.921C160.264 135.319 158.599 135.319 156.949 135.278L151.992 135.203L142.226 135.032Z" fill="#EBEBEB"/>
<path d="M153.203 144.691H172.884V137.03H153.203V144.691Z" fill="#EBEBEB"/>
<path d="M131.078 144.691L141.007 144.5L145.898 144.424C147.525 144.39 149.138 144.424 150.758 144.39L150.431 144.691L150.387 137.031L150.758 137.373L140.918 137.332C137.64 137.332 134.363 137.257 131.078 137.216L131.286 137.031C131.286 138.284 131.219 139.543 131.189 140.823L131.078 144.691ZM131.078 144.691L130.974 140.899C130.974 139.625 130.892 138.331 130.877 137.031V136.846H131.078C134.363 136.846 137.64 136.736 140.918 136.73L150.758 136.688H151.137V137.031L151.1 144.691V144.999H150.766C149.108 144.999 147.443 144.999 145.794 144.958L140.844 144.883L131.078 144.691Z" fill="#EBEBEB"/>
<path d="M172.527 47.6655H192.208V40.0051H172.527V47.6655Z" fill="#EBEBEB"/>
<path d="M4.13439 210.274L14.0639 210.082L18.9543 210.007C20.5746 209.973 22.1948 210.007 23.815 209.966L23.488 210.274L23.4434 202.613L23.815 202.956L13.9747 202.915C10.6971 202.915 7.41202 202.832 4.13439 202.798L4.33506 202.613C4.33506 203.866 4.2756 205.126 4.23844 206.399L4.13439 210.274ZM4.13439 210.274L4.03034 206.515C3.99317 205.242 3.94858 203.948 3.93372 202.648V202.408H4.13439C7.41202 202.367 10.6971 202.298 13.9747 202.292L23.815 202.25H24.1867V202.593V210.253V210.561H23.8522C22.1948 210.561 20.53 210.561 18.88 210.527L13.9301 210.452L4.13439 210.274Z" fill="#EBEBEB"/>
<path d="M15.1118 16.3392L25.0414 16.1475L29.9318 16.0722C31.5595 16.038 33.1723 16.0722 34.7925 16.0311L34.4655 16.3392L34.4209 8.67187L34.7925 9.01416L24.9522 8.97309C21.6745 8.97309 18.3969 8.89094 15.1118 8.85671L15.32 8.67187C15.32 9.92465 15.2531 11.1843 15.2159 12.4644L15.1118 16.3392ZM15.1118 16.3392L15.0301 12.5466C15.0301 11.2733 14.9483 9.97942 14.9335 8.67872V8.49388H15.1341C18.4192 8.45965 21.6968 8.38435 24.9745 8.3775L34.8148 8.33643H35.1938V8.67187L35.0972 16.3392V16.6472H34.7628C33.1054 16.6472 31.4405 16.6472 29.7906 16.6062L24.8407 16.5309L15.1118 16.3392Z" fill="#EBEBEB"/>
<path d="M4.13441 25.9985L23.8151 25.9985V18.3381H4.13441V25.9985Z" fill="#EBEBEB"/>
<path d="M287.185 16.3392L297.107 16.1475L301.997 16.0722C303.625 16.038 305.245 16.0722 306.866 16.0311L306.531 16.3392V8.67872L306.903 9.02101L297.062 8.97993C293.785 8.97993 290.5 8.89778 287.222 8.86355L287.423 8.67872C287.423 9.9315 287.363 11.1911 287.326 12.4713L287.185 16.3392ZM287.185 16.3392L287.051 12.5466C287.014 11.2733 286.962 9.97942 286.955 8.67872V8.49388H287.163C290.44 8.45965 293.725 8.38435 297.003 8.3775L306.843 8.33643H307.215V8.67187L307.193 16.3392V16.6472H306.866C305.208 16.6472 303.543 16.6472 301.886 16.6062L296.936 16.5309L287.185 16.3392Z" fill="#EBEBEB"/>
<path d="M95.4992 235.11H42.024V289.651H95.4992V235.11Z" fill="#EBEBEB"/>
<path d="M14.4206 289.658H42.0315L42.0315 235.11H14.4206L14.4206 289.658Z" fill="#DBDBDB"/>
<path d="M16.3159 285.927C18.3672 282.047 20.3938 278.168 22.3955 274.289L28.4082 262.494L34.354 250.712C36.336 246.778 38.2783 242.83 40.1809 238.869C38.1296 242.748 36.1031 246.639 34.1013 250.541L28.1109 262.274L22.1651 274.056C20.1881 277.995 18.2384 281.952 16.3159 285.927Z" fill="#EBEBEB"/>
<path d="M16.3159 238.869C18.2384 242.835 20.1807 246.782 22.1428 250.712L28.0886 262.494L34.079 274.227C36.0858 278.129 38.1123 282.009 40.1586 285.865C38.2362 281.904 36.2939 277.956 34.3317 274.022L28.3859 262.24L22.3955 250.507C20.3888 246.627 18.3623 242.748 16.3159 238.869Z" fill="#EBEBEB"/>
<path d="M95.4992 152.735H42.024V203.517H95.4992V152.735Z" fill="#EBEBEB"/>
<path d="M14.4206 203.524H42.0315L42.0315 152.735H14.4206L14.4206 203.524Z" fill="#DBDBDB"/>
<path d="M64.2242 164.523H65.3614H66.2087L66.6918 163.613L67.3755 164.523L68.2971 162.654L69.1741 164.523H71.6788H72.8159L73.2322 163.277L73.6186 164.523H74.3619V152.735H64.2242V164.523Z" fill="#DBDBDB"/>
<path d="M16.3159 200.286C18.3672 196.68 20.3938 193.052 22.3955 189.401L28.3859 178.448L34.3317 167.494C36.3137 163.843 38.256 160.167 40.1586 156.466C38.1073 160.08 36.0808 163.704 34.079 167.337L28.0886 178.256L22.1428 189.209C20.1807 192.901 18.2384 196.594 16.3159 200.286Z" fill="#EBEBEB"/>
<path d="M16.3159 156.493C18.2384 160.176 20.1807 163.843 22.1428 167.494L28.0886 178.448L34.079 189.401C36.0858 193.052 38.1123 196.676 40.1586 200.272C38.2362 196.584 36.2939 192.908 34.3317 189.243L28.3859 178.29L22.3955 167.371C20.3888 163.734 18.3623 160.108 16.3159 156.493Z" fill="#EBEBEB"/>
<path d="M45.547 200.368H51.4854V194.898H45.547V200.368Z" fill="white"/>
<path d="M91.9393 203.524H38.4641V235.11H91.9393V203.524Z" fill="#DBDBDB"/>
<path d="M10.8532 235.11H38.4641L38.4641 203.524H10.8532L10.8532 235.11Z" fill="#C7C7C7"/>
<path d="M60.6643 215.312H61.794H62.6487L63.1318 214.402L63.8156 215.312L64.7372 213.443L65.6142 215.312H68.1114H69.256L69.6648 214.066L70.0587 215.312H70.8019V203.524H60.6643V215.312Z" fill="white"/>
<path d="M12.7559 233.214C14.8022 230.932 16.8287 228.63 18.8355 226.307L24.8259 219.365L30.7717 212.389C32.7239 210.061 34.6637 207.725 36.5912 205.379C34.5498 207.661 32.5232 209.963 30.5116 212.286L24.5211 219.235L18.5753 226.204C16.6182 228.545 14.6783 230.882 12.7559 233.214Z" fill="#DBDBDB"/>
<path d="M12.7559 205.399C14.6833 207.745 16.6256 210.082 18.5828 212.41L24.5286 219.385L30.519 226.327C32.5009 228.636 34.5225 230.932 36.5837 233.214C34.6662 230.868 32.7264 228.531 30.7643 226.204L24.8184 219.235L18.828 212.286C16.8263 209.995 14.8022 207.7 12.7559 205.399Z" fill="#DBDBDB"/>
<path d="M300.147 241.942H246.672V289.658H300.147V241.942Z" fill="#DBDBDB"/>
<path d="M219.068 289.658H246.679V241.942H219.068V289.658Z" fill="#C7C7C7"/>
<path d="M268.872 253.731H270.002H270.856L271.339 252.82L272.023 253.731L272.945 251.862L273.822 253.731H276.319H277.464L277.88 252.478L278.266 253.731H279.009V241.942H268.872V253.731Z" fill="white"/>
<path d="M220.963 286.816C223.01 283.352 225.036 279.875 227.043 276.383L233.033 265.896L238.979 255.367C240.961 251.848 242.901 248.32 244.799 244.783C242.757 248.247 240.731 251.725 238.719 255.216L232.729 265.697L226.82 276.233C224.858 279.752 222.906 283.279 220.963 286.816Z" fill="#DBDBDB"/>
<path d="M220.963 244.783C222.891 248.32 224.833 251.848 226.79 255.367L232.699 265.896L238.689 276.383C240.696 279.875 242.723 283.352 244.769 286.816C242.851 283.275 240.912 279.747 238.949 276.233L233.004 265.697L227.013 255.216C225.026 251.725 223.01 248.247 220.963 244.783Z" fill="#DBDBDB"/>
<path d="M207.169 5.93359V122.381H294.171V5.93359H207.169ZM290.961 119.389H210.38V8.85675H290.961V119.389Z" fill="#EBEBEB"/>
<path d="M290.961 8.85645H210.38V119.389H290.961V8.85645Z" fill="white"/>
<path d="M210.38 69.0244L290.961 69.0244V66.067L210.38 66.067V69.0244Z" fill="#EBEBEB"/>
<path d="M201.253 130.828H300.08V122.339L201.253 122.339V130.828Z" fill="#DBDBDB"/>
<path d="M203.877 134.224L297.464 136.031V130.828H203.877V134.224Z" fill="#EBEBEB"/>
<path d="M210.38 8.85645H290.961V84.7969H210.38V8.85645ZM287.988 11.5948H213.353V82.0586H287.988V11.5948Z" fill="#DBDBDB"/>
<path d="M265.245 8.85645H263.639V82.0586H265.245V8.85645Z" fill="#DBDBDB"/>
<path d="M237.701 8.85645H236.095V82.0586H237.701V8.85645Z" fill="#DBDBDB"/>
<path d="M16.8287 5.93359V122.381H103.831V5.93359H16.8287ZM100.62 119.389H20.0394V8.85675H100.62V119.389Z" fill="#EBEBEB"/>
<path d="M100.62 8.85645H20.0394V119.389H100.62V8.85645Z" fill="white"/>
<path d="M20.0394 69.0244L100.62 69.0244V66.067L20.0394 66.067V69.0244Z" fill="#EBEBEB"/>
<path d="M10.9126 130.828H109.74V122.339L10.9126 122.339V130.828Z" fill="#DBDBDB"/>
<path d="M13.5363 134.224L107.123 136.031V130.828H13.5363V134.224Z" fill="#EBEBEB"/>
<path d="M20.0394 8.85645H100.62V84.7969H20.0394V8.85645ZM97.6472 11.5948H23.0123V82.0586H97.6472V11.5948Z" fill="#DBDBDB"/>
<path d="M74.9044 8.85645H73.2991V82.0586H74.9044V8.85645Z" fill="#DBDBDB"/>
<path d="M47.3605 8.85645H45.7551V82.0586H47.3605V8.85645Z" fill="#DBDBDB"/>
<path d="M221.432 233.249H147.347V289.631H221.432V233.249Z" fill="#8A8D8E"/>
<path opacity="0.1" d="M221.432 233.249H147.347V289.631H221.432V233.249Z" fill="black"/>
<path d="M250.789 233.255H221.432V289.637H250.789V233.255Z" fill="#8A8D8E"/>
<path opacity="0.2" d="M250.789 233.255H221.432V289.637H250.789V233.255Z" fill="black"/>
<path d="M248.76 285.749C246.59 281.742 244.437 277.721 242.302 273.686L235.932 261.556L229.644 249.377C227.563 245.311 225.5 241.231 223.453 237.137C225.634 241.148 227.789 245.169 229.919 249.199L236.281 261.33L242.569 273.508C244.66 277.575 246.724 281.655 248.76 285.749Z" fill="#8A8D8E"/>
<path d="M248.76 237.137C246.719 241.244 244.655 245.324 242.569 249.377L236.281 261.556L229.919 273.686C227.784 277.716 225.629 281.737 223.453 285.749C225.5 281.641 227.563 277.561 229.644 273.508L235.932 261.33L242.302 249.206C244.437 245.167 246.59 241.144 248.76 237.137Z" fill="#8A8D8E"/>
<path d="M189.629 245.434H188.462H187.578L187.08 244.496L186.374 245.434L185.415 243.504L184.516 245.434H181.929H180.747L180.316 244.147L179.915 245.434H179.15V233.255H189.629V245.434Z" fill="white"/>
<path d="M225.898 176.873H170.625V233.248H225.898V176.873Z" fill="#8A8D8E"/>
<path d="M254.438 176.873H225.898V233.255H254.438V176.873Z" fill="#8A8D8E"/>
<path opacity="0.1" d="M254.438 176.873H225.898V233.255H254.438V176.873Z" fill="black"/>
<g opacity="0.1">
<path d="M221.848 229.367C217.79 225.355 213.766 221.335 209.778 217.305L197.864 205.147L186.128 192.968C182.234 188.901 178.379 184.821 174.564 180.728C178.627 184.739 182.65 188.762 186.634 192.797L198.525 204.921L210.261 217.099C214.17 221.184 218.033 225.273 221.848 229.367Z" fill="black"/>
<path d="M221.848 180.755C218.028 184.862 214.173 188.942 210.283 192.995L198.548 205.146L186.656 217.277C182.692 221.307 178.669 225.328 174.586 229.34C178.406 225.232 182.261 221.152 186.151 217.099L197.864 204.948L209.756 192.824C213.754 188.785 217.785 184.762 221.848 180.755Z" fill="black"/>
</g>
<path d="M250.425 223.712H245.423V230.216H250.425V223.712Z" fill="white"/>
<path d="M0.5 289.658L39.2519 289.487L78.0037 289.432L155.5 289.315L232.996 289.432L271.748 289.487L310.5 289.658L271.748 289.822L232.996 289.884L155.5 290L78.0037 289.884L39.2519 289.822L0.5 289.658Z" fill="#263238"/>
<path d="M185.021 95.4763C184.605 95.2298 184.189 94.9902 183.772 94.7575L184.062 94.3125L185.326 95.045L185.021 95.4763Z" fill="#263238"/>
<path d="M166.871 164.071H166.336V163.558C167.328 163.578 168.321 163.544 169.309 163.455L169.369 163.969C168.558 164.023 167.711 164.071 166.871 164.071ZM172.386 163.51L172.267 163.01C173.234 162.809 174.183 162.541 175.106 162.209L175.307 162.688C174.356 163.024 173.38 163.294 172.386 163.496V163.51ZM178.057 161.456L177.782 161.011C178.636 160.552 179.449 160.03 180.212 159.45L180.569 159.841C179.782 160.445 178.942 160.988 178.057 161.463V161.456ZM182.762 157.896L182.353 157.547C183.02 156.872 183.633 156.154 184.189 155.398L184.649 155.685C184.08 156.468 183.449 157.212 182.762 157.91V157.896ZM186.165 153.248L185.66 153.029C186.084 152.205 186.429 151.348 186.693 150.469L187.228 150.606C186.958 151.516 186.603 152.402 186.165 153.255V153.248ZM187.771 147.826L187.213 147.785C187.213 147.415 187.265 147.039 187.265 146.676C187.263 146.168 187.231 145.661 187.169 145.156C186.59 145.121 186.015 145.054 185.445 144.958L185.541 144.451C186.449 144.602 187.369 144.68 188.291 144.684H188.484V145.197H188.284H187.726C187.786 145.693 187.816 146.191 187.815 146.69C187.823 147.059 187.801 147.45 187.771 147.833V147.826ZM191.539 144.855L191.413 144.355C192.369 144.147 193.294 143.834 194.17 143.424L194.423 143.883C193.507 144.313 192.539 144.642 191.539 144.862V144.855ZM182.487 144.218C181.525 143.899 180.593 143.51 179.699 143.055L179.974 142.61C180.84 143.05 181.742 143.425 182.672 143.732L182.487 144.218ZM186.485 142.411C186.159 141.555 185.73 140.736 185.207 139.967L185.675 139.693C186.226 140.492 186.674 141.347 187.013 142.24L186.485 142.411ZM196.979 142.302L196.623 141.911C197.377 141.325 198.066 140.671 198.681 139.96L199.112 140.282C198.478 141.026 197.763 141.71 196.979 142.322V142.302ZM177.18 141.48L177.024 141.343C176.288 140.748 175.702 140.012 175.307 139.187L175.827 138.995C176.19 139.751 176.727 140.424 177.403 140.967L177.551 141.09L177.18 141.48ZM200.837 137.982L200.361 137.715C200.881 136.921 201.364 136.106 201.788 135.305L202.294 135.531C201.862 136.346 201.372 137.174 200.837 137.982ZM183.356 137.879C182.677 137.274 181.93 136.737 181.126 136.277L181.015 136.209L181.305 135.771L181.424 135.839C182.252 136.321 183.022 136.883 183.72 137.516L183.356 137.879ZM175.976 136.558L175.515 136.27C175.833 135.859 176.255 135.524 176.744 135.295C177.234 135.066 177.776 134.95 178.324 134.956V135.47C177.867 135.467 177.416 135.564 177.008 135.754C176.6 135.943 176.246 136.219 175.976 136.558ZM203.475 132.95L202.955 132.772C203.299 131.913 203.594 131.038 203.839 130.15L204.375 130.274C204.135 131.181 203.837 132.075 203.483 132.95H203.475ZM204.962 127.522L204.404 127.453C204.537 126.545 204.614 125.631 204.635 124.715H205.192C205.172 125.654 205.095 126.591 204.962 127.522ZM204.531 121.976C204.441 121.058 204.3 120.143 204.107 119.238L204.657 119.135C204.851 120.052 204.995 120.978 205.088 121.908L204.531 121.976ZM203.379 116.596C203.096 115.733 202.762 114.864 202.375 114.001L202.896 113.809C203.282 114.679 203.639 115.569 203.914 116.445L203.379 116.596ZM201.149 111.496C200.703 110.695 200.205 109.887 199.663 109.093L200.138 108.826C200.673 109.627 201.179 110.448 201.625 111.263L201.149 111.496ZM198.02 106.799C197.448 106.06 196.831 105.327 196.192 104.615L196.623 104.287C197.269 105.006 197.894 105.752 198.473 106.498L198.02 106.799ZM194.215 102.541C193.538 101.857 192.825 101.22 192.096 100.59L192.475 100.214C193.219 100.857 193.962 101.521 194.616 102.192L194.215 102.541ZM189.852 98.7555C189.109 98.1736 188.299 97.5986 187.503 97.0509L187.83 96.6401C188.64 97.1878 189.443 97.7697 190.209 98.3653L189.852 98.7555Z" fill="#263238"/>
<path d="M163.222 163.825C162.722 163.768 162.226 163.686 161.736 163.579L161.869 163.079C161.869 163.079 162.405 163.202 163.296 163.319L163.222 163.825Z" fill="#263238"/>
<path d="M155.723 162.805C155.374 165.543 161.446 167.077 161.907 163.49C162.367 159.902 156.072 160.046 155.723 162.805Z" fill="#263238"/>
<path d="M163.675 167.337C163.111 168.371 161.111 168.514 159.045 167.186C157.642 166.2 156.456 164.975 155.552 163.579C157.299 163.411 159.065 163.553 160.755 163.996C163.2 164.756 164.27 166.29 163.675 167.337Z" fill="#EBEBEB"/>
<path d="M155.574 163.579C156.749 164.065 157.901 164.592 159.053 165.112C160.205 165.632 161.342 166.187 162.464 166.762C161.29 166.276 160.138 165.749 158.986 165.228C157.834 164.708 156.697 164.154 155.574 163.579Z" fill="#263238"/>
<path d="M160.97 167.316C160.703 167.031 160.455 166.732 160.227 166.419C160.002 166.109 159.799 165.787 159.617 165.454C159.884 165.739 160.132 166.039 160.361 166.351C160.587 166.66 160.79 166.982 160.97 167.316Z" fill="#263238"/>
<path d="M158.473 164.914C158.882 164.816 159.296 164.738 159.714 164.681C160.135 164.626 160.56 164.592 160.985 164.578C160.162 164.767 159.32 164.879 158.473 164.914Z" fill="#263238"/>
<path d="M157.826 165.365C157.571 165.072 157.388 164.731 157.291 164.366C157.547 164.659 157.729 165 157.826 165.365Z" fill="#263238"/>
<path d="M164.657 160.169C164.367 159.04 162.464 158.479 160.123 159.327C158.507 159.99 157.044 160.931 155.812 162.1C157.483 162.633 159.249 162.865 161.015 162.785C163.519 162.593 164.954 161.333 164.657 160.169Z" fill="#EBEBEB"/>
<path d="M155.812 162.1C157.076 161.881 158.332 161.607 159.58 161.34C160.829 161.073 162.078 160.786 163.296 160.464C162.04 160.683 160.784 160.957 159.536 161.224C158.287 161.491 157.053 161.778 155.812 162.1Z" fill="#263238"/>
<path d="M162.003 159.608C161.68 159.82 161.37 160.048 161.074 160.292C160.779 160.548 160.499 160.818 160.234 161.1C160.561 160.892 160.872 160.664 161.163 160.416C161.46 160.162 161.741 159.892 162.003 159.608Z" fill="#263238"/>
<path d="M158.956 161.416C159.709 161.776 160.501 162.063 161.319 162.271C160.568 161.907 159.775 161.62 158.956 161.416Z" fill="#263238"/>
<path d="M158.473 160.84C158.311 160.952 158.164 161.081 158.034 161.224C157.906 161.37 157.794 161.529 157.7 161.696C157.862 161.582 158.009 161.451 158.138 161.306C158.273 161.166 158.386 161.009 158.473 160.84Z" fill="#263238"/>
<path d="M155.723 162.805C155.936 162.828 156.137 162.908 156.3 163.036C156.463 163.164 156.582 163.333 156.641 163.523C156.7 163.713 156.696 163.914 156.631 164.103C156.565 164.291 156.441 164.456 156.273 164.579C156.106 164.702 155.902 164.777 155.689 164.794C155.475 164.81 155.261 164.768 155.073 164.673C154.886 164.577 154.733 164.433 154.634 164.258C154.535 164.082 154.495 163.884 154.519 163.688C154.552 163.424 154.698 163.183 154.923 163.018C155.149 162.853 155.436 162.776 155.723 162.805Z" fill="#455A64"/>
<path d="M155.976 160.813C156.118 160.828 156.255 160.869 156.38 160.933C156.505 160.997 156.615 161.084 156.703 161.187C156.792 161.29 156.858 161.409 156.897 161.535C156.936 161.662 156.947 161.795 156.931 161.925C156.914 162.056 156.87 162.183 156.8 162.298C156.73 162.413 156.637 162.514 156.525 162.596C156.413 162.677 156.284 162.738 156.146 162.774C156.009 162.81 155.865 162.82 155.723 162.805C155.436 162.774 155.174 162.64 154.995 162.431C154.816 162.222 154.734 161.957 154.768 161.693C154.801 161.428 154.948 161.187 155.174 161.022C155.401 160.857 155.689 160.782 155.976 160.813Z" fill="#455A64"/>
<path d="M88.6095 227.265C88.6095 227.265 72.7639 256.49 72.7565 256.49C71.4484 262.521 70.4228 267.84 70.1626 270.633C70.1588 270.649 70.1588 270.665 70.1626 270.681C70.0255 271.329 70.0534 271.997 70.2444 272.632C70.2406 272.648 70.2406 272.664 70.2444 272.68C71.9315 274.255 124.002 285.297 125.986 285.119C127.971 284.941 127.547 279.786 125.897 277.876C124.247 275.966 106.358 263.5 106.358 263.5L121.847 234.227L88.6095 227.265Z" fill="#573D30"/>
<path d="M125.199 285.147C123.244 285.325 71.9538 274.275 70.2741 272.708C70.2717 272.692 70.2717 272.676 70.2741 272.66C70.0796 272.025 70.0491 271.357 70.1849 270.709C70.1787 270.693 70.1787 270.676 70.1849 270.661C70.4376 267.868 71.4707 262.549 72.7713 256.511L76.5618 249.514L109.42 257.811L106.388 263.548C106.388 263.548 123.482 275.987 125.139 277.924C126.797 279.862 127.161 284.975 125.199 285.147Z" fill="#EBEBEB"/>
<path d="M125.912 284.38C123.928 284.516 71.7308 272.262 70.066 270.633C69.4268 270.024 70.9207 262.911 72.9943 254.368L73.0612 254.101L106.833 261.665L106.677 262.185C106.677 262.185 124.374 275.11 126.001 277.082C127.629 279.054 127.889 284.249 125.912 284.38Z" fill="#263238"/>
<path d="M125.83 282.374C117.09 280.115 81.5935 271.735 72.764 270.106C72.6896 270.106 72.6748 270.14 72.764 270.161C81.378 272.577 116.949 280.69 125.816 282.483C125.986 282.545 126.016 282.422 125.83 282.374Z" fill="white"/>
<path d="M109.479 262.945C106.179 261.535 101.809 261.028 98.539 262.685C98.4127 262.747 98.539 262.911 98.6282 262.904C102.21 262.697 105.805 262.844 109.353 263.342C109.405 263.345 109.457 263.332 109.499 263.304C109.542 263.277 109.573 263.236 109.588 263.19C109.603 263.144 109.6 263.095 109.58 263.05C109.56 263.006 109.525 262.969 109.479 262.945Z" fill="white"/>
<path d="M111.59 264.917C108.298 263.513 103.927 263.007 100.65 264.657C100.523 264.718 100.65 264.883 100.746 264.883C104.328 264.672 107.924 264.819 111.471 265.321C111.525 265.326 111.58 265.313 111.624 265.284C111.669 265.256 111.702 265.213 111.716 265.165C111.73 265.117 111.725 265.065 111.702 265.02C111.679 264.974 111.64 264.938 111.59 264.917Z" fill="white"/>
<path d="M113.708 266.896C110.408 265.486 106.038 264.979 102.768 266.629C102.642 266.697 102.768 266.862 102.865 266.855C106.444 266.648 110.037 266.795 113.582 267.293C113.634 267.296 113.686 267.282 113.728 267.255C113.771 267.227 113.802 267.187 113.817 267.141C113.832 267.095 113.829 267.045 113.809 267.001C113.789 266.956 113.754 266.919 113.708 266.896Z" fill="white"/>
<path d="M127.183 282.846C128.023 283.394 127.019 286.235 126.284 286.31C125.548 286.385 68.6985 272.79 67.7992 272.358C66.8998 271.927 68.1336 268.819 69.2856 268.935C70.4376 269.052 127.183 282.846 127.183 282.846Z" fill="#8A8D8E"/>
<path d="M80.1888 261.508C76.8889 258.879 72.4444 263.603 75.7294 266.238C79.0145 268.874 83.4961 264.144 80.1888 261.508Z" fill="white"/>
<path d="M76.6584 247.18L114.741 256.025C114.741 256.025 150.238 197.021 149.443 182.021C148.35 161.333 121.98 97.7222 121.98 97.7222H90.4081C90.4081 97.7222 111.36 166.488 111.65 178.058C111.776 184.109 76.6584 247.18 76.6584 247.18Z" fill="#455A64"/>
<path d="M116.369 248.905C114.34 248.159 96.2127 243.339 82.686 240.69C82.6711 240.694 82.6582 240.703 82.649 240.715C82.6398 240.727 82.6349 240.741 82.6349 240.755C82.6349 240.769 82.6398 240.783 82.649 240.795C82.6582 240.807 82.6711 240.815 82.686 240.82C86.9447 242.189 113.82 248.713 116.339 249.035C116.399 249.055 116.458 248.96 116.369 248.905Z" fill="#263238"/>
<path d="M114.266 163.284C111.754 153.577 109.063 143.897 106.239 134.279C103.415 124.66 100.39 114.953 97.0675 105.41C96.6661 104.239 96.2425 103.082 95.8337 101.919C95.8219 101.881 95.7945 101.85 95.7576 101.831C95.7206 101.813 95.6772 101.808 95.6368 101.819C95.5964 101.83 95.5623 101.855 95.5421 101.89C95.5219 101.924 95.5172 101.964 95.529 102.001C98.5019 111.51 101.475 120.998 104.292 130.541C107.108 140.084 109.792 149.654 112.318 159.293C112.95 161.676 113.567 164.051 114.169 166.44C114.869 168.889 115.41 171.374 115.789 173.882C116.102 176.278 115.923 178.707 115.262 181.042C114.545 183.337 113.607 185.569 112.46 187.71C107.906 196.815 103.355 205.922 98.8066 215.032C94.2581 224.164 93.5223 226.245 89.1447 235.453C88.6021 236.596 88.0596 237.739 87.5393 238.876C87.5393 238.951 87.6211 239.02 87.6657 238.937C92.6453 229.915 93.4108 227.744 98.0708 218.557C102.731 209.37 107.361 200.074 111.984 190.825C114.065 186.649 116.51 182.391 116.822 177.722C117.135 172.848 115.47 167.96 114.266 163.284Z" fill="#263238"/>
<path d="M115.99 238.821L117.209 270.996C117.41 277.157 117.699 282.545 118.138 285.318C118.134 285.333 118.134 285.35 118.138 285.366C118.163 286.023 118.351 286.667 118.688 287.248L118.732 287.289C120.762 288.474 174.192 288.446 176.058 287.864C177.923 287.282 176.273 282.353 174.2 280.827C172.126 279.3 151.657 270.887 151.657 270.887L150.104 238.746L115.99 238.821Z" fill="#573D30"/>
<path d="M116.956 264.41C116.956 264.41 117.209 270.996 117.209 271.017C117.41 277.178 117.699 282.566 118.138 285.338C118.134 285.354 118.134 285.37 118.138 285.386C118.239 286.031 118.424 286.663 118.688 287.269L118.732 287.31C120.761 288.494 174.192 288.467 176.058 287.885C177.923 287.303 176.273 282.374 174.2 280.847C172.126 279.321 151.657 270.907 151.657 270.907L151.501 264.205L116.956 264.41Z" fill="#EBEBEB"/>
<path d="M176.087 287.83C174.2 288.384 120.345 287.618 118.309 286.385C117.566 285.927 117.194 278.698 117.06 269.955V269.682L151.814 269.819V270.366C151.814 270.366 172.29 279.149 174.363 280.717C176.437 282.285 177.983 287.296 176.087 287.83Z" fill="#263238"/>
<path d="M175.515 285.927C166.44 285.592 129.799 285.03 120.799 285.338C120.724 285.338 120.724 285.386 120.799 285.386C129.784 285.9 166.433 286.194 175.515 286.071C175.701 286.03 175.708 285.927 175.515 285.927Z" fill="white"/>
<path d="M154.712 270.49C151.152 269.805 146.767 270.264 144.002 272.543C143.891 272.632 144.002 272.769 144.151 272.742C147.582 271.777 151.115 271.151 154.69 270.873C154.733 270.86 154.771 270.836 154.798 270.803C154.826 270.77 154.842 270.73 154.844 270.688C154.847 270.647 154.836 270.605 154.812 270.57C154.788 270.534 154.753 270.506 154.712 270.49Z" fill="white"/>
<path d="M157.269 271.955C153.701 271.27 149.324 271.735 146.559 274.042C146.447 274.131 146.559 274.268 146.7 274.234C150.133 273.268 153.669 272.644 157.246 272.372C157.3 272.366 157.35 272.342 157.387 272.306C157.424 272.269 157.445 272.222 157.448 272.172C157.451 272.122 157.434 272.073 157.401 272.033C157.369 271.993 157.322 271.966 157.269 271.955Z" fill="white"/>
<path d="M159.818 273.427C156.258 272.742 151.88 273.201 149.108 275.48C149.004 275.569 149.108 275.706 149.257 275.679C152.688 274.715 156.221 274.088 159.796 273.81C159.839 273.797 159.877 273.773 159.904 273.74C159.932 273.707 159.948 273.667 159.95 273.625C159.953 273.584 159.942 273.542 159.918 273.507C159.894 273.471 159.859 273.443 159.818 273.427Z" fill="white"/>
<path d="M176.942 286.064C177.901 286.42 177.641 289.398 176.942 289.624C176.243 289.85 117.484 288.775 116.525 288.556C115.566 288.337 115.953 285.044 117.12 284.886C118.287 284.729 176.942 286.064 176.942 286.064Z" fill="#8A8D8E"/>
<path d="M125.86 275.35C121.988 273.495 118.851 279.04 122.731 280.895C126.611 282.75 129.74 277.205 125.86 275.35Z" fill="white"/>
<path d="M121.587 97.667C121.445 98.2626 113.575 126.926 112.594 127.46C111.479 128.069 141.193 164.893 144.716 182.973C146.945 194.535 152.148 261.932 152.148 261.932H114.258C114.258 261.932 110.542 204.694 109.308 185.834C108.825 178.516 79.022 144.684 76.1903 122.127C75.2984 115.021 80.8429 97.6396 80.8429 97.6396L121.587 97.667Z" fill="#455A64"/>
<path d="M113.3 234.7C112.854 225.218 112.445 215.716 111.694 206.249C111.271 200.881 110.438 195.686 109.858 190.339C109.858 190.058 109.583 189.99 109.591 190.277C109.858 199.8 110.713 209.22 111.263 218.735C111.813 228.251 112.341 230.469 112.928 239.957C113.255 245.324 113.545 250.692 113.998 256.052C114.003 256.065 114.013 256.077 114.025 256.086C114.038 256.094 114.053 256.099 114.069 256.099C114.084 256.099 114.1 256.094 114.112 256.086C114.125 256.077 114.135 256.065 114.139 256.052C114.162 246.522 113.753 244.215 113.3 234.7Z" fill="#263238"/>
<path d="M144.753 183.425C144.429 180.921 143.902 178.442 143.177 176.011C142.397 173.654 141.369 171.372 140.108 169.199C137.529 164.64 134.593 160.231 131.761 155.802C128.93 151.373 125.979 146.847 122.991 142.425C121.312 139.942 119.624 137.462 117.93 134.984C116.206 132.485 114.385 130.034 112.608 127.57C112.595 127.549 112.572 127.534 112.547 127.528C112.521 127.522 112.494 127.526 112.471 127.539C112.448 127.552 112.432 127.572 112.426 127.596C112.419 127.62 112.424 127.645 112.437 127.665C115.336 132.143 118.205 136.627 121.103 141.104C124.002 145.581 126.856 150.072 129.71 154.563C132.564 159.053 135.336 163.407 138.027 167.898C139.352 170.03 140.492 172.255 141.438 174.552C142.318 176.932 142.957 179.382 143.348 181.871C144.359 187.669 145.184 193.508 146.448 199.252C146.452 199.266 146.462 199.278 146.475 199.286C146.487 199.295 146.502 199.299 146.518 199.299C146.534 199.299 146.549 199.295 146.562 199.286C146.574 199.278 146.584 199.266 146.589 199.252C146.195 193.967 145.511 188.675 144.753 183.425Z" fill="#263238"/>
<path d="M148.811 255.949C146.648 255.689 130.141 255.162 116.332 255.709C116.243 255.709 116.25 255.833 116.332 255.839C120.828 256.202 146.254 256.367 148.789 256.093C148.856 256.086 148.885 255.963 148.811 255.949Z" fill="#263238"/>
<path d="M117.536 125.502C113.676 126.798 109.945 128.401 106.388 130.294C106.357 130.307 106.333 130.33 106.321 130.359C106.31 130.388 106.311 130.42 106.324 130.448C106.338 130.477 106.364 130.499 106.395 130.509C106.426 130.52 106.461 130.519 106.492 130.507C110.252 129.014 114.095 127.59 117.766 125.913C117.826 125.885 117.87 125.836 117.89 125.778C117.911 125.72 117.905 125.656 117.874 125.602C117.844 125.547 117.791 125.506 117.727 125.487C117.664 125.469 117.595 125.474 117.536 125.502Z" fill="#263238"/>
<path d="M118.673 101.775C118.673 101.658 118.435 101.631 118.435 101.775C118.436 105.643 118.225 109.509 117.803 113.358C117.625 115.144 116.064 124.996 112.705 124.311C112.14 124.188 111.858 123.681 111.768 122.894C111.778 121.872 111.928 120.855 112.214 119.868C112.586 117.814 112.883 115.761 113.077 113.645C113.471 109.758 113.426 105.845 112.943 101.966C112.936 101.944 112.922 101.925 112.903 101.911C112.883 101.897 112.86 101.89 112.835 101.89C112.81 101.89 112.786 101.897 112.767 101.911C112.747 101.925 112.734 101.944 112.727 101.966C112.825 107.354 112.482 112.741 111.702 118.081C111.278 120.648 109.873 124.516 112.794 124.927C115.715 125.338 117.685 118.855 118.041 117.082C118.971 112.026 119.183 106.881 118.673 101.775Z" fill="#263238"/>
<path d="M112.794 124.523C112.496 125.192 112.248 125.878 112.051 126.577C111.837 127.114 111.731 127.682 111.739 128.254C111.742 128.278 111.754 128.299 111.771 128.317C111.788 128.334 111.811 128.346 111.836 128.351C111.861 128.357 111.887 128.355 111.911 128.346C111.935 128.337 111.955 128.322 111.969 128.302C112.32 127.798 112.584 127.246 112.75 126.666C113.01 126.029 113.277 125.406 113.493 124.763C113.527 124.678 113.524 124.583 113.482 124.5C113.441 124.418 113.366 124.353 113.274 124.321C113.181 124.29 113.078 124.293 112.988 124.331C112.899 124.369 112.829 124.438 112.794 124.523Z" fill="#263238"/>
<path d="M114.377 195.035C114.021 190.161 114.043 185.02 111.791 180.502C110.595 178.3 109.218 176.185 107.673 174.176C106.137 172.013 104.621 169.838 103.125 167.652C97.179 158.91 91.4413 149.99 86.2164 140.851C83.6968 136.449 81.378 131.903 80.1145 127.043C78.8824 121.928 78.6483 116.652 79.4233 111.462C79.6017 110.168 79.7949 108.881 80.0253 107.594C80.026 107.576 80.0202 107.559 80.0088 107.545C79.9973 107.532 79.981 107.522 79.9625 107.518C79.9441 107.514 79.9247 107.516 79.9077 107.523C79.8907 107.531 79.8771 107.544 79.8692 107.56C78.6464 112.495 78.2281 117.571 78.628 122.62C79.2 127.448 80.6761 132.148 82.9908 136.511C85.2948 141.104 88.0373 145.527 90.7426 149.928C93.5322 154.492 96.4036 158.99 99.3566 163.421C102.33 167.844 105.392 172.177 108.461 176.531C110.027 178.585 111.247 180.844 112.081 183.233C112.756 185.726 113.145 188.278 113.24 190.846C113.983 201.621 116.956 237.445 118.012 248.166C118.138 249.535 118.272 250.904 118.413 252.273C118.409 252.287 118.408 252.302 118.411 252.317C118.414 252.331 118.421 252.345 118.431 252.357C118.44 252.368 118.453 252.378 118.467 252.384C118.482 252.391 118.497 252.394 118.513 252.394C118.529 252.394 118.545 252.391 118.559 252.384C118.574 252.378 118.586 252.368 118.596 252.357C118.606 252.345 118.612 252.331 118.615 252.317C118.619 252.302 118.618 252.287 118.614 252.273C118.168 241.512 115.143 205.776 114.377 195.035Z" fill="#263238"/>
<path d="M96.1904 107.115C96.1904 107.039 96.0566 107.067 96.0566 107.115C95.9452 110.106 96.0566 113.201 94.7857 116.014C93.6411 118.609 91.3371 120.43 88.7581 121.792C87.2583 122.567 85.7124 123.264 84.1278 123.88C84.0164 123.928 84.061 124.092 84.1873 124.058C87.1602 123.182 90.2297 122.23 92.7195 120.395C95.3803 118.424 96.5472 115.569 96.6735 112.489C96.7191 110.687 96.5571 108.885 96.1904 107.115Z" fill="#263238"/>
<path d="M112.683 58.3519C116.934 70.3732 128.417 90.849 132.519 93.3203C136.154 95.5041 153.255 93.067 160.762 91.4035C163.557 90.7805 157.269 71.1604 154.289 71.8792C150.714 72.7418 140.063 74.953 139.29 74.4054C138.517 73.8577 127.778 61.6722 120.167 54.4978C113.24 48.0011 111.077 53.8063 112.683 58.3519Z" fill="#573D30"/>
<path d="M159.119 91.5542C160.554 91.3899 172.691 90.8696 178.258 88.0834C181.23 86.5978 188.819 81.6825 188.061 79.9163C187.369 78.3075 184.932 79.1838 184.932 79.1838C184.932 79.1838 188.284 76.9452 187.303 74.7135C186.322 72.4818 182.271 74.159 182.271 74.159C182.271 74.159 185.534 71.626 184.382 69.4696C183.23 67.3132 179.469 69.6202 179.469 69.6202C179.469 69.6202 182.568 67.4364 180.807 66.0262C178.681 64.3284 173.456 68.9562 169.926 70.0378C169.123 70.2843 153.307 73.9673 153.307 73.9673L159.119 91.5542Z" fill="#573D30"/>
<path d="M179.335 69.5586C175.485 72.9473 173.159 73.8167 168.016 74.7751C167.919 74.7751 167.927 74.9394 168.016 74.9257C173.144 74.4123 176.229 73.7071 179.506 69.7229C179.685 69.5244 179.514 69.3943 179.335 69.5586Z" fill="#263238"/>
<path d="M182.145 74.0764C177.812 77.2802 175.3 78.2387 169.993 79.6078C169.919 79.6078 169.948 79.7516 170.03 79.7379C175.352 78.7932 178.414 78.0264 182.286 74.3023C182.464 74.138 182.345 73.9326 182.145 74.0764Z" fill="#263238"/>
<path d="M184.672 79.2385C180.212 82.0589 177.529 83.2296 172.193 83.9484C172.167 83.9484 172.143 83.9578 172.124 83.9744C172.106 83.9911 172.096 84.0138 172.096 84.0374C172.096 84.061 172.106 84.0836 172.124 84.1003C172.143 84.117 172.167 84.1264 172.193 84.1264C177.715 83.8799 181.112 82.4491 184.731 79.3754C184.999 79.1837 184.947 79.0673 184.672 79.2385Z" fill="#263238"/>
<path d="M149.16 74.5969C149.16 74.5969 153.582 69.9897 156.005 68.3604C158.428 66.7311 169.904 63.7189 170.751 65.9643C171.844 68.867 165.593 71.8038 162.33 72.8718C162.33 72.8718 164.865 79.5807 160.844 82.5791C156.823 85.5776 149.16 74.5969 149.16 74.5969Z" fill="#573D30"/>
<path d="M170.773 66.8608C169.696 70.1674 165.311 71.3175 162.226 72.5702C162.181 72.5884 162.14 72.6161 162.108 72.6511C162.076 72.6862 162.054 72.7276 162.042 72.7721C162.031 72.8167 162.03 72.8631 162.042 72.9076C162.053 72.9522 162.076 72.9937 162.107 73.0289C162.97 75.9041 163.267 80.1896 161.082 82.613C161.022 82.6815 161.119 82.7773 161.193 82.7157C163.921 80.4155 163.995 76.178 162.836 73.0837C166.024 71.8446 170.365 70.5097 170.803 66.8745C170.811 66.8608 170.781 66.8608 170.773 66.8608Z" fill="#263238"/>
<path d="M159.112 94.9289L153.508 71.4204L139.64 73.7411C134.169 67.9701 123.237 56.4349 118.829 52.9709C113.627 48.9045 110.223 51.9578 112.14 58.119C116.473 72.2008 129.145 92.8751 132.46 94.8262C137.269 97.6672 159.112 94.9289 159.112 94.9289Z" fill="#8A8D8E"/>
<path opacity="0.1" d="M139.313 80.8949C139.999 81.0324 140.699 81.1081 141.401 81.1208C142.887 81.3057 143.541 83.3252 142.189 84.0919C141.478 84.4949 140.675 84.7389 139.844 84.8043C139.013 84.8697 138.177 84.7546 137.402 84.4684C135.916 83.9344 134.66 82.6064 134.979 81.0455C135.035 80.7545 135.171 80.4817 135.375 80.2536C135.578 80.0254 135.843 79.8498 136.142 79.7436C136.441 79.6375 136.765 79.6045 137.083 79.6479C137.4 79.6913 137.7 79.8096 137.952 79.9913C138.364 80.3422 138.821 80.6457 139.313 80.8949ZM135.477 75.3019C134.942 77.6295 138.852 79.6284 140.851 78.3893C141.012 78.2769 141.144 78.1325 141.236 77.9668C141.328 77.8011 141.379 77.6184 141.384 77.4322C141.389 77.2461 141.348 77.0613 141.265 76.8915C141.182 76.7218 141.058 76.5716 140.903 76.452C140.316 76.0138 139.825 75.9454 139.305 75.5483C139.123 75.4175 138.963 75.263 138.829 75.0897C138.535 74.7154 138.157 74.4028 137.722 74.1723C137.496 74.0832 137.25 74.0426 137.004 74.0535C136.758 74.0644 136.518 74.1266 136.302 74.2353C136.086 74.3441 135.9 74.4966 135.757 74.6813C135.614 74.866 135.518 75.0782 135.477 75.3019ZM129.242 75.4251C128.439 76.3904 129.041 77.8417 129.747 78.7179C130.065 79.1544 130.503 79.5053 131.016 79.735C131.529 79.9647 132.099 80.0649 132.668 80.0255C132.875 79.9986 133.07 79.9171 133.228 79.7907C133.386 79.6644 133.501 79.4986 133.559 79.3133C133.617 79.1281 133.616 78.9313 133.556 78.7467C133.495 78.5621 133.378 78.3976 133.218 78.273C132.771 77.9599 132.414 77.551 132.178 77.0818C131.828 76.3561 131.598 75.4183 130.691 75.1034C130.443 75.0096 130.17 74.9902 129.91 75.0479C129.65 75.1057 129.416 75.2377 129.242 75.4251ZM145.704 90.6502C144.656 92.6012 147.845 94.8193 149.777 94.4359C150.424 94.3058 151.048 93.5254 150.476 92.9641C150.015 92.5122 149.465 92.1562 149.034 91.677C148.506 91.0951 148.216 90.349 147.391 90.0546C147.081 89.9349 146.732 89.9301 146.418 90.041C146.104 90.1519 145.848 90.3701 145.704 90.6502ZM115.767 66.7241C115.584 66.4036 115.331 66.1215 115.024 65.8957C115.44 66.877 115.879 67.8605 116.339 68.8463C116.364 68.1039 116.166 67.3696 115.767 66.7241ZM119.907 64.6704C119.761 62.9793 119.044 61.3728 117.856 60.0768C116.964 59.0157 115.418 57.3385 113.783 57.7013C113.609 57.7513 113.457 57.8516 113.35 57.9872C113.243 58.1229 113.186 58.2867 113.188 58.4544C113.084 59.6113 114.526 60.8504 115.15 61.7746C115.893 62.9384 116.481 64.2254 117.283 65.3823C117.451 65.6202 117.698 65.8017 117.987 65.8997C118.276 65.9977 118.592 66.0069 118.887 65.926C119.182 65.8452 119.441 65.6785 119.625 65.451C119.808 65.2234 119.907 64.9472 119.907 64.6635V64.6704ZM119.424 72.0296C119.714 72.0158 119.992 71.9166 120.217 71.7465C120.442 71.5765 120.601 71.3446 120.672 71.0849C120.788 70.5534 120.749 70.0033 120.561 69.4898C120.45 69.0008 120.192 68.5503 119.818 68.1891C119.684 68.0748 119.519 67.9945 119.341 67.9561C119.163 67.9177 118.978 67.9226 118.802 67.9702C118.627 68.0178 118.468 68.1066 118.341 68.2277C118.214 68.3489 118.124 68.4984 118.079 68.6615C118.019 69.0612 118.019 69.4666 118.079 69.8663C118.079 70.0375 118.079 70.2086 118.079 70.3866C118.075 70.6445 118.105 70.902 118.168 71.1533C118.248 71.4034 118.413 71.6231 118.639 71.7797C118.866 71.9364 119.141 72.0216 119.424 72.0227V72.0296Z" fill="#030402"/>
<path d="M154.259 92.8752C153.62 91.506 152.029 85.4269 151.68 83.914C151.33 82.4011 150.037 76.2809 149.658 74.727C149.658 74.638 149.762 74.59 149.785 74.6722C150.186 76.2056 151.977 82.2436 152.371 83.7497C152.765 85.2558 154.244 91.328 154.348 92.8546C154.349 92.86 154.35 92.8656 154.349 92.8711C154.348 92.8766 154.346 92.8819 154.343 92.8867C154.337 92.8963 154.326 92.9033 154.315 92.906C154.303 92.9087 154.29 92.907 154.28 92.9012C154.269 92.8954 154.262 92.8861 154.259 92.8752Z" fill="#263238"/>
<path opacity="0.1" d="M141.379 96.1065C137.477 96.1065 134.05 95.7642 132.46 94.8263C129.123 92.8411 116.451 72.2352 112.088 58.126C110.988 54.5936 111.65 52.0743 113.389 51.3418L141.379 96.1065Z" fill="black"/>
<path d="M78.4868 100.892C78.5834 101.022 124.961 106.498 125.459 106.101C125.721 104.912 125.907 103.71 126.016 102.501C126.016 102.501 121.765 55.9902 119.565 53.2587C117.64 50.8763 111.798 49.1512 107.822 50.7052C99.4755 53.9638 79.4902 95.5178 79.7057 97.2567C79.6908 97.2361 78.3679 100.727 78.4868 100.892Z" fill="#8A8D8E"/>
<path opacity="0.1" d="M95.2094 95.2302C95.9246 95.5502 96.6712 95.8069 97.4391 95.997C98.985 96.5652 99.1262 98.9407 97.4391 99.4199C96.5422 99.682 95.5913 99.7473 94.6621 99.6106C93.733 99.4739 92.8514 99.139 92.0878 98.6326C90.6014 97.6742 89.6426 95.8943 90.4453 94.3061C90.5926 94.0038 90.8219 93.7416 91.111 93.5446C91.4002 93.3476 91.7395 93.2225 92.0963 93.1812C92.4532 93.14 92.8155 93.184 93.1486 93.3091C93.4816 93.4341 93.7741 93.636 93.9979 93.8953C94.4141 94.3403 94.6668 94.929 95.2094 95.2302ZM92.6676 88.1585C91.3966 90.5751 95.0756 93.731 97.6249 92.8753C97.8384 92.7966 98.0292 92.6734 98.1823 92.5153C98.3354 92.3573 98.4466 92.1686 98.5071 91.9642C98.5676 91.7599 98.5758 91.5453 98.5311 91.3376C98.4863 91.1298 98.3898 90.9344 98.2492 90.7668C97.7438 90.1438 97.2235 89.9453 96.7627 89.3976C96.6037 89.2083 96.476 88.9984 96.3837 88.7746C96.164 88.2967 95.8431 87.8638 95.4398 87.5013C94.5554 86.7141 93.1358 87.2686 92.6676 88.1585ZM88.3717 85.5845C86.9819 86.0637 86.6251 87.7889 86.7292 89.0074C86.7506 89.5994 86.9421 90.1755 87.2842 90.677C87.6263 91.1785 88.1067 91.5875 88.6764 91.8621C88.8914 91.9506 89.1297 91.9798 89.3623 91.9462C89.595 91.9126 89.8121 91.8177 89.9874 91.6728C90.1627 91.528 90.2887 91.3395 90.3502 91.1301C90.4117 90.9207 90.406 90.6994 90.3338 90.493C90.0979 89.9456 90.016 89.3521 90.096 88.7678C90.2223 87.8915 90.6014 86.8647 89.9696 86.0774C89.7938 85.8505 89.5446 85.6806 89.2575 85.592C88.9705 85.5035 88.6604 85.5009 88.3717 85.5845ZM103.608 93.731C103.256 93.7033 102.906 93.8006 102.63 94.003C102.353 94.2054 102.171 94.4975 102.121 94.8195C102.083 95.1654 102.178 95.5127 102.388 95.8014C102.598 96.0902 102.911 96.3022 103.273 96.4009C103.78 96.555 104.327 96.555 104.834 96.4009C105.094 96.3064 105.307 96.129 105.436 95.9011C105.585 95.6807 105.646 95.4191 105.607 95.1618C105.566 94.9217 105.447 94.6989 105.265 94.5228C105.083 94.3468 104.847 94.2258 104.589 94.176C104.542 94.1191 104.487 94.0685 104.425 94.0254C104.189 93.8566 103.906 93.7543 103.608 93.731ZM92.2142 77.2121C90.9656 78.3896 91.471 81.0663 92.898 81.9699C93.0817 82.0986 93.2988 82.1807 93.5276 82.2082C93.7565 82.2357 93.9891 82.2075 94.2025 82.1265C94.4159 82.0456 94.6026 81.9146 94.744 81.7466C94.8854 81.5786 94.9767 81.3795 95.0087 81.169C95.0307 80.8978 95.0307 80.6255 95.0087 80.3543C95.0087 80.0599 94.9641 79.8751 95.0087 79.6697C95.1199 79.0844 95.1424 78.4877 95.0756 77.8967C95.0179 77.6164 94.8748 77.3569 94.6632 77.1486C94.4516 76.9402 94.1801 76.7915 93.8803 76.7198C93.5804 76.6481 93.2647 76.6562 92.9697 76.7434C92.6748 76.8306 92.4128 76.9931 92.2142 77.2121ZM84.1502 94.2444C82.4333 96.1202 85.265 99.3377 87.4873 99.3993C88.2305 99.3993 89.1447 98.7148 88.6839 97.9617C88.3123 97.3593 87.8143 96.8253 87.4873 96.2023C87.0859 95.4356 86.9893 94.5388 86.1718 94.0185C85.8669 93.8121 85.488 93.7206 85.1124 93.7626C84.7367 93.8045 84.3926 93.9769 84.1502 94.2444ZM125.154 93.6489C124.874 93.6875 124.613 93.8018 124.404 93.9773C124.195 94.1528 124.047 94.3816 123.98 94.6347C123.742 95.3945 123.712 96.0723 123.095 96.6884C122.428 97.1722 121.828 97.731 121.312 98.3519C121.225 98.507 121.184 98.68 121.192 98.8541C121.2 99.0281 121.258 99.1972 121.358 99.3449C121.458 99.4926 121.599 99.6137 121.765 99.6964C121.931 99.7792 122.118 99.8207 122.307 99.8169C123.605 99.67 124.794 99.0726 125.63 98.1466C125.481 96.8459 125.332 95.3192 125.161 93.6215L125.154 93.6489ZM121.438 88.0011C121.022 88.9321 121.096 89.9864 120.747 90.9585C120.44 91.8497 120.075 92.723 119.654 93.5736C119.342 94.1897 119.966 95.1618 120.776 94.8332C122.094 94.3673 123.172 93.4601 123.794 92.2934C124.359 91.2186 124.983 89.4113 124.441 88.2681C123.898 87.1248 122.055 86.6251 121.423 87.9737L121.438 88.0011ZM117.201 97.3319C116.584 98.0669 115.794 98.6637 114.89 99.0776C114.675 99.1391 114.476 99.2421 114.307 99.3798C114.138 99.5174 114.003 99.6865 113.911 99.8759C113.818 100.065 113.771 100.271 113.771 100.478C113.771 100.686 113.819 100.891 113.912 101.08C114.005 101.27 114.141 101.438 114.31 101.576C114.479 101.713 114.678 101.816 114.893 101.877C115.109 101.938 115.336 101.956 115.559 101.93C115.783 101.905 115.998 101.835 116.191 101.727C116.96 101.423 117.647 100.968 118.204 100.393C118.762 99.8183 119.175 99.1379 119.416 98.3999C119.766 97.2155 118.026 96.442 117.187 97.3045L117.201 97.3319ZM110.408 63.7875C110.824 63.8684 111.257 63.7981 111.617 63.5914C111.977 63.3846 112.237 63.0575 112.341 62.6785C112.757 61.2066 111.33 59.6937 110.2 58.7763C109.071 57.859 107.48 57.0238 105.897 57.4962C105.686 57.5591 105.496 57.6705 105.346 57.82C105.195 57.9694 105.088 58.1518 105.035 58.35C104.982 58.5482 104.985 58.7555 105.044 58.9523C105.102 59.1491 105.214 59.3289 105.369 59.4746C106.061 60.2687 107.019 60.8438 107.755 61.6242C108.491 62.4046 109.1 63.5616 110.394 63.7601L110.408 63.7875ZM116.109 69.5996C116.733 68.7712 116.25 67.5458 115.804 66.7586C115.567 66.3243 115.198 65.9628 114.741 65.718C114.434 65.5371 114.062 65.4751 113.706 65.5456C113.35 65.6161 113.038 65.8134 112.839 66.0945C112.636 66.4838 112.604 66.93 112.75 67.3404C112.812 67.5552 112.896 67.7638 113.002 67.9634V68.025V68.0798C113.135 68.7335 113.436 69.3485 113.879 69.8734C114.033 70.0157 114.22 70.1235 114.426 70.1881C114.632 70.2528 114.852 70.2727 115.068 70.2461C115.284 70.2196 115.49 70.1475 115.671 70.0353C115.851 69.9231 116.001 69.774 116.109 69.5996ZM119.944 64.698C119.798 63.0069 119.081 61.4004 117.893 60.1044C117.001 59.0433 115.455 57.3661 113.82 57.7289C113.646 57.7789 113.494 57.8792 113.387 58.0148C113.28 58.1505 113.223 58.3143 113.225 58.482C113.121 59.6389 114.563 60.878 115.187 61.8022C115.931 62.966 116.518 64.253 117.32 65.4099C117.495 65.6347 117.743 65.8028 118.028 65.8905C118.312 65.9782 118.62 65.9809 118.907 65.8982C119.193 65.8155 119.444 65.6517 119.624 65.4301C119.803 65.2084 119.902 64.9403 119.907 64.6637L119.944 64.698ZM114.333 76.418C114.604 76.4727 114.886 76.4727 115.158 76.418C115.57 76.3012 115.918 76.0441 116.131 75.6992C116.331 75.332 116.43 74.9254 116.421 74.5148C116.408 74.1258 116.293 73.7455 116.087 73.4058L115.841 73.1251L115.514 72.9061C115.31 72.8089 115.084 72.7554 114.854 72.7497C114.624 72.744 114.395 72.7861 114.185 72.8729C113.975 72.9597 113.789 73.0891 113.641 73.2513C113.493 73.4135 113.386 73.6043 113.329 73.8097C113.206 74.2085 113.119 74.6161 113.069 75.0283L113.136 75.4048C113.188 75.5937 113.29 75.7678 113.433 75.9114C113.658 76.1504 113.96 76.3161 114.295 76.3838L114.333 76.418ZM119.461 72.0572C119.751 72.0434 120.029 71.9442 120.254 71.7741C120.479 71.6041 120.638 71.3722 120.71 71.1125C120.825 70.581 120.787 70.0309 120.598 69.5174C120.487 69.0285 120.229 68.5779 119.855 68.2167C119.721 68.1024 119.557 68.0221 119.379 67.9837C119.201 67.9453 119.015 67.9502 118.84 67.9978C118.664 68.0454 118.505 68.1342 118.378 68.2554C118.252 68.3765 118.161 68.526 118.116 68.6891C118.056 69.0888 118.056 69.4942 118.116 69.8939C118.116 70.0651 118.116 70.2362 118.116 70.4142C118.112 70.6722 118.142 70.9296 118.205 71.1809C118.288 71.4204 118.45 71.6302 118.668 71.781C118.887 71.9319 119.151 72.0165 119.424 72.023L119.461 72.0572Z" fill="#030402"/>
<path d="M116.852 60.5491C114.02 60.3095 110.394 54.737 109.702 51.1977C109.658 50.9513 110.787 48.8907 112.029 46.3304C112.772 44.7764 113.575 43.0239 114.169 41.3809L124.455 47.3436C123.067 49.2035 121.932 51.2128 121.074 53.3268C120.997 53.55 120.942 53.7791 120.91 54.0114C120.913 54.0501 120.913 54.089 120.91 54.1277C120.65 55.4969 119.595 60.7819 116.852 60.5491Z" fill="#573D30"/>
<path d="M120.91 54.0255C120.912 54.0642 120.912 54.1031 120.91 54.1418C120.514 54.0704 120.124 53.972 119.743 53.8475C113.307 51.7116 114.444 43.9347 114.897 41.7852L117.462 43.2775L124.485 47.385C123.098 49.2442 121.964 51.2537 121.111 53.3683C121.022 53.5812 120.955 53.8012 120.91 54.0255Z" fill="#263238"/>
<path d="M115.247 30.4072C113.121 33.9328 112.75 45.2557 115.106 48.261C118.51 52.615 125.347 54.3127 129.68 50.3148C133.88 46.399 134.073 31.6326 131.338 28.7847C127.295 24.554 118.383 25.1975 115.247 30.4072Z" fill="#573D30"/>
<path d="M125.117 39.5601C125.117 39.5601 125.05 39.5601 125.05 39.6285C125.05 40.4089 124.901 41.2989 124.128 41.5316V41.5796C125.072 41.4837 125.251 40.2994 125.117 39.5601Z" fill="#263238"/>
<path d="M124.396 38.7251C123.036 38.5882 122.835 41.0938 124.091 41.2239C125.347 41.3539 125.533 38.8415 124.396 38.7251Z" fill="#263238"/>
<path d="M129.992 39.8271C129.992 39.8271 130.052 39.8682 130.052 39.9025C129.955 40.676 129.992 41.5797 130.728 41.8877C130.728 41.8877 130.728 41.9425 130.728 41.9357C129.799 41.744 129.77 40.546 129.992 39.8271Z" fill="#263238"/>
<path d="M130.817 39.0737C132.178 39.0737 132.066 41.5862 130.817 41.5862C129.569 41.5862 129.673 39.0669 130.817 39.0737Z" fill="#263238"/>
<path d="M125.496 38.2184C125.117 38.2937 124.753 38.3006 124.381 38.3416C123.996 38.4344 123.589 38.4079 123.222 38.2663C123.115 38.2015 123.034 38.1058 122.993 37.9944C122.951 37.883 122.95 37.7619 122.991 37.6502C123.113 37.446 123.291 37.2752 123.508 37.1549C123.725 37.0347 123.972 36.9694 124.225 36.9656C124.738 36.8747 125.27 36.9678 125.711 37.2258C125.803 37.2894 125.874 37.3756 125.915 37.4744C125.956 37.5733 125.965 37.6808 125.943 37.7846C125.92 37.8883 125.866 37.9841 125.787 38.0609C125.708 38.1376 125.607 38.1923 125.496 38.2184Z" fill="#263238"/>
<path d="M132.036 36.7396C131.676 36.6463 131.321 36.5344 130.974 36.4042C130.583 36.3363 130.227 36.1509 129.963 35.877C129.897 35.7767 129.869 35.6589 129.884 35.5424C129.898 35.4258 129.955 35.3171 130.045 35.2335C130.248 35.0906 130.489 35.0011 130.743 34.9746C130.997 34.9481 131.254 34.9855 131.486 35.0829C131.988 35.2095 132.422 35.5019 132.705 35.9044C132.764 35.9999 132.792 36.1091 132.784 36.2187C132.777 36.3283 132.736 36.4336 132.665 36.5219C132.594 36.6103 132.497 36.6779 132.386 36.7165C132.274 36.7551 132.153 36.7631 132.036 36.7396Z" fill="#263238"/>
<path d="M124.5 45.735C125.595 45.4936 126.735 45.4936 127.83 45.735C127.926 45.735 128.023 45.557 128.045 45.4749L128.105 43.8319C128.335 43.9551 129.495 44.5165 129.495 44.2152C129.616 41.5449 129.439 38.8701 128.967 36.233C128.962 36.2177 128.951 36.2043 128.937 36.1948C128.923 36.1853 128.906 36.1802 128.889 36.1802C128.871 36.1802 128.854 36.1853 128.84 36.1948C128.826 36.2043 128.816 36.2177 128.811 36.233C128.692 38.7044 129.034 41.1689 128.952 43.6539C128.542 43.4445 128.101 43.2901 127.644 43.1952C127.547 43.1952 127.644 44.9409 127.644 45.201C126.621 44.8764 125.501 44.9329 124.522 45.3585C124.136 45.5844 123.98 45.8856 124.5 45.735Z" fill="#263238"/>
<path d="M122.3 47.3641C122.486 47.5558 122.672 47.8159 122.969 47.857C123.281 47.8707 123.593 47.8217 123.883 47.7132C123.883 47.7132 123.935 47.7132 123.883 47.7543C123.755 47.8996 123.586 48.0097 123.395 48.0725C123.203 48.1353 122.997 48.1483 122.798 48.1103C122.636 48.0624 122.492 47.9724 122.384 47.8509C122.275 47.7294 122.208 47.5818 122.189 47.4257C122.203 47.3504 122.27 47.3367 122.3 47.3641Z" fill="#263238"/>
<path opacity="0.2" d="M118.837 26.813C118.725 28.5724 118.272 34.0285 117.35 35.1375C116.429 36.2465 114.481 38.8274 113.493 39.245C113.627 35.6098 114.236 32.1527 115.254 30.3454C116.089 28.8974 117.325 27.6787 118.837 26.813Z" fill="#263238"/>
<path d="M129.428 32.146C128.908 32.6332 128.262 32.9897 127.55 33.1815C126.838 33.3732 126.085 33.3938 125.362 33.2413C124.622 33.0897 123.938 32.765 123.374 32.2985C122.81 31.8321 122.387 31.2396 122.144 30.5783C122.144 30.5372 122.062 30.5783 122.077 30.5783C122.266 31.2923 122.664 31.9448 123.227 32.4651C123.791 32.9853 124.498 33.3532 125.273 33.5289C126.046 33.6648 126.845 33.6098 127.588 33.3693C128.331 33.1288 128.991 32.7115 129.502 32.1597C129.547 32.1665 129.487 32.1049 129.428 32.146Z" fill="#263238"/>
<path d="M125.697 22.0007C124.554 21.9295 123.411 22.1242 122.372 22.5668C121.333 23.0095 120.432 23.6858 119.751 24.5336C119.171 25.3964 118.925 26.4145 119.052 27.4225H119.149C119.163 26.538 119.436 25.6735 119.94 24.9204C120.444 24.1672 121.159 23.5534 122.01 23.1439C122.941 22.6641 123.979 22.3891 125.044 22.3404C126.109 22.2917 127.172 22.4707 128.149 22.8632C129.111 23.2283 129.901 23.8953 130.379 24.7458C130.424 24.8348 130.617 24.7937 130.58 24.7047C129.97 23.2124 128.001 22.1033 125.697 22.0007Z" fill="#263238"/>
<path d="M139.892 27.9701C139.569 26.8111 138.811 25.795 137.752 25.1017C136.265 24.1228 134.526 24.1365 132.787 24.1912C132.735 24.1912 132.742 24.2597 132.787 24.2528C134.266 24.1106 135.757 24.365 137.083 24.9853C138.162 25.5817 138.983 26.5031 139.409 27.5936C139.814 28.7121 139.767 29.9276 139.277 31.0168C138.787 32.106 137.886 32.9956 136.741 33.522C136.074 33.8107 135.351 33.9705 134.614 33.9917C133.878 34.0129 133.145 33.895 132.46 33.6453C132.408 33.6453 132.363 33.6932 132.415 33.7206C133.342 34.0976 134.365 34.2285 135.368 34.0984C136.371 33.9683 137.315 33.5823 138.093 32.9842C138.87 32.3861 139.451 31.5996 139.769 30.7136C140.087 29.8276 140.13 28.8773 139.892 27.9701Z" fill="#263238"/>
<path d="M114.504 32.6321C114.504 32.6321 112.452 28.3261 114.645 26.067C115.886 24.7937 119.617 25.2318 119.617 25.2318C120.731 23.9287 122.362 23.0865 124.151 22.8906C127.339 22.4319 130.973 24.4172 130.973 24.4172C130.973 24.4172 134.08 23.048 136.748 24.7115C140.464 27.0323 139.535 32.461 135.477 33.9397C132.623 34.9871 129.071 32.4815 129.071 32.4815C128.714 32.4815 124.864 34.2888 122.33 31.0713C122.33 31.0713 119.922 32.7622 117.997 31.3246C117.631 31.8465 117.099 32.252 116.474 32.486C115.849 32.7199 115.161 32.7709 114.504 32.6321Z" fill="#263238"/>
<path d="M115.715 39.7859C115.715 39.7859 113.768 35.7674 111.843 36.363C109.918 36.9585 110.854 42.4215 112.757 43.4894C112.989 43.638 113.251 43.7421 113.527 43.7957C113.804 43.8493 114.089 43.8513 114.366 43.8015C114.643 43.7517 114.907 43.6511 115.141 43.5058C115.375 43.3605 115.576 43.1734 115.73 42.9555L115.715 39.7859Z" fill="#573D30"/>
<path d="M112.155 37.9102V37.9581C113.478 38.7453 113.976 40.1077 114.236 41.47C114.18 41.3232 114.09 41.1893 113.973 41.0776C113.855 40.966 113.713 40.8791 113.555 40.8232C113.397 40.7672 113.228 40.7434 113.06 40.7534C112.891 40.7634 112.727 40.8071 112.579 40.8812C112.534 40.8812 112.579 40.9565 112.579 40.9565C112.849 40.9277 113.123 40.9784 113.361 41.1013C113.598 41.2243 113.788 41.4132 113.902 41.6411C114.103 42.0114 114.258 42.4019 114.362 42.8049C114.362 42.935 114.645 42.9144 114.63 42.8049C115.009 41.0387 114.08 38.4304 112.155 37.9102Z" fill="#263238"/>
<path d="M218.732 47.7617L138.714 70.3374L153.142 113.722L233.159 91.1461L218.732 47.7617Z" fill="#8A8D8E"/>
<path opacity="0.2" d="M218.732 47.7617L138.714 70.3374L153.142 113.722L233.159 91.1461L218.732 47.7617Z" fill="black"/>
<path opacity="0.2" d="M218.728 47.7619L191.838 55.3486L206.265 98.733L233.156 91.1463L218.728 47.7619Z" fill="black"/>
<path d="M217.441 49.9727C216.534 53.8154 215.652 57.6582 214.795 61.501L212.26 73.0567L209.808 84.6603C209.005 88.5214 208.222 92.3892 207.459 96.264C208.366 92.4258 209.248 88.583 210.105 84.7356L212.639 73.1799L215.092 61.6037C215.895 57.7244 216.677 53.8474 217.441 49.9727Z" fill="#8A8D8E"/>
<path d="M230.648 89.6919C227.675 86.8805 224.675 84.0806 221.647 81.2921L212.58 72.9676L203.453 64.7047C200.401 61.9664 197.334 59.2281 194.252 56.4897C197.225 59.3057 200.225 62.1056 203.252 64.8895L212.32 73.214L221.447 81.4769C224.504 84.2426 227.571 86.981 230.648 89.6919Z" fill="#8A8D8E"/>
<path d="M154.083 75.928L154.523 75.8037L152.628 70.1025L152.187 70.2268L154.083 75.928Z" fill="#263238"/>
<path d="M153.036 76.2176L153.477 76.0933L151.581 70.392L151.14 70.5163L153.036 76.2176Z" fill="#263238"/>
<path d="M151.98 76.5281L152.421 76.4038L150.525 70.7026L150.084 70.8269L151.98 76.5281Z" fill="#263238"/>
<path d="M150.935 76.8073L151.375 76.6831L149.48 70.9816L149.04 71.1058L150.935 76.8073Z" fill="#263238"/>
<path d="M149.88 77.1092L150.32 76.9849L148.424 71.2836L147.984 71.4079L149.88 77.1092Z" fill="#263238"/>
<path d="M148.831 77.3992L149.271 77.2749L147.376 71.5737L146.935 71.698L148.831 77.3992Z" fill="#263238"/>
<path d="M147.77 77.7181L148.21 77.5938L146.314 71.8925L145.874 72.0168L147.77 77.7181Z" fill="#263238"/>
<path d="M146.72 78.0062L147.16 77.8818L145.263 72.1809L144.823 72.3053L146.72 78.0062Z" fill="#263238"/>
<path d="M145.66 78.3133L146.1 78.189L144.204 72.4877L143.764 72.612L145.66 78.3133Z" fill="#263238"/>
<path d="M157.083 69.3189L155.255 69.36L159.216 68.2305L157.67 69.1478L158.369 71.2426C159.625 71.0441 160.472 72.0094 161.111 73.9262L157.15 75.0763C156.511 73.1663 156.622 71.9272 157.782 71.4412L157.083 69.3189Z" fill="#263238"/>
<path d="M161.067 70.777L162.1 70.4826L161.171 67.6896L163.817 66.9434L164.746 69.7364L165.786 69.4421L164.389 73.0156L161.067 70.777Z" fill="#263238"/>
<path opacity="0.1" d="M138.718 70.339L139.9 73.8988L195.211 65.4921L191.836 55.3535L138.718 70.339Z" fill="black"/>
<path d="M243.528 96.0652L216.63 103.65L206.262 98.7351L233.16 91.1431L243.528 96.0652Z" fill="#8A8D8E"/>
<path opacity="0.2" d="M243.528 96.0652L216.63 103.65L206.262 98.7351L233.16 91.1431L243.528 96.0652Z" fill="black"/>
<path d="M147.54 123.148L174.437 115.556L180.034 106.136L153.137 113.721L147.54 123.148Z" fill="#8A8D8E"/>
<path opacity="0.1" d="M147.54 123.148L174.437 115.556L180.034 106.136L153.137 113.721L147.54 123.148Z" fill="black"/>
<path d="M103.273 63.6434C107.205 75.7537 118.138 96.5033 122.196 99.0362C125.771 101.302 142.932 99.2416 150.439 97.7424C153.248 97.1879 147.466 77.4309 144.493 78.0812C140.896 78.8685 130.186 80.8196 129.428 80.2787C128.67 79.7379 118.279 67.2717 110.847 59.9604C104.098 53.3063 101.787 59.0636 103.273 63.6434Z" fill="#573D30"/>
<path d="M142.947 79.6901C142.947 79.6901 148.633 73.789 152.661 71.5368C156.913 69.295 161.693 68.0381 166.589 67.8743C171.873 67.6826 184.798 70.5715 184.538 74.145C184.307 77.3831 171.264 73.8096 171.264 73.8096C171.264 73.8096 185.214 75.432 184.159 79.2862C183.103 83.1404 168.217 78.1909 168.217 78.1909C168.217 78.1909 182.509 80.1488 180.77 83.9756C179.432 86.8577 165.675 83.0788 165.675 83.0788C165.675 83.0788 177.953 84.845 176.712 87.8708C175.344 91.2048 162.405 88.4527 162.405 88.4527C157.863 95.6271 152.505 97.3523 148.543 98.1259C147.555 98.2833 142.947 79.6901 142.947 79.6901Z" fill="#573D30"/>
<path d="M166.477 72.9604C168.12 73.0974 169.792 73.2274 171.42 73.4944C173.048 73.7614 174.66 74.09 176.258 74.5008C178.351 74.9963 180.376 75.7106 182.293 76.6298C178.763 75.2264 172.951 74.1722 171.323 73.8915C169.696 73.6108 168.083 73.2754 166.463 73.0084C166.418 73.0221 166.433 72.9604 166.477 72.9604Z" fill="#263238"/>
<path d="M165.311 78.362C167.399 78.6153 169.495 78.8001 171.576 79.1424C173.657 79.4847 175.582 79.9776 177.626 80.45C177.782 80.4842 177.708 80.5526 177.552 80.5184C175.485 80.1214 173.553 79.9023 171.487 79.5326C169.421 79.163 167.369 78.7111 165.296 78.4031C165.266 78.4031 165.274 78.3552 165.311 78.362Z" fill="#263238"/>
<path d="M163.401 82.8255C166.623 83.1478 169.802 83.7764 172.884 84.7013C173.04 84.7423 172.936 84.8176 172.773 84.7834C169.636 84.0988 167.176 83.5512 163.393 82.9282C163.334 82.9214 163.334 82.8187 163.401 82.8255Z" fill="#263238"/>
<path d="M148.737 101.248L143.742 77.616L129.822 79.6286C124.5 73.7412 113.872 61.9665 109.531 58.4066C104.44 54.2239 100.955 57.2086 102.701 63.4041C106.7 77.568 118.829 98.4888 122.114 100.543C126.826 103.486 148.737 101.248 148.737 101.248Z" fill="#8A8D8E"/>
<path opacity="0.1" d="M139.313 80.8952C139.999 81.0327 140.699 81.1083 141.401 81.1211C142.887 81.3059 143.541 83.3254 142.189 84.0922C141.478 84.4952 140.675 84.7392 139.844 84.8046C139.013 84.8699 138.177 84.7549 137.402 84.4687C135.916 83.9347 134.66 82.6066 134.98 81.0458C135.035 80.7548 135.171 80.482 135.375 80.2538C135.578 80.0257 135.843 79.85 136.142 79.7439C136.441 79.6378 136.765 79.6048 137.083 79.6482C137.4 79.6916 137.7 79.8099 137.952 79.9915C138.364 80.3425 138.821 80.6459 139.313 80.8952ZM137.826 78.4718C138.292 78.6788 138.806 78.7794 139.323 78.7651C139.841 78.7508 140.347 78.622 140.799 78.3896C140.966 78.2872 141.099 78.1453 141.185 77.9789L137.826 78.4718ZM130.594 79.5123C131.186 79.9105 131.917 80.0933 132.646 80.0258C132.897 79.994 133.129 79.8821 133.3 79.7095C133.471 79.5369 133.571 79.3145 133.582 79.081L130.594 79.5123ZM146.351 90.0617C146.057 90.1753 145.818 90.3849 145.682 90.6504C145.058 91.8074 145.927 93.0533 147.168 93.7995L146.351 90.0617ZM123.965 94.6073C123.727 95.3672 123.697 96.0449 123.08 96.6611C122.416 97.1542 121.822 97.7223 121.312 98.352C121.225 98.507 121.184 98.68 121.192 98.8541C121.2 99.0281 121.258 99.1973 121.358 99.3449C121.458 99.4926 121.599 99.6137 121.765 99.6965C121.931 99.7792 122.118 99.8207 122.307 99.817C123.602 99.6702 124.79 99.0807 125.635 98.1652C126.481 97.2497 126.922 96.0751 126.871 94.8743C126.829 94.5666 126.675 94.281 126.434 94.0644C126.193 93.8478 125.88 93.7129 125.545 93.6819C125.21 93.6509 124.873 93.7255 124.59 93.8937C124.307 94.0618 124.095 94.3134 123.987 94.6073H123.965ZM121.401 87.9737C120.985 88.9048 121.059 89.959 120.71 90.9311C120.403 91.8223 120.038 92.6956 119.617 93.5462C119.305 94.1623 119.929 95.1344 120.739 94.8058C122.057 94.34 123.135 93.4328 123.757 92.2661C124.322 91.1913 124.946 89.384 124.403 88.2407C123.861 87.0975 122.055 86.6251 121.423 87.9737H121.401ZM110.371 63.7601C110.787 63.8411 111.22 63.7708 111.58 63.564C111.94 63.3573 112.2 63.0301 112.304 62.6511C112.72 61.1793 111.293 59.6663 110.163 58.749C109.033 57.8317 107.443 56.9965 105.86 57.4688C105.649 57.5317 105.459 57.6432 105.308 57.7926C105.158 57.9421 105.051 58.1245 104.998 58.3227C104.945 58.5208 104.948 58.7282 105.006 58.925C105.065 59.1218 105.177 59.3016 105.332 59.4473C106.023 60.2414 106.982 60.8164 107.718 61.5969C108.454 62.3773 109.1 63.5616 110.394 63.7601H110.371ZM116.109 69.5996C116.733 68.7713 116.25 67.5459 115.804 66.7586C115.567 66.3243 115.198 65.9628 114.741 65.718C114.434 65.5371 114.062 65.4751 113.706 65.5457C113.35 65.6162 113.038 65.8134 112.839 66.0946C112.636 66.4838 112.604 66.9301 112.75 67.3405C112.812 67.5552 112.896 67.7638 113.002 67.9635V68.0251V68.0798C113.135 68.7336 113.436 69.3486 113.879 69.8734C114.033 70.0158 114.22 70.1235 114.426 70.1882C114.632 70.2528 114.852 70.2727 115.068 70.2462C115.284 70.2197 115.49 70.1475 115.671 70.0353C115.851 69.9232 116.001 69.774 116.109 69.5996ZM114.333 76.4454C114.604 76.5001 114.886 76.5001 115.158 76.4454C115.57 76.3286 115.918 76.0715 116.131 75.7266C116.331 75.3594 116.43 74.9529 116.421 74.5423C116.408 74.1533 116.293 73.7729 116.087 73.4333L115.841 73.1526L115.514 72.9335C115.31 72.8363 115.084 72.7829 114.854 72.7771C114.624 72.7714 114.395 72.8135 114.185 72.9003C113.975 72.9872 113.789 73.1165 113.641 73.2787C113.493 73.4409 113.386 73.6318 113.329 73.8372C113.206 74.2359 113.119 74.6435 113.069 75.0557L113.136 75.4322C113.188 75.6212 113.29 75.7952 113.433 75.9388C113.662 76.1677 113.964 76.3236 114.295 76.3838L114.333 76.4454ZM120.568 69.4969L119.082 67.9566C118.844 67.9305 118.605 67.9859 118.409 68.1122C118.213 68.2384 118.074 68.4268 118.019 68.6412C117.96 69.0409 117.96 69.4463 118.019 69.846C118.019 70.0172 118.019 70.1883 118.019 70.3663C118.015 70.6243 118.045 70.8817 118.108 71.1331C118.19 71.3936 118.363 71.6215 118.602 71.7804C118.84 71.9392 119.13 72.0199 119.424 72.0093C119.714 71.9955 119.992 71.8963 120.217 71.7263C120.442 71.5562 120.601 71.3243 120.672 71.0646C120.784 70.5424 120.748 70.0027 120.568 69.4969Z" fill="#030402"/>
<path d="M143.935 99.0774C143.333 97.674 141.921 91.5812 141.587 90.0546C141.252 88.528 140.145 82.3942 139.81 80.8265C139.81 80.7443 139.914 80.6896 139.937 80.7786C140.294 82.3189 141.936 88.3911 142.285 89.9109C142.635 91.4306 143.965 97.5234 144.025 99.0569C144.027 99.0677 144.026 99.0793 144.019 99.0889C144.013 99.0985 144.003 99.1055 143.991 99.1082C143.979 99.1109 143.967 99.1092 143.956 99.1034C143.946 99.0977 143.938 99.0883 143.935 99.0774Z" fill="#263238"/>
<path d="M139.342 101.912C137.06 102.035 134.779 102.083 132.497 102.069C130.207 102.079 127.918 101.957 125.645 101.707C124.479 101.6 123.34 101.323 122.27 100.885C121.308 100.259 120.473 99.4833 119.803 98.5918C118.456 96.8787 117.236 95.0832 116.154 93.2178C113.924 89.5279 112.006 85.6874 110.133 81.8674C108.26 78.0475 106.558 74.118 104.998 70.1611C106.893 73.9879 108.766 77.8216 110.713 81.621C112.66 85.4204 114.63 89.2062 116.756 92.9097C117.816 94.757 118.988 96.5488 120.264 98.2768C120.859 99.1372 121.614 99.8948 122.493 100.515C123.507 100.946 124.588 101.225 125.697 101.344C130.223 101.849 134.785 102.039 139.342 101.912Z" fill="#263238"/>
<path d="M106.447 73.5014C106.142 73.2174 105.866 72.908 105.622 72.5772C105.37 72.2496 105.177 71.8867 105.05 71.5024C105.162 71.6725 105.283 71.837 105.414 71.9953L105.778 72.4814C106.023 72.809 106.246 73.1496 106.447 73.5014Z" fill="#263238"/>
<path d="M118.183 67.1558C120.063 68.8946 121.75 70.8046 123.497 72.6324C125.243 74.4602 126.916 76.3908 128.699 78.2117L129.361 78.8963C129.48 78.999 129.591 79.1154 129.703 79.2112C129.814 79.3071 129.814 79.3002 129.866 79.3413C129.866 79.3413 129.918 79.3413 129.948 79.3413C130.513 79.3413 131.226 79.2249 131.865 79.1496L135.819 78.6088C138.45 78.2528 141.089 77.8831 143.727 77.5545L143.831 78.157L143.675 77.5614H143.712C141.104 78.0748 138.51 78.5335 135.864 78.9785C134.548 79.1975 133.233 79.3892 131.91 79.5741C131.234 79.6822 130.551 79.7553 129.866 79.7931C129.812 79.7996 129.757 79.7996 129.703 79.7931C129.63 79.773 129.562 79.7405 129.502 79.6973C129.427 79.6437 129.355 79.5865 129.286 79.5261L128.922 79.1975C128.684 78.9716 128.461 78.7457 128.238 78.513C126.492 76.6441 124.797 74.7546 123.133 72.8378L120.643 69.9557C119.825 69.0589 119.082 68.0731 118.183 67.1558Z" fill="#263238"/>
<path d="M119.156 67.3608C119.436 67.6776 119.685 68.0167 119.899 68.374C120.109 68.7271 120.257 69.1082 120.338 69.5036C120.249 69.3187 120.137 69.1544 120.033 68.9764L119.729 68.4493C119.517 68.0962 119.326 67.7329 119.156 67.3608Z" fill="#263238"/>
<path d="M30.0136 246.372C29.7385 239.966 29.8352 233.552 30.3034 227.155C31.3284 213.973 33.5132 200.889 36.8364 188.032C38.6573 180.789 40.9018 173.656 43.243 166.55C43.3099 166.337 43.6815 166.399 43.622 166.618C36.3904 191.701 30.4521 217.592 30.8608 243.661C30.9798 250.958 31.8939 258.126 32.6446 265.376C32.6446 265.574 32.3176 265.649 32.273 265.451C30.7791 259.228 30.296 252.711 30.0136 246.372Z" fill="#8A8D8E"/>
<path d="M43.6221 166.584C43.6221 166.584 54.5772 192.201 52.1246 198.218C49.6719 204.236 44.6106 205.523 44.6106 205.523C44.6106 205.523 51.2996 214.34 46.6321 222.637C41.9647 230.935 31.5446 230.51 30.846 239.889C30.846 239.861 30.2663 200.662 43.6221 166.584Z" fill="#8A8D8E"/>
<path d="M32.0425 223.678C32.0242 223.634 32.0242 223.585 32.0425 223.541C33.4873 206.053 37.0548 188.769 42.6781 172.012C42.6781 171.965 42.7822 171.978 42.7673 172.012C40.5971 179.502 38.6795 187.032 37.0147 194.604C38.4787 193.323 40.2672 192.401 42.2173 191.92C42.2173 191.92 42.2693 191.92 42.2173 191.968C40.159 192.669 38.31 193.81 36.8215 195.295C36.5044 196.774 36.1947 198.259 35.8924 199.752C38.3377 197.232 41.7342 195.98 45.1308 194.788C45.1754 194.788 45.2051 194.843 45.1308 194.857C41.593 196.185 38.0627 197.896 35.6695 200.703C34.8272 204.952 34.0839 209.217 33.4398 213.498C35.2111 211.798 37.4808 210.608 39.9728 210.075C40.0471 210.075 40.0917 210.164 39.9728 210.185C37.4008 210.869 35.1002 212.227 33.3506 214.094H33.306C33.088 215.6 32.8824 217.108 32.6891 218.619C34.1009 217.545 35.6956 216.694 37.4086 216.099C37.4532 216.099 37.4755 216.147 37.4086 216.161C35.731 216.846 34.1946 217.793 32.8675 218.961C32.8675 218.961 32.8675 218.961 32.8081 218.961C32.6297 220.392 32.4439 221.829 32.2878 223.267C34.7561 220.521 37.9578 218.414 41.5781 217.154C41.5855 217.151 41.5933 217.15 41.6012 217.15C41.609 217.15 41.6168 217.151 41.6241 217.154C41.6313 217.157 41.6379 217.161 41.6434 217.166C41.6489 217.172 41.6532 217.178 41.6562 217.184C41.6591 217.191 41.6606 217.198 41.6605 217.206C41.6604 217.213 41.6587 217.22 41.6556 217.227C41.6525 217.233 41.648 217.24 41.6424 217.245C41.6367 217.25 41.63 217.254 41.6227 217.256C38.0467 218.707 34.9051 220.934 32.4662 223.746C32.4411 223.779 32.405 223.804 32.3634 223.816C32.3219 223.828 32.277 223.828 32.2358 223.815C31.9979 226.019 31.7824 228.23 31.6115 230.441H31.552C31.6709 228.203 31.8419 225.937 32.0425 223.678Z" fill="#263238"/>
<path d="M40.8424 189.401C42.8258 188.262 45.093 187.612 47.4273 187.511C47.4794 187.511 47.4868 187.58 47.4273 187.587C45.1726 187.971 42.9832 188.629 40.9167 189.544C40.8972 189.548 40.877 189.545 40.8593 189.537C40.8416 189.529 40.8274 189.516 40.8188 189.499C40.8103 189.483 40.808 189.464 40.8123 189.446C40.8165 189.428 40.8271 189.412 40.8424 189.401Z" fill="#263238"/>
<path d="M39.512 216.517C41.0374 215.715 42.7148 215.187 44.4544 214.963C44.5139 214.963 44.5213 215.038 44.4544 215.045C42.7502 215.361 41.1018 215.893 39.5566 216.626C39.5045 216.654 39.4451 216.551 39.512 216.517Z" fill="#263238"/>
<path d="M1.21351 198.636C5.84572 201.588 10.0994 205.014 13.893 208.85C17.8155 212.903 20.8446 217.621 22.8117 222.74C26.9688 233.408 29.2056 244.63 29.4338 255.962C29.5762 262.239 28.9202 268.509 27.4792 274.645C27.4665 274.688 27.4369 274.725 27.3962 274.748C27.3555 274.772 27.3066 274.781 27.2591 274.773C27.2116 274.766 27.1689 274.742 27.1395 274.707C27.1101 274.671 27.096 274.627 27.1001 274.583C28.8953 263.754 28.8351 252.733 26.9217 241.922C25.0339 231.324 22.0833 219.796 14.77 211.184C10.7491 206.515 5.78435 202.812 0.908782 198.985C0.618924 198.793 0.945943 198.465 1.21351 198.636Z" fill="#8A8D8E"/>
<path d="M27.7987 248.337C25.1638 244.406 22.0656 240.756 18.5604 237.452C13.0754 232.406 8.45996 228.819 7.74646 225.478C7.03297 222.138 13.2389 219.687 13.2389 219.687C13.2389 219.687 5.65056 220.94 3.57696 218.003C1.50336 215.066 0.5 198.095 0.5 198.095C0.5 198.095 14.2869 207.2 20.7306 219.885C27.1744 232.571 27.7987 248.337 27.7987 248.337Z" fill="#8A8D8E"/>
<path d="M5.42766 214.046C6.33582 213.926 7.25548 213.898 8.17016 213.963C8.28165 213.963 8.27422 214.141 8.17016 214.141C7.26343 214.141 6.35669 214.1 5.44252 214.141C5.3682 214.128 5.3682 214.046 5.42766 214.046Z" fill="#263238"/>
<path d="M15.3571 230.476C16.8161 230.504 18.258 230.77 19.6158 231.263C19.6158 231.263 19.6158 231.324 19.6158 231.318C18.2111 231.01 16.7915 230.879 15.372 230.667C15.2308 230.667 15.2382 230.476 15.3571 230.476Z" fill="#263238"/>
<path d="M18.3374 224.801C18.9433 224.796 19.5483 224.846 20.1435 224.951C20.2029 224.951 20.1955 225.054 20.1435 225.054C19.54 225.082 18.935 225.054 18.3374 224.972C18.3172 224.966 18.2995 224.955 18.2868 224.94C18.2742 224.924 18.2673 224.905 18.2673 224.886C18.2673 224.867 18.2742 224.848 18.2868 224.833C18.2995 224.817 18.3172 224.806 18.3374 224.801Z" fill="#263238"/>
<path d="M68.2452 216.661C63.7574 218.062 59.4564 219.927 55.4245 222.22C51.2497 224.676 47.6284 227.851 44.7592 231.571C38.7178 239.321 34.091 247.927 31.0615 257.051C29.3757 262.1 28.3332 267.313 27.9548 272.584C27.9548 272.624 27.9721 272.662 28.0027 272.691C28.0334 272.719 28.075 272.735 28.1183 272.735C28.1617 272.735 28.2033 272.719 28.234 272.691C28.2646 272.662 28.2819 272.624 28.2819 272.584C29.5378 263.451 32.339 254.556 36.5837 246.221C40.7681 238.047 46.0524 229.346 54.1313 223.938C58.5312 220.987 63.4737 219.064 68.4013 217.024C68.6911 216.914 68.5425 216.579 68.2452 216.661Z" fill="#8A8D8E"/>
<path d="M34.2648 251.219C37.3815 248.597 40.8039 246.301 44.4693 244.373C50.1773 241.457 54.8076 239.533 56.2271 236.986C57.6467 234.44 53.2542 231.126 53.2542 231.126C53.2542 231.126 59.0737 233.755 61.4892 231.811C63.9047 229.867 68.9735 216.346 68.9735 216.346C68.9735 216.346 55.5359 220.755 47.1375 229.682C38.739 238.609 34.2648 251.219 34.2648 251.219Z" fill="#8A8D8E"/>
<path d="M45.4207 238.786C46.7398 238.701 48.0644 238.85 49.3227 239.225C49.3227 239.225 49.3227 239.286 49.3227 239.279C48.0367 239.081 46.7384 238.957 45.4356 238.91C45.4178 238.911 45.4 238.907 45.3861 238.896C45.3722 238.886 45.3632 238.871 45.3613 238.855C45.3593 238.839 45.3644 238.822 45.3756 238.809C45.3867 238.796 45.403 238.788 45.4207 238.786Z" fill="#263238"/>
<path d="M57.1487 224.616C57.7503 224.576 58.3549 224.608 58.9474 224.712C58.9587 224.715 58.9686 224.722 58.9755 224.732C58.9824 224.741 58.9861 224.752 58.9861 224.763C58.9861 224.774 58.9824 224.785 58.9755 224.794C58.9686 224.803 58.9587 224.81 58.9474 224.814C58.3602 224.753 57.7731 224.773 57.1785 224.76C57.1602 224.759 57.1427 224.752 57.1289 224.741C57.1151 224.73 57.1057 224.715 57.1023 224.698C57.0988 224.682 57.1016 224.665 57.11 224.65C57.1184 224.635 57.1321 224.623 57.1487 224.616Z" fill="#263238"/>
<path d="M16.9253 289.658H47.2638L42.9382 260.46L41.8308 252.978H22.3583L21.2509 260.46L16.9253 289.658Z" fill="#455A64"/>
<path d="M21.251 260.46H42.9383L41.8309 252.978H22.3584L21.251 260.46Z" fill="#263238"/>
<path d="M19.5637 256.716H44.6179V250.377H19.5637V256.716Z" fill="#455A64"/>
<path d="M178.54 15.3601C178.54 18.1774 177.69 20.9393 176.085 23.3375C174.48 25.7357 172.183 27.676 169.45 28.9419C166.718 30.2078 163.657 30.7495 160.61 30.5066C157.563 30.2637 154.648 29.2457 152.193 27.5662L144.099 29.4693L147.466 22.5345C146.281 20.4955 145.616 18.2344 145.523 15.9232C145.429 13.6121 145.909 11.3116 146.925 9.19692C147.942 7.08219 149.469 5.20883 151.39 3.71931C153.31 2.22978 155.575 1.16331 158.01 0.600991C160.446 0.038669 162.989 -0.00469568 165.445 0.474194C167.902 0.953084 170.207 1.94162 172.187 3.36462C174.166 4.78763 175.767 6.60764 176.868 8.68626C177.969 10.7649 178.541 13.0474 178.54 15.3601Z" fill="white"/>
<path d="M178.54 15.3533C178.539 18.1741 177.696 20.9403 176.102 23.3492C175.715 23.9564 175.288 24.5416 174.824 25.1017C174.331 25.638 173.802 26.1455 173.241 26.6215C172.132 27.5843 170.881 28.3979 169.525 29.038C168.164 29.6776 166.713 30.1385 165.214 30.4072C164.461 30.5452 163.699 30.6321 162.932 30.6673C162.168 30.7255 161.4 30.7255 160.636 30.6673C157.544 30.4464 154.58 29.4392 152.074 27.7579L152.297 27.7989L144.225 29.7568L143.571 29.9143L143.846 29.3393L147.183 22.3908V22.6783C145.969 20.5997 145.291 18.2916 145.201 15.9329C145.111 13.5741 145.611 11.2278 146.663 9.07567C147.716 6.92957 149.284 5.03135 151.249 3.52373C153.211 2.03833 155.513 0.981513 157.982 0.432566C160.45 -0.116381 163.022 -0.143201 165.504 0.354121C167.963 0.869421 170.266 1.88453 172.245 3.3252C174.213 4.76148 175.802 6.59001 176.892 8.67333C177.983 10.7566 178.546 13.0405 178.54 15.3533ZM178.54 15.3533C178.539 11.8755 177.231 8.5054 174.838 5.81501C172.446 3.12462 169.116 1.27979 165.415 0.593725C162.979 0.147204 160.466 0.217437 158.064 0.799099C155.671 1.36853 153.451 2.43652 151.576 3.92079C149.718 5.42112 148.237 7.27589 147.235 9.35635C146.248 11.431 145.785 13.6853 145.883 15.9489C145.997 18.1899 146.647 20.38 147.785 22.3634L147.867 22.5071L147.793 22.6509L144.396 29.5789L144.017 29.1681L152.126 27.3197H152.252L152.349 27.3882C154.752 29.0696 157.617 30.1008 160.621 30.3661C161.363 30.4164 162.108 30.4164 162.851 30.3661C165.122 30.2942 167.35 29.7736 169.384 28.8395C170.74 28.2312 171.992 27.4423 173.1 26.4982C173.661 26.0294 174.189 25.5286 174.683 24.999C175.156 24.4543 175.595 23.8852 175.998 23.2944C177.621 20.9124 178.5 18.165 178.54 15.3533Z" fill="#263238"/>
<path d="M163.178 17.0032V18.6804C163.183 18.848 163.151 19.0148 163.083 19.1706C163.016 19.3264 162.915 19.4679 162.786 19.5865C162.658 19.705 162.504 19.7981 162.335 19.8601C162.166 19.9221 161.985 19.9516 161.803 19.9469C161.622 19.9469 161.444 19.9141 161.278 19.8503C161.111 19.7866 160.96 19.6932 160.833 19.5755C160.706 19.4578 160.605 19.3182 160.537 19.1645C160.469 19.0109 160.434 18.8464 160.435 18.6804V16.0037C160.435 16.0037 160.435 16.0037 160.435 15.9489C160.435 15.8942 160.435 15.9489 160.435 15.901C160.444 15.569 160.591 15.2528 160.846 15.0174C161.1 14.7819 161.442 14.6449 161.803 14.6345C162.227 14.6536 162.651 14.5931 163.049 14.4566C163.447 14.3202 163.811 14.1107 164.118 13.8409C164.426 13.5711 164.671 13.2466 164.838 12.887C165.005 12.5274 165.092 12.1402 165.092 11.749C165.092 11.3578 165.005 10.9707 164.838 10.6111C164.671 10.2515 164.426 9.92695 164.118 9.65714C163.811 9.38732 163.447 9.17785 163.049 9.04143C162.651 8.90501 162.227 8.84449 161.803 8.86353C161.26 8.86195 160.726 8.99209 160.255 9.24085C159.784 9.48961 159.392 9.84822 159.12 10.2806C159.028 10.4264 158.906 10.5542 158.761 10.6566C158.616 10.7589 158.45 10.8339 158.273 10.8771C158.096 10.9204 157.912 10.9311 157.731 10.9086C157.55 10.8861 157.375 10.8309 157.217 10.7461C157.062 10.6615 156.926 10.5495 156.818 10.4165C156.711 10.2835 156.632 10.1322 156.588 9.97124C156.544 9.81028 156.535 9.64286 156.561 9.4786C156.587 9.31434 156.648 9.1565 156.741 9.01414C157.23 8.23867 157.92 7.58717 158.75 7.11814C159.58 6.64911 160.523 6.37722 161.495 6.3269C162.467 6.27657 163.438 6.44938 164.319 6.8298C165.201 7.21023 165.966 7.78636 166.546 8.50647C167.126 9.22659 167.503 10.0681 167.643 10.9556C167.783 11.843 167.681 12.7485 167.347 13.5909C167.013 14.4332 166.458 15.1859 165.73 15.7815C165.002 16.3771 164.125 16.7969 163.178 17.0032ZM163.178 22.651V23.1165C163.182 23.2835 163.149 23.4496 163.081 23.6046C163.013 23.7595 162.912 23.9002 162.784 24.018C162.655 24.1359 162.502 24.2284 162.333 24.2899C162.164 24.3515 161.984 24.3808 161.803 24.3761C161.44 24.3761 161.092 24.2434 160.836 24.0072C160.579 23.771 160.435 23.4506 160.435 23.1165V22.651C160.439 22.3174 160.584 21.9983 160.839 21.7617C161.095 21.5252 161.44 21.3898 161.803 21.3845C161.984 21.3827 162.163 21.4142 162.331 21.4772C162.499 21.5402 162.651 21.6334 162.779 21.7514C162.907 21.8693 163.009 22.0097 163.077 22.1642C163.145 22.3186 163.18 22.4841 163.178 22.651Z" fill="#8A8D8E"/>
</svg>
