<svg width="221" height="210" viewBox="0 0 221 210" fill="none" xmlns="http://www.w3.org/2000/svg">
<path d="M221 195.722H204.768V195.845H221V195.722Z" fill="#EBEBEB"/>
<path d="M162.834 197.059H158.575V197.181H162.834V197.059Z" fill="#EBEBEB"/>
<path d="M204.277 191.165H194.872V191.287H204.277V191.165Z" fill="#EBEBEB"/>
<path d="M47.3787 191.99H26.2109V192.113H47.3787V191.99Z" fill="#EBEBEB"/>
<path d="M54.8481 191.99H51.7457V192.113H54.8481V191.99Z" fill="#EBEBEB"/>
<path d="M110.848 194.062H64.9346V194.185H110.848V194.062Z" fill="#EBEBEB"/>
<path d="M116.656 165.914H22.0205C21.2792 165.913 20.5686 165.617 20.0449 165.091C19.5211 164.565 19.2269 163.852 19.2269 163.109V29.7941C19.2334 29.0554 19.5304 28.3491 20.0535 27.8286C20.5765 27.3081 21.2834 27.0154 22.0205 27.0142H116.656C117.398 27.0142 118.11 27.3096 118.635 27.8356C119.159 28.3615 119.454 29.0749 119.454 29.8187V163.109C119.454 163.853 119.159 164.567 118.635 165.093C118.11 165.619 117.398 165.914 116.656 165.914ZM22.0205 27.1124C21.3117 27.1137 20.6323 27.3968 20.1315 27.8996C19.6307 28.4024 19.3495 29.0837 19.3495 29.7941V163.109C19.3495 163.82 19.6307 164.501 20.1315 165.004C20.6323 165.507 21.3117 165.79 22.0205 165.791H116.656C117.365 165.79 118.045 165.507 118.546 165.004C119.048 164.502 119.33 163.82 119.332 163.109V29.7941C119.33 29.0833 119.048 28.4019 118.546 27.8993C118.045 27.3966 117.365 27.1137 116.656 27.1124H22.0205Z" fill="#EBEBEB"/>
<path d="M38.5127 187.82H120.601C120.934 187.818 121.253 187.685 121.489 187.448C121.724 187.212 121.856 186.891 121.856 186.557V186.439H72.4969L37.2581 186.557C37.2581 186.891 37.3901 187.212 37.6252 187.448C37.8604 187.685 38.1795 187.818 38.5127 187.82Z" fill="#E0E0E0"/>
<path d="M155.766 182.437V124.082H154.992V182.437H155.766Z" fill="#E6E6E6"/>
<path d="M179.35 124.082H154.992V125.064H179.35V124.082Z" fill="#E6E6E6"/>
<path d="M101.394 102.623L112.049 51.7637H123.811L113.151 102.623H101.394Z" fill="white"/>
<path d="M123.027 210C175.509 210 218.054 207.511 218.054 204.44C218.054 201.37 175.509 198.88 123.027 198.88C70.5451 198.88 28 201.37 28 204.44C28 207.511 70.5451 210 123.027 210Z" fill="#F5F5F5"/>
<path d="M81.8581 56.7974C83.0931 53.9634 72.1539 51.3946 68.8457 60.1274C65.8462 68.0498 60.8667 70.0734 63.2094 75.5597C65.7433 81.4978 80.079 82.21 86.3034 75.6284C91.3515 70.2895 85.8721 68.04 86.5778 63.0204C87.2836 58.0007 85.8034 56.3652 81.8581 56.7974Z" fill="#263238"/>
<path d="M61.9304 73.8011C61.3618 70.7068 62.5087 69.4298 63.9594 67.8138C65.9199 65.8203 67.2629 63.3008 67.8264 60.5594C68.1186 59.0623 68.8655 57.6924 69.9649 56.6372C71.0643 55.5821 72.4623 54.8934 73.9674 54.6655C77.2022 54.0663 80.628 55.1272 81.5347 56.473C81.6791 56.6626 81.7614 56.8923 81.7701 57.1307C81.7789 57.369 81.7138 57.6043 81.5837 57.804L81.172 57.5388C81.2513 57.42 81.2899 57.2787 81.282 57.136C81.274 56.9934 81.2199 56.8572 81.1279 56.748C80.3242 55.5496 77.06 54.5918 74.0606 55.1518C71.9188 55.5496 69.1595 56.8266 68.3067 60.6675C67.726 63.4909 66.3421 66.0855 64.3221 68.138C62.9106 69.7097 61.8716 70.8492 62.4156 73.7078L61.9304 73.8011Z" fill="#263238"/>
<path d="M55.1913 71.4488L54.8875 70.4665C54.6777 69.799 54.2976 69.1979 53.7847 68.7229L52.8045 67.829C52.4945 67.5417 52.0941 67.3721 51.6724 67.3497C51.2508 67.3273 50.8347 67.4534 50.4961 67.7062L49.4473 68.492C49.2556 68.6356 49.0942 68.8159 48.9726 69.0224C48.8509 69.229 48.7714 69.4576 48.7385 69.6952C48.7057 69.9328 48.7203 70.1745 48.7813 70.4064C48.8424 70.6383 48.9488 70.8557 49.0944 71.0461L49.7707 71.9301C49.7707 71.9301 51.3587 74.6217 53.6573 75.5549L54.1866 75.103C54.693 74.6597 55.0582 74.0769 55.2369 73.4272C55.4155 72.7775 55.3997 72.0896 55.1913 71.4488Z" fill="#9E6C51"/>
<path d="M74.2419 88.5018L73.9282 88.7424L73.6733 88.9291L73.1832 89.2729C72.8549 89.489 72.5216 89.6904 72.203 89.8868C71.5361 90.2709 70.849 90.6185 70.1446 90.9281C68.696 91.5684 67.1729 92.0238 65.6111 92.2837C63.9619 92.5614 62.2789 92.5714 60.6266 92.3131C59.7811 92.1799 58.9505 91.9644 58.1467 91.6697C57.9458 91.6059 57.7448 91.5224 57.5488 91.4389L57.2547 91.3161L57.1077 91.2522L56.9459 91.1835L56.7401 91.0852C56.3123 90.8656 55.9179 90.5861 55.5687 90.2552C55.3177 90.0211 55.0865 89.7664 54.8777 89.4939C54.3232 88.7404 53.8746 87.914 53.5446 87.0381C53.2505 86.3112 53.0251 85.6137 52.8241 84.931C52.4585 83.6099 52.1624 82.2705 51.937 80.9183C51.4893 78.305 51.2387 75.6616 51.1872 73.0106C51.1265 72.5143 51.2569 72.0136 51.5519 71.6103C51.8468 71.2071 52.2841 70.9317 52.7746 70.8403C53.2651 70.7488 53.7719 70.8483 54.1918 71.1183C54.6117 71.3883 54.9131 71.8086 55.0345 72.2935V72.3475C55.8873 74.7002 56.7058 77.1118 57.5684 79.4006C58.0144 80.5401 58.4457 81.6746 58.9358 82.7061C59.171 83.2218 59.4259 83.7129 59.666 84.1403C59.8295 84.4533 60.0394 84.7398 60.2885 84.99C60.2885 84.99 60.2885 84.99 60.2542 84.9212C60.1413 84.8038 60.0085 84.7073 59.8621 84.6363L59.769 84.5872C59.7396 84.5872 59.6807 84.5528 59.715 84.5627H59.7935L59.9454 84.6019C60.0465 84.6334 60.1497 84.6581 60.2542 84.6756C60.6679 84.7583 61.0874 84.8092 61.5088 84.8279C62.3912 84.8549 63.2732 84.7624 64.1309 84.5528C65.0721 84.3149 65.988 83.986 66.8657 83.5705C67.3215 83.3642 67.7724 83.1236 68.2135 82.8829C68.4341 82.7601 68.6497 82.6275 68.8556 82.4998L69.3457 82.1854L69.728 81.9448C70.5892 81.3961 71.629 81.2032 72.6291 81.4065C73.6292 81.6099 74.5117 82.1936 75.0915 83.0352C75.6712 83.8768 75.903 84.9108 75.7382 85.92C75.5734 86.9293 75.0248 87.8352 74.2076 88.4477L74.2419 88.5018Z" fill="#9E6C51"/>
<path d="M82.8383 202.299C85.9407 201.272 88.553 199.17 88.0286 195.482C87.7982 193.9 92.8611 193.281 92.8611 193.281C92.2876 198.306 92.915 199.175 93.5178 200.31C94.1206 201.444 94.0863 202.834 93.0277 202.957C91.773 203.109 91.4937 202.957 89.9351 203.178C88.1119 203.419 86.9307 204.372 83.2892 204.372C81.3239 204.372 81.8581 202.623 82.8383 202.299Z" fill="#1D9B5E"/>
<path d="M92.2729 148.629C92.6307 123.462 90.3124 109.744 90.3124 109.744L71.7324 110.672C71.7324 110.672 74.4819 133.698 79.3634 150.658C80.6671 159.759 83.6029 175.152 85.6368 185.491C88.6548 185.232 91.6386 184.666 94.5421 183.801C95.2527 174.72 95.3802 161.591 92.2729 148.629Z" fill="#1D9B5E"/>
<path d="M92.6749 195.746C92.6749 195.746 93.4003 190.992 93.8904 183.801C91.4248 184.662 88.8668 185.229 86.2692 185.491C87.3278 191.768 88.0826 195.766 88.0826 195.766C89.5679 196.301 91.1942 196.294 92.6749 195.746Z" fill="#9E6C51"/>
<path d="M84.6223 182.48C84.784 183.344 85.2349 185.51 85.6809 186.271C85.7067 186.315 85.7422 186.353 85.7846 186.381C85.8271 186.409 85.8755 186.427 85.9259 186.433C89.391 186.871 92.8512 186.173 94.2578 185.544C94.2971 185.529 94.3327 185.505 94.3622 185.474C94.3918 185.444 94.4146 185.407 94.4293 185.368C94.8214 184.326 94.9636 182.136 95.0077 181.212C95.0101 181.162 95.0012 181.113 94.9815 181.067C94.9618 181.021 94.932 180.98 94.8942 180.947C94.8564 180.914 94.8116 180.891 94.7633 180.878C94.7151 180.865 94.6645 180.864 94.6156 180.874C91.4042 181.47 88.1606 181.877 84.9016 182.092C84.857 182.097 84.814 182.111 84.7752 182.134C84.7365 182.157 84.7029 182.187 84.6766 182.224C84.6504 182.26 84.6319 182.302 84.6226 182.346C84.6132 182.39 84.6131 182.436 84.6223 182.48Z" fill="#263238"/>
<path d="M71.9775 81.0801C69.2231 81.5712 65.0228 83.9042 65.0228 83.9042C65.0228 83.9042 62.8124 89.2088 65.459 93.03C68.0664 93.6488 69.3799 93.1429 69.3799 93.1429L71.9775 81.0801Z" fill="#263238"/>
<path opacity="0.2" d="M65.4591 93.03C68.0665 93.6489 69.38 93.143 69.38 93.143L69.2869 85.9868C67.5176 88.3739 66.0423 90.7412 65.4591 93.03Z" fill="black"/>
<path opacity="0.2" d="M92.1748 133.782C90.0967 128.689 87.8618 124.494 87.0041 120.663C85.5338 131.081 86.6905 140.663 92.2826 147.529C92.3463 142.461 92.2924 137.873 92.1748 133.782Z" fill="black"/>
<path d="M120.577 173.723L113.161 179.008C107.109 171.105 98.0317 159.032 95.8361 153.777C90.2586 140.442 79.0449 111.046 79.0449 111.046L93.6012 107.657C93.6012 107.657 102.786 116.203 108.711 148.453C113.671 155.516 117.847 165.909 120.577 173.723Z" fill="#1D9B5E"/>
<path d="M120.15 198.772C121.998 195.152 122.023 191.163 120.028 188.02C119.17 186.674 123.527 184.017 123.527 184.017C125.066 188.835 126.321 189.115 127.389 189.862C128.458 190.608 128.566 192.215 127.664 192.76C126.68 193.339 125.841 194.138 125.213 195.093C124.096 196.566 123.468 198.59 121.866 199.852C120.841 200.653 119.337 200.358 120.15 198.772Z" fill="#1D9B5E"/>
<path d="M124.336 186.228C124.336 186.228 123.057 181.719 120.547 174.966C118.652 176.765 116.555 178.337 114.298 179.651C117.842 184.936 120.435 188.733 120.435 188.733C121.941 188.276 123.292 187.408 124.336 186.228Z" fill="#9E6C51"/>
<path d="M111.559 177.588C112.049 178.305 113.362 180.098 114.083 180.603C114.125 180.633 114.173 180.653 114.224 180.662C114.275 180.67 114.327 180.667 114.377 180.653C117.71 179.621 120.577 177.553 121.626 176.389C121.655 176.358 121.677 176.321 121.691 176.28C121.704 176.239 121.709 176.196 121.704 176.154C121.635 175.048 120.861 172.99 120.523 172.131C120.504 172.085 120.476 172.045 120.44 172.011C120.403 171.978 120.36 171.954 120.313 171.94C120.266 171.926 120.216 171.922 120.168 171.93C120.119 171.937 120.073 171.956 120.033 171.984C117.358 173.854 114.576 175.564 111.701 177.106C111.657 177.126 111.618 177.154 111.587 177.19C111.555 177.226 111.532 177.268 111.519 177.314C111.505 177.36 111.502 177.408 111.509 177.455C111.516 177.503 111.533 177.548 111.559 177.588Z" fill="#263238"/>
<path d="M67.7723 88.4086C68.4389 92.7554 65.856 96.1247 69.8308 98.1287C69.1692 101.434 70.1494 108.035 71.7226 110.653C73.933 111.857 84.7448 110.079 93.5815 107.652C93.454 103.87 90.3517 96.4293 91.2142 84.0422C91.2607 83.3646 91.1645 82.6848 90.932 82.0468C90.6994 81.4088 90.3357 80.8269 89.8644 80.3388C89.3931 79.8507 88.8246 79.4674 88.196 79.2135C87.5673 78.9597 86.8925 78.8411 86.2151 78.8654C85.4506 78.8654 84.637 78.9391 83.8136 79.0128C80.9188 79.199 78.041 79.5929 75.2024 80.1915C74.2859 80.4076 73.34 80.6532 72.4431 80.9086C70.8839 81.3699 69.5476 82.3879 68.6869 83.77C67.8262 85.1521 67.5008 86.8024 67.7723 88.4086Z" fill="#263238"/>
<path d="M74.0164 85.103C74.0164 85.103 76.7855 84.0912 78.2362 86.5765C80.6524 85.216 84.0489 79.4645 83.8087 79.0273C79.7653 80.1423 74.0164 85.103 74.0164 85.103Z" fill="white"/>
<path d="M74.0164 85.1029C74.0164 85.1029 71.9138 84.8524 71.3208 86.7188C71.3208 83.0352 73.8008 80.7169 74.8839 80.2847C74.5065 81.2473 74.0164 85.1029 74.0164 85.1029Z" fill="white"/>
<path d="M82.75 69.2778C82.4412 72.1511 82.3922 76.768 83.8135 79.0323C83.8135 79.0323 78.4223 82.7307 74.0114 85.103C72.6243 81.8859 74.8788 80.2847 74.8788 80.2847C76.9814 79.4792 76.9618 76.7827 76.6775 74.7199L82.75 69.2778Z" fill="#9E6C51"/>
<path opacity="0.2" d="M76.6875 74.7198L80.1183 71.6255C80.2335 72.203 80.1963 72.8006 80.0104 73.3593C79.4162 74.969 78.2742 76.317 76.7855 77.1658C76.8395 76.3493 76.8067 75.5293 76.6875 74.7198Z" fill="black"/>
<path d="M83.8578 63.9393C83.3677 68.6053 83.2942 70.5846 80.8927 72.8931C77.2757 76.3656 71.7718 74.7742 70.8651 70.0689C70.0466 65.8302 70.9435 58.9147 75.4917 57.23C80.0399 55.5453 84.3087 59.2782 83.8578 63.9393Z" fill="#9E6C51"/>
<path d="M82.8382 67.3521C82.1196 66.6627 81.6995 65.7182 81.6684 64.7217C81.6372 63.7252 81.9974 62.7562 82.6716 62.0231C83.8969 60.7804 85.6122 63.3541 85.6122 63.3541L82.8382 67.3521Z" fill="#263238"/>
<path d="M77.1581 65.2309C77.1581 65.614 76.9277 65.9136 76.668 65.9038C76.4082 65.894 76.2318 65.5748 76.2465 65.1966C76.2612 64.8184 76.4768 64.5138 76.7366 64.5237C76.9963 64.5335 77.1728 64.8331 77.1581 65.2309Z" fill="#263238"/>
<path d="M72.4823 65.1177C72.4823 65.4959 72.2569 65.7955 71.9922 65.7856C71.7275 65.7758 71.556 65.4615 71.5707 65.0784C71.5854 64.6953 71.7962 64.4006 72.0608 64.4104C72.3255 64.4202 72.497 64.7346 72.4823 65.1177Z" fill="#263238"/>
<path d="M72.1686 64.4353L71.2668 64.1357C71.2668 64.1357 71.7079 64.8676 72.1686 64.4353Z" fill="#263238"/>
<path d="M73.634 65.2646C73.2553 66.121 72.7605 66.921 72.1637 67.6419C72.352 67.7873 72.5697 67.8899 72.8016 67.9425C73.0336 67.9951 73.2741 67.9964 73.5066 67.9464L73.634 65.2646Z" fill="#ED847E"/>
<path d="M75.6583 69.4397C75.4457 69.4698 75.2307 69.4796 75.0163 69.4691C74.9872 69.4679 74.9598 69.4554 74.9397 69.4344C74.9196 69.4133 74.9084 69.3853 74.9084 69.3562C74.9091 69.3413 74.9126 69.3268 74.9189 69.3133C74.9251 69.2998 74.934 69.2877 74.9449 69.2777C74.9558 69.2677 74.9686 69.2599 74.9825 69.2548C74.9965 69.2497 75.0113 69.2475 75.0261 69.2481C75.498 69.2763 75.9699 69.1933 76.404 69.0056C76.8381 68.818 77.2223 68.5309 77.5256 68.1676C77.5335 68.1555 77.5438 68.1451 77.5557 68.137C77.5677 68.1289 77.5812 68.1234 77.5954 68.1206C77.6095 68.1179 77.6241 68.118 77.6382 68.121C77.6523 68.124 77.6657 68.1298 77.6776 68.1381C77.6898 68.1465 77.7003 68.1572 77.7084 68.1696C77.7165 68.1821 77.7221 68.196 77.7248 68.2106C77.7275 68.2252 77.7273 68.2402 77.7243 68.2547C77.7212 68.2692 77.7153 68.283 77.707 68.2953C77.1988 68.9295 76.4638 69.34 75.6583 69.4397Z" fill="#263238"/>
<path d="M84.6321 67.8483C84.4503 68.2341 84.1883 68.5765 83.8637 68.8527C83.5392 69.1288 83.1595 69.3323 82.7501 69.4495C81.7062 69.7098 81.221 68.5605 81.5445 67.4112C81.8336 66.3748 82.7305 64.9947 83.7597 65.2452C84.789 65.4956 85.137 66.8414 84.6321 67.8483Z" fill="#9E6C51"/>
<path d="M81.4464 57.3029C78.1471 59.3656 74.4425 60.6908 70.5856 61.1879C70.5856 57.8333 77.1334 54.0661 81.4464 57.3029Z" fill="#263238"/>
<path d="M78.9174 57.7111C78.1577 60.658 85.7789 66.0608 84.3086 71.2572C86.7984 67.3722 85.0046 58.6295 85.0046 58.6295C85.0046 58.6295 78.5841 54.5578 78.9174 57.7111Z" fill="#263238"/>
<path d="M78.1333 62.7257C78.1035 62.7216 78.075 62.7111 78.0497 62.695C78.0243 62.6789 78.0027 62.6576 77.9862 62.6324C77.8349 62.3956 77.63 62.198 77.3882 62.0555C77.1463 61.9129 76.8743 61.8296 76.5943 61.8122C76.5652 61.8135 76.5361 61.8089 76.5088 61.7986C76.4815 61.7884 76.4565 61.7727 76.4355 61.7525C76.4144 61.7323 76.3976 61.708 76.3862 61.6811C76.3747 61.6542 76.3688 61.6253 76.3689 61.5961C76.3675 61.5662 76.3723 61.5364 76.3828 61.5085C76.3932 61.4805 76.4093 61.455 76.4299 61.4334C76.4505 61.4118 76.4753 61.3947 76.5027 61.3829C76.5301 61.3712 76.5596 61.3652 76.5894 61.3652C76.9433 61.3806 77.2883 61.481 77.5953 61.658C77.9024 61.8349 78.1625 62.0832 78.3538 62.3819C78.3704 62.406 78.3821 62.4332 78.3882 62.4619C78.3942 62.4906 78.3945 62.5202 78.3891 62.549C78.3836 62.5778 78.3725 62.6052 78.3563 62.6296C78.3402 62.6541 78.3193 62.6751 78.295 62.6914C78.2716 62.7075 78.2453 62.7188 78.2175 62.7247C78.1898 62.7306 78.1611 62.731 78.1333 62.7257Z" fill="#263238"/>
<path d="M70.4141 62.5633C70.3569 62.5593 70.303 62.5349 70.2621 62.4945C70.2414 62.474 70.2249 62.4495 70.2137 62.4225C70.2024 62.3955 70.1967 62.3666 70.1967 62.3373C70.1967 62.3081 70.2024 62.2792 70.2137 62.2522C70.2249 62.2252 70.2414 62.2007 70.2621 62.1802C70.5066 61.9228 70.8091 61.7278 71.1442 61.6116C71.4793 61.4954 71.8373 61.4613 72.1883 61.5122C72.2458 61.5252 72.296 61.5602 72.328 61.6098C72.3601 61.6593 72.3715 61.7195 72.3598 61.7774C72.354 61.8063 72.3425 61.8337 72.326 61.858C72.3094 61.8824 72.2882 61.9032 72.2636 61.9192C72.2389 61.9352 72.2113 61.9461 72.1824 61.9513C72.1535 61.9565 72.1238 61.9558 72.0951 61.9493C71.8169 61.9138 71.5343 61.9446 71.2702 62.0394C71.0062 62.1341 70.7682 62.2901 70.5758 62.4945C70.5331 62.538 70.4749 62.5627 70.4141 62.5633Z" fill="#263238"/>
<path d="M76.8443 64.5476L75.9425 64.2529C75.9425 64.2529 76.3787 64.9848 76.8443 64.5476Z" fill="#263238"/>
<path opacity="0.2" d="M91.0967 86.4439C91.0086 89.0663 91.0954 91.6916 91.3564 94.3024C88.9059 91.7091 85.828 86.8122 85.6271 84.3564L91.0967 86.4439Z" fill="black"/>
<path d="M107.099 77.2199L107.633 74.1011L112.47 75.9724C112.47 75.9724 111.348 78.8751 109.285 80.1571L108.711 79.7936C108.261 79.5194 107.882 79.1441 107.602 78.6974C107.322 78.2507 107.15 77.7449 107.099 77.2199Z" fill="#9E6C51"/>
<path d="M110.652 72.3625L112.245 73.2318C112.593 73.4211 112.852 73.7406 112.966 74.1206C113.08 74.5006 113.039 74.9103 112.853 75.2603L112.475 75.9725L107.638 74.1012L108.79 72.721C109.012 72.4561 109.318 72.276 109.657 72.2107C109.997 72.1454 110.348 72.199 110.652 72.3625Z" fill="#9E6C51"/>
<path d="M90.234 80.7806L90.8516 81.4191L91.523 82.1018C91.9788 82.5488 92.4346 83.0055 92.9051 83.4378C93.8363 84.3169 94.7969 85.1322 95.7625 85.8935C96.6732 86.6092 97.6402 87.2498 98.6541 87.8091C99.4294 88.246 100.273 88.5482 101.149 88.703L99.8304 88.9486C99.5069 89.1057 99.5265 89.1745 99.5951 89.1205C99.7275 89.0316 99.8492 88.9278 99.9578 88.811C100.316 88.4371 100.644 88.0347 100.938 87.6077C101.605 86.6597 102.281 85.5841 102.898 84.4692C103.516 83.3542 104.173 82.2098 104.805 81.0311L106.692 77.534V77.5045C106.913 77.0878 107.275 76.7635 107.713 76.5896C108.151 76.4157 108.636 76.4035 109.082 76.5553C109.528 76.7071 109.906 77.0128 110.148 77.418C110.39 77.8231 110.48 78.3012 110.402 78.7668C110.177 80.1814 109.868 81.5173 109.525 82.8778C109.182 84.2383 108.814 85.5841 108.324 86.9348C107.844 88.3275 107.274 89.6876 106.618 91.0065C106.238 91.749 105.807 92.4645 105.329 93.148C105.028 93.5696 104.69 93.964 104.32 94.3267C103.772 94.8744 103.125 95.3128 102.413 95.6185C102.064 95.7676 101.69 95.8492 101.31 95.8592H101.095C99.1582 95.8705 97.2416 95.4669 95.4733 94.6755C94.6928 94.3411 93.9304 93.9656 93.1894 93.5507C92.4804 93.1316 91.7958 92.6977 91.1358 92.2491C89.8533 91.3491 88.6318 90.3646 87.4796 89.3022C86.916 88.7816 86.3573 88.256 85.8231 87.701C85.5584 87.426 85.2888 87.1509 85.0291 86.8611C84.7693 86.5713 84.539 86.3061 84.2204 85.9377C83.5159 85.1562 83.15 84.1261 83.2033 83.0742C83.2567 82.0223 83.7248 81.0347 84.5047 80.3287C85.2846 79.6227 86.3124 79.2561 87.3621 79.3095C88.4117 79.3629 89.3972 79.832 90.1017 80.6136L90.234 80.7806Z" fill="#9E6C51"/>
<path d="M86.4309 78.8896C90.0234 78.9977 93.5963 83.3101 93.5963 83.3101C93.5963 83.3101 92.2142 89.0321 88.2786 91.4977C86.0633 89.7688 84.1862 88.3838 84.1862 88.3838C81.0544 83.7816 82.0983 80.7266 86.4309 78.8896Z" fill="#263238"/>
<path d="M71.0071 110.334C71.2718 111.871 71.5904 113.079 71.6933 113.448C71.7032 113.487 71.7209 113.523 71.7454 113.555C71.7698 113.588 71.8004 113.614 71.8354 113.634C72.3598 113.924 74.7516 115.108 79.143 114.847C84.044 114.582 91.2339 111.9 94.9637 109.047C95.018 109.005 95.0571 108.946 95.0748 108.879C95.0925 108.813 95.0879 108.742 95.0617 108.678C94.7736 108.038 94.4377 107.421 94.057 106.832C94.0197 106.775 93.9653 106.732 93.9017 106.709C93.8381 106.686 93.7688 106.684 93.7041 106.704C92.0965 107.195 81.9758 110.098 71.3159 109.97C71.2707 109.97 71.226 109.98 71.1849 109.999C71.1439 110.018 71.1075 110.046 71.0781 110.081C71.0488 110.115 71.0273 110.156 71.015 110.199C71.0028 110.243 71.0001 110.289 71.0071 110.334Z" fill="#1D9B5E"/>
<path opacity="0.3" d="M71.0071 110.334C71.2718 111.871 71.5904 113.079 71.6933 113.448C71.7032 113.487 71.7209 113.523 71.7454 113.555C71.7698 113.588 71.8004 113.614 71.8354 113.634C72.3598 113.924 74.7516 115.108 79.143 114.847C84.044 114.582 91.2339 111.9 94.9637 109.047C95.018 109.005 95.0571 108.946 95.0748 108.879C95.0925 108.813 95.0879 108.742 95.0617 108.678C94.7736 108.038 94.4377 107.421 94.057 106.832C94.0197 106.775 93.9653 106.732 93.9017 106.709C93.8381 106.686 93.7688 106.684 93.7041 106.704C92.0965 107.195 81.9758 110.098 71.3159 109.97C71.2707 109.97 71.226 109.98 71.1849 109.999C71.1439 110.018 71.1075 110.046 71.0781 110.081C71.0488 110.115 71.0273 110.156 71.015 110.199C71.0028 110.243 71.0001 110.289 71.0071 110.334Z" fill="white"/>
<path d="M169.23 189.789H104.702C103.508 189.8 102.326 189.563 101.228 189.094C100.13 188.624 99.141 187.933 98.323 187.062C97.5049 186.191 96.8756 185.159 96.4746 184.033C96.0736 182.906 95.9095 181.709 95.9927 180.516L103.834 46.1099C104.013 43.6151 105.12 41.2783 106.935 39.5614C108.749 37.8444 111.141 36.8722 113.637 36.8368H178.179C179.373 36.8258 180.555 37.0623 181.653 37.5317C182.751 38.001 183.74 38.6929 184.558 39.5639C185.376 40.4349 186.005 41.4661 186.406 42.5926C186.807 43.7192 186.972 44.9167 186.888 46.1099L179.022 180.516C178.843 183.009 177.738 185.344 175.926 187.061C174.113 188.778 171.724 189.751 169.23 189.789Z" fill="#1D9B5E"/>
<path opacity="0.8" d="M169.23 189.789H104.702C103.508 189.8 102.326 189.563 101.228 189.094C100.13 188.624 99.141 187.933 98.323 187.062C97.5049 186.191 96.8756 185.159 96.4746 184.033C96.0736 182.906 95.9095 181.709 95.9927 180.516L103.834 46.1099C104.013 43.6151 105.12 41.2783 106.935 39.5614C108.749 37.8444 111.141 36.8722 113.637 36.8368H178.179C179.373 36.8258 180.555 37.0623 181.653 37.5317C182.751 38.001 183.74 38.6929 184.558 39.5639C185.376 40.4349 186.005 41.4661 186.406 42.5926C186.807 43.7192 186.972 44.9167 186.888 46.1099L179.022 180.516C178.843 183.009 177.738 185.344 175.926 187.061C174.113 188.778 171.724 189.751 169.23 189.789Z" fill="white"/>
<path d="M168.847 187.097H106.114C105.275 187.105 104.444 186.939 103.672 186.61C102.901 186.28 102.206 185.795 101.631 185.183C101.056 184.571 100.614 183.847 100.331 183.055C100.049 182.264 99.9339 181.423 99.9921 180.584L107.834 46.763C107.96 45.0145 108.733 43.3762 110.003 42.1702C111.272 40.9642 112.946 40.2776 114.695 40.2454H177.429C178.268 40.2379 179.099 40.4044 179.871 40.7344C180.642 41.0644 181.337 41.5507 181.912 42.1628C182.487 42.7749 182.929 43.4996 183.211 44.2912C183.493 45.0829 183.609 45.9245 183.551 46.763L175.709 180.584C175.583 182.332 174.809 183.97 173.54 185.175C172.27 186.38 170.596 187.066 168.847 187.097Z" fill="#1D9B5E"/>
<path d="M168.171 186.38H105.437C104.598 186.388 103.767 186.221 102.996 185.891C102.224 185.561 101.529 185.075 100.954 184.463C100.379 183.851 99.937 183.126 99.655 182.334C99.3731 181.543 99.2575 180.701 99.3157 179.863L107.157 46.0414C107.283 44.2928 108.057 42.6545 109.326 41.4485C110.596 40.2425 112.27 39.5559 114.019 39.5237H176.753C177.592 39.5162 178.423 39.6827 179.194 40.0127C179.966 40.3427 180.661 40.829 181.236 41.4411C181.811 42.0532 182.253 42.7779 182.535 43.5696C182.817 44.3612 182.932 45.2028 182.874 46.0414L175.033 179.863C174.907 181.611 174.133 183.249 172.864 184.455C171.594 185.661 169.92 186.348 168.171 186.38Z" fill="white"/>
<path opacity="0.1" d="M166.338 181.404H107.834C107.316 181.409 106.802 181.306 106.325 181.102C105.848 180.898 105.419 180.598 105.063 180.219C104.708 179.841 104.435 179.393 104.26 178.904C104.086 178.415 104.014 177.895 104.05 177.377L107.344 121.556C107.421 120.473 107.901 119.459 108.689 118.713C109.476 117.967 110.514 117.545 111.598 117.529H170.078C170.596 117.524 171.11 117.627 171.587 117.831C172.063 118.035 172.493 118.335 172.848 118.714C173.204 119.092 173.477 119.54 173.651 120.029C173.826 120.518 173.897 121.038 173.861 121.556L170.592 177.377C170.515 178.46 170.035 179.475 169.248 180.22C168.46 180.966 167.422 181.389 166.338 181.404Z" fill="#1D9B5E"/>
<path opacity="0.1" d="M153.345 49.4499H136.294C136.109 49.4517 135.925 49.4151 135.755 49.3423C135.585 49.2695 135.431 49.1621 135.304 49.027C135.177 48.8918 135.079 48.7317 135.017 48.5569C134.954 48.382 134.929 48.1961 134.942 48.0108C134.969 47.6224 135.14 47.2583 135.423 46.9909C135.705 46.7234 136.077 46.572 136.466 46.5668H153.512C153.699 46.5622 153.886 46.5969 154.059 46.6688C154.232 46.7407 154.388 46.848 154.517 46.9841C154.647 47.1201 154.746 47.2817 154.809 47.4585C154.872 47.6354 154.898 47.8235 154.884 48.0108C154.857 48.4013 154.683 48.7669 154.397 49.0339C154.112 49.301 153.736 49.4496 153.345 49.4499Z" fill="#1D9B5E"/>
<path opacity="0.1" d="M160.129 103.325C170.628 93.1066 171.345 76.7793 161.73 66.8566C152.114 56.9339 135.808 57.1733 125.309 67.3913C114.809 77.6093 114.092 93.9365 123.707 103.859C133.323 113.782 149.629 113.543 160.129 103.325Z" fill="#1D9B5E"/>
<path d="M124.694 102.441C122.548 100.152 120.898 97.4436 119.846 94.4854C118.795 91.5273 118.364 88.3832 118.582 85.2505H119.072C118.86 88.3159 119.281 91.3922 120.31 94.2869C121.339 97.1815 122.953 99.8321 125.051 102.073L124.694 102.441Z" fill="#1D9B5E"/>
<path d="M166.853 85.462L166.363 85.4325C166.496 83.2689 166.331 81.0971 165.872 78.9787L166.363 78.8706C166.831 81.0342 166.996 83.2527 166.853 85.462Z" fill="#1D9B5E"/>
<path d="M164.451 74.7052C163.252 72.0382 161.536 69.6365 159.403 67.6391C157.27 65.6418 154.763 64.0886 152.027 63.0696L152.199 62.6079C154.997 63.6478 157.562 65.2357 159.742 67.2789C161.922 69.3221 163.674 71.7798 164.897 74.5087L164.451 74.7052Z" fill="#1D9B5E"/>
<path d="M157.889 101.013C167.039 92.1083 167.664 77.8806 159.286 69.2345C150.908 60.5884 136.698 60.7979 127.548 69.7025C118.398 78.6071 117.773 92.8347 126.151 101.481C134.529 110.127 148.739 109.917 157.889 101.013Z" fill="#1D9B5E"/>
<path d="M140.225 88.4091C141.303 88.1685 141.808 87.2451 142.039 86.194C142.063 86.081 142.083 85.973 142.102 85.8649V85.7667C142.161 85.3286 142.194 84.8874 142.2 84.4455C141.156 84.3419 140.187 83.8573 139.477 83.0838C138.766 82.3103 138.365 81.3021 138.348 80.251C138.294 78.1667 138.755 76.1014 139.691 74.2392C139.45 74.2708 139.222 74.3657 139.029 74.5143C139.011 74.5285 138.989 74.5385 138.966 74.5435C138.943 74.5486 138.92 74.5487 138.897 74.5437C138.854 74.5364 138.816 74.5136 138.789 74.4799C138.763 74.443 138.752 74.3974 138.758 74.3527C138.765 74.3079 138.788 74.2673 138.823 74.2392C139.128 74.0084 139.5 73.8841 139.882 73.8856C139.956 73.7677 140.024 73.6449 140.098 73.5319C139.784 73.5319 139.48 73.5319 139.186 73.5319C139.51 71.2628 143.867 69.3571 146.837 71.0761C148.16 71.3414 150.346 73.2372 150.346 73.2372C150.39 74.4448 150.355 75.654 150.243 76.8571C150.047 78.9101 149.562 81.3217 148.381 82.6675C148.674 81.9791 148.783 81.2253 148.694 80.4818C148.411 80.7624 148.06 80.9639 147.675 81.0663C147.535 81.3673 147.371 81.6564 147.185 81.9307C146.724 84.0378 146.396 86.8423 147.096 88.4583C147.729 88.4976 148.341 88.5565 148.925 88.6203L149.067 88.6449C149.452 88.4183 149.821 88.1673 150.174 87.8934C154.585 84.4553 149.905 80.418 151.008 76.7196C152.11 73.0211 151.179 71.6164 148.165 71.4985C149.415 69.4995 141.475 66.307 137.985 72.5103C134.824 78.1341 133.805 80.9435 134.942 85.3394C135.369 86.7761 136.338 87.9898 137.642 88.7235C137.864 88.6626 138.09 88.6166 138.319 88.586C138.941 88.527 139.588 88.4583 140.225 88.4091Z" fill="#263238"/>
<path d="M133.369 97.0531C133.189 96.7342 133.025 96.4064 132.879 96.0708C132.545 97.0531 132.217 98.0354 131.898 99.0178C131.594 99.9018 131.305 100.786 131.001 101.631L130.546 102.824L130.35 103.315C130.281 103.448 130.35 103.369 130.35 103.409C130.141 103.653 129.909 103.876 129.659 104.077C129.605 104.131 129.536 104.18 129.477 104.229C130.833 105.146 132.292 105.899 133.824 106.474C133.859 104.229 134.133 101.896 134.427 101.272C132.663 100.044 132.928 98.7231 133.369 97.0531Z" fill="#9E6C51"/>
<path d="M135.084 90.4272L134.961 90.5992C135.001 90.5402 135.045 90.4862 135.089 90.4322L135.084 90.4272Z" fill="#263238"/>
<path d="M133.952 93.7179C133.944 92.6367 134.271 91.5798 134.888 90.6924C133.948 92.1738 133.176 93.7552 132.584 95.4075C132.584 95.4075 132.672 95.6678 132.859 96.0755C133.005 96.411 133.169 96.7389 133.349 97.0578C133.698 95.9766 133.901 94.8533 133.952 93.7179Z" fill="#263238"/>
<path d="M151.037 100.845C150.456 99.9893 149.94 99.0912 149.493 98.1582C149.346 98.2368 149.194 98.3154 149.037 98.3841C147.567 96.8272 146.312 95.5698 146.312 95.5698C144.479 91.7388 145.612 89.558 149.086 88.669C149.626 88.7802 150.14 88.9882 150.606 89.283C150.147 88.96 149.621 88.7482 149.067 88.6641L148.925 88.6395C148.341 88.5757 147.729 88.5167 147.097 88.4775C147.234 88.836 144.087 93.389 142.112 94.111C141.303 92.0678 139.034 91.9303 139.034 91.9303C139.034 91.9303 136.917 91.4932 136.26 92.8291C136.692 90.0688 139.343 88.615 140.225 88.4087C139.588 88.4627 138.941 88.5315 138.319 88.6101C138.09 88.6407 137.864 88.6867 137.642 88.7476C136.634 89.0248 135.739 89.6166 135.089 90.4372C135.045 90.4912 135.001 90.5452 134.961 90.6042L134.888 90.6975C134.272 91.585 133.945 92.6419 133.952 93.723C133.907 94.8558 133.711 95.9775 133.369 97.058C132.928 98.7083 132.663 100.049 134.393 101.277C134.099 101.901 133.824 104.224 133.79 106.478C136.226 107.383 138.804 107.843 141.401 107.834C144.728 107.829 148.014 107.107 151.037 105.717C150.953 103.889 150.968 102.058 151.081 100.231C151.066 100.427 151.047 100.643 151.037 100.845Z" fill="#263238"/>
<path d="M139.034 91.9299C139.034 91.9299 141.303 92.0674 142.112 94.1106C144.072 93.3641 147.234 88.8356 147.096 88.4771C147.096 88.4771 142.632 90.648 139.034 91.9299Z" fill="white"/>
<path d="M140.235 88.4087C139.353 88.6199 136.701 90.0737 136.27 92.8291C136.927 91.4932 139.044 91.9303 139.044 91.9303C138.358 89.3468 140.235 88.4087 140.235 88.4087Z" fill="white"/>
<path d="M147.185 81.9497C146.759 82.569 146.22 83.1022 145.597 83.5214C145.335 83.7104 145.056 83.8748 144.764 84.0126C144.121 85.0452 143.164 85.8428 142.034 86.2866V86.2031C141.803 87.2542 141.298 88.1678 140.22 88.4183C140.22 88.4183 138.343 89.3613 139.019 91.9448C142.622 90.6629 147.082 88.5067 147.082 88.5067C146.396 86.8662 146.724 84.0568 147.185 81.9497Z" fill="#9E6C51"/>
<path d="M142.048 86.1889C142.073 86.076 142.093 85.9679 142.112 85.8599C142.093 85.9532 142.073 86.076 142.048 86.1889Z" fill="#263238"/>
<path opacity="0.2" d="M142.048 86.1889C142.073 86.076 142.093 85.9679 142.112 85.8599C142.093 85.9532 142.073 86.076 142.048 86.1889Z" fill="black"/>
<path d="M142.225 84.4404C142.218 84.8824 142.186 85.3236 142.127 85.7616C142.188 85.3238 142.221 84.8825 142.225 84.4404Z" fill="#263238"/>
<path opacity="0.2" d="M142.225 84.4404C142.218 84.8824 142.186 85.3236 142.127 85.7616C142.188 85.3238 142.221 84.8825 142.225 84.4404Z" fill="black"/>
<path d="M144.763 83.9883C143.974 84.3673 143.095 84.5203 142.225 84.4303C142.22 84.8724 142.188 85.3137 142.127 85.7515V85.8498C142.127 85.9578 142.087 86.0659 142.063 86.1789V86.2624C143.183 85.8131 144.129 85.0161 144.763 83.9883Z" fill="#9E6C51"/>
<path opacity="0.2" d="M144.763 83.9883C143.974 84.3673 143.095 84.5203 142.225 84.4303C142.22 84.8724 142.188 85.3137 142.127 85.7515V85.8498C142.127 85.9578 142.087 86.0659 142.063 86.1789V86.2624C143.183 85.8131 144.129 85.0161 144.763 83.9883Z" fill="black"/>
<path d="M144.764 83.9882C145.056 83.8505 145.335 83.6861 145.597 83.4971C146.22 83.0779 146.759 82.5447 147.185 81.9254C147.371 81.651 147.535 81.3619 147.675 81.0609C147.582 81.0609 147.489 81.11 147.4 81.1199C146.582 81.1935 146.352 80.2702 146.724 79.445C146.85 79.166 147.015 78.9064 147.214 78.6739C147 77.9727 147.053 77.217 147.361 76.5521C146.616 75.0197 145.827 73.6051 145.754 72.5786C143.92 73.1467 142.017 73.4591 140.098 73.5069C140.024 73.6199 139.956 73.7427 139.882 73.8605C140.048 73.8599 140.214 73.8847 140.372 73.9342C140.393 73.9419 140.412 73.9535 140.428 73.9686C140.444 73.9836 140.457 74.0017 140.466 74.0218C140.475 74.0419 140.48 74.0636 140.481 74.0856C140.482 74.1077 140.478 74.1297 140.47 74.1503C140.455 74.1922 140.424 74.2265 140.383 74.2457C140.343 74.265 140.297 74.2677 140.255 74.2535C140.078 74.1999 139.893 74.1865 139.711 74.2142C138.788 76.078 138.338 78.1413 138.402 80.221C138.419 81.2721 138.82 82.2804 139.531 83.0539C140.241 83.8274 141.21 84.312 142.254 84.4155C143.114 84.5046 143.982 84.3568 144.764 83.9882ZM143.671 74.3419C143.938 74.3945 144.188 74.5114 144.399 74.6825C144.611 74.8537 144.778 75.0739 144.886 75.3242C144.905 75.3654 144.908 75.4124 144.893 75.4553C144.878 75.4983 144.848 75.534 144.808 75.555C144.767 75.572 144.721 75.572 144.68 75.555C144.658 75.549 144.638 75.5378 144.621 75.5225C144.604 75.5071 144.591 75.488 144.582 75.4666C144.493 75.2683 144.358 75.0945 144.187 74.9602C144.016 74.8259 143.815 74.7351 143.602 74.6955C143.558 74.6882 143.518 74.6644 143.491 74.6288C143.463 74.5933 143.451 74.5486 143.455 74.504C143.457 74.4788 143.465 74.4544 143.477 74.4325C143.489 74.4106 143.507 74.3917 143.527 74.3771C143.548 74.3626 143.571 74.3528 143.596 74.3484C143.621 74.344 143.646 74.3451 143.671 74.3517V74.3419ZM143.499 76.7682C143.581 76.8298 143.641 76.9154 143.672 77.0132C143.703 77.111 143.702 77.2159 143.671 77.3134C143.617 77.5983 143.421 77.8045 143.234 77.7603C143.048 77.7161 142.94 77.4656 142.994 77.1808C143.021 77.0364 143.095 76.9051 143.205 76.8075C143.052 76.7265 142.933 76.5944 142.867 76.4342L143.499 76.7682ZM139.48 76.5619C139.507 76.4198 139.579 76.2903 139.686 76.1935C139.536 76.1085 139.418 75.9753 139.353 75.8154L139.995 76.1444C140.074 76.2082 140.132 76.294 140.163 76.391C140.193 76.488 140.195 76.5919 140.166 76.6896C140.108 76.9745 139.916 77.1808 139.73 77.1415C139.544 77.1022 139.426 76.8566 139.48 76.5717V76.5619ZM140.617 78.9489C140.436 78.9597 140.254 78.9306 140.084 78.8635C139.915 78.7965 139.762 78.6932 139.637 78.5609C140.162 78.0845 140.62 77.5393 141 76.9401L140.617 78.9489ZM141.563 80.2653C141.541 80.2594 141.523 80.2455 141.511 80.2264C141.499 80.2072 141.495 80.1842 141.499 80.1621C141.504 80.1407 141.517 80.122 141.535 80.1101C141.554 80.0981 141.576 80.0939 141.597 80.0983C141.951 80.1746 142.318 80.1664 142.668 80.0742C143.018 79.9821 143.341 79.8086 143.612 79.5678C143.62 79.5597 143.629 79.5533 143.639 79.5488C143.649 79.5443 143.66 79.5419 143.671 79.5417C143.683 79.5414 143.694 79.5434 143.704 79.5475C143.714 79.5515 143.724 79.5576 143.732 79.5653C143.74 79.5731 143.746 79.5823 143.751 79.5926C143.755 79.6028 143.758 79.6138 143.758 79.625C143.758 79.6362 143.756 79.6473 143.752 79.6577C143.748 79.6681 143.742 79.6776 143.734 79.6857C143.279 80.1061 142.677 80.3317 142.058 80.3144C141.892 80.3129 141.727 80.2998 141.563 80.2751V80.2653Z" fill="#9E6C51"/>
<path d="M148.023 78.0943C147.817 77.6031 147.582 77.0776 147.341 76.5864C147.033 77.2513 146.98 78.007 147.194 78.7082C147.412 78.4341 147.697 78.2223 148.023 78.0943Z" fill="#263238"/>
<path d="M143.195 76.8225C143.086 76.9201 143.012 77.0514 142.985 77.1958C142.931 77.4806 143.039 77.741 143.225 77.7753C143.411 77.8097 143.607 77.6133 143.661 77.3284C143.693 77.2309 143.693 77.126 143.662 77.0282C143.632 76.9304 143.571 76.8448 143.489 76.7832C143.448 76.8148 143.399 76.8351 143.348 76.842C143.296 76.8489 143.244 76.8422 143.195 76.8225Z" fill="#263238"/>
<path d="M140.181 76.7044C140.209 76.6067 140.208 76.5028 140.177 76.4058C140.147 76.3088 140.088 76.223 140.009 76.1592C139.967 76.1904 139.918 76.2107 139.865 76.2184C139.813 76.2261 139.76 76.221 139.71 76.2034C139.603 76.3002 139.531 76.4296 139.505 76.5718C139.451 76.8566 139.559 77.1169 139.745 77.1562C139.931 77.1955 140.098 76.9892 140.181 76.7044Z" fill="#263238"/>
<path d="M139.985 76.1592L139.343 75.8301C139.409 75.99 139.526 76.1232 139.676 76.2083C139.728 76.2269 139.783 76.2322 139.837 76.2236C139.891 76.215 139.942 76.1928 139.985 76.1592Z" fill="#263238"/>
<path d="M139.642 78.5852C139.767 78.7175 139.92 78.8208 140.089 78.8878C140.259 78.9548 140.44 78.984 140.622 78.9732L141.009 76.9644C140.628 77.5638 140.168 78.109 139.642 78.5852Z" fill="#ED847E"/>
<path d="M143.724 79.5678C143.708 79.5519 143.686 79.543 143.663 79.543C143.64 79.543 143.618 79.5519 143.602 79.5678C143.332 79.807 143.011 79.9796 142.663 80.0718C142.314 80.1639 141.95 80.1729 141.597 80.0982C141.576 80.0938 141.554 80.0981 141.535 80.11C141.517 80.122 141.504 80.1407 141.499 80.1621C141.495 80.1842 141.499 80.2071 141.511 80.2263C141.523 80.2455 141.541 80.2594 141.563 80.2652C141.725 80.293 141.889 80.3094 142.053 80.3143C142.672 80.3316 143.274 80.106 143.729 79.6856C143.743 79.6688 143.75 79.6475 143.749 79.6258C143.748 79.604 143.74 79.5834 143.724 79.5678Z" fill="#263238"/>
<path d="M148.023 78.0942C147.698 78.2223 147.412 78.434 147.195 78.7082C146.996 78.9407 146.831 79.2003 146.704 79.4793C146.332 80.3045 146.562 81.2278 147.381 81.1542C147.469 81.1542 147.562 81.1149 147.655 81.0952C148.04 80.9928 148.391 80.7913 148.675 80.5107C148.572 79.6785 148.353 78.8649 148.023 78.0942Z" fill="#9E6C51"/>
<path d="M145.847 71.8666C145.876 71.1593 146.278 70.9874 146.827 71.0955C143.857 69.3567 139.5 71.2624 139.176 73.5512C139.47 73.5512 139.774 73.5512 140.088 73.5512C142.007 73.5034 143.91 73.191 145.744 72.623C145.715 72.3662 145.751 72.1063 145.847 71.8666Z" fill="#263238"/>
<path d="M145.847 71.8667C145.754 72.1004 145.719 72.3531 145.744 72.6034C145.817 73.6447 146.606 75.0592 147.351 76.5769C147.591 77.0681 147.841 77.5592 148.033 78.0848C148.362 78.8555 148.582 79.669 148.684 80.5013C148.773 81.2448 148.665 81.9985 148.371 82.6869C149.552 81.3412 150.037 78.9296 150.233 76.8765C150.346 75.6734 150.38 74.4642 150.336 73.2567C150.336 73.2567 148.15 71.3608 146.827 71.0956C146.278 70.9875 145.876 71.1594 145.847 71.8667Z" fill="#263238"/>
<path d="M143.612 74.6909C143.825 74.7305 144.026 74.8213 144.197 74.9556C144.367 75.0899 144.503 75.2637 144.592 75.462C144.6 75.4834 144.614 75.5025 144.631 75.5178C144.648 75.5332 144.668 75.5443 144.69 75.5504C144.731 75.5673 144.777 75.5673 144.818 75.5504C144.858 75.5294 144.888 75.4937 144.903 75.4507C144.917 75.4077 144.915 75.3608 144.896 75.3196C144.788 75.0693 144.621 74.8491 144.409 74.6779C144.198 74.5068 143.947 74.3899 143.68 74.3373C143.636 74.3317 143.59 74.344 143.555 74.3716C143.519 74.3992 143.495 74.4398 143.489 74.4846C143.48 74.5281 143.488 74.5735 143.51 74.6118C143.533 74.65 143.569 74.6783 143.612 74.6909Z" fill="#263238"/>
<path d="M140.225 74.2782C140.267 74.2925 140.313 74.2897 140.354 74.2704C140.394 74.2512 140.425 74.217 140.441 74.1751C140.449 74.1544 140.452 74.1324 140.452 74.1104C140.451 74.0883 140.446 74.0666 140.437 74.0465C140.428 74.0264 140.415 74.0083 140.398 73.9933C140.382 73.9783 140.363 73.9666 140.343 73.9589C140.184 73.9095 140.019 73.8846 139.853 73.8853C139.471 73.8838 139.099 74.0081 138.794 74.2389C138.759 74.267 138.735 74.3076 138.729 74.3524C138.723 74.3972 138.734 74.4427 138.76 74.4796C138.787 74.5134 138.825 74.5361 138.867 74.5434C138.89 74.5484 138.914 74.5483 138.937 74.5433C138.96 74.5382 138.981 74.5282 139 74.514C139.192 74.3654 139.421 74.2705 139.661 74.2389C139.85 74.2082 140.043 74.2216 140.225 74.2782Z" fill="#263238"/>
<path d="M143.195 76.822C143.243 76.8416 143.296 76.8484 143.347 76.8415C143.399 76.8346 143.448 76.8143 143.489 76.7827L142.847 76.4536C142.916 76.6136 143.04 76.744 143.195 76.822Z" fill="#263238"/>
<path d="M151.037 100.845C151.037 100.644 151.066 100.427 151.076 100.221C150.802 99.784 150.522 99.342 150.233 98.9048L149.67 98.0649L149.493 98.1583C149.94 99.0913 150.456 99.9893 151.037 100.845Z" fill="#263238"/>
<path opacity="0.2" d="M151.037 100.845C151.037 100.644 151.066 100.427 151.076 100.221C150.802 99.784 150.522 99.342 150.233 98.9048L149.67 98.0649L149.493 98.1583C149.94 99.0913 150.456 99.9893 151.037 100.845Z" fill="black"/>
<path d="M152.493 104.912V104.99C154.447 103.932 156.248 102.61 157.845 101.061C157.577 100.269 157.263 99.4932 156.903 98.738C156.428 97.7109 155.9 96.7093 155.32 95.737C154.83 94.8923 154.311 94.0868 153.777 93.2812C153.286 94.3078 151.895 96.7783 149.684 98.0504L150.248 98.8903C150.537 99.3274 150.816 99.7695 151.091 100.207C151.331 100.59 151.581 100.978 151.782 101.361C152.159 102.024 152.512 102.692 152.762 103.325L152.713 103.659C152.654 104.067 152.581 104.485 152.493 104.912Z" fill="#9E6C51"/>
<path d="M146.312 95.5697C146.312 95.5697 147.567 96.8271 149.037 98.3841C149.194 98.3153 149.346 98.2367 149.493 98.1581L149.67 98.0648C151.88 96.7927 153.262 94.3222 153.762 93.2957C153.904 93.0059 153.978 92.8291 153.978 92.8291C153.978 92.8291 152.556 90.4715 150.606 89.2829C150.14 88.9882 149.626 88.7802 149.086 88.6689C145.611 89.5579 144.479 91.7387 146.312 95.5697Z" fill="#263238"/>
<path d="M169.813 46.3017H176.719C176.907 46.2985 177.088 46.2246 177.225 46.0946C177.362 45.9646 177.445 45.7879 177.459 45.5993C177.465 45.5095 177.452 45.4194 177.422 45.3346C177.392 45.2498 177.344 45.1723 177.282 45.1068C177.221 45.0413 177.146 44.9893 177.064 44.954C176.981 44.9187 176.892 44.901 176.802 44.9019H169.891C169.704 44.905 169.524 44.9782 169.387 45.1072C169.25 45.2361 169.166 45.4116 169.151 45.5993C169.145 45.69 169.157 45.7811 169.187 45.8668C169.217 45.9525 169.265 46.0309 169.327 46.097C169.39 46.1631 169.465 46.2155 169.549 46.2507C169.632 46.2859 169.722 46.3033 169.813 46.3017Z" fill="#1D9B5E"/>
<path d="M169.671 48.7129H176.577C176.765 48.7097 176.946 48.6358 177.083 48.5058C177.22 48.3758 177.303 48.1991 177.317 48.0105C177.323 47.9203 177.311 47.8296 177.281 47.7442C177.251 47.6589 177.204 47.5807 177.142 47.5147C177.08 47.4486 177.006 47.3962 176.923 47.3606C176.84 47.3251 176.75 47.3072 176.66 47.3081H169.754C169.565 47.3101 169.383 47.3835 169.245 47.5136C169.107 47.6437 169.023 47.8211 169.009 48.0105C169.004 48.1008 169.017 48.1913 169.048 48.2763C169.079 48.3614 169.127 48.4392 169.189 48.505C169.251 48.5708 169.325 48.6232 169.408 48.6589C169.491 48.6947 169.581 48.713 169.671 48.7129Z" fill="#1D9B5E"/>
<path d="M113.803 48.7129H120.709C120.898 48.7098 121.079 48.636 121.217 48.5061C121.355 48.3762 121.439 48.1995 121.454 48.0105C121.46 47.92 121.447 47.8292 121.417 47.7439C121.386 47.6585 121.338 47.5804 121.276 47.5145C121.214 47.4485 121.139 47.3961 121.056 47.3606C120.973 47.3251 120.883 47.3073 120.792 47.3081H113.887C113.698 47.3102 113.516 47.3837 113.379 47.5139C113.242 47.6442 113.159 47.8215 113.147 48.0105C113.141 48.1006 113.153 48.1909 113.183 48.276C113.214 48.361 113.261 48.4389 113.323 48.5047C113.384 48.5706 113.459 48.6231 113.541 48.6589C113.624 48.6947 113.713 48.7131 113.803 48.7129Z" fill="#1D9B5E"/>
<path d="M169.529 51.12H176.449C176.639 51.1181 176.82 51.0447 176.958 50.9146C177.096 50.7845 177.181 50.6071 177.194 50.4177C177.199 50.3274 177.186 50.2369 177.155 50.1519C177.125 50.0668 177.077 49.989 177.015 49.9232C176.953 49.8574 176.878 49.805 176.795 49.7693C176.712 49.7335 176.623 49.7152 176.532 49.7153H169.612C169.423 49.7184 169.242 49.7921 169.104 49.922C168.966 50.0519 168.882 50.2287 168.867 50.4177C168.861 50.5082 168.874 50.599 168.904 50.6843C168.935 50.7697 168.983 50.8478 169.045 50.9137C169.107 50.9797 169.182 51.032 169.265 51.0676C169.349 51.1031 169.438 51.1209 169.529 51.12Z" fill="#1D9B5E"/>
<path d="M160.452 139.238H118.675C117.895 139.246 117.122 139.091 116.404 138.784C115.686 138.478 115.04 138.025 114.505 137.456C113.97 136.887 113.558 136.213 113.296 135.477C113.033 134.74 112.926 133.957 112.98 133.177C113.098 131.547 113.821 130.02 115.007 128.898C116.192 127.776 117.755 127.14 119.386 127.116H161.163C161.943 127.109 162.716 127.264 163.434 127.57C164.152 127.877 164.798 128.329 165.333 128.899C165.868 129.468 166.28 130.142 166.542 130.878C166.804 131.615 166.912 132.397 166.858 133.177C166.74 134.808 166.017 136.334 164.831 137.456C163.645 138.578 162.083 139.214 160.452 139.238Z" fill="white"/>
<path d="M159.501 155.53H117.719C116.939 155.536 116.166 155.38 115.449 155.073C114.731 154.765 114.085 154.313 113.55 153.743C113.016 153.174 112.604 152.5 112.342 151.764C112.079 151.027 111.971 150.244 112.024 149.464C112.145 147.837 112.87 146.314 114.056 145.195C115.241 144.076 116.802 143.442 118.43 143.418H160.212C160.992 143.411 161.765 143.565 162.483 143.872C163.201 144.179 163.847 144.631 164.382 145.2C164.917 145.77 165.329 146.444 165.591 147.18C165.854 147.916 165.961 148.699 165.907 149.479C165.786 151.107 165.062 152.631 163.876 153.751C162.691 154.87 161.13 155.505 159.501 155.53Z" fill="white"/>
<path d="M158.545 171.817H116.769C115.988 171.825 115.215 171.67 114.497 171.363C113.78 171.057 113.133 170.605 112.598 170.035C112.063 169.466 111.652 168.792 111.389 168.056C111.127 167.319 111.019 166.536 111.073 165.756C111.191 164.126 111.914 162.598 113.1 161.476C114.285 160.353 115.848 159.716 117.479 159.691H159.256C160.036 159.684 160.81 159.839 161.528 160.146C162.245 160.454 162.892 160.906 163.427 161.476C163.962 162.046 164.373 162.72 164.635 163.457C164.898 164.193 165.005 164.976 164.951 165.756C164.834 167.387 164.11 168.913 162.925 170.035C161.739 171.158 160.176 171.793 158.545 171.817Z" fill="white"/>
<path d="M121.921 135.35C123.193 134.112 123.28 132.135 122.117 130.935C120.953 129.734 118.979 129.764 117.707 131.002C116.435 132.24 116.347 134.217 117.511 135.417C118.674 136.618 120.649 136.588 121.921 135.35Z" fill="#1D9B5E"/>
<path d="M119.444 146.513L119.856 148.07C119.88 148.156 119.931 148.231 120.002 148.284C120.073 148.338 120.16 148.366 120.248 148.365H121.88C121.972 148.366 122.062 148.397 122.134 148.453C122.207 148.51 122.259 148.589 122.283 148.678C122.307 148.767 122.301 148.861 122.267 148.947C122.232 149.032 122.17 149.104 122.091 149.151L120.714 150.133C120.636 150.185 120.576 150.261 120.542 150.349C120.509 150.437 120.504 150.533 120.528 150.624L120.939 152.181C120.964 152.271 120.96 152.365 120.929 152.453C120.898 152.54 120.841 152.615 120.765 152.669C120.69 152.723 120.6 152.752 120.507 152.752C120.415 152.753 120.324 152.725 120.248 152.672L118.984 151.69C118.912 151.639 118.826 151.612 118.739 151.612C118.651 151.612 118.565 151.639 118.494 151.69L117.116 152.672C117.044 152.73 116.955 152.762 116.863 152.762C116.77 152.763 116.681 152.732 116.608 152.676C116.535 152.619 116.483 152.539 116.461 152.45C116.438 152.36 116.447 152.266 116.484 152.181L117.077 150.624C117.114 150.54 117.121 150.446 117.098 150.357C117.075 150.268 117.023 150.189 116.95 150.133L115.685 149.151C115.616 149.091 115.566 149.011 115.544 148.922C115.521 148.832 115.527 148.738 115.559 148.653C115.592 148.567 115.65 148.493 115.726 148.441C115.802 148.39 115.893 148.363 115.984 148.365H117.616C117.709 148.365 117.799 148.337 117.875 148.284C117.952 148.231 118.01 148.157 118.043 148.07L118.616 146.513C118.642 146.423 118.697 146.344 118.771 146.288C118.846 146.232 118.937 146.202 119.03 146.202C119.124 146.202 119.215 146.232 119.289 146.288C119.364 146.344 119.418 146.423 119.444 146.513Z" fill="#1D9B5E"/>
<path d="M120.577 164.107L120.317 168.478C120.305 168.661 120.223 168.833 120.09 168.959C119.956 169.084 119.78 169.155 119.596 169.156H115.779C115.694 169.151 115.612 169.129 115.536 169.091C115.46 169.054 115.392 169.002 115.337 168.937C115.282 168.873 115.24 168.799 115.214 168.718C115.188 168.637 115.178 168.552 115.186 168.468L115.504 163.026C115.515 162.843 115.595 162.67 115.728 162.544C115.861 162.417 116.036 162.345 116.22 162.343H118.964L120.577 164.107Z" fill="#1D9B5E"/>
<path d="M118.94 162.352L120.591 164.106H119.518C119.431 164.107 119.344 164.089 119.264 164.055C119.184 164.021 119.111 163.97 119.051 163.907C118.992 163.843 118.946 163.768 118.916 163.685C118.887 163.603 118.875 163.515 118.881 163.428L118.94 162.352ZM118.504 161.149L118.435 162.323L118.371 163.398C118.363 163.555 118.386 163.712 118.439 163.86C118.492 164.007 118.574 164.143 118.68 164.258C118.788 164.372 118.918 164.463 119.062 164.524C119.206 164.586 119.361 164.617 119.518 164.617H121.763L120.959 163.757L119.312 162.004L118.504 161.149Z" fill="white"/>
<path opacity="0.2" d="M159.05 132.534H127.786C127.66 132.535 127.534 132.51 127.418 132.46C127.302 132.411 127.197 132.338 127.11 132.245C127.023 132.153 126.956 132.044 126.913 131.925C126.87 131.806 126.852 131.679 126.86 131.552C126.881 131.288 126.999 131.04 127.192 130.859C127.385 130.677 127.639 130.574 127.904 130.57H159.163C159.29 130.569 159.415 130.594 159.531 130.644C159.648 130.694 159.753 130.767 159.839 130.859C159.926 130.951 159.993 131.06 160.036 131.18C160.079 131.299 160.097 131.426 160.089 131.552C160.07 131.816 159.952 132.064 159.76 132.245C159.568 132.427 159.315 132.53 159.05 132.534Z" fill="#1D9B5E"/>
<path opacity="0.2" d="M153.125 135.795H127.6C127.473 135.796 127.348 135.771 127.231 135.721C127.114 135.672 127.009 135.598 126.922 135.506C126.835 135.414 126.767 135.305 126.724 135.186C126.68 135.067 126.661 134.94 126.669 134.813C126.689 134.548 126.808 134.301 127.001 134.119C127.194 133.938 127.448 133.835 127.713 133.831H153.237C153.364 133.829 153.49 133.854 153.607 133.903C153.724 133.953 153.83 134.026 153.917 134.118C154.005 134.21 154.072 134.32 154.115 134.439C154.159 134.559 154.177 134.686 154.169 134.813C154.147 135.077 154.028 135.324 153.835 135.505C153.642 135.687 153.389 135.79 153.125 135.795Z" fill="#1D9B5E"/>
<path opacity="0.2" d="M158.021 150.108H149.395C149.13 150.111 148.876 150.214 148.682 150.396C148.489 150.578 148.371 150.826 148.351 151.091C148.343 151.217 148.361 151.344 148.404 151.463C148.447 151.583 148.514 151.692 148.601 151.784C148.688 151.876 148.793 151.949 148.909 151.999C149.026 152.049 149.151 152.074 149.278 152.073H157.903C158.169 152.07 158.423 151.968 158.616 151.786C158.81 151.604 158.928 151.356 158.947 151.091C158.955 150.964 158.937 150.837 158.894 150.718C158.851 150.599 158.784 150.49 158.698 150.398C158.611 150.305 158.506 150.232 158.389 150.182C158.273 150.133 158.148 150.107 158.021 150.108Z" fill="#1D9B5E"/>
<path opacity="0.2" d="M144.352 150.108H126.762C126.497 150.111 126.242 150.214 126.049 150.396C125.856 150.578 125.738 150.826 125.718 151.091C125.709 151.217 125.727 151.345 125.769 151.464C125.812 151.584 125.879 151.693 125.966 151.786C126.053 151.878 126.158 151.951 126.275 152.001C126.392 152.05 126.517 152.075 126.644 152.073H144.239C144.504 152.069 144.758 151.966 144.951 151.784C145.144 151.603 145.262 151.355 145.283 151.091C145.291 150.964 145.273 150.837 145.23 150.717C145.186 150.597 145.119 150.488 145.032 150.396C144.944 150.304 144.839 150.23 144.722 150.181C144.605 150.132 144.479 150.107 144.352 150.108Z" fill="#1D9B5E"/>
<path opacity="0.2" d="M152.478 146.856H126.948C126.683 146.859 126.428 146.962 126.235 147.144C126.042 147.326 125.924 147.574 125.904 147.839C125.896 147.965 125.914 148.092 125.957 148.211C126 148.331 126.067 148.44 126.154 148.532C126.241 148.624 126.346 148.697 126.462 148.747C126.579 148.797 126.704 148.822 126.83 148.821H152.355C152.62 148.817 152.874 148.714 153.067 148.532C153.26 148.351 153.378 148.103 153.399 147.839C153.407 147.713 153.389 147.586 153.347 147.467C153.304 147.348 153.237 147.239 153.151 147.147C153.065 147.055 152.96 146.982 152.845 146.932C152.729 146.882 152.604 146.856 152.478 146.856Z" fill="#1D9B5E"/>
<path opacity="0.2" d="M157.065 166.395H125.806C125.542 166.4 125.289 166.503 125.096 166.685C124.903 166.866 124.784 167.113 124.762 167.377C124.754 167.504 124.772 167.631 124.816 167.751C124.859 167.87 124.926 167.98 125.014 168.072C125.101 168.164 125.207 168.237 125.324 168.287C125.441 168.336 125.567 168.361 125.693 168.359H156.953C157.217 168.355 157.47 168.252 157.662 168.07C157.855 167.888 157.972 167.641 157.992 167.377C158 167.25 157.982 167.123 157.939 167.004C157.896 166.885 157.829 166.776 157.742 166.684C157.655 166.592 157.55 166.518 157.434 166.469C157.317 166.419 157.192 166.394 157.065 166.395Z" fill="#1D9B5E"/>
<path opacity="0.2" d="M151.522 163.138H125.997C125.733 163.142 125.479 163.245 125.286 163.427C125.093 163.609 124.974 163.856 124.953 164.121C124.945 164.247 124.963 164.374 125.006 164.493C125.049 164.612 125.116 164.722 125.203 164.814C125.29 164.906 125.395 164.979 125.511 165.029C125.628 165.079 125.753 165.104 125.88 165.103H151.409C151.674 165.099 151.927 164.996 152.119 164.814C152.312 164.632 152.429 164.385 152.449 164.121C152.457 163.994 152.439 163.867 152.396 163.748C152.353 163.629 152.286 163.52 152.199 163.427C152.112 163.335 152.007 163.262 151.89 163.212C151.774 163.162 151.649 163.137 151.522 163.138Z" fill="#1D9B5E"/>
</svg>

