<svg width="302" height="35" viewBox="0 0 302 35" fill="none" xmlns="http://www.w3.org/2000/svg">
<path d="M9.86745 10.7698C9.66797 10.9473 9.42414 11.0673 9.16187 11.1172L8.81994 11.1804L8.21452 11.1614L7.59711 11.0534C6.79831 10.8815 6.04382 10.5459 5.38132 10.0676C3.81253 9.0093 2.46864 7.65107 1.42705 6.07114C0.965884 5.40607 0.637968 4.65793 0.461432 3.86811C0.46791 3.66138 0.400553 3.45232 0.362732 3.2442L0.379387 2.71264C0.409181 2.51853 0.454726 2.32715 0.515565 2.14043C0.590364 1.96615 0.674623 1.79613 0.768 1.63105L0.868599 1.72288L3.37636 4.24028C3.38984 4.26542 3.39647 4.29365 3.39558 4.32216C3.39468 4.35067 3.3863 4.37844 3.37127 4.40268C3.30114 4.61049 3.28803 4.83333 3.3333 5.04793C3.37857 5.26252 3.48056 5.46102 3.62865 5.62278C4.3344 6.42778 5.09064 7.1871 5.89279 7.89609C6.05176 8.04817 6.24915 8.15405 6.46376 8.20244C6.67838 8.25083 6.90213 8.23986 7.11099 8.17071C7.11099 8.17071 7.21434 8.17395 7.25864 8.17534L9.80932 10.7385L9.86745 10.7698Z" fill="#319385"/>
<path d="M11.3913 9.30993L10.5066 10.1838L7.94165 7.60549L8.13961 7.41954L8.88722 6.67438C8.9273 6.62367 8.9787 6.58306 9.03731 6.5558C9.09592 6.52855 9.16011 6.5154 9.22472 6.51743C9.28932 6.51945 9.35254 6.53659 9.40933 6.56746C9.46612 6.59833 9.51488 6.64208 9.5517 6.6952L11.4573 8.6173C11.5117 8.66012 11.5545 8.71592 11.5818 8.77957C11.609 8.84323 11.6199 8.91267 11.6133 8.9816C11.6067 9.05053 11.583 9.11672 11.5442 9.17407C11.5054 9.23143 11.4528 9.27816 11.3913 9.30993Z" fill="#319385"/>
<path d="M4.88776 2.70607L3.89787 3.6358L1.30198 1.10089L1.30429 1.02703L2.20418 0.138829C2.24444 0.0935345 2.29417 0.0576487 2.34983 0.0336915C2.4055 0.00973436 2.46573 -0.00169487 2.52631 0.000202989C2.58688 0.00210084 2.6463 0.0172793 2.70036 0.0446743C2.75441 0.0720693 2.8018 0.110998 2.83914 0.158724L4.77335 2.11126C4.82153 2.14142 4.86297 2.18119 4.89509 2.22807C4.92722 2.27496 4.94935 2.32793 4.96009 2.38374C4.97082 2.43956 4.96993 2.497 4.95748 2.55245C4.94504 2.60791 4.92131 2.6602 4.88776 2.70607Z" fill="#319385"/>
<path d="M11.011 23.8128L10.7368 24.0703C9.30253 25.5034 7.85763 26.8032 6.42565 28.1625C6.36241 28.2322 6.2848 28.2874 6.19816 28.3242C6.11151 28.3609 6.01791 28.3785 5.92383 28.3755C5.82975 28.3726 5.73743 28.3492 5.65325 28.3071C5.56908 28.265 5.49506 28.205 5.43631 28.1315L1.0446 23.944L0.872505 23.776C0.980745 23.6984 1.1125 23.6608 1.24536 23.6694L4.20139 23.6734L10.4392 23.6619C10.6404 23.6555 10.8391 23.7079 11.011 23.8128Z" fill="#319385"/>
<path d="M10.9642 31.4382L10.5927 31.5005L7.03034 31.5071L1.29546 31.5048C1.13127 31.5082 0.969199 31.4674 0.826193 31.3867L4.40544 28.0105L5.08003 28.6525L5.3818 28.928C5.45096 29.0026 5.53423 29.0626 5.62679 29.1048C5.71935 29.1469 5.81934 29.1703 5.92099 29.1734C6.02264 29.1766 6.1239 29.1596 6.21892 29.1233C6.31393 29.0871 6.4008 29.0323 6.47449 28.9622C6.7943 28.6618 7.09935 28.361 7.43392 28.0611L10.9646 31.4235L10.9642 31.4382Z" fill="#319385"/>
<path d="M3.97495 27.598C2.80186 28.7141 1.6297 29.8007 0.486146 30.9178C0.476679 30.8638 0.478411 30.8086 0.491235 30.7554C0.483102 28.6562 0.489274 26.5723 0.481141 24.4732C0.475088 24.4043 0.477263 24.3349 0.487619 24.2665C1.63515 25.3814 2.79928 26.4378 3.97495 27.598Z" fill="#319385"/>
<path d="M11.3495 30.933L10.0585 29.6805L7.94801 27.6929L7.86173 27.6163C9.03528 26.4854 10.2074 25.3987 11.351 24.2817C11.3916 24.4012 11.3994 30.7572 11.3495 30.933Z" fill="#319385"/>
<path d="M182.784 3.35799C182.469 4.15553 182.283 4.99774 182.232 5.85342L180.091 5.78634L180.099 5.55007C180.108 5.25475 180.117 4.97419 180.259 4.68303C180.37 4.21323 180.533 3.75729 180.745 3.32366L182.738 3.38612L182.784 3.35799Z" fill="#319385"/>
<path d="M182.698 8.9276L180.704 8.86514C180.475 8.39032 180.307 7.88841 180.204 7.3714C180.154 7.1163 180.117 6.85857 180.095 6.59941L180.098 6.51081L182.239 6.5779C182.239 6.5779 182.228 6.93227 182.223 7.10946C182.252 7.38917 182.298 7.66695 182.359 7.94146C182.437 8.28386 182.53 8.61198 182.638 8.94053L182.698 8.9276Z" fill="#319385"/>
<path d="M191.22 9.59376C191.043 9.85721 190.847 10.1079 190.635 10.344C190.381 10.6277 190.101 10.8862 189.798 11.116C189.496 11.3438 189.173 11.5416 188.833 11.7065C188.507 11.8648 188.166 11.9927 187.816 12.0885C187.539 12.1731 187.256 12.2334 186.968 12.2689L186.85 12.2652C187.467 11.8436 188.008 11.3208 188.45 10.719C188.697 10.3739 188.916 10.0101 189.105 9.63097L191.128 9.69435L191.22 9.59376Z" fill="#319385"/>
<path d="M189.208 5.87986L186.356 5.86438L186.36 3.38134L188.545 3.44981C188.752 3.92742 188.9 4.42839 188.986 4.94171C189.037 5.20178 189.073 5.46444 189.095 5.72848C189.2 5.67266 189.196 5.80556 189.208 5.87986Z" fill="#319385"/>
<path d="M189.188 6.52955L189.182 6.70678C189.186 6.84473 189.182 6.98278 189.169 7.12023C189.163 7.31219 189.157 7.50413 189.077 7.69378C188.994 8.10934 188.873 8.51627 188.714 8.90923L186.47 8.8389L186.545 6.43199L189.188 6.52955Z" fill="#319385"/>
<path d="M185.724 3.39098L185.72 5.87402L182.941 5.87563L182.947 5.68371C182.943 5.54576 182.948 5.40766 182.96 5.27021C182.967 5.04872 182.974 4.842 183.069 4.63805C183.167 4.21682 183.303 3.80549 183.477 3.40925L185.603 3.47588L185.724 3.39098Z" fill="#319385"/>
<path d="M185.714 6.55371C185.689 7.33633 185.664 8.11893 185.714 8.90386L183.528 8.83538C183.359 8.4322 183.233 8.01203 183.154 7.58207C183.161 7.36057 183.079 7.13629 183.056 6.91387C183.034 6.69145 183.066 6.61856 183.07 6.4709L185.79 6.48217C185.79 6.48217 185.714 6.52418 185.714 6.55371Z" fill="#319385"/>
<path d="M192.223 5.90036L189.89 5.82726C189.848 4.97122 189.67 4.12734 189.362 3.32757L191.503 3.39466C191.746 3.86682 191.924 4.36957 192.033 4.88933C192.095 5.17786 192.135 5.47062 192.153 5.76516L192.223 5.90036Z" fill="#319385"/>
<path d="M192.218 6.52104L192.213 6.69823C192.206 6.90496 192.2 7.11166 192.193 7.31839C192.106 7.82137 191.962 8.31275 191.763 8.78298L191.653 8.9865L189.512 8.91941C189.545 8.84892 189.572 8.77557 189.593 8.70024C189.722 8.33245 189.823 7.95505 189.894 7.57154C189.903 7.29098 189.912 6.99567 189.995 6.71742L190.001 6.52545L192.218 6.52104Z" fill="#319385"/>
<path d="M191.182 2.77864L189.145 2.71479C188.874 2.17242 188.537 1.66545 188.143 1.20532C187.906 0.942951 187.646 0.702319 187.367 0.486317L186.934 0.162359C187.807 0.265272 188.647 0.555168 189.398 1.01231C190.149 1.46946 190.793 2.08308 191.285 2.8114L191.182 2.77864Z" fill="#319385"/>
<path d="M185.298 12.2756C185.075 12.2436 184.854 12.1972 184.637 12.1367C184.227 12.0356 183.83 11.8893 183.453 11.7005C183.023 11.4853 182.619 11.2196 182.251 10.909C181.993 10.6799 181.749 10.4353 181.52 10.1766C181.357 9.97377 181.206 9.76179 181.067 9.54168L182.972 9.60136C183.164 10.0043 183.395 10.3877 183.661 10.7462C183.908 11.0708 184.18 11.3758 184.475 11.6586C184.722 11.8894 184.987 12.1003 185.268 12.2895L185.298 12.2756Z" fill="#319385"/>
<path d="M185.307 0.170498L185.02 0.383237C184.691 0.636993 184.386 0.91923 184.107 1.22668C183.718 1.66328 183.389 2.15013 183.13 2.67416L183.127 2.76276L181.134 2.7003C181.612 1.99654 182.234 1.40208 182.959 0.956036C183.684 0.50999 184.495 0.222471 185.339 0.112391L185.307 0.170498Z" fill="#319385"/>
<path d="M188.338 9.59215C188.08 10.0498 187.763 10.4721 187.397 10.8486C187.08 11.1991 186.717 11.5058 186.319 11.7608L186.387 9.57537L188.338 9.59215Z" fill="#319385"/>
<path d="M185.707 9.58357L185.641 11.7099C184.833 11.163 184.171 10.4268 183.712 9.56541L185.707 9.58357Z" fill="#319385"/>
<path d="M188.303 2.68838L186.369 2.62777L186.432 0.590017C186.827 0.847803 187.19 1.15193 187.513 1.49592C187.82 1.8623 188.085 2.26234 188.303 2.68838Z" fill="#319385"/>
<path d="M185.733 0.745429L185.67 2.73888L183.81 2.68059C184.295 1.89705 184.952 1.23503 185.733 0.745429Z" fill="#319385"/>
<path d="M190.768 24.4786C190.242 23.3865 189.353 22.5111 188.253 22.0021C187.153 21.4932 185.91 21.3822 184.737 21.6882C183.588 21.9445 182.57 22.6079 181.872 23.5559C181.174 24.504 180.843 25.6726 180.939 26.846C181.038 27.635 181.268 28.4017 181.622 29.114C182.378 30.6649 183.359 32.0953 184.534 33.3587C185.005 33.8908 185.491 34.3938 185.964 34.8816L186.116 34.7386C186.758 34.064 187.414 33.4046 188.012 32.7139C189.166 31.4332 190.087 29.9616 190.735 28.365C191.011 27.755 191.156 27.0944 191.161 26.4253C191.167 25.7562 191.033 25.0932 190.768 24.4786ZM185.868 29.4393C185.436 29.442 185.008 29.3561 184.611 29.1869C184.213 29.0178 183.855 28.769 183.557 28.4558C183.259 28.1426 183.029 27.7718 182.88 27.3662C182.732 26.9606 182.668 26.5288 182.692 26.0974C182.717 25.6661 182.83 25.2444 183.024 24.8584C183.218 24.4723 183.489 24.1301 183.82 23.8529C184.151 23.5757 184.536 23.3693 184.95 23.2466C185.365 23.1238 185.799 23.0873 186.228 23.1392C186.66 23.1365 187.088 23.2223 187.486 23.3915C187.884 23.5606 188.242 23.8095 188.54 24.1226C188.837 24.4358 189.068 24.8066 189.216 25.2122C189.365 25.6179 189.429 26.0497 189.405 26.481C189.38 26.9123 189.267 27.334 189.073 27.72C188.879 28.1061 188.608 28.4483 188.277 28.7255C187.945 29.0027 187.561 29.2091 187.147 29.3318C186.732 29.4546 186.297 29.4912 185.868 29.4393Z" fill="#319385"/>
<path d="M22.8853 1.9397C30.6515 1.73961 38.414 1.65765 46.1903 1.60568L69.4864 1.55223L92.789 1.76503C100.56 1.87549 108.316 2.01502 116.083 2.25838C108.317 2.45847 100.554 2.54045 92.7774 2.60718L69.4817 2.64585L46.1791 2.43305C38.4079 2.32259 30.6524 2.18306 22.8853 1.9397Z" fill="#A6A6A6"/>
<path d="M22.8525 8.6492C26.7462 8.44602 30.6219 8.34575 34.5114 8.27547C38.401 8.20519 42.273 8.22304 46.1616 8.1823C50.0502 8.14155 53.9342 8.24846 57.8182 8.35537C61.7022 8.46229 65.5705 8.59827 69.466 8.80901C65.5718 9.02695 61.6966 9.11246 57.807 9.18274C53.9175 9.25302 50.045 9.24993 46.1569 9.27591C42.2687 9.30189 38.3843 9.20975 34.5003 9.10284C30.6163 8.99592 26.7323 8.88901 22.8525 8.6492Z" fill="#A6A6A6"/>
<path d="M22.7467 24.2839C30.5129 24.0838 38.2749 24.0166 46.0516 23.9499L69.3473 23.9112L92.6504 24.1092C100.422 24.2197 108.177 24.3592 115.944 24.6174C108.178 24.8175 100.416 24.8847 92.6536 24.9518L69.3431 24.99L46.04 24.792C38.3283 24.6687 30.5723 24.5439 22.7467 24.2839Z" fill="#A6A6A6"/>
<path d="M22.7729 30.9952C26.6666 30.7921 30.5423 30.6918 34.4319 30.6215C38.3214 30.5512 42.1934 30.5691 46.0816 30.5431C49.9697 30.5171 53.8542 30.6093 57.7387 30.7014C61.6231 30.7936 65.5057 30.9448 69.3865 31.1551C65.4923 31.373 61.6166 31.4733 57.7271 31.5436C53.8375 31.6138 49.9655 31.596 46.0774 31.622C42.1892 31.6479 38.3047 31.5558 34.435 31.4641C30.5654 31.3724 26.6675 31.2355 22.7729 30.9952Z" fill="#A6A6A6"/>
<path d="M208.762 2.59051C216.529 2.39042 224.306 2.30892 232.067 2.2565L255.378 2.20351L278.681 2.4163C286.437 2.52631 294.208 2.65153 301.975 2.90966C294.209 3.10975 286.446 3.19171 278.67 3.24367L255.374 3.29712L232.071 3.08433C224.3 2.97386 216.53 2.83387 208.762 2.59051Z" fill="#A6A6A6"/>
<path d="M208.746 9.24132C212.626 9.02291 216.516 8.93787 220.405 8.86759C224.295 8.79731 228.167 8.8004 232.055 8.77442C235.943 8.74844 239.813 8.8401 243.698 8.93225C247.582 9.0244 251.465 9.17562 255.345 9.40067C251.466 9.60431 247.575 9.70412 243.701 9.77486C239.826 9.8456 235.924 9.82682 232.051 9.86803C228.177 9.90924 224.278 9.80187 220.394 9.69496C216.51 9.58804 212.624 9.5402 208.746 9.24132Z" fill="#A6A6A6"/>
<path d="M208.683 24.9365C216.464 24.7369 224.227 24.655 231.988 24.6025L255.299 24.5495L278.602 24.7623C286.358 24.8723 294.128 25.0123 301.896 25.2557C294.129 25.4558 286.367 25.5377 278.591 25.5897L255.294 25.6432L231.992 25.4304C224.221 25.3199 216.45 25.1799 208.683 24.9365Z" fill="#A6A6A6"/>
<path d="M208.665 31.6464C212.544 31.4279 216.434 31.3429 220.324 31.2726C224.214 31.2023 228.086 31.2202 231.974 31.1794C235.863 31.1387 239.732 31.2451 243.616 31.3521C247.5 31.459 251.383 31.5954 255.264 31.8057C251.384 32.0241 247.509 32.1096 243.62 32.1799C239.73 32.2502 235.858 32.2471 231.969 32.2731C228.081 32.299 224.197 32.2069 220.313 32.1C216.429 31.9931 212.545 31.8862 208.665 31.6464Z" fill="#A6A6A6"/>
</svg>
