<svg width="24" height="25" viewBox="0 0 24 25" fill="none" xmlns="http://www.w3.org/2000/svg">
<path fill-rule="evenodd" clip-rule="evenodd" d="M18.671 3.75381C18.9574 3.70603 19.2509 3.72122 19.5309 3.79831C19.8109 3.8754 20.0707 4.01255 20.2924 4.20021C20.514 4.38788 20.6921 4.62156 20.8143 4.88502C20.9365 5.14848 20.9999 5.43539 21 5.72581V17.5458C20.9998 18.4263 20.7091 19.2821 20.1729 19.9806C19.6368 20.679 18.8851 21.181 18.0346 21.4088C17.1841 21.6365 16.2821 21.5773 15.4687 21.2402C14.6553 20.9031 13.9758 20.3071 13.5356 19.5445C13.0955 18.7819 12.9192 17.8954 13.0342 17.0225C13.1492 16.1495 13.5491 15.3389 14.1717 14.7163C14.7943 14.0938 15.605 13.694 16.478 13.5791C17.3509 13.4642 18.2374 13.6406 19 14.0808V9.72581L8.99997 11.3928V18.5458C8.99997 18.6058 8.99497 18.6638 8.98497 18.7198C9.05676 19.4888 8.87219 20.2599 8.46002 20.9131C8.04784 21.5662 7.43121 22.0647 6.70619 22.3308C5.98117 22.5969 5.18849 22.6158 4.45163 22.3844C3.71478 22.1531 3.07515 21.6845 2.63238 21.0517C2.18962 20.4189 1.9686 19.6574 2.00375 18.8859C2.0389 18.1143 2.32825 17.3761 2.82673 16.7862C3.3252 16.1963 4.00479 15.7878 4.75963 15.6244C5.51447 15.461 6.30216 15.5518 6.99997 15.8828V7.39281C6.99991 6.91937 7.16781 6.46126 7.47378 6.09998C7.77976 5.73871 8.20398 5.49769 8.67097 5.41981L18.671 3.75381ZM8.99997 9.36581L19 7.69881V5.72581L8.99997 7.39281V9.36581Z" fill="#8A8D8E"/>
</svg>
