<svg width="60" height="60" viewBox="0 0 60 60" fill="none" xmlns="http://www.w3.org/2000/svg">
<path d="M30.3 31.9502C30.125 31.9252 29.9 31.9252 29.7 31.9502C25.3 31.8002 21.8 28.2002 21.8 23.7752C21.8 19.2502 25.45 15.5752 30 15.5752C34.525 15.5752 38.2 19.2502 38.2 23.7752C38.175 28.2002 34.7 31.8002 30.3 31.9502Z" stroke="#0F2028" stroke-width="1.5" stroke-linecap="round" stroke-linejoin="round"/>
<path d="M46.8499 48.4499C42.3999 52.5249 36.4999 54.9999 29.9999 54.9999C23.4999 54.9999 17.5999 52.5249 13.1499 48.4499C13.3999 46.0999 14.8999 43.7999 17.5749 41.9999C24.4249 37.4499 35.6249 37.4499 42.4249 41.9999C45.0999 43.7999 46.5999 46.0999 46.8499 48.4499Z" stroke="#0F2028" stroke-width="1.5" stroke-linecap="round" stroke-linejoin="round"/>
<path d="M30 55C43.8071 55 55 43.8071 55 30C55 16.1929 43.8071 5 30 5C16.1929 5 5 16.1929 5 30C5 43.8071 16.1929 55 30 55Z" stroke="#0F2028" stroke-width="1.5" stroke-linecap="round" stroke-linejoin="round"/>
</svg>
