<svg width="16" height="17" viewBox="0 0 16 17" fill="none" xmlns="http://www.w3.org/2000/svg">
<path d="M8.00016 1.83301C4.31737 1.83301 1.3335 4.81688 1.3335 8.49967C1.3335 12.1825 4.31737 15.1663 8.00016 15.1663C11.683 15.1663 14.6668 12.1825 14.6668 8.49967C14.6668 4.81688 11.683 1.83301 8.00016 1.83301ZM11.8711 9.25236C11.8711 9.42978 11.726 9.57494 11.5485 9.57494H9.07543V12.0481C9.07543 12.2255 8.93027 12.3706 8.75285 12.3706H7.24747C7.07006 12.3706 6.92489 12.2255 6.92489 12.0481V9.57494H4.45178C4.27436 9.57494 4.12919 9.42978 4.12919 9.25236V7.74699C4.12919 7.56957 4.27436 7.42441 4.45178 7.42441H6.92489V4.95129C6.92489 4.77387 7.07006 4.62871 7.24747 4.62871H8.75285C8.93027 4.62871 9.07543 4.77387 9.07543 4.95129V7.42441H11.5485C11.726 7.42441 11.8711 7.56957 11.8711 7.74699V9.25236Z" fill="#0F2028"/>
</svg>
