<svg width="19" height="18" viewBox="0 0 19 18" fill="none" xmlns="http://www.w3.org/2000/svg">
<path d="M12.5529 8.99945C12.5529 10.4845 11.3529 11.6845 9.86786 11.6845C8.38286 11.6845 7.18286 10.4845 7.18286 8.99945C7.18286 7.51445 8.38286 6.31445 9.86786 6.31445C11.3529 6.31445 12.5529 7.51445 12.5529 8.99945Z" stroke="white" stroke-width="1.5" stroke-linecap="round" stroke-linejoin="round"/>
<path d="M9.86792 15.2016C12.5154 15.2016 14.9829 13.6416 16.7004 10.9416C17.3754 9.88406 17.3754 8.10656 16.7004 7.04906C14.9829 4.34906 12.5154 2.78906 9.86792 2.78906C7.22042 2.78906 4.75292 4.34906 3.03542 7.04906C2.36042 8.10656 2.36042 9.88406 3.03542 10.9416C4.75292 13.6416 7.22042 15.2016 9.86792 15.2016Z" stroke="white" stroke-width="1.5" stroke-linecap="round" stroke-linejoin="round"/>
</svg>
