<svg width="25" height="24" viewBox="0 0 25 24" fill="none" xmlns="http://www.w3.org/2000/svg">
<path d="M9.83337 13.75C9.83337 14.72 10.5834 15.5 11.5034 15.5H13.3834C14.1834 15.5 14.8334 14.82 14.8334 13.97C14.8334 13.06 14.4334 12.73 13.8434 12.52L10.8334 11.47C10.2434 11.26 9.84338 10.94 9.84338 10.02C9.84338 9.17999 10.4934 8.48999 11.2934 8.48999H13.1734C14.0934 8.48999 14.8434 9.26999 14.8434 10.24" stroke="#319385" stroke-width="1.5" stroke-linecap="round" stroke-linejoin="round"/>
<path d="M12.3334 7.5V16.5" stroke="#319385" stroke-width="1.5" stroke-linecap="round" stroke-linejoin="round"/>
<path d="M22.3334 12C22.3334 17.52 17.8534 22 12.3334 22C6.81337 22 2.33337 17.52 2.33337 12C2.33337 6.48 6.81337 2 12.3334 2" stroke="#319385" stroke-width="1.5" stroke-linecap="round" stroke-linejoin="round"/>
<path d="M17.3334 3V7H21.3334" stroke="#319385" stroke-width="1.5" stroke-linecap="round" stroke-linejoin="round"/>
<path d="M22.3334 2L17.3334 7" stroke="#319385" stroke-width="1.5" stroke-linecap="round" stroke-linejoin="round"/>
</svg>
