<svg width="26" height="26" viewBox="0 0 26 26" fill="none" xmlns="http://www.w3.org/2000/svg">
<g clip-path="url(#clip0_3136_12292)">
<path d="M17.8904 3.3779H14.4149C13.7869 3.3799 13.8104 4.3159 14.4149 4.3104H17.8904V4.7889H14.4149C13.7904 4.7834 13.8134 5.7189 14.4149 5.7214H17.8904V6.2104H14.4149C13.7904 6.2104 13.8134 7.1454 14.4149 7.1429H17.8904V7.6089H14.4149C13.8034 7.6134 13.8134 8.5494 14.4149 8.5524H17.8904V9.0194H14.4149C13.8034 9.0174 13.8009 9.9519 14.4149 9.9519H17.8904V10.4179H14.4149C13.8034 10.4199 13.8009 11.3554 14.4149 11.3509H17.8904V11.8284H14.4149C13.8034 11.8229 13.8009 12.7574 14.4149 12.7609H17.8904V13.2259H14.4149C13.8034 13.2254 13.8134 14.1619 14.4149 14.1589H17.8904V23.2384C17.8924 24.6219 19.9939 24.5969 19.9999 23.2384V1.9909C19.9939 1.3589 19.4749 0.559898 18.6209 0.557398H14.4149C13.7869 0.557898 13.8104 1.4939 14.4149 1.4899L17.8904 1.5014V1.9664H14.4149C13.7879 1.9634 13.8114 2.8989 14.4149 2.8994H17.8904V3.3779ZM14.1759 19.4749C14.1739 17.8599 12.4999 16.1229 10.4999 17.2479V11.0709L9.20639 0.883398C9.17939 0.613898 8.95089 0.550398 8.79739 0.545898C8.63889 0.550398 8.32139 0.613898 8.28689 0.883398L6.99989 11.0709V17.2479C4.99989 16.1229 3.37989 17.8709 3.37939 19.4624C3.37989 20.8784 4.46989 22.0414 5.94489 22.0379C7.43089 22.0414 8.49989 20.7379 8.49989 19.4624V13.0459H8.99989V19.4624C8.99989 20.8904 10.1059 21.9474 11.3349 22.0144C11.3144 22.7974 11.5699 23.9144 12.0509 24.3574C12.6149 24.8774 13.2864 24.2124 13.0109 23.6709C12.7449 23.1669 12.4839 22.8684 12.6959 21.7679C13.5819 21.3579 14.1739 20.4949 14.1759 19.4749ZM6.00189 20.7454C5.66474 20.7454 5.34139 20.6115 5.10298 20.3731C4.86458 20.1347 4.73064 19.8113 4.73064 19.4741C4.73064 19.137 4.86458 18.8136 5.10298 18.5752C5.34139 18.3368 5.66474 18.2029 6.00189 18.2029C6.69489 18.2069 7.25939 18.7754 7.26439 19.4749C7.26323 19.8101 7.13009 20.1314 6.89381 20.3692C6.65752 20.607 6.3371 20.7421 6.00189 20.7454ZM10.2874 19.4749C10.2886 19.1395 10.4217 18.818 10.6581 18.5799C10.8944 18.3419 11.215 18.2064 11.5504 18.2029C11.8859 18.2062 12.2065 18.3416 12.4428 18.5797C12.6792 18.8178 12.8121 19.1394 12.8129 19.4749C12.8124 19.8103 12.6795 20.132 12.443 20.3699C12.2066 20.6078 11.8858 20.7428 11.5504 20.7454C11.2151 20.7422 10.8946 20.6071 10.6582 20.3693C10.4218 20.1315 10.2886 19.8102 10.2874 19.4749Z" fill="#8A8D8E"/>
</g>
<defs>
<clipPath id="clip0_3136_12292">
<rect width="25" height="25" fill="white" transform="translate(0.5 0.0458984)"/>
</clipPath>
</defs>
</svg>
