<svg width="24" height="25" viewBox="0 0 24 25" fill="none" xmlns="http://www.w3.org/2000/svg">
<path d="M14.175 14.3489C14.2046 14.4093 14.2092 14.479 14.1877 14.5428C14.1661 14.6066 14.1202 14.6593 14.06 14.6894L13.724 14.8574C13.4761 14.9813 13.2028 15.0458 12.9257 15.0458C12.6486 15.0458 12.3753 14.9813 12.1275 14.8574L11.456 14.5214C11.2789 14.4328 11.0837 14.3867 10.8857 14.3867C10.6878 14.3867 10.4925 14.4328 10.3155 14.5214L9.64397 14.8574C9.39606 14.9814 9.12267 15.0459 8.84547 15.0459C8.56827 15.0459 8.29489 14.9814 8.04697 14.8574L6.76947 14.2189L4.30497 14.7114C4.2405 14.7246 4.17341 14.7124 4.11773 14.6773C4.06205 14.6423 4.02208 14.587 4.0062 14.5231C3.99031 14.4593 3.99973 14.3917 4.03249 14.3347C4.06525 14.2776 4.11881 14.2354 4.18197 14.2169L7.65947 13.1719L7.63697 13.1454C6.91047 12.2669 6.59547 11.3224 6.54547 10.4214C6.46247 8.92187 7.14697 7.59887 7.41597 7.07887L7.41997 7.07137C7.45047 7.01137 7.47397 6.96637 7.49097 6.93137C7.86797 6.15637 8.81397 5.83237 9.60197 6.19287C10.394 6.55537 10.7415 7.47887 10.3625 8.25837C10.3271 8.33071 10.2913 8.40321 10.255 8.47587C9.96497 9.05887 9.68447 9.63487 9.71847 10.2549C9.73447 10.5429 9.82597 10.8564 10.111 11.2014C10.412 11.5654 10.9835 12.0274 12.0625 12.4834C12.998 12.8789 13.748 13.4789 14.175 14.3489ZM17.006 8.85087C17.6823 8.85087 18.3309 9.11953 18.8091 9.59775C19.2873 10.076 19.556 10.7246 19.556 11.4009C19.556 12.0772 19.2873 12.7258 18.8091 13.204C18.3309 13.6822 17.6823 13.9509 17.006 13.9509C16.3297 13.9509 15.6811 13.6822 15.2028 13.204C14.7246 12.7258 14.456 12.0772 14.456 11.4009C14.456 10.7246 14.7246 10.076 15.2028 9.59775C15.6811 9.11953 16.3297 8.85087 17.006 8.85087Z" fill="#8A8D8E"/>
<path fill-rule="evenodd" clip-rule="evenodd" d="M2.11101 19.2352C2.19713 19.1311 2.32028 19.0644 2.45456 19.0492C2.58884 19.034 2.72379 19.0715 2.83101 19.1537L3.64251 19.7807C3.86232 19.9496 4.13438 20.0361 4.41137 20.0252C4.68835 20.0142 4.95273 19.9065 5.15851 19.7207L5.20351 19.6807C5.60095 19.3224 6.11711 19.1241 6.65226 19.1241C7.1874 19.1241 7.70356 19.3224 8.10101 19.6807C8.30648 19.866 8.57334 19.9686 8.85001 19.9686C9.12668 19.9686 9.39353 19.866 9.59901 19.6807C9.99645 19.3224 10.5126 19.1241 11.0478 19.1241C11.5829 19.1241 12.0991 19.3224 12.4965 19.6807C12.9145 20.0607 13.5785 20.0587 14.004 19.6717C14.805 18.9422 16.064 18.9267 16.873 19.6627L16.908 19.6947C17.31 20.0607 17.937 20.0497 18.3255 19.6712C19.0815 18.9342 20.292 18.8887 21.104 19.5672L21.821 20.1662C22.036 20.3462 22.061 20.6612 21.8765 20.8712C21.7865 20.9721 21.6608 21.0342 21.5259 21.0442C21.391 21.0543 21.2575 21.0116 21.1535 20.9252L20.4365 20.3262C20.2396 20.163 19.9894 20.0781 19.7338 20.0877C19.4782 20.0973 19.2351 20.2007 19.051 20.3782C18.271 21.1382 17.0145 21.1592 16.2085 20.4257L16.1735 20.3942C15.766 20.0232 15.1185 20.0252 14.7035 20.4027C13.892 21.1412 12.6165 21.1572 11.7965 20.4112C11.591 20.226 11.3242 20.1234 11.0475 20.1234C10.7708 20.1234 10.504 20.226 10.2985 20.4112C9.90106 20.7696 9.3849 20.9679 8.84976 20.9679C8.31461 20.9679 7.79845 20.7696 7.40101 20.4112C7.19553 20.226 6.92868 20.1234 6.65201 20.1234C6.37534 20.1234 6.10848 20.226 5.90301 20.4112L5.85801 20.4517C5.47075 20.8011 4.97328 21.0037 4.45212 21.0242C3.93096 21.0448 3.41908 20.882 3.00551 20.5642L2.19451 19.9377C2.14191 19.8978 2.09789 19.8477 2.06508 19.7904C2.03228 19.7331 2.01135 19.6698 2.00356 19.6042C1.99576 19.5387 2.00126 19.4722 2.01972 19.4088C2.03818 19.3454 2.06923 19.2864 2.11101 19.2352ZM2.11101 16.2352C2.19713 16.1311 2.32028 16.0644 2.45456 16.0492C2.58884 16.034 2.72379 16.0715 2.83101 16.1537L3.64251 16.7807C3.86232 16.9496 4.13438 17.0361 4.41137 17.0252C4.68835 17.0142 4.95273 16.9065 5.15851 16.7207L5.20351 16.6807C5.60095 16.3224 6.11711 16.1241 6.65226 16.1241C7.1874 16.1241 7.70356 16.3224 8.10101 16.6807C8.30648 16.866 8.57334 16.9686 8.85001 16.9686C9.12668 16.9686 9.39353 16.866 9.59901 16.6807C9.99645 16.3224 10.5126 16.1241 11.0478 16.1241C11.5829 16.1241 12.0991 16.3224 12.4965 16.6807C12.9145 17.0607 13.5785 17.0587 14.004 16.6717C14.805 15.9422 16.064 15.9267 16.873 16.6627L16.908 16.6947C17.31 17.0607 17.937 17.0497 18.3255 16.6712C19.0815 15.9342 20.292 15.8887 21.104 16.5672L21.821 17.1662C22.036 17.3462 22.061 17.6612 21.8765 17.8712C21.7865 17.9721 21.6608 18.0342 21.5259 18.0442C21.391 18.0543 21.2575 18.0116 21.1535 17.9252L20.4365 17.3262C20.2396 17.163 19.9894 17.0781 19.7338 17.0877C19.4782 17.0973 19.2351 17.2007 19.051 17.3782C18.271 18.1382 17.0145 18.1592 16.2085 17.4257L16.1735 17.3942C15.766 17.0232 15.1185 17.0252 14.7035 17.4027C13.892 18.1412 12.6165 18.1572 11.7965 17.4112C11.591 17.226 11.3242 17.1234 11.0475 17.1234C10.7708 17.1234 10.504 17.226 10.2985 17.4112C9.90106 17.7696 9.3849 17.9679 8.84976 17.9679C8.31461 17.9679 7.79845 17.7696 7.40101 17.4112C7.19553 17.226 6.92868 17.1234 6.65201 17.1234C6.37534 17.1234 6.10848 17.226 5.90301 17.4112L5.85801 17.4517C5.47075 17.8011 4.97328 18.0037 4.45212 18.0242C3.93096 18.0448 3.41908 17.882 3.00551 17.5642L2.19451 16.9377C2.14191 16.8978 2.09789 16.8477 2.06508 16.7904C2.03228 16.7331 2.01135 16.6698 2.00356 16.6042C1.99576 16.5387 2.00126 16.4722 2.01972 16.4088C2.03818 16.3454 2.06923 16.2864 2.11101 16.2352Z" fill="#8A8D8E"/>
</svg>
