<svg width="24" height="25" viewBox="0 0 24 25" fill="none" xmlns="http://www.w3.org/2000/svg">
<path d="M11 2.5459C12.9426 2.5456 14.819 3.2522 16.279 4.53384C17.7389 5.81547 18.6826 7.58455 18.934 9.5109L21.184 13.0499C21.332 13.2829 21.302 13.6299 20.959 13.7779L19 14.6159V17.5459C19 18.0763 18.7892 18.585 18.4142 18.9601C18.0391 19.3352 17.5304 19.5459 17 19.5459H15.001L15 22.5459H5.99995V18.8519C5.99995 17.6719 5.56395 16.5549 4.75495 15.5469C3.81266 14.3704 3.22193 12.9515 3.05085 11.4539C2.87976 9.95626 3.13527 8.44076 3.78794 7.08201C4.44062 5.72326 5.46389 4.57656 6.73986 3.77401C8.01583 2.97147 9.49258 2.54575 11 2.5459ZM11 4.5459C9.86953 4.54585 8.76209 4.86514 7.80521 5.467C6.84833 6.06885 6.08094 6.92877 5.59143 7.94771C5.10192 8.96665 4.91022 10.1031 5.0384 11.2263C5.16658 12.3494 5.60944 13.4135 6.31595 14.2959C7.40995 15.6599 7.99995 17.2129 7.99995 18.8519V20.5459H13L13.002 17.5459H17V13.2979L18.55 12.6339L17.007 10.2089L16.95 9.7669C16.7608 8.32272 16.0529 6.99664 14.9581 6.03598C13.8633 5.07533 12.4565 4.54571 11 4.5459ZM11 7.5459C11.2652 7.5459 11.5195 7.65126 11.7071 7.83879C11.8946 8.02633 12 8.28068 12 8.5459V9.5459H13C13.2652 9.5459 13.5195 9.65126 13.7071 9.83879C13.8946 10.0263 14 10.2807 14 10.5459C14 10.8111 13.8946 11.0655 13.7071 11.253C13.5195 11.4405 13.2652 11.5459 13 11.5459H12V12.5459C12 12.8111 11.8946 13.0655 11.7071 13.253C11.5195 13.4405 11.2652 13.5459 11 13.5459C10.7347 13.5459 10.4804 13.4405 10.2928 13.253C10.1053 13.0655 9.99995 12.8111 9.99995 12.5459V11.5449L8.99995 11.5459C8.73474 11.5459 8.48038 11.4405 8.29285 11.253C8.10531 11.0655 7.99995 10.8111 7.99995 10.5459C7.99995 10.2807 8.10531 10.0263 8.29285 9.83879C8.48038 9.65126 8.73474 9.5459 8.99995 9.5459L9.99995 9.5449V8.5459C9.99995 8.28068 10.1053 8.02633 10.2928 7.83879C10.4804 7.65126 10.7347 7.5459 11 7.5459Z" fill="#8A8D8E"/>
</svg>
