<svg width="25" height="24" viewBox="0 0 25 24" fill="none" xmlns="http://www.w3.org/2000/svg">
<path d="M18.6667 7.16C18.6067 7.15 18.5367 7.15 18.4767 7.16C17.0967 7.11 15.9967 5.98 15.9967 4.58C15.9967 3.15 17.1467 2 18.5767 2C20.0067 2 21.1567 3.16 21.1567 4.58C21.1467 5.98 20.0467 7.11 18.6667 7.16Z" stroke="#E19E09" stroke-width="1.5" stroke-linecap="round" stroke-linejoin="round"/>
<path d="M17.6367 14.44C19.0067 14.67 20.5167 14.43 21.5767 13.72C22.9867 12.78 22.9867 11.24 21.5767 10.3C20.5067 9.59004 18.9767 9.35003 17.6067 9.59003" stroke="#E19E09" stroke-width="1.5" stroke-linecap="round" stroke-linejoin="round"/>
<path d="M6.63667 7.16C6.69667 7.15 6.76667 7.15 6.82667 7.16C8.20667 7.11 9.30667 5.98 9.30667 4.58C9.30667 3.15 8.15667 2 6.72667 2C5.29667 2 4.14667 3.16 4.14667 4.58C4.15667 5.98 5.25667 7.11 6.63667 7.16Z" stroke="#E19E09" stroke-width="1.5" stroke-linecap="round" stroke-linejoin="round"/>
<path d="M7.66669 14.44C6.29669 14.67 4.78669 14.43 3.72669 13.72C2.31669 12.78 2.31669 11.24 3.72669 10.3C4.79669 9.59004 6.32669 9.35003 7.69669 9.59003" stroke="#E19E09" stroke-width="1.5" stroke-linecap="round" stroke-linejoin="round"/>
<path d="M12.6667 14.63C12.6067 14.62 12.5367 14.62 12.4767 14.63C11.0967 14.58 9.9967 13.45 9.9967 12.05C9.9967 10.62 11.1467 9.46997 12.5767 9.46997C14.0067 9.46997 15.1567 10.63 15.1567 12.05C15.1467 13.45 14.0467 14.59 12.6667 14.63Z" stroke="#E19E09" stroke-width="1.5" stroke-linecap="round" stroke-linejoin="round"/>
<path d="M9.75672 17.78C8.34672 18.72 8.34672 20.26 9.75672 21.2C11.3567 22.27 13.9767 22.27 15.5767 21.2C16.9867 20.26 16.9867 18.72 15.5767 17.78C13.9867 16.72 11.3567 16.72 9.75672 17.78Z" stroke="#E19E09" stroke-width="1.5" stroke-linecap="round" stroke-linejoin="round"/>
</svg>
