<svg width="36" height="36" viewBox="0 0 36 36" fill="none" xmlns="http://www.w3.org/2000/svg">
<path d="M26.4853 10.5353C26.397 10.5206 26.294 10.5206 26.2057 10.5353C24.1752 10.4617 22.5566 8.79903 22.5566 6.73908C22.5566 4.63498 24.2487 2.94287 26.3528 2.94287C28.4569 2.94287 30.149 4.64969 30.149 6.73908C30.1343 8.79903 28.5158 10.4617 26.4853 10.5353Z" stroke="#0F2028" stroke-linecap="round" stroke-linejoin="round"/>
<path d="M24.9699 21.247C26.9857 21.5854 29.2076 21.2323 30.7672 20.1876C32.8419 18.8044 32.8419 16.5385 30.7672 15.1554C29.1928 14.1107 26.9416 13.7575 24.9258 14.1107" stroke="#0F2028" stroke-linecap="round" stroke-linejoin="round"/>
<path d="M8.7839 10.5353C8.87218 10.5206 8.97518 10.5206 9.06346 10.5353C11.094 10.4617 12.7125 8.79903 12.7125 6.73908C12.7125 4.63498 11.0204 2.94287 8.91632 2.94287C6.81223 2.94287 5.12012 4.64969 5.12012 6.73908C5.13483 8.79903 6.75337 10.4617 8.7839 10.5353Z" stroke="#0F2028" stroke-linecap="round" stroke-linejoin="round"/>
<path d="M10.2996 21.247C8.28378 21.5854 6.06197 21.2323 4.50229 20.1876C2.42762 18.8044 2.42762 16.5385 4.50229 15.1554C6.07669 14.1107 8.32792 13.7575 10.3437 14.1107" stroke="#0F2028" stroke-linecap="round" stroke-linejoin="round"/>
<path d="M17.6567 21.5265C17.5684 21.5118 17.4654 21.5118 17.3771 21.5265C15.3466 21.4529 13.728 19.7902 13.728 17.7303C13.728 15.6262 15.4201 13.9341 17.5242 13.9341C19.6283 13.9341 21.3204 15.6409 21.3204 17.7303C21.3057 19.7902 19.6872 21.4676 17.6567 21.5265Z" stroke="#0F2028" stroke-linecap="round" stroke-linejoin="round"/>
<path d="M13.3748 26.1615C11.3002 27.5446 11.3002 29.8105 13.3748 31.1936C15.7291 32.768 19.5841 32.768 21.9384 31.1936C24.013 29.8105 24.013 27.5446 21.9384 26.1615C19.5989 24.6018 15.7291 24.6018 13.3748 26.1615Z" stroke="#0F2028" stroke-linecap="round" stroke-linejoin="round"/>
</svg>
