<svg width="39" height="39" viewBox="0 0 39 39" fill="none" xmlns="http://www.w3.org/2000/svg">
<path d="M28.4273 18.2813C28.4883 18.3728 28.6406 18.3118 28.6406 18.2204C28.8234 16.5751 29.3109 12.0352 32.5406 11.0602C33.5766 10.7556 34.6125 11.4868 34.7344 12.4313C34.9477 13.9548 33.2109 17.8853 33.3633 21.4806C33.3937 22.0595 34.3687 28.1837 31.7789 31.8095C29.1891 35.4353 23.0344 39.122 16.9102 33.5157C13.7414 30.6212 13.7414 29.4634 9.81094 25.411C9.01875 24.6188 5.85 21.1454 4.99687 20.079C3.86953 18.647 5.66719 16.7579 7.03828 17.7329C7.67812 18.1899 13.3453 22.9431 13.5586 23.1563C13.9852 23.522 14.5031 23.004 14.1984 22.6384C10.725 18.0681 7.37344 13.9548 6.45937 12.3704C5.54531 10.786 7.73906 9.07978 9.01875 10.4509C9.90234 11.3649 16.4531 19.0126 16.7578 19.3477C17.0625 19.6829 17.5805 19.2563 17.3977 18.8298C17.1844 18.4337 11.8828 9.20166 10.9383 7.09931C10.1156 5.24072 12.8578 3.504 14.1375 5.42353C15.1734 6.94697 20.9625 16.5751 21.1758 16.9103C21.45 17.3978 22.0594 17.0931 21.8156 16.5446C21.6328 16.1485 18.068 6.39853 17.7937 5.39306C17.3062 3.62587 19.8352 2.16337 21.0234 4.17431C22.6383 6.94697 25.8375 15.4173 28.4273 18.2813Z" fill="#70534A"/>
<mask id="mask0_2837_142998" style="mask-type:luminance" maskUnits="userSpaceOnUse" x="4" y="3" width="31" height="34">
<path d="M28.4273 18.2813C28.4883 18.3728 28.6406 18.3118 28.6406 18.2204C28.8234 16.5751 29.3109 12.0352 32.5406 11.0602C33.5766 10.7556 34.6125 11.4868 34.7344 12.4313C34.9477 13.9548 33.2109 17.8853 33.3633 21.4806C33.3937 22.0595 34.3687 28.1837 31.7789 31.8095C29.1891 35.4353 23.0344 39.122 16.9102 33.5157C13.7414 30.6212 13.7414 29.4634 9.81094 25.411C9.01875 24.6188 5.85 21.1454 4.99687 20.079C3.86953 18.647 5.66719 16.7579 7.03828 17.7329C7.67812 18.1899 13.3453 22.9431 13.5586 23.1563C13.9852 23.522 14.5031 23.004 14.1984 22.6384C10.725 18.0681 7.37344 13.9548 6.45937 12.3704C5.54531 10.786 7.73906 9.07978 9.01875 10.4509C9.90234 11.3649 16.4531 19.0126 16.7578 19.3477C17.0625 19.6829 17.5805 19.2563 17.3977 18.8298C17.1844 18.4337 11.8828 9.20166 10.9383 7.09931C10.1156 5.24072 12.8578 3.504 14.1375 5.42353C15.1734 6.94697 20.9625 16.5751 21.1758 16.9103C21.45 17.3978 22.0594 17.0931 21.8156 16.5446C21.6328 16.1485 18.068 6.39853 17.7937 5.39306C17.3062 3.62587 19.8352 2.16337 21.0234 4.17431C22.6383 6.94697 25.8375 15.4173 28.4273 18.2813Z" fill="white"/>
</mask>
<g mask="url(#mask0_2837_142998)">
<path d="M27.7875 18.3425C24.0094 21.4198 22.3336 25.8073 25.4414 30.3776C25.7156 30.7737 26.2945 30.4081 26.0508 29.951C24.7711 27.6659 23.8266 23.5526 28.2445 19.2565C28.7625 19.5003 29.3719 18.9823 29.4023 18.5253C29.7375 15.6612 30.0727 13.2846 32.2055 11.944C33.0281 11.426 34.0945 11.7917 34.1555 13.0409C34.1555 13.0409 34.8258 13.1018 35.1 13.1323C35.2523 12.4925 35.557 11.3346 35.557 11.3042C35.557 11.2737 31.9617 9.93308 31.9617 9.93308L28.8234 13.0409L27.7875 18.3425ZM21.6938 17.0932C22.1203 16.88 22.4859 16.5448 22.3031 16.0878C22.1203 15.6003 18.7383 6.3987 18.525 5.69792C18.0984 4.41823 19.1648 3.41276 20.1094 3.83933C20.6273 4.08308 20.8711 3.26042 20.5969 3.13855C20.3227 3.01667 19.6828 2.43776 18.4031 3.07761C16.118 4.23542 17.4586 6.7948 18.068 8.28776C18.6773 9.78073 21.6938 17.0932 21.6938 17.0932ZM17.2758 19.3784C17.7938 19.0128 18.1898 18.7081 17.7328 17.9768C17.4281 17.4893 12.2789 8.13542 11.7609 7.22136C10.9992 5.9112 12.5836 4.75339 13.4672 5.57605C13.8633 5.94167 14.4727 5.14948 14.168 4.8448C13.8633 4.54011 12.7969 3.65651 11.4563 4.54011C10.1156 5.4237 10.0852 6.49011 10.268 6.94714C10.4203 7.40417 17.2758 19.3784 17.2758 19.3784ZM14.2289 23.126C14.5945 22.5776 14.8383 22.3034 14.3203 21.6026C13.8023 20.9018 7.64766 12.8581 7.31251 12.401C6.45938 11.2737 7.7086 10.2987 8.31797 10.6339C8.89688 10.969 9.23204 10.0245 8.74454 9.78073C8.25704 9.53698 7.46485 9.26276 6.7336 9.78073C6.00235 10.2987 5.57579 11.3651 5.69766 11.9745C5.78907 12.5839 14.2289 23.126 14.2289 23.126Z" fill="#7A4D3C"/>
<path d="M28.275 34.6127C23.3391 36.9588 19.6523 35.1307 17.2758 32.8151C14.5641 30.1643 13.2844 27.7268 11.4867 26.0815C10.8773 25.5026 6.06328 20.3838 5.48438 19.5002C5.02735 18.769 5.94141 17.5198 6.94688 18.2206C7.58672 18.6471 7.89141 17.7331 7.46485 17.4893C7.03828 17.2456 6.09375 16.7276 5.08828 17.4893C4.08282 18.2206 4.05235 19.5307 4.2961 19.9573C4.53985 20.3838 19.3477 37.3854 19.3477 37.3854L25.3805 37.2331L28.6102 35.2526L28.275 34.6127Z" fill="#7A4D3C"/>
</g>
<mask id="mask1_2837_142998" style="mask-type:luminance" maskUnits="userSpaceOnUse" x="4" y="3" width="31" height="34">
<path d="M28.4273 18.2813C28.4883 18.3728 28.6406 18.3118 28.6406 18.2204C28.8234 16.5751 29.3109 12.0352 32.5406 11.0602C33.5766 10.7556 34.6125 11.4868 34.7344 12.4313C34.9477 13.9548 33.2109 17.8853 33.3633 21.4806C33.3937 22.0595 34.3687 28.1837 31.7789 31.8095C29.1891 35.4353 23.0344 39.122 16.9102 33.5157C13.7414 30.6212 13.7414 29.4634 9.81094 25.411C9.01875 24.6188 5.85 21.1454 4.99687 20.079C3.86953 18.647 5.66719 16.7579 7.03828 17.7329C7.67812 18.1899 13.3453 22.9431 13.5586 23.1563C13.9852 23.522 14.5031 23.004 14.1984 22.6384C10.725 18.0681 7.37344 13.9548 6.45937 12.3704C5.54531 10.786 7.73906 9.07978 9.01875 10.4509C9.90234 11.3649 16.4531 19.0126 16.7578 19.3477C17.0625 19.6829 17.5805 19.2563 17.3977 18.8298C17.1844 18.4337 11.8828 9.20166 10.9383 7.09931C10.1156 5.24072 12.8578 3.504 14.1375 5.42353C15.1734 6.94697 20.9625 16.5751 21.1758 16.9103C21.45 17.3978 22.0594 17.0931 21.8156 16.5446C21.6328 16.1485 18.068 6.39853 17.7937 5.39306C17.3062 3.62587 19.8352 2.16337 21.0234 4.17431C22.6383 6.94697 25.8375 15.4173 28.4273 18.2813Z" fill="white"/>
</mask>
<g mask="url(#mask1_2837_142998)">
<path d="M33.9726 10.9688C34.125 11.3649 34.3078 12.0657 34.125 13.0103C33.4242 16.5446 32.2664 18.6165 32.632 22.4251C33.3023 29.7376 30.743 35.2829 21.9375 36.3798C21.0539 36.5017 21.2976 37.172 21.7547 37.111C21.968 37.0806 28.2445 35.9532 28.2445 35.9532C28.2445 35.9532 34.0641 30.9868 34.0641 30.9259C34.0641 30.8649 35.5266 11.9134 35.5266 11.9134L33.9726 10.9688ZM18.7383 3.19932C19.1344 3.26025 19.9875 3.59541 20.5969 4.78369C21.2062 5.97197 24.1922 12.8274 24.5883 13.5587C24.9844 14.2899 26.5992 17.9157 27.9094 19.0126C28.3359 19.3478 28.5492 18.7688 28.5492 18.7688L28.5797 17.8243L21.5109 1.73682L19.1648 1.82822L18.7383 3.19932ZM21.6937 17.0931C21.1148 17.3673 20.6883 17.611 20.2617 16.9407C19.9875 16.4532 17.032 11.3954 13.3148 5.48447C13.0101 5.02744 12.3094 4.63135 11.7609 4.84463C11.2125 5.08838 11.0906 4.3876 11.3648 4.23525C11.6391 4.08291 13.3453 3.13838 14.5031 5.08838C15.6609 7.03838 21.6937 17.0931 21.6937 17.0931ZM17.2758 19.3782C16.8187 19.7134 16.3617 20.1399 15.7828 19.4392C15.2344 18.7688 8.98827 11.3345 8.62265 10.8774C8.25702 10.4204 7.4953 10.0243 6.9164 10.3899C6.5203 10.6337 6.15468 9.90244 6.39843 9.71963C6.64218 9.53682 8.01327 8.31807 8.92733 9.354C9.8414 10.3899 17.2758 19.3782 17.2758 19.3782ZM14.2289 23.1259C13.8328 23.5524 13.4062 23.7962 12.8273 23.3696C12.2484 22.9431 7.06874 18.586 6.73359 18.2813C6.39843 17.9767 5.42343 17.5196 4.69218 18.2509C4.41796 18.5251 3.93046 18.0681 4.20468 17.7938C4.4789 17.4892 5.97187 15.9657 7.16015 16.9712C8.34843 17.9767 14.2289 23.1259 14.2289 23.1259Z" fill="#0D0D0D"/>
</g>
<path d="M3.22969 24.771C4.17422 27.5741 5.60625 29.3108 7.95235 30.8952C8.37891 31.1999 8.13516 31.8093 7.64766 31.596C5.45391 30.7124 3.01641 28.7624 2.4375 24.8929C2.3461 24.3749 3.07735 24.2835 3.22969 24.771ZM5.05782 23.0952C6.00235 25.8983 7.43438 27.6351 9.78047 29.2194C10.207 29.5241 9.96328 30.1335 9.47578 29.9202C7.28203 29.0366 4.84453 27.0866 4.26563 23.2171C4.20469 22.6991 4.90547 22.6077 5.05782 23.0952ZM28.4883 10.5421C27.757 7.67802 26.4164 5.8499 24.1922 4.14364C23.7656 3.83896 24.0703 3.22958 24.5578 3.44286C26.6906 4.44833 29.0063 6.58115 29.3109 10.4811C29.3414 10.9991 28.6102 11.0601 28.4883 10.5421ZM30.4688 9.07958C29.7375 6.21552 28.3969 4.38739 26.1727 2.68114C25.7461 2.37646 26.0508 1.76708 26.5383 1.98036C28.6711 2.98583 30.9867 5.11864 31.2914 9.01865C31.3219 9.50615 30.6211 9.56708 30.4688 9.07958Z" fill="#B0BEC5"/>
</svg>
