<svg width="32" height="32" viewBox="0 0 32 32" fill="none" xmlns="http://www.w3.org/2000/svg">
<path fill-rule="evenodd" clip-rule="evenodd" d="M0 16C0 7.16344 7.16344 0 16 0C24.8366 0 32 7.16344 32 16C32 24.8366 24.8366 32 16 32C7.16344 32 0 24.8366 0 16Z" fill="white"/>
<path d="M16 0C24.8366 0 32 7.16344 32 16C32 24.8366 24.8366 32 16 32C7.16344 32 0 24.8366 0 16C4.5098e-07 7.16344 7.16344 4.5101e-07 16 0ZM17.9688 8C15.0821 8 14.0664 9.45518 14.0664 11.9023V13.7031H12.2666V16.7031H14.0664V25.4072H17.668V16.7031H20.0703L20.3887 13.7031H17.668L17.6719 12.2021C17.6719 11.4198 17.7464 11 18.8701 11H20.3721V8H17.9688Z" fill="#1D9B5E"/>
</svg>
