<svg width="32" height="32" viewBox="0 0 32 32" fill="none" xmlns="http://www.w3.org/2000/svg">
<path fill-rule="evenodd" clip-rule="evenodd" d="M0 16C0 7.16344 7.16344 0 16 0C24.8366 0 32 7.16344 32 16C32 24.8366 24.8366 32 16 32C7.16344 32 0 24.8366 0 16Z" fill="white"/>
<path d="M16 0C24.8366 0 32 7.16344 32 16C32 24.8366 24.8366 32 16 32C7.16344 32 0 24.8366 0 16C4.5098e-07 7.16344 7.16344 4.5101e-07 16 0ZM16.332 7.4668C14.0165 7.4668 13.7254 7.47715 12.8154 7.51855C11.9071 7.56016 11.2867 7.70403 10.7441 7.91504C10.183 8.13298 9.70664 8.42404 9.23242 8.89844C8.7578 9.37271 8.46671 9.84916 8.24805 10.4102C8.03649 10.9529 7.89245 11.5733 7.85156 12.4814C7.81085 13.3916 7.79981 13.6827 7.7998 16C7.7998 18.3172 7.81033 18.6076 7.85156 19.5176C7.89334 20.4259 8.03724 21.0463 8.24805 21.5889C8.46618 22.1501 8.75793 22.6263 9.23242 23.1006C9.70653 23.5752 10.1823 23.868 10.7432 24.0859C11.286 24.2969 11.9064 24.4408 12.8145 24.4824C13.7247 24.5238 14.0158 24.5332 16.333 24.5332C18.6503 24.5332 18.9407 24.5238 19.8506 24.4824C20.7588 24.4408 21.38 24.2969 21.9229 24.0859C22.4839 23.868 22.9595 23.5752 23.4336 23.1006C23.9083 22.6263 24.2003 22.1499 24.4189 21.5889C24.6286 21.0463 24.7727 20.4262 24.8154 19.5186C24.8563 18.6083 24.8672 18.3175 24.8672 16C24.8672 13.6827 24.8563 13.3916 24.8154 12.4814C24.7728 11.5731 24.6287 10.9527 24.4189 10.4102C24.2003 9.84899 23.9082 9.3727 23.4336 8.89844C22.9591 8.42401 22.4844 8.13276 21.9229 7.91504C21.3788 7.70401 20.7581 7.56015 19.8496 7.51855C18.9396 7.47714 18.6497 7.4668 16.332 7.4668Z" fill="#1D9B5E"/>
<path fill-rule="evenodd" clip-rule="evenodd" d="M15.569 9.00409C15.7176 9.00385 15.8775 9.00393 16.0501 9.004L16.3345 9.00409C18.6129 9.00409 18.883 9.01226 19.7827 9.05315C20.6147 9.0912 21.0663 9.23022 21.3671 9.34702C21.7653 9.50169 22.0492 9.68658 22.3477 9.98525C22.6464 10.2839 22.8313 10.5684 22.9863 10.9666C23.1031 11.267 23.2423 11.7186 23.2802 12.5506C23.3211 13.4502 23.3299 13.7204 23.3299 15.9978C23.3299 18.2751 23.3211 18.5453 23.2802 19.4449C23.2421 20.2769 23.1031 20.7285 22.9863 21.0289C22.8316 21.4271 22.6464 21.7107 22.3477 22.0092C22.049 22.3079 21.7655 22.4928 21.3671 22.6474C21.0666 22.7648 20.6147 22.9034 19.7827 22.9415C18.8831 22.9824 18.6129 22.9913 16.3345 22.9913C14.0559 22.9913 13.7858 22.9824 12.8863 22.9415C12.0543 22.9031 11.6027 22.7641 11.3017 22.6472C10.9035 22.4926 10.6191 22.3077 10.3204 22.009C10.0217 21.7104 9.83683 21.4266 9.6818 21.0282C9.565 20.7278 9.4258 20.2762 9.38793 19.4442C9.34705 18.5446 9.33887 18.2744 9.33887 15.9956C9.33887 13.7168 9.34705 13.448 9.38793 12.5485C9.42598 11.7165 9.565 11.2649 9.6818 10.9641C9.83647 10.5659 10.0217 10.2814 10.3204 9.98276C10.6191 9.68409 10.9035 9.4992 11.3017 9.34418C11.6025 9.22684 12.0543 9.08818 12.8863 9.04995C13.6735 9.0144 13.9786 9.00373 15.569 9.00195V9.00409ZM20.8894 10.4206C20.3241 10.4206 19.8654 10.8787 19.8654 11.4443C19.8654 12.0096 20.3241 12.4683 20.8894 12.4683C21.4547 12.4683 21.9134 12.0096 21.9134 11.4443C21.9134 10.8789 21.4547 10.4202 20.8894 10.4202V10.4206ZM11.9523 15.9988C11.9523 13.5787 13.9144 11.6166 16.3344 11.6165C18.7545 11.6165 20.7161 13.5787 20.7161 15.9988C20.7161 18.4189 18.7547 20.3802 16.3346 20.3802C13.9145 20.3802 11.9523 18.4189 11.9523 15.9988Z" fill="#1D9B5E"/>
<path fill-rule="evenodd" clip-rule="evenodd" d="M16.3342 13.1553C17.9051 13.1553 19.1787 14.4287 19.1787 15.9997C19.1787 17.5706 17.9051 18.8442 16.3342 18.8442C14.7632 18.8442 13.4897 17.5706 13.4897 15.9997C13.4897 14.4287 14.7632 13.1553 16.3342 13.1553V13.1553Z" fill="#1D9B5E"/>
</svg>

