<svg width="32" height="32" viewBox="0 0 32 32" fill="none" xmlns="http://www.w3.org/2000/svg">
<path fill-rule="evenodd" clip-rule="evenodd" d="M0 16C0 7.16344 7.16344 0 16 0C24.8366 0 32 7.16344 32 16C32 24.8366 24.8366 32 16 32C7.16344 32 0 24.8366 0 16Z" fill="white"/>
<path d="M16 0C24.8366 0 32 7.16344 32 16C32 24.8366 24.8366 32 16 32C7.16344 32 0 24.8366 0 16C4.5098e-07 7.16344 7.16344 4.5101e-07 16 0ZM20.3281 9.70508C19.7574 9.54702 18.8848 9.57025 18.3701 9.75098C16.9712 10.2594 16.0868 11.5699 16.1875 13.0049L16.2207 13.5586L15.6611 13.4902C13.6244 13.2303 11.8448 12.3492 10.334 10.8691L9.5957 10.1348L9.40527 10.6768C9.00237 11.8857 9.26023 13.1628 10.0996 14.0215C10.5471 14.4959 10.446 14.5637 9.67383 14.2812C9.40558 14.191 9.17121 14.1236 9.14844 14.1572C9.07011 14.2363 9.33816 15.264 9.55078 15.6709C9.84173 16.2358 10.4349 16.7895 11.084 17.1172L11.6328 17.377L10.9834 17.3887C10.357 17.3887 10.3343 17.3998 10.4014 17.6367C10.6252 18.3711 11.5093 19.1513 12.4941 19.4902L13.1885 19.7275L12.584 20.0889C11.6888 20.6085 10.6368 20.9021 9.58496 20.9248C9.08134 20.9361 8.66699 20.9817 8.66699 21.0156C8.66894 21.1293 10.0331 21.7614 10.8271 22.0098C13.2109 22.744 16.0426 22.4279 18.1689 21.1738C19.6797 20.2812 21.1904 18.5073 21.8955 16.79C22.276 15.875 22.6561 14.2027 22.6562 13.4004C22.6562 12.8807 22.6899 12.8126 23.3164 12.1914C23.6854 11.8302 24.032 11.4347 24.0996 11.3213C24.2115 11.1066 24.2007 11.1068 23.6299 11.2988C22.6788 11.6377 22.5446 11.5924 23.0146 11.084C23.3615 10.7225 23.7752 10.0672 23.7754 9.875C23.7754 9.8411 23.6073 9.89734 23.417 9.99902C23.2154 10.112 22.7682 10.2821 22.4326 10.3838L21.8281 10.5752L21.2793 10.2021C20.9772 9.99886 20.5518 9.77283 20.3281 9.70508Z" fill="#1D9B5E"/>
</svg>
