<svg width="32" height="32" viewBox="0 0 32 32" fill="none" xmlns="http://www.w3.org/2000/svg">
<path fill-rule="evenodd" clip-rule="evenodd" d="M0 16C0 7.16344 7.16344 0 16 0C24.8366 0 32 7.16344 32 16C32 24.8366 24.8366 32 16 32C7.16344 32 0 24.8366 0 16Z" fill="white"/>
<path d="M16 0C24.8366 0 32 7.16344 32 16C32 24.8366 24.8366 32 16 32C7.16344 32 0 24.8366 0 16C4.5098e-07 7.16344 7.16344 4.5101e-07 16 0ZM16 10.1338C15.9696 10.1338 10.6591 10.1348 9.33203 10.5C8.59792 10.7015 8.01958 11.2951 7.82324 12.0488C7.46668 13.4154 7.4668 16.2676 7.4668 16.2676C7.46682 16.3088 7.46929 19.1287 7.82324 20.4854C8.01956 21.2391 8.59792 21.8325 9.33203 22.0342C10.6591 22.3993 15.9696 22.4004 16 22.4004C16 22.4004 21.3372 22.4003 22.668 22.0342C23.4021 21.8326 23.9804 21.2391 24.1768 20.4854C24.5308 19.1287 24.5332 16.3088 24.5332 16.2676C24.5332 16.2676 24.5334 13.4154 24.1768 12.0488C23.9804 11.2951 23.4021 10.7015 22.668 10.5C21.3372 10.1338 16 10.1338 16 10.1338Z" fill="#1D9B5E"/>
<path fill-rule="evenodd" clip-rule="evenodd" d="M14.3999 19.1995V13.8662L18.6666 16.533L14.3999 19.1995Z" fill="#1D9B5E"/>
</svg>
