<svg width="493" height="652" viewBox="0 0 493 652" fill="none" xmlns="http://www.w3.org/2000/svg">
<path d="M1 10C1 4.47716 5.47715 0 11 0H482C487.523 0 492 4.47715 492 10V637C492 642.523 487.523 647 482 647H11C5.47716 647 1 642.523 1 637V10Z" fill="#0F2028"/>
<g opacity="0.2">
<path d="M0.999993 287C15.6358 339.919 84.9969 445.756 245.355 445.756C405.712 445.756 476.601 552.585 492 606" stroke="#1D9B5E"/>
<path d="M0.999994 342C14.682 393.26 79.5225 495.779 229.429 495.779C379.336 495.779 445.604 599.26 460 651" stroke="#1D9B5E"/>
<path d="M1.00001 413C12.5954 451.818 67.5474 529.454 194.593 529.454C321.638 529.454 377.8 607.818 390 647" stroke="#1D9B5E"/>
</g>
</svg>
