<svg width="363" height="259" viewBox="0 0 363 259" fill="none" xmlns="http://www.w3.org/2000/svg">
<g filter="url(#filter0_d_4904_24451)">
<rect x="38" y="0.233643" width="287" height="178.32" rx="12" fill="white"/>
</g>
<path d="M55.7823 21.2577V12.8577H57.2463V21.2577H55.7823ZM64.3679 17.4657V21.2577H62.9039V17.8497C62.9039 17.6137 62.8459 17.3997 62.7299 17.2077C62.6139 17.0117 62.4579 16.8577 62.2619 16.7457C62.0699 16.6297 61.8559 16.5717 61.6199 16.5717C61.3839 16.5717 61.1679 16.6297 60.9719 16.7457C60.7799 16.8577 60.6259 17.0117 60.5099 17.2077C60.3979 17.3997 60.3419 17.6137 60.3419 17.8497V21.2577H58.8779L58.8719 15.2577H60.3359L60.3419 15.7917C60.5459 15.5757 60.7899 15.4057 61.0739 15.2817C61.3579 15.1537 61.6639 15.0897 61.9919 15.0897C62.4279 15.0897 62.8259 15.1977 63.1859 15.4137C63.5459 15.6257 63.8319 15.9117 64.0439 16.2717C64.2599 16.6277 64.3679 17.0257 64.3679 17.4657ZM69.1661 19.4517L70.4861 20.1657C70.2101 20.5417 69.8641 20.8437 69.4481 21.0717C69.0321 21.2997 68.5781 21.4137 68.0861 21.4137C67.5341 21.4137 67.0301 21.2717 66.5741 20.9877C66.1221 20.7037 65.7601 20.3237 65.4881 19.8477C65.2201 19.3677 65.0861 18.8377 65.0861 18.2577C65.0861 17.8177 65.1641 17.4077 65.3201 17.0277C65.4761 16.6437 65.6901 16.3077 65.9621 16.0197C66.2381 15.7277 66.5581 15.4997 66.9221 15.3357C67.2861 15.1717 67.6741 15.0897 68.0861 15.0897C68.5781 15.0897 69.0321 15.2037 69.4481 15.4317C69.8641 15.6597 70.2101 15.9657 70.4861 16.3497L69.1661 17.0577C69.0261 16.8977 68.8601 16.7737 68.6681 16.6857C68.4801 16.5977 68.2861 16.5537 68.0861 16.5537C67.7981 16.5537 67.5381 16.6337 67.3061 16.7937C67.0741 16.9497 66.8901 17.1577 66.7541 17.4177C66.6181 17.6737 66.5501 17.9537 66.5501 18.2577C66.5501 18.5577 66.6181 18.8377 66.7541 19.0977C66.8901 19.3537 67.0741 19.5597 67.3061 19.7157C67.5381 19.8717 67.7981 19.9497 68.0861 19.9497C68.2941 19.9497 68.4921 19.9057 68.6801 19.8177C68.8681 19.7257 69.0301 19.6037 69.1661 19.4517ZM74.0158 21.4137C73.4638 21.4137 72.9598 21.2717 72.5038 20.9877C72.0518 20.7037 71.6898 20.3237 71.4178 19.8477C71.1498 19.3677 71.0158 18.8377 71.0158 18.2577C71.0158 17.8177 71.0938 17.4077 71.2498 17.0277C71.4058 16.6437 71.6198 16.3077 71.8918 16.0197C72.1678 15.7277 72.4878 15.4997 72.8518 15.3357C73.2158 15.1717 73.6038 15.0897 74.0158 15.0897C74.5678 15.0897 75.0698 15.2317 75.5218 15.5157C75.9778 15.7997 76.3398 16.1817 76.6078 16.6617C76.8798 17.1417 77.0158 17.6737 77.0158 18.2577C77.0158 18.6937 76.9378 19.1017 76.7818 19.4817C76.6258 19.8617 76.4098 20.1977 76.1338 20.4897C75.8618 20.7777 75.5438 21.0037 75.1798 21.1677C74.8198 21.3317 74.4318 21.4137 74.0158 21.4137ZM74.0158 19.9497C74.3078 19.9497 74.5698 19.8717 74.8018 19.7157C75.0338 19.5597 75.2158 19.3537 75.3478 19.0977C75.4838 18.8417 75.5518 18.5617 75.5518 18.2577C75.5518 17.9457 75.4818 17.6617 75.3418 17.4057C75.2058 17.1457 75.0198 16.9397 74.7838 16.7877C74.5518 16.6317 74.2958 16.5537 74.0158 16.5537C73.7278 16.5537 73.4678 16.6317 73.2358 16.7877C73.0038 16.9437 72.8198 17.1517 72.6838 17.4117C72.5478 17.6717 72.4798 17.9537 72.4798 18.2577C72.4798 18.5737 72.5498 18.8597 72.6898 19.1157C72.8298 19.3717 73.0158 19.5757 73.2478 19.7277C73.4838 19.8757 73.7398 19.9497 74.0158 19.9497ZM77.95 21.2577V15.2577H79.414V15.7917C79.618 15.5757 79.862 15.4057 80.146 15.2817C80.43 15.1537 80.736 15.0897 81.064 15.0897C81.48 15.0897 81.862 15.1877 82.21 15.3837C82.562 15.5797 82.842 15.8417 83.05 16.1697C83.262 15.8417 83.542 15.5797 83.89 15.3837C84.238 15.1877 84.62 15.0897 85.036 15.0897C85.476 15.0897 85.874 15.1977 86.23 15.4137C86.59 15.6257 86.876 15.9117 87.088 16.2717C87.304 16.6277 87.412 17.0257 87.412 17.4657V21.2577H85.948V17.8557C85.948 17.6237 85.89 17.4117 85.774 17.2197C85.662 17.0237 85.51 16.8677 85.318 16.7517C85.13 16.6317 84.918 16.5717 84.682 16.5717C84.446 16.5717 84.232 16.6297 84.04 16.7457C83.852 16.8577 83.7 17.0097 83.584 17.2017C83.468 17.3937 83.41 17.6117 83.41 17.8557V21.2577H81.946V17.8557C81.946 17.6117 81.89 17.3937 81.778 17.2017C81.666 17.0097 81.514 16.8577 81.322 16.7457C81.13 16.6297 80.916 16.5717 80.68 16.5717C80.448 16.5717 80.236 16.6317 80.044 16.7517C79.852 16.8677 79.698 17.0237 79.582 17.2197C79.47 17.4117 79.414 17.6237 79.414 17.8557V21.2577H77.95ZM91.1369 21.4137C90.5849 21.4137 90.0809 21.2717 89.6249 20.9877C89.1729 20.7037 88.8109 20.3217 88.5389 19.8417C88.2709 19.3617 88.1369 18.8317 88.1369 18.2517C88.1369 17.8157 88.2149 17.4077 88.3709 17.0277C88.5269 16.6437 88.7409 16.3077 89.0129 16.0197C89.2889 15.7277 89.6089 15.4997 89.9729 15.3357C90.3369 15.1717 90.7249 15.0897 91.1369 15.0897C91.6049 15.0897 92.0329 15.1897 92.4209 15.3897C92.8129 15.5857 93.1449 15.8557 93.4169 16.1997C93.6889 16.5437 93.8869 16.9357 94.0109 17.3757C94.1349 17.8157 94.1629 18.2757 94.0949 18.7557H89.7089C89.7649 18.9797 89.8569 19.1817 89.9849 19.3617C90.1129 19.5377 90.2749 19.6797 90.4709 19.7877C90.6669 19.8917 90.8889 19.9457 91.1369 19.9497C91.3929 19.9537 91.6249 19.8937 91.8329 19.7697C92.0449 19.6417 92.2209 19.4697 92.3609 19.2537L93.8549 19.6017C93.6109 20.1337 93.2469 20.5697 92.7629 20.9097C92.2789 21.2457 91.7369 21.4137 91.1369 21.4137ZM89.6609 17.6577H92.6129C92.5689 17.4177 92.4749 17.2017 92.3309 17.0097C92.1909 16.8137 92.0169 16.6577 91.8089 16.5417C91.6009 16.4257 91.3769 16.3677 91.1369 16.3677C90.8969 16.3677 90.6749 16.4257 90.4709 16.5417C90.2669 16.6537 90.0929 16.8077 89.9489 17.0037C89.8089 17.1957 89.7129 17.4137 89.6609 17.6577ZM101.311 16.7217H100.147V21.2577H98.6825V16.7217H97.7945V15.2577H98.6825V13.3737H100.147V15.2577H101.311V16.7217ZM107.891 17.4657V21.2577H106.427V17.8497C106.427 17.6137 106.369 17.3997 106.253 17.2077C106.137 17.0117 105.981 16.8577 105.785 16.7457C105.593 16.6297 105.379 16.5717 105.143 16.5717C104.907 16.5717 104.691 16.6297 104.495 16.7457C104.303 16.8577 104.149 17.0117 104.033 17.2077C103.921 17.3997 103.865 17.6137 103.865 17.8497V21.2577H102.401L102.395 12.2577H103.859L103.865 15.7917C104.069 15.5757 104.313 15.4057 104.597 15.2817C104.881 15.1537 105.187 15.0897 105.515 15.0897C105.951 15.0897 106.349 15.1977 106.709 15.4137C107.069 15.6257 107.355 15.9117 107.567 16.2717C107.783 16.6277 107.891 17.0257 107.891 17.4657ZM109.087 15.2577H110.551V21.2577H109.087V15.2577ZM109.831 14.4837C109.615 14.4837 109.433 14.4137 109.285 14.2737C109.137 14.1297 109.063 13.9497 109.063 13.7337C109.063 13.5217 109.137 13.3437 109.285 13.1997C109.433 13.0557 109.613 12.9837 109.825 12.9837C110.037 12.9837 110.215 13.0557 110.359 13.1997C110.507 13.3437 110.581 13.5217 110.581 13.7337C110.581 13.9497 110.509 14.1297 110.365 14.2737C110.221 14.4137 110.043 14.4837 109.831 14.4837ZM113.669 21.3657C113.357 21.3457 113.055 21.2837 112.763 21.1797C112.475 21.0717 112.219 20.9257 111.995 20.7417C111.771 20.5577 111.599 20.3377 111.479 20.0817L112.715 19.5537C112.763 19.6337 112.841 19.7197 112.949 19.8117C113.057 19.8997 113.185 19.9737 113.333 20.0337C113.485 20.0937 113.651 20.1237 113.831 20.1237C113.983 20.1237 114.127 20.1037 114.263 20.0637C114.403 20.0197 114.515 19.9537 114.599 19.8657C114.687 19.7777 114.731 19.6637 114.731 19.5237C114.731 19.3757 114.679 19.2617 114.575 19.1817C114.475 19.0977 114.347 19.0357 114.191 18.9957C114.039 18.9517 113.891 18.9117 113.747 18.8757C113.367 18.7997 113.013 18.6817 112.685 18.5217C112.361 18.3617 112.099 18.1557 111.899 17.9037C111.703 17.6477 111.605 17.3397 111.605 16.9797C111.605 16.5837 111.709 16.2417 111.917 15.9537C112.129 15.6657 112.403 15.4437 112.739 15.2877C113.079 15.1317 113.445 15.0537 113.837 15.0537C114.313 15.0537 114.749 15.1537 115.145 15.3537C115.545 15.5497 115.861 15.8277 116.093 16.1877L114.935 16.8717C114.879 16.7757 114.801 16.6877 114.701 16.6077C114.601 16.5237 114.487 16.4557 114.359 16.4037C114.231 16.3477 114.097 16.3157 113.957 16.3077C113.777 16.2997 113.613 16.3157 113.465 16.3557C113.317 16.3957 113.197 16.4637 113.105 16.5597C113.017 16.6557 112.973 16.7837 112.973 16.9437C112.973 17.0957 113.033 17.2097 113.153 17.2857C113.273 17.3577 113.417 17.4137 113.585 17.4537C113.757 17.4937 113.921 17.5377 114.077 17.5857C114.429 17.7017 114.759 17.8437 115.067 18.0117C115.379 18.1797 115.629 18.3857 115.817 18.6297C116.005 18.8737 116.095 19.1657 116.087 19.5057C116.087 19.8937 115.971 20.2337 115.739 20.5257C115.507 20.8137 115.207 21.0337 114.839 21.1857C114.475 21.3377 114.085 21.3977 113.669 21.3657ZM121.911 21.2577L119.763 12.8577H121.275L122.739 18.5997L124.203 12.8577H125.541L127.005 18.5997L128.463 12.8577H129.975L127.839 21.2577H126.177L124.869 16.1697L123.579 21.2577H121.911ZM132.797 21.4137C132.245 21.4137 131.741 21.2717 131.285 20.9877C130.833 20.7037 130.471 20.3217 130.199 19.8417C129.931 19.3617 129.797 18.8317 129.797 18.2517C129.797 17.8157 129.875 17.4077 130.031 17.0277C130.187 16.6437 130.401 16.3077 130.673 16.0197C130.949 15.7277 131.269 15.4997 131.633 15.3357C131.997 15.1717 132.385 15.0897 132.797 15.0897C133.265 15.0897 133.693 15.1897 134.081 15.3897C134.473 15.5857 134.805 15.8557 135.077 16.1997C135.349 16.5437 135.547 16.9357 135.671 17.3757C135.795 17.8157 135.823 18.2757 135.755 18.7557H131.369C131.425 18.9797 131.517 19.1817 131.645 19.3617C131.773 19.5377 131.935 19.6797 132.131 19.7877C132.327 19.8917 132.549 19.9457 132.797 19.9497C133.053 19.9537 133.285 19.8937 133.493 19.7697C133.705 19.6417 133.881 19.4697 134.021 19.2537L135.515 19.6017C135.271 20.1337 134.907 20.5697 134.423 20.9097C133.939 21.2457 133.397 21.4137 132.797 21.4137ZM131.321 17.6577H134.273C134.229 17.4177 134.135 17.2017 133.991 17.0097C133.851 16.8137 133.677 16.6577 133.469 16.5417C133.261 16.4257 133.037 16.3677 132.797 16.3677C132.557 16.3677 132.335 16.4257 132.131 16.5417C131.927 16.6537 131.753 16.8077 131.609 17.0037C131.469 17.1957 131.373 17.4137 131.321 17.6577ZM139.395 21.4137C138.843 21.4137 138.339 21.2717 137.883 20.9877C137.431 20.7037 137.069 20.3217 136.797 19.8417C136.529 19.3617 136.395 18.8317 136.395 18.2517C136.395 17.8157 136.473 17.4077 136.629 17.0277C136.785 16.6437 136.999 16.3077 137.271 16.0197C137.547 15.7277 137.867 15.4997 138.231 15.3357C138.595 15.1717 138.983 15.0897 139.395 15.0897C139.863 15.0897 140.291 15.1897 140.679 15.3897C141.071 15.5857 141.403 15.8557 141.675 16.1997C141.947 16.5437 142.145 16.9357 142.269 17.3757C142.393 17.8157 142.421 18.2757 142.353 18.7557H137.967C138.023 18.9797 138.115 19.1817 138.243 19.3617C138.371 19.5377 138.533 19.6797 138.729 19.7877C138.925 19.8917 139.147 19.9457 139.395 19.9497C139.651 19.9537 139.883 19.8937 140.091 19.7697C140.303 19.6417 140.479 19.4697 140.619 19.2537L142.113 19.6017C141.869 20.1337 141.505 20.5697 141.021 20.9097C140.537 21.2457 139.995 21.4137 139.395 21.4137ZM137.919 17.6577H140.871C140.827 17.4177 140.733 17.2017 140.589 17.0097C140.449 16.8137 140.275 16.6577 140.067 16.5417C139.859 16.4257 139.635 16.3677 139.395 16.3677C139.155 16.3677 138.933 16.4257 138.729 16.5417C138.525 16.6537 138.351 16.8077 138.207 17.0037C138.067 17.1957 137.971 17.4137 137.919 17.6577ZM148.593 21.2577H146.907L145.539 18.8997L144.699 19.9017V21.2577H143.235V12.2577H144.699V17.6277L146.685 15.2577H148.599L146.541 17.7117L148.593 21.2577Z" fill="#161A41" fill-opacity="0.78"/>
<line x1="73.3472" y1="32.4431" x2="310.755" y2="32.4431" stroke="black" stroke-opacity="0.02"/>
<line x1="72.8196" y1="41.9396" x2="310.228" y2="41.9396" stroke="black" stroke-opacity="0.02"/>
<line x1="72.292" y1="51.4359" x2="309.7" y2="51.4359" stroke="black" stroke-opacity="0.02"/>
<line x1="71.7644" y1="60.932" x2="309.172" y2="60.932" stroke="black" stroke-opacity="0.02"/>
<line x1="71.2368" y1="70.4285" x2="308.645" y2="70.4285" stroke="black" stroke-opacity="0.02"/>
<line x1="70.7092" y1="79.9248" x2="308.117" y2="79.9248" stroke="black" stroke-opacity="0.02"/>
<line x1="70.1819" y1="89.4213" x2="307.59" y2="89.4213" stroke="black" stroke-opacity="0.02"/>
<line x1="69.6541" y1="98.9174" x2="307.062" y2="98.9174" stroke="black" stroke-opacity="0.02"/>
<line x1="69.1267" y1="108.414" x2="306.535" y2="108.414" stroke="black" stroke-opacity="0.02"/>
<line x1="68.5991" y1="117.91" x2="306.007" y2="117.91" stroke="black" stroke-opacity="0.02"/>
<line x1="68.0715" y1="127.406" x2="305.48" y2="127.406" stroke="black" stroke-opacity="0.02"/>
<line x1="67.5439" y1="136.903" x2="304.952" y2="136.903" stroke="black" stroke-opacity="0.02"/>
<line x1="67.0164" y1="146.399" x2="304.424" y2="146.399" stroke="black" stroke-opacity="0.02"/>
<line x1="66.4888" y1="155.895" x2="303.897" y2="155.895" stroke="black" stroke-opacity="0.02"/>
<rect x="83.8989" y="42.4395" width="18.9926" height="107.625" rx="6" fill="#F8F7FC"/>
<rect x="115.553" y="42.4395" width="18.9926" height="107.625" rx="6" fill="#F8F7FC"/>
<rect x="147.208" y="42.4395" width="18.9926" height="107.625" rx="6" fill="#F8F7FC"/>
<rect x="178.862" y="42.4395" width="18.9926" height="107.625" rx="6" fill="#F8F7FC"/>
<rect x="210.516" y="42.4395" width="18.9926" height="107.625" rx="6" fill="#F8F7FC"/>
<rect x="242.171" y="42.4395" width="18.9926" height="107.625" rx="6" fill="#F8F7FC"/>
<rect x="273.825" y="42.4395" width="18.9926" height="107.625" rx="6" fill="#F8F7FC"/>
<rect x="83.8987" y="75.1492" width="18.9926" height="74.9154" rx="6" fill="#8A8D8E"/>
<rect x="115.553" y="61.4323" width="18.9926" height="88.6324" rx="6" fill="#8A8D8E"/>
<rect x="147.208" y="108.914" width="18.9926" height="41.1507" rx="6" fill="#8A8D8E"/>
<rect x="178.862" y="118.938" width="18.9926" height="31.1268" rx="6" fill="#8A8D8E"/>
<rect x="210.516" y="56.6841" width="18.9926" height="93.3805" rx="6" fill="#1D9B5E"/>
<rect x="242.171" y="100.473" width="18.9926" height="49.5919" rx="6" fill="#8A8D8E"/>
<rect x="273.826" y="85.7006" width="18.9926" height="64.364" rx="6" fill="#8A8D8E"/>
<g filter="url(#filter1_d_4904_24451)">
<rect x="229.595" y="47.7153" width="38.5129" height="18.9926" rx="6" fill="white"/>
</g>
<circle cx="220.54" cy="56.684" r="5.13787" fill="#1D9B5E" stroke="white" stroke-width="5"/>
<path d="M235.767 60.5382C235.317 60.5382 234.91 60.4299 234.547 60.2132C234.184 59.9932 233.895 59.7015 233.682 59.3382C233.472 58.9749 233.367 58.5765 233.367 58.1432H234.587C234.587 58.3599 234.64 58.5582 234.747 58.7382C234.854 58.9149 234.995 59.0565 235.172 59.1632C235.352 59.2665 235.55 59.3182 235.767 59.3182C235.984 59.3182 236.18 59.2665 236.357 59.1632C236.534 59.0565 236.675 58.9149 236.782 58.7382C236.889 58.5582 236.942 58.3599 236.942 58.1432C236.942 57.9265 236.895 57.7282 236.802 57.5482C236.712 57.3649 236.564 57.2199 236.357 57.1132C236.154 57.0032 235.884 56.9482 235.547 56.9482H233.747L234.487 53.4082H237.927V54.6282H235.477L235.252 55.7282L235.747 55.7332C236.22 55.7499 236.639 55.8649 237.002 56.0782C237.365 56.2915 237.649 56.5782 237.852 56.9382C238.059 57.2949 238.162 57.6965 238.162 58.1432C238.162 58.4699 238.1 58.7782 237.977 59.0682C237.854 59.3582 237.682 59.6132 237.462 59.8332C237.242 60.0532 236.987 60.2265 236.697 60.3532C236.41 60.4765 236.1 60.5382 235.767 60.5382ZM239.159 60.4082V59.3182C239.376 59.1549 239.633 58.9532 239.929 58.7132C240.226 58.4699 240.531 58.2082 240.844 57.9282C241.158 57.6449 241.448 57.3615 241.714 57.0782C241.981 56.7949 242.198 56.5249 242.364 56.2682C242.534 56.0115 242.619 55.7915 242.619 55.6082C242.619 55.4049 242.569 55.2199 242.469 55.0532C242.369 54.8832 242.236 54.7482 242.069 54.6482C241.906 54.5482 241.723 54.4982 241.519 54.4982C241.316 54.4982 241.131 54.5482 240.964 54.6482C240.798 54.7482 240.664 54.8832 240.564 55.0532C240.464 55.2199 240.414 55.4049 240.414 55.6082H239.194C239.194 55.1682 239.301 54.7732 239.514 54.4232C239.728 54.0699 240.009 53.7915 240.359 53.5882C240.713 53.3815 241.099 53.2782 241.519 53.2782C241.946 53.2782 242.334 53.3832 242.684 53.5932C243.034 53.7999 243.314 54.0799 243.524 54.4332C243.734 54.7865 243.839 55.1782 243.839 55.6082C243.839 55.8349 243.798 56.0632 243.714 56.2932C243.631 56.5232 243.514 56.7549 243.364 56.9882C243.214 57.2215 243.038 57.4582 242.834 57.6982C242.631 57.9349 242.406 58.1782 242.159 58.4282C241.916 58.6749 241.659 58.9282 241.389 59.1882H243.874V60.4082H239.159ZM244.872 60.9682L245.182 59.2782H246.402L245.687 60.9682H244.872ZM250.026 60.5382C249.62 60.5382 249.25 60.4449 248.916 60.2582C248.583 60.0682 248.295 59.8065 248.051 59.4732C247.811 59.1399 247.626 58.7549 247.496 58.3182C247.366 57.8782 247.301 57.4082 247.301 56.9082C247.301 56.4082 247.366 55.9399 247.496 55.5032C247.626 55.0632 247.811 54.6765 248.051 54.3432C248.295 54.0099 248.583 53.7499 248.916 53.5632C249.25 53.3732 249.62 53.2782 250.026 53.2782C250.433 53.2782 250.803 53.3732 251.136 53.5632C251.47 53.7499 251.755 54.0099 251.991 54.3432C252.231 54.6765 252.416 55.0632 252.546 55.5032C252.68 55.9399 252.746 56.4082 252.746 56.9082C252.746 57.4082 252.68 57.8782 252.546 58.3182C252.416 58.7549 252.231 59.1399 251.991 59.4732C251.755 59.8065 251.47 60.0682 251.136 60.2582C250.803 60.4449 250.433 60.5382 250.026 60.5382ZM250.026 59.3182C250.383 59.3182 250.678 59.2049 250.911 58.9782C251.145 58.7515 251.318 58.4549 251.431 58.0882C251.545 57.7215 251.601 57.3282 251.601 56.9082C251.601 56.4649 251.541 56.0615 251.421 55.6982C251.301 55.3315 251.125 55.0399 250.891 54.8232C250.658 54.6065 250.37 54.4982 250.026 54.4982C249.756 54.4982 249.521 54.5649 249.321 54.6982C249.125 54.8282 248.961 55.0065 248.831 55.2332C248.701 55.4599 248.605 55.7182 248.541 56.0082C248.478 56.2949 248.446 56.5949 248.446 56.9082C248.446 57.3249 248.503 57.7182 248.616 58.0882C248.733 58.4549 248.908 58.7515 249.141 58.9782C249.378 59.2049 249.673 59.3182 250.026 59.3182ZM255.847 60.5382C255.44 60.5382 255.07 60.4449 254.737 60.2582C254.403 60.0682 254.115 59.8065 253.872 59.4732C253.632 59.1399 253.447 58.7549 253.317 58.3182C253.187 57.8782 253.122 57.4082 253.122 56.9082C253.122 56.4082 253.187 55.9399 253.317 55.5032C253.447 55.0632 253.632 54.6765 253.872 54.3432C254.115 54.0099 254.403 53.7499 254.737 53.5632C255.07 53.3732 255.44 53.2782 255.847 53.2782C256.253 53.2782 256.623 53.3732 256.957 53.5632C257.29 53.7499 257.575 54.0099 257.812 54.3432C258.052 54.6765 258.237 55.0632 258.367 55.5032C258.5 55.9399 258.567 56.4082 258.567 56.9082C258.567 57.4082 258.5 57.8782 258.367 58.3182C258.237 58.7549 258.052 59.1399 257.812 59.4732C257.575 59.8065 257.29 60.0682 256.957 60.2582C256.623 60.4449 256.253 60.5382 255.847 60.5382ZM255.847 59.3182C256.203 59.3182 256.498 59.2049 256.732 58.9782C256.965 58.7515 257.138 58.4549 257.252 58.0882C257.365 57.7215 257.422 57.3282 257.422 56.9082C257.422 56.4649 257.362 56.0615 257.242 55.6982C257.122 55.3315 256.945 55.0399 256.712 54.8232C256.478 54.6065 256.19 54.4982 255.847 54.4982C255.577 54.4982 255.342 54.5649 255.142 54.6982C254.945 54.8282 254.782 55.0065 254.652 55.2332C254.522 55.4599 254.425 55.7182 254.362 56.0082C254.298 56.2949 254.267 56.5949 254.267 56.9082C254.267 57.3249 254.323 57.7182 254.437 58.0882C254.553 58.4549 254.728 58.7515 254.962 58.9782C255.198 59.2049 255.493 59.3182 255.847 59.3182ZM261.667 60.5382C261.26 60.5382 260.89 60.4449 260.557 60.2582C260.224 60.0682 259.935 59.8065 259.692 59.4732C259.452 59.1399 259.267 58.7549 259.137 58.3182C259.007 57.8782 258.942 57.4082 258.942 56.9082C258.942 56.4082 259.007 55.9399 259.137 55.5032C259.267 55.0632 259.452 54.6765 259.692 54.3432C259.935 54.0099 260.224 53.7499 260.557 53.5632C260.89 53.3732 261.26 53.2782 261.667 53.2782C262.074 53.2782 262.444 53.3732 262.777 53.5632C263.11 53.7499 263.395 54.0099 263.632 54.3432C263.872 54.6765 264.057 55.0632 264.187 55.5032C264.32 55.9399 264.387 56.4082 264.387 56.9082C264.387 57.4082 264.32 57.8782 264.187 58.3182C264.057 58.7549 263.872 59.1399 263.632 59.4732C263.395 59.8065 263.11 60.0682 262.777 60.2582C262.444 60.4449 262.074 60.5382 261.667 60.5382ZM261.667 59.3182C262.024 59.3182 262.319 59.2049 262.552 58.9782C262.785 58.7515 262.959 58.4549 263.072 58.0882C263.185 57.7215 263.242 57.3282 263.242 56.9082C263.242 56.4649 263.182 56.0615 263.062 55.6982C262.942 55.3315 262.765 55.0399 262.532 54.8232C262.299 54.6065 262.01 54.4982 261.667 54.4982C261.397 54.4982 261.162 54.5649 260.962 54.6982C260.765 54.8282 260.602 55.0065 260.472 55.2332C260.342 55.4599 260.245 55.7182 260.182 56.0082C260.119 56.2949 260.087 56.5949 260.087 56.9082C260.087 57.3249 260.144 57.7182 260.257 58.0882C260.374 58.4549 260.549 58.7515 260.782 58.9782C261.019 59.2049 261.314 59.3182 261.667 59.3182Z" fill="#3B3D53" fill-opacity="0.56"/>
<path d="M60.4186 154.586C60.0826 154.586 59.7826 154.511 59.5186 154.362C59.2546 154.21 59.0293 154 58.8426 153.734C58.656 153.467 58.5133 153.159 58.4146 152.81C58.3186 152.458 58.2706 152.082 58.2706 151.682C58.2706 151.282 58.3186 150.906 58.4146 150.554C58.5133 150.202 58.656 149.894 58.8426 149.63C59.0293 149.363 59.2546 149.155 59.5186 149.006C59.7826 148.854 60.0826 148.778 60.4186 148.778C60.752 148.778 61.0506 148.854 61.3146 149.006C61.5786 149.155 61.8026 149.363 61.9866 149.63C62.1706 149.894 62.3106 150.202 62.4066 150.554C62.5053 150.906 62.5546 151.282 62.5546 151.682C62.5546 152.082 62.5053 152.458 62.4066 152.81C62.3106 153.159 62.1706 153.467 61.9866 153.734C61.8026 154 61.5786 154.21 61.3146 154.362C61.0506 154.511 60.752 154.586 60.4186 154.586ZM60.4186 154.026C60.7706 154.026 61.0653 153.918 61.3026 153.702C61.5426 153.486 61.7226 153.2 61.8426 152.846C61.9626 152.488 62.0226 152.1 62.0226 151.682C62.0226 151.239 61.96 150.842 61.8346 150.49C61.712 150.135 61.5306 149.855 61.2906 149.65C61.0533 149.442 60.7626 149.338 60.4186 149.338C60.1466 149.338 59.9093 149.4 59.7066 149.526C59.504 149.651 59.336 149.823 59.2026 150.042C59.0693 150.26 58.9693 150.511 58.9026 150.794C58.836 151.074 58.8026 151.37 58.8026 151.682C58.8026 152.103 58.864 152.492 58.9866 152.85C59.1093 153.204 59.2906 153.49 59.5306 153.706C59.7706 153.919 60.0666 154.026 60.4186 154.026Z" fill="#161A41" fill-opacity="0.33"/>
<path d="M56.8335 139.71V134.67H56.2335L56.3935 134.11H57.3935V139.71H56.8335ZM60.4186 139.814C60.0826 139.814 59.7826 139.739 59.5186 139.59C59.2546 139.438 59.0293 139.229 58.8426 138.962C58.656 138.695 58.5133 138.387 58.4146 138.038C58.3186 137.686 58.2706 137.31 58.2706 136.91C58.2706 136.51 58.3186 136.134 58.4146 135.782C58.5133 135.43 58.656 135.122 58.8426 134.858C59.0293 134.591 59.2546 134.383 59.5186 134.234C59.7826 134.082 60.0826 134.006 60.4186 134.006C60.752 134.006 61.0506 134.082 61.3146 134.234C61.5786 134.383 61.8026 134.591 61.9866 134.858C62.1706 135.122 62.3106 135.43 62.4066 135.782C62.5053 136.134 62.5546 136.51 62.5546 136.91C62.5546 137.31 62.5053 137.686 62.4066 138.038C62.3106 138.387 62.1706 138.695 61.9866 138.962C61.8026 139.229 61.5786 139.438 61.3146 139.59C61.0506 139.739 60.752 139.814 60.4186 139.814ZM60.4186 139.254C60.7706 139.254 61.0653 139.146 61.3026 138.93C61.5426 138.714 61.7226 138.429 61.8426 138.074C61.9626 137.717 62.0226 137.329 62.0226 136.91C62.0226 136.467 61.96 136.07 61.8346 135.718C61.712 135.363 61.5306 135.083 61.2906 134.878C61.0533 134.67 60.7626 134.566 60.4186 134.566C60.1466 134.566 59.9093 134.629 59.7066 134.754C59.504 134.879 59.336 135.051 59.2026 135.27C59.0693 135.489 58.9693 135.739 58.9026 136.022C58.836 136.302 58.8026 136.598 58.8026 136.91C58.8026 137.331 58.864 137.721 58.9866 138.078C59.1093 138.433 59.2906 138.718 59.5306 138.934C59.7706 139.147 60.0666 139.254 60.4186 139.254Z" fill="#161A41" fill-opacity="0.33"/>
<path d="M54.1944 120.717V120.221C54.4131 120.018 54.6531 119.797 54.9144 119.557C55.1757 119.314 55.4344 119.065 55.6904 118.809C55.9491 118.55 56.1851 118.296 56.3984 118.045C56.6117 117.792 56.7824 117.553 56.9104 117.329C57.0411 117.102 57.1064 116.902 57.1064 116.729C57.1064 116.518 57.0544 116.326 56.9504 116.153C56.8491 115.977 56.7117 115.837 56.5384 115.733C56.3677 115.626 56.1771 115.573 55.9664 115.573C55.7557 115.573 55.5624 115.626 55.3864 115.733C55.2131 115.837 55.0744 115.977 54.9704 116.153C54.8664 116.326 54.8144 116.518 54.8144 116.729H54.2544C54.2544 116.409 54.3317 116.12 54.4864 115.861C54.6437 115.602 54.8517 115.397 55.1104 115.245C55.3691 115.09 55.6544 115.013 55.9664 115.013C56.2784 115.013 56.5624 115.09 56.8184 115.245C57.0771 115.4 57.2824 115.606 57.4344 115.865C57.5891 116.124 57.6664 116.412 57.6664 116.729C57.6664 116.918 57.6157 117.126 57.5144 117.353C57.4157 117.577 57.2811 117.81 57.1104 118.053C56.9397 118.293 56.7477 118.536 56.5344 118.781C56.3211 119.026 56.0984 119.266 55.8664 119.501C55.6344 119.733 55.4091 119.952 55.1904 120.157H57.7504V120.717H54.1944ZM60.4186 120.821C60.0826 120.821 59.7826 120.746 59.5186 120.597C59.2546 120.445 59.0293 120.236 58.8426 119.969C58.656 119.702 58.5133 119.394 58.4146 119.045C58.3186 118.693 58.2706 118.317 58.2706 117.917C58.2706 117.517 58.3186 117.141 58.4146 116.789C58.5133 116.437 58.656 116.129 58.8426 115.865C59.0293 115.598 59.2546 115.39 59.5186 115.241C59.7826 115.089 60.0826 115.013 60.4186 115.013C60.752 115.013 61.0506 115.089 61.3146 115.241C61.5786 115.39 61.8026 115.598 61.9866 115.865C62.1706 116.129 62.3106 116.437 62.4066 116.789C62.5053 117.141 62.5546 117.517 62.5546 117.917C62.5546 118.317 62.5053 118.693 62.4066 119.045C62.3106 119.394 62.1706 119.702 61.9866 119.969C61.8026 120.236 61.5786 120.445 61.3146 120.597C61.0506 120.746 60.752 120.821 60.4186 120.821ZM60.4186 120.261C60.7706 120.261 61.0653 120.153 61.3026 119.937C61.5426 119.721 61.7226 119.436 61.8426 119.081C61.9626 118.724 62.0226 118.336 62.0226 117.917C62.0226 117.474 61.96 117.077 61.8346 116.725C61.712 116.37 61.5306 116.09 61.2906 115.885C61.0533 115.677 60.7626 115.573 60.4186 115.573C60.1466 115.573 59.9093 115.636 59.7066 115.761C59.504 115.886 59.336 116.058 59.2026 116.277C59.0693 116.496 58.9693 116.746 58.9026 117.029C58.836 117.309 58.8026 117.605 58.8026 117.917C58.8026 118.338 58.864 118.728 58.9866 119.085C59.1093 119.44 59.2906 119.725 59.5306 119.941C59.7706 120.154 60.0666 120.261 60.4186 120.261Z" fill="#161A41" fill-opacity="0.33"/>
<path d="M56.065 101.829C55.7236 101.829 55.4236 101.754 55.165 101.605C54.9063 101.453 54.7036 101.25 54.557 100.997C54.413 100.743 54.341 100.463 54.341 100.157H54.901C54.901 100.359 54.9476 100.546 55.041 100.717C55.137 100.885 55.2716 101.019 55.445 101.121C55.6183 101.219 55.825 101.269 56.065 101.269C56.2676 101.269 56.457 101.219 56.633 101.121C56.8116 101.019 56.9556 100.885 57.065 100.717C57.177 100.546 57.233 100.359 57.233 100.157C57.233 99.9033 57.169 99.6926 57.041 99.5246C56.913 99.3539 56.737 99.2273 56.513 99.1446C56.289 99.0593 56.033 99.0166 55.745 99.0166V98.5526C56.1423 98.5526 56.461 98.4686 56.701 98.3006C56.9436 98.1299 57.065 97.8806 57.065 97.5526C57.065 97.3739 57.0156 97.2113 56.917 97.0646C56.821 96.9179 56.6943 96.8006 56.537 96.7126C56.3823 96.6219 56.2156 96.5766 56.037 96.5766C55.8583 96.5766 55.6863 96.6219 55.521 96.7126C55.3583 96.8006 55.225 96.9179 55.121 97.0646C55.0196 97.2113 54.969 97.3739 54.969 97.5526H54.409C54.409 97.3419 54.453 97.1446 54.541 96.9606C54.629 96.7739 54.749 96.6099 54.901 96.4686C55.053 96.3273 55.2263 96.2166 55.421 96.1366C55.6156 96.0566 55.8196 96.0166 56.033 96.0166C56.313 96.0166 56.573 96.0859 56.813 96.2246C57.0556 96.3633 57.2516 96.5486 57.401 96.7806C57.5503 97.0126 57.625 97.2699 57.625 97.5526C57.625 97.8273 57.5543 98.0753 57.413 98.2966C57.2716 98.5179 57.081 98.6739 56.841 98.7646C57.049 98.8339 57.2236 98.9393 57.365 99.0806C57.5063 99.2193 57.613 99.3806 57.685 99.5646C57.757 99.7486 57.793 99.9459 57.793 100.157C57.793 100.463 57.713 100.743 57.553 100.997C57.393 101.25 57.181 101.453 56.917 101.605C56.6556 101.754 56.3716 101.829 56.065 101.829ZM60.4186 101.829C60.0826 101.829 59.7826 101.754 59.5186 101.605C59.2546 101.453 59.0293 101.243 58.8426 100.977C58.656 100.71 58.5133 100.402 58.4146 100.053C58.3186 99.7006 58.2706 99.3246 58.2706 98.9246C58.2706 98.5246 58.3186 98.1486 58.4146 97.7966C58.5133 97.4446 58.656 97.1366 58.8426 96.8726C59.0293 96.6059 59.2546 96.3979 59.5186 96.2486C59.7826 96.0966 60.0826 96.0206 60.4186 96.0206C60.752 96.0206 61.0506 96.0966 61.3146 96.2486C61.5786 96.3979 61.8026 96.6059 61.9866 96.8726C62.1706 97.1366 62.3106 97.4446 62.4066 97.7966C62.5053 98.1486 62.5546 98.5246 62.5546 98.9246C62.5546 99.3246 62.5053 99.7006 62.4066 100.053C62.3106 100.402 62.1706 100.71 61.9866 100.977C61.8026 101.243 61.5786 101.453 61.3146 101.605C61.0506 101.754 60.752 101.829 60.4186 101.829ZM60.4186 101.269C60.7706 101.269 61.0653 101.161 61.3026 100.945C61.5426 100.729 61.7226 100.443 61.8426 100.089C61.9626 99.7313 62.0226 99.3433 62.0226 98.9246C62.0226 98.4819 61.96 98.0846 61.8346 97.7326C61.712 97.3779 61.5306 97.0979 61.2906 96.8926C61.0533 96.6846 60.7626 96.5806 60.4186 96.5806C60.1466 96.5806 59.9093 96.6433 59.7066 96.7686C59.504 96.8939 59.336 97.0659 59.2026 97.2846C59.0693 97.5033 58.9693 97.7539 58.9026 98.0366C58.836 98.3166 58.8026 98.6126 58.8026 98.9246C58.8026 99.3459 58.864 99.7353 58.9866 100.093C59.1093 100.447 59.2906 100.733 59.5306 100.949C59.7706 101.162 60.0666 101.269 60.4186 101.269Z" fill="#161A41" fill-opacity="0.33"/>
<path d="M56.6416 82.7318V81.1598H54.2256V80.5918L56.4976 77.1318H57.2016V80.5998H57.7896V81.1598H57.2016V82.7318H56.6416ZM54.8896 80.5918L56.6416 80.5998L56.6296 77.9318L54.8896 80.5918ZM60.4186 82.8358C60.0826 82.8358 59.7826 82.7611 59.5186 82.6118C59.2546 82.4598 59.0293 82.2505 58.8426 81.9838C58.656 81.7171 58.5133 81.4091 58.4146 81.0598C58.3186 80.7078 58.2706 80.3318 58.2706 79.9318C58.2706 79.5318 58.3186 79.1558 58.4146 78.8038C58.5133 78.4518 58.656 78.1438 58.8426 77.8798C59.0293 77.6131 59.2546 77.4051 59.5186 77.2558C59.7826 77.1038 60.0826 77.0278 60.4186 77.0278C60.752 77.0278 61.0506 77.1038 61.3146 77.2558C61.5786 77.4051 61.8026 77.6131 61.9866 77.8798C62.1706 78.1438 62.3106 78.4518 62.4066 78.8038C62.5053 79.1558 62.5546 79.5318 62.5546 79.9318C62.5546 80.3318 62.5053 80.7078 62.4066 81.0598C62.3106 81.4091 62.1706 81.7171 61.9866 81.9838C61.8026 82.2505 61.5786 82.4598 61.3146 82.6118C61.0506 82.7611 60.752 82.8358 60.4186 82.8358ZM60.4186 82.2758C60.7706 82.2758 61.0653 82.1678 61.3026 81.9518C61.5426 81.7358 61.7226 81.4505 61.8426 81.0958C61.9626 80.7385 62.0226 80.3505 62.0226 79.9318C62.0226 79.4891 61.96 79.0918 61.8346 78.7398C61.712 78.3851 61.5306 78.1051 61.2906 77.8998C61.0533 77.6918 60.7626 77.5878 60.4186 77.5878C60.1466 77.5878 59.9093 77.6505 59.7066 77.7758C59.504 77.9011 59.336 78.0731 59.2026 78.2918C59.0693 78.5105 58.9693 78.7611 58.9026 79.0438C58.836 79.3238 58.8026 79.6198 58.8026 79.9318C58.8026 80.3531 58.864 80.7425 58.9866 81.0998C59.1093 81.4545 59.2906 81.7398 59.5306 81.9558C59.7706 82.1691 60.0666 82.2758 60.4186 82.2758Z" fill="#161A41" fill-opacity="0.33"/>
<path d="M55.9591 63.8433C55.6178 63.8433 55.3071 63.7606 55.0271 63.5953C54.7498 63.4299 54.5298 63.2086 54.3671 62.9313C54.2045 62.6513 54.1231 62.3446 54.1231 62.0113H54.6831C54.6831 62.2433 54.7405 62.4566 54.8551 62.6513C54.9698 62.8433 55.1231 62.9966 55.3151 63.1113C55.5098 63.2259 55.7245 63.2833 55.9591 63.2833C56.1911 63.2833 56.4031 63.2259 56.5951 63.1113C56.7871 62.9966 56.9405 62.8433 57.0551 62.6513C57.1725 62.4566 57.2311 62.2433 57.2311 62.0113C57.2311 61.7766 57.1751 61.5633 57.0631 61.3713C56.9538 61.1766 56.7978 61.0219 56.5951 60.9073C56.3951 60.7899 56.1565 60.7313 55.8791 60.7313H54.5191L55.0471 58.1393H57.6671V58.6993H55.4991L55.2071 60.1713L55.8591 60.1753C56.2405 60.1806 56.5751 60.2619 56.8631 60.4193C57.1538 60.5766 57.3805 60.7926 57.5431 61.0673C57.7085 61.3393 57.7911 61.6539 57.7911 62.0113C57.7911 62.2619 57.7431 62.4979 57.6471 62.7193C57.5538 62.9406 57.4218 63.1366 57.2511 63.3073C57.0831 63.4753 56.8885 63.6073 56.6671 63.7033C56.4485 63.7966 56.2125 63.8433 55.9591 63.8433ZM60.4186 63.8433C60.0826 63.8433 59.7826 63.7686 59.5186 63.6193C59.2546 63.4673 59.0293 63.2579 58.8426 62.9913C58.656 62.7246 58.5133 62.4166 58.4146 62.0673C58.3186 61.7153 58.2706 61.3393 58.2706 60.9393C58.2706 60.5393 58.3186 60.1633 58.4146 59.8113C58.5133 59.4593 58.656 59.1513 58.8426 58.8873C59.0293 58.6206 59.2546 58.4126 59.5186 58.2633C59.7826 58.1113 60.0826 58.0353 60.4186 58.0353C60.752 58.0353 61.0506 58.1113 61.3146 58.2633C61.5786 58.4126 61.8026 58.6206 61.9866 58.8873C62.1706 59.1513 62.3106 59.4593 62.4066 59.8113C62.5053 60.1633 62.5546 60.5393 62.5546 60.9393C62.5546 61.3393 62.5053 61.7153 62.4066 62.0673C62.3106 62.4166 62.1706 62.7246 61.9866 62.9913C61.8026 63.2579 61.5786 63.4673 61.3146 63.6193C61.0506 63.7686 60.752 63.8433 60.4186 63.8433ZM60.4186 63.2833C60.7706 63.2833 61.0653 63.1753 61.3026 62.9593C61.5426 62.7433 61.7226 62.4579 61.8426 62.1033C61.9626 61.7459 62.0226 61.3579 62.0226 60.9393C62.0226 60.4966 61.96 60.0993 61.8346 59.7473C61.712 59.3926 61.5306 59.1126 61.2906 58.9073C61.0533 58.6993 60.7626 58.5953 60.4186 58.5953C60.1466 58.5953 59.9093 58.6579 59.7066 58.7833C59.504 58.9086 59.336 59.0806 59.2026 59.2993C59.0693 59.5179 58.9693 59.7686 58.9026 60.0513C58.836 60.3313 58.8026 60.6273 58.8026 60.9393C58.8026 61.3606 58.864 61.7499 58.9866 62.1073C59.1093 62.4619 59.2906 62.7473 59.5306 62.9633C59.7706 63.1766 60.0666 63.2833 60.4186 63.2833Z" fill="#161A41" fill-opacity="0.33"/>
<path d="M55.854 44.8507C55.502 44.8507 55.1793 44.764 54.886 44.5907C54.5953 44.4147 54.362 44.18 54.186 43.8867C54.0126 43.5934 53.926 43.2694 53.926 42.9147C53.926 42.7094 53.95 42.5347 53.998 42.3907C54.046 42.244 54.1166 42.0814 54.21 41.9027L55.798 39.1467H56.45L55.286 41.1627C55.5206 41.072 55.7566 41.032 55.994 41.0427C56.2313 41.0507 56.458 41.1027 56.674 41.1987C56.89 41.2947 57.082 41.4267 57.25 41.5947C57.418 41.76 57.55 41.9547 57.646 42.1787C57.7446 42.4027 57.794 42.648 57.794 42.9147C57.794 43.1814 57.7433 43.432 57.642 43.6667C57.5406 43.8987 57.4006 44.104 57.222 44.2827C57.046 44.4587 56.8406 44.5974 56.606 44.6987C56.3713 44.8 56.1206 44.8507 55.854 44.8507ZM55.854 44.2907C56.1206 44.2907 56.358 44.2267 56.566 44.0987C56.774 43.968 56.9366 43.7974 57.054 43.5867C57.174 43.376 57.234 43.1507 57.234 42.9107C57.234 42.66 57.1726 42.432 57.05 42.2267C56.9273 42.0187 56.762 41.8534 56.554 41.7307C56.346 41.6054 56.1153 41.5427 55.862 41.5427C55.6006 41.5427 55.366 41.6067 55.158 41.7347C54.95 41.8627 54.786 42.0307 54.666 42.2387C54.546 42.444 54.486 42.668 54.486 42.9107C54.486 43.172 54.5486 43.4067 54.674 43.6147C54.802 43.8227 54.97 43.988 55.178 44.1107C55.386 44.2307 55.6113 44.2907 55.854 44.2907ZM60.4186 44.8507C60.0826 44.8507 59.7826 44.776 59.5186 44.6267C59.2546 44.4747 59.0293 44.2654 58.8426 43.9987C58.656 43.732 58.5133 43.424 58.4146 43.0747C58.3186 42.7227 58.2706 42.3467 58.2706 41.9467C58.2706 41.5467 58.3186 41.1707 58.4146 40.8187C58.5133 40.4667 58.656 40.1587 58.8426 39.8947C59.0293 39.628 59.2546 39.42 59.5186 39.2707C59.7826 39.1187 60.0826 39.0427 60.4186 39.0427C60.752 39.0427 61.0506 39.1187 61.3146 39.2707C61.5786 39.42 61.8026 39.628 61.9866 39.8947C62.1706 40.1587 62.3106 40.4667 62.4066 40.8187C62.5053 41.1707 62.5546 41.5467 62.5546 41.9467C62.5546 42.3467 62.5053 42.7227 62.4066 43.0747C62.3106 43.424 62.1706 43.732 61.9866 43.9987C61.8026 44.2654 61.5786 44.4747 61.3146 44.6267C61.0506 44.776 60.752 44.8507 60.4186 44.8507ZM60.4186 44.2907C60.7706 44.2907 61.0653 44.1827 61.3026 43.9667C61.5426 43.7507 61.7226 43.4654 61.8426 43.1107C61.9626 42.7534 62.0226 42.3654 62.0226 41.9467C62.0226 41.504 61.96 41.1067 61.8346 40.7547C61.712 40.4 61.5306 40.12 61.2906 39.9147C61.0533 39.7067 60.7626 39.6027 60.4186 39.6027C60.1466 39.6027 59.9093 39.6654 59.7066 39.7907C59.504 39.916 59.336 40.088 59.2026 40.3067C59.0693 40.5254 58.9693 40.776 58.9026 41.0587C58.836 41.3387 58.8026 41.6347 58.8026 41.9467C58.8026 42.368 58.864 42.7574 58.9866 43.1147C59.1093 43.4694 59.2906 43.7547 59.5306 43.9707C59.7706 44.184 60.0666 44.2907 60.4186 44.2907Z" fill="#161A41" fill-opacity="0.33"/>
<path d="M89.2023 166.193C88.9036 166.193 88.6143 166.146 88.3343 166.053C88.057 165.959 87.8143 165.826 87.6063 165.653C87.3983 165.479 87.2516 165.273 87.1663 165.033L87.6903 164.837C87.749 165.002 87.8556 165.145 88.0103 165.265C88.1676 165.382 88.3503 165.473 88.5583 165.537C88.769 165.601 88.9836 165.633 89.2023 165.633C89.4583 165.633 89.697 165.59 89.9183 165.505C90.1396 165.419 90.3183 165.301 90.4543 165.149C90.5903 164.994 90.6583 164.813 90.6583 164.605C90.6583 164.394 90.5876 164.221 90.4463 164.085C90.305 163.949 90.1223 163.842 89.8983 163.765C89.677 163.685 89.445 163.623 89.2023 163.581C88.821 163.514 88.4783 163.423 88.1743 163.309C87.873 163.194 87.6343 163.033 87.4583 162.825C87.2823 162.614 87.1943 162.337 87.1943 161.993C87.1943 161.67 87.2876 161.39 87.4743 161.153C87.661 160.915 87.9063 160.731 88.2103 160.601C88.517 160.47 88.8476 160.405 89.2023 160.405C89.493 160.405 89.777 160.45 90.0543 160.541C90.3316 160.631 90.5756 160.763 90.7863 160.937C90.9996 161.11 91.153 161.322 91.2463 161.573L90.7143 161.765C90.6556 161.597 90.5476 161.454 90.3903 161.337C90.2356 161.217 90.0543 161.126 89.8463 161.065C89.6383 161.001 89.4236 160.969 89.2023 160.969C88.949 160.966 88.7116 161.009 88.4903 161.097C88.2716 161.182 88.0943 161.302 87.9583 161.457C87.8223 161.609 87.7543 161.787 87.7543 161.993C87.7543 162.233 87.817 162.418 87.9423 162.549C88.0703 162.677 88.2436 162.773 88.4623 162.837C88.681 162.901 88.9276 162.958 89.2023 163.009C89.5596 163.07 89.8916 163.166 90.1983 163.297C90.505 163.425 90.7516 163.597 90.9383 163.813C91.125 164.026 91.2183 164.29 91.2183 164.605C91.2183 164.925 91.125 165.205 90.9383 165.445C90.7516 165.682 90.505 165.866 90.1983 165.997C89.8943 166.127 89.5623 166.193 89.2023 166.193ZM91.9301 164.557V162.089H92.4901V164.445C92.4901 164.663 92.5434 164.862 92.6501 165.041C92.7567 165.219 92.8994 165.362 93.0781 165.469C93.2594 165.575 93.4581 165.629 93.6741 165.629C93.8927 165.629 94.0901 165.575 94.2661 165.469C94.4447 165.362 94.5874 165.219 94.6941 165.041C94.8007 164.862 94.8541 164.663 94.8541 164.445V162.089H95.4141L95.4181 166.089H94.8581L94.8541 165.529C94.7127 165.731 94.5287 165.893 94.3021 166.013C94.0781 166.133 93.8327 166.193 93.5661 166.193C93.2647 166.193 92.9901 166.119 92.7421 165.973C92.4941 165.826 92.2967 165.629 92.1501 165.381C92.0034 165.133 91.9301 164.858 91.9301 164.557ZM99.7031 163.613V166.089H99.1431V163.725C99.1431 163.506 99.0897 163.307 98.9831 163.129C98.8764 162.95 98.7337 162.807 98.5551 162.701C98.3764 162.594 98.1777 162.541 97.9591 162.541C97.7431 162.541 97.5444 162.594 97.3631 162.701C97.1844 162.807 97.0417 162.95 96.9351 163.129C96.8284 163.307 96.7751 163.506 96.7751 163.725V166.089H96.2151V162.089H96.7751V162.641C96.9164 162.438 97.1004 162.277 97.3271 162.157C97.5537 162.037 97.8004 161.977 98.0671 161.977C98.3684 161.977 98.6431 162.05 98.8911 162.197C99.1391 162.343 99.3364 162.541 99.4831 162.789C99.6297 163.037 99.7031 163.311 99.7031 163.613Z" fill="#161A41" fill-opacity="0.35"/>
<path d="M117.787 166.089L118.871 160.489H119.279L120.847 164.609L122.407 160.489H122.815L123.903 166.089H123.331L122.503 161.805L121.023 165.721H120.663L119.183 161.805L118.355 166.089H117.787ZM126.305 166.193C125.937 166.193 125.601 166.098 125.297 165.909C124.996 165.719 124.754 165.466 124.573 165.149C124.394 164.829 124.305 164.475 124.305 164.089C124.305 163.795 124.357 163.522 124.461 163.269C124.565 163.013 124.708 162.789 124.889 162.597C125.073 162.402 125.286 162.25 125.529 162.141C125.772 162.031 126.03 161.977 126.305 161.977C126.673 161.977 127.008 162.071 127.309 162.261C127.613 162.45 127.854 162.705 128.033 163.025C128.214 163.345 128.305 163.699 128.305 164.089C128.305 164.379 128.253 164.651 128.149 164.905C128.045 165.158 127.901 165.382 127.717 165.577C127.536 165.769 127.324 165.919 127.081 166.029C126.841 166.138 126.582 166.193 126.305 166.193ZM126.305 165.633C126.577 165.633 126.821 165.562 127.037 165.421C127.256 165.277 127.428 165.087 127.553 164.853C127.681 164.618 127.745 164.363 127.745 164.089C127.745 163.809 127.681 163.551 127.553 163.317C127.425 163.079 127.252 162.89 127.033 162.749C126.817 162.607 126.574 162.537 126.305 162.537C126.033 162.537 125.788 162.609 125.569 162.753C125.353 162.894 125.181 163.082 125.053 163.317C124.928 163.551 124.865 163.809 124.865 164.089C124.865 164.377 124.93 164.638 125.061 164.873C125.192 165.105 125.366 165.29 125.585 165.429C125.804 165.565 126.044 165.633 126.305 165.633ZM132.471 163.613V166.089H131.911V163.725C131.911 163.506 131.857 163.307 131.751 163.129C131.644 162.95 131.501 162.807 131.323 162.701C131.144 162.594 130.945 162.541 130.727 162.541C130.511 162.541 130.312 162.594 130.131 162.701C129.952 162.807 129.809 162.95 129.703 163.129C129.596 163.307 129.543 163.506 129.543 163.725V166.089H128.983V162.089H129.543V162.641C129.684 162.438 129.868 162.277 130.095 162.157C130.321 162.037 130.568 161.977 130.835 161.977C131.136 161.977 131.411 162.05 131.659 162.197C131.907 162.343 132.104 162.541 132.251 162.789C132.397 163.037 132.471 163.311 132.471 163.613Z" fill="#161A41" fill-opacity="0.35"/>
<path d="M154.904 160.489V161.049H152.984V166.089H152.424V161.049H150.508V160.489H154.904ZM154.977 164.557V162.089H155.537V164.445C155.537 164.663 155.591 164.862 155.697 165.041C155.804 165.219 155.947 165.362 156.125 165.469C156.307 165.575 156.505 165.629 156.721 165.629C156.94 165.629 157.137 165.575 157.313 165.469C157.492 165.362 157.635 165.219 157.741 165.041C157.848 164.862 157.901 164.663 157.901 164.445V162.089H158.461L158.465 166.089H157.905L157.901 165.529C157.76 165.731 157.576 165.893 157.349 166.013C157.125 166.133 156.88 166.193 156.613 166.193C156.312 166.193 156.037 166.119 155.789 165.973C155.541 165.826 155.344 165.629 155.197 165.381C155.051 165.133 154.977 164.858 154.977 164.557ZM160.991 166.193C160.623 166.193 160.287 166.098 159.983 165.909C159.682 165.719 159.44 165.466 159.259 165.149C159.08 164.829 158.991 164.475 158.991 164.089C158.991 163.795 159.043 163.522 159.147 163.269C159.251 163.013 159.394 162.789 159.575 162.597C159.759 162.402 159.972 162.25 160.215 162.141C160.458 162.031 160.716 161.977 160.991 161.977C161.287 161.977 161.559 162.035 161.807 162.153C162.058 162.27 162.272 162.434 162.451 162.645C162.632 162.855 162.768 163.102 162.859 163.385C162.952 163.667 162.991 163.973 162.975 164.301H159.583C159.615 164.554 159.695 164.781 159.823 164.981C159.954 165.181 160.119 165.339 160.319 165.457C160.522 165.571 160.746 165.63 160.991 165.633C161.258 165.633 161.498 165.563 161.711 165.425C161.927 165.286 162.1 165.095 162.231 164.853L162.799 164.985C162.639 165.339 162.398 165.63 162.075 165.857C161.752 166.081 161.391 166.193 160.991 166.193ZM159.567 163.849H162.411C162.392 163.601 162.316 163.374 162.183 163.169C162.052 162.961 161.883 162.795 161.675 162.673C161.467 162.547 161.239 162.485 160.991 162.485C160.743 162.485 160.516 162.546 160.311 162.669C160.106 162.789 159.938 162.953 159.807 163.161C159.676 163.366 159.596 163.595 159.567 163.849Z" fill="#161A41" fill-opacity="0.35"/>
<path d="M182.197 166.089L180.765 160.489H181.341L182.525 165.125L183.705 160.489H184.201L185.385 165.125L186.565 160.489H187.141L185.717 166.089H185.053L183.953 161.789L182.853 166.089H182.197ZM189.177 166.193C188.809 166.193 188.473 166.098 188.169 165.909C187.867 165.719 187.626 165.466 187.445 165.149C187.266 164.829 187.177 164.475 187.177 164.089C187.177 163.795 187.229 163.522 187.333 163.269C187.437 163.013 187.579 162.789 187.761 162.597C187.945 162.402 188.158 162.25 188.401 162.141C188.643 162.031 188.902 161.977 189.177 161.977C189.473 161.977 189.745 162.035 189.993 162.153C190.243 162.27 190.458 162.434 190.637 162.645C190.818 162.855 190.954 163.102 191.045 163.385C191.138 163.667 191.177 163.973 191.161 164.301H187.769C187.801 164.554 187.881 164.781 188.009 164.981C188.139 165.181 188.305 165.339 188.505 165.457C188.707 165.571 188.931 165.63 189.177 165.633C189.443 165.633 189.683 165.563 189.897 165.425C190.113 165.286 190.286 165.095 190.417 164.853L190.985 164.985C190.825 165.339 190.583 165.63 190.261 165.857C189.938 166.081 189.577 166.193 189.177 166.193ZM187.753 163.849H190.597C190.578 163.601 190.502 163.374 190.369 163.169C190.238 162.961 190.069 162.795 189.861 162.673C189.653 162.547 189.425 162.485 189.177 162.485C188.929 162.485 188.702 162.546 188.497 162.669C188.291 162.789 188.123 162.953 187.993 163.161C187.862 163.366 187.782 163.595 187.753 163.849ZM195.099 160.089H195.659V166.089H195.099V165.341C194.961 165.597 194.77 165.803 194.527 165.961C194.287 166.115 194.002 166.193 193.671 166.193C193.381 166.193 193.109 166.138 192.855 166.029C192.602 165.919 192.378 165.769 192.183 165.577C191.991 165.382 191.841 165.158 191.731 164.905C191.622 164.651 191.567 164.379 191.567 164.089C191.567 163.798 191.622 163.526 191.731 163.273C191.841 163.017 191.991 162.793 192.183 162.601C192.378 162.406 192.602 162.254 192.855 162.145C193.109 162.035 193.381 161.981 193.671 161.981C194.002 161.981 194.287 162.059 194.527 162.217C194.77 162.371 194.961 162.575 195.099 162.829V160.089ZM193.675 165.649C193.961 165.649 194.206 165.579 194.411 165.441C194.617 165.299 194.774 165.11 194.883 164.873C194.995 164.635 195.051 164.374 195.051 164.089C195.051 163.795 194.995 163.531 194.883 163.297C194.771 163.059 194.613 162.871 194.407 162.733C194.202 162.594 193.958 162.525 193.675 162.525C193.393 162.525 193.135 162.595 192.903 162.737C192.671 162.875 192.486 163.063 192.347 163.301C192.209 163.538 192.139 163.801 192.139 164.089C192.139 164.379 192.21 164.643 192.351 164.881C192.493 165.115 192.679 165.302 192.911 165.441C193.146 165.579 193.401 165.649 193.675 165.649Z" fill="#161A41" fill-opacity="0.35"/>
<path d="M218.002 160.489V161.049H216.082V166.089H215.522V161.049H213.606V160.489H218.002ZM222.293 163.613V166.089H221.733V163.725C221.733 163.506 221.68 163.307 221.573 163.129C221.467 162.95 221.324 162.807 221.145 162.701C220.967 162.594 220.768 162.541 220.549 162.541C220.333 162.541 220.135 162.594 219.953 162.701C219.775 162.807 219.632 162.95 219.525 163.129C219.419 163.307 219.365 163.506 219.365 163.725V166.089H218.805V160.089H219.365V162.641C219.507 162.438 219.691 162.277 219.917 162.157C220.144 162.037 220.391 161.977 220.657 161.977C220.959 161.977 221.233 162.05 221.481 162.197C221.729 162.343 221.927 162.541 222.073 162.789C222.22 163.037 222.293 163.311 222.293 163.613ZM222.934 164.557V162.089H223.494V164.445C223.494 164.663 223.548 164.862 223.654 165.041C223.761 165.219 223.904 165.362 224.082 165.469C224.264 165.575 224.462 165.629 224.678 165.629C224.897 165.629 225.094 165.575 225.27 165.469C225.449 165.362 225.592 165.219 225.698 165.041C225.805 164.862 225.858 164.663 225.858 164.445V162.089H226.418L226.422 166.089H225.862L225.858 165.529C225.717 165.731 225.533 165.893 225.306 166.013C225.082 166.133 224.837 166.193 224.57 166.193C224.269 166.193 223.994 166.119 223.746 165.973C223.498 165.826 223.301 165.629 223.154 165.381C223.008 165.133 222.934 164.858 222.934 164.557Z" fill="#161A41" fill-opacity="0.35"/>
<path d="M248.139 166.089V160.489H251.415V161.049H248.699V162.809H251.031V163.369H248.699V166.089H248.139ZM251.827 166.089V162.089H252.387V162.641C252.528 162.438 252.712 162.277 252.939 162.157C253.166 162.037 253.412 161.977 253.679 161.977C253.834 161.977 253.983 161.997 254.127 162.037L253.899 162.593C253.787 162.558 253.678 162.541 253.571 162.541C253.355 162.541 253.156 162.594 252.975 162.701C252.796 162.807 252.654 162.95 252.547 163.129C252.44 163.307 252.387 163.506 252.387 163.725V166.089H251.827ZM254.632 162.089H255.192V166.089H254.632V162.089ZM254.916 161.389C254.825 161.389 254.748 161.359 254.684 161.301C254.622 161.239 254.592 161.163 254.592 161.073C254.592 160.982 254.622 160.907 254.684 160.849C254.748 160.787 254.825 160.757 254.916 160.757C255.004 160.757 255.078 160.787 255.14 160.849C255.204 160.907 255.236 160.982 255.236 161.073C255.236 161.163 255.205 161.239 255.144 161.301C255.082 161.359 255.006 161.389 254.916 161.389Z" fill="#161A41" fill-opacity="0.35"/>
<path d="M279.641 166.193C279.342 166.193 279.053 166.146 278.773 166.053C278.495 165.959 278.253 165.826 278.045 165.653C277.837 165.479 277.69 165.273 277.605 165.033L278.129 164.837C278.187 165.002 278.294 165.145 278.449 165.265C278.606 165.382 278.789 165.473 278.997 165.537C279.207 165.601 279.422 165.633 279.641 165.633C279.897 165.633 280.135 165.59 280.357 165.505C280.578 165.419 280.757 165.301 280.893 165.149C281.029 164.994 281.097 164.813 281.097 164.605C281.097 164.394 281.026 164.221 280.885 164.085C280.743 163.949 280.561 163.842 280.337 163.765C280.115 163.685 279.883 163.623 279.641 163.581C279.259 163.514 278.917 163.423 278.613 163.309C278.311 163.194 278.073 163.033 277.897 162.825C277.721 162.614 277.633 162.337 277.633 161.993C277.633 161.67 277.726 161.39 277.913 161.153C278.099 160.915 278.345 160.731 278.649 160.601C278.955 160.47 279.286 160.405 279.641 160.405C279.931 160.405 280.215 160.45 280.493 160.541C280.77 160.631 281.014 160.763 281.225 160.937C281.438 161.11 281.591 161.322 281.685 161.573L281.153 161.765C281.094 161.597 280.986 161.454 280.829 161.337C280.674 161.217 280.493 161.126 280.285 161.065C280.077 161.001 279.862 160.969 279.641 160.969C279.387 160.966 279.15 161.009 278.929 161.097C278.71 161.182 278.533 161.302 278.397 161.457C278.261 161.609 278.193 161.787 278.193 161.993C278.193 162.233 278.255 162.418 278.381 162.549C278.509 162.677 278.682 162.773 278.901 162.837C279.119 162.901 279.366 162.958 279.641 163.009C279.998 163.07 280.33 163.166 280.637 163.297C280.943 163.425 281.19 163.597 281.377 163.813C281.563 164.026 281.657 164.29 281.657 164.605C281.657 164.925 281.563 165.205 281.377 165.445C281.19 165.682 280.943 165.866 280.637 165.997C280.333 166.127 280.001 166.193 279.641 166.193ZM285.801 162.089H286.361V166.089H285.801L285.781 165.345C285.65 165.598 285.467 165.803 285.233 165.961C284.998 166.115 284.718 166.193 284.393 166.193C284.099 166.193 283.825 166.138 283.569 166.029C283.313 165.917 283.087 165.763 282.893 165.569C282.698 165.374 282.546 165.149 282.437 164.893C282.327 164.637 282.273 164.362 282.273 164.069C282.273 163.781 282.326 163.51 282.433 163.257C282.542 163.003 282.691 162.781 282.881 162.589C283.073 162.397 283.294 162.247 283.545 162.141C283.798 162.031 284.069 161.977 284.357 161.977C284.69 161.977 284.981 162.057 285.229 162.217C285.477 162.374 285.674 162.581 285.821 162.837L285.801 162.089ZM284.381 165.649C284.666 165.649 284.911 165.579 285.117 165.441C285.322 165.299 285.479 165.11 285.589 164.873C285.701 164.635 285.757 164.374 285.757 164.089C285.757 163.795 285.701 163.531 285.589 163.297C285.477 163.059 285.318 162.871 285.113 162.733C284.907 162.594 284.663 162.525 284.381 162.525C284.098 162.525 283.839 162.595 283.605 162.737C283.373 162.875 283.187 163.063 283.049 163.301C282.913 163.538 282.845 163.801 282.845 164.089C282.845 164.379 282.915 164.643 283.057 164.881C283.198 165.115 283.385 165.302 283.617 165.441C283.851 165.579 284.106 165.649 284.381 165.649ZM289.205 162.649H288.249L288.245 166.089H287.685L287.689 162.649H286.965V162.089H287.689L287.685 160.833H288.245L288.249 162.089H289.205V162.649Z" fill="#161A41" fill-opacity="0.35"/>
<defs>
<filter id="filter0_d_4904_24451" x="0" y="0.233643" width="363" height="280.32" filterUnits="userSpaceOnUse" color-interpolation-filters="sRGB">
<feFlood flood-opacity="0" result="BackgroundImageFix"/>
<feColorMatrix in="SourceAlpha" type="matrix" values="0 0 0 0 0 0 0 0 0 0 0 0 0 0 0 0 0 0 127 0" result="hardAlpha"/>
<feOffset dy="64"/>
<feGaussianBlur stdDeviation="19"/>
<feComposite in2="hardAlpha" operator="out"/>
<feColorMatrix type="matrix" values="0 0 0 0 0 0 0 0 0 0 0 0 0 0 0 0 0 0 0.06 0"/>
<feBlend mode="normal" in2="BackgroundImageFix" result="effect1_dropShadow_4904_24451"/>
<feBlend mode="normal" in="SourceGraphic" in2="effect1_dropShadow_4904_24451" result="shape"/>
</filter>
<filter id="filter1_d_4904_24451" x="199.095" y="47.7153" width="99.5129" height="97.4927" filterUnits="userSpaceOnUse" color-interpolation-filters="sRGB">
<feFlood flood-opacity="0" result="BackgroundImageFix"/>
<feColorMatrix in="SourceAlpha" type="matrix" values="0 0 0 0 0 0 0 0 0 0 0 0 0 0 0 0 0 0 127 0" result="hardAlpha"/>
<feOffset dy="48"/>
<feGaussianBlur stdDeviation="15.25"/>
<feComposite in2="hardAlpha" operator="out"/>
<feColorMatrix type="matrix" values="0 0 0 0 0 0 0 0 0 0 0 0 0 0 0 0 0 0 0.03 0"/>
<feBlend mode="normal" in2="BackgroundImageFix" result="effect1_dropShadow_4904_24451"/>
<feBlend mode="normal" in="SourceGraphic" in2="effect1_dropShadow_4904_24451" result="shape"/>
</filter>
</defs>
</svg>
