<svg width="24" height="25" viewBox="0 0 24 25" fill="none" xmlns="http://www.w3.org/2000/svg">
<rect y="0.5" width="24" height="24" rx="12" fill="#1D9B5E"/>
<path fill-rule="evenodd" clip-rule="evenodd" d="M8.67257 10.4396C8.52285 10.2075 8.58955 9.8981 8.82157 9.74836L12.7825 7.19228C13.0145 7.04255 13.3239 7.10925 13.4737 7.34128L16.0298 11.3022C16.1795 11.5342 16.1128 11.8436 15.8808 11.9934C15.6487 12.1431 15.3393 12.0764 15.1896 11.8444L13.288 8.89776L12.1375 14.2347C12.0373 14.6996 12.0282 15.4387 12.3197 16.1063C12.5986 16.7451 13.1661 17.3548 14.3102 17.6015C14.5802 17.6597 14.7518 17.9257 14.6936 18.1956C14.6354 18.4655 14.3694 18.6372 14.0995 18.579C12.6368 18.2637 11.8092 17.4361 11.4032 16.5065C11.0099 15.6057 11.0261 14.6453 11.16 14.024L12.3104 8.68704L9.3638 10.5886C9.13178 10.7383 8.8223 10.6716 8.67257 10.4396Z" fill="white"/>
</svg>
