<svg width="44" height="45" viewBox="0 0 44 45" fill="none" xmlns="http://www.w3.org/2000/svg">
<rect y="0.106445" width="44" height="44" rx="12" fill="#F8F7F7"/>
<g clip-path="url(#clip0_4689_117069)">
<path fill-rule="evenodd" clip-rule="evenodd" d="M21.9968 12.1128C19.2819 12.1128 18.9414 12.1243 17.8752 12.173C16.8111 12.2215 16.0844 12.3905 15.4485 12.6376C14.7911 12.8931 14.2336 13.2349 13.6779 13.7906C13.1221 14.3464 12.7803 14.9039 12.5248 15.5613C12.2777 16.1972 12.1087 16.9239 12.0602 17.9879C12.0115 19.0542 12 19.3947 12 22.1097C12 24.8246 12.0115 25.165 12.0602 26.2314C12.1087 27.2954 12.2777 28.0221 12.5248 28.6579C12.7803 29.3154 13.1221 29.8729 13.6779 30.4286C14.2336 30.9844 14.7911 31.3262 15.4485 31.5817C16.0844 31.8288 16.8111 31.9978 17.8752 32.0464C18.9414 32.0949 19.2819 32.1064 21.9968 32.1064C24.7118 32.1064 25.0522 32.0949 26.1185 32.0464C27.1826 31.9978 27.9092 31.8288 28.5452 31.5817C29.2025 31.3262 29.76 30.9844 30.3158 30.4286C30.8716 29.8729 31.2134 29.3154 31.4689 28.6579C31.716 28.0221 31.885 27.2954 31.9335 26.2314C31.9822 25.165 31.9937 24.8246 31.9937 22.1097C31.9937 19.3947 31.9822 19.0542 31.9335 17.9879C31.885 16.9239 31.716 16.1972 31.4689 15.5613C31.2134 14.9039 30.8716 14.3464 30.3158 13.7906C29.76 13.2349 29.2025 12.8931 28.5452 12.6376C27.9092 12.3905 27.1826 12.2215 26.1185 12.173C25.0522 12.1243 24.7118 12.1128 21.9968 12.1128ZM18.6646 22.1097C18.6646 23.95 20.1565 25.4419 21.9968 25.4419C23.8372 25.4419 25.3292 23.95 25.3292 22.1097C25.3292 20.2693 23.8372 18.7774 21.9968 18.7774C20.1565 18.7774 18.6646 20.2693 18.6646 22.1097ZM16.8633 22.1097C16.8633 19.2745 19.1617 16.9761 21.9968 16.9761C24.832 16.9761 27.1303 19.2745 27.1303 22.1097C27.1303 24.9448 24.832 27.2431 21.9968 27.2431C19.1617 27.2431 16.8633 24.9448 16.8633 22.1097ZM27.3332 17.9729C27.9957 17.9729 28.5328 17.4358 28.5328 16.7733C28.5328 16.1108 27.9957 15.5737 27.3332 15.5737C26.6707 15.5737 26.1336 16.1108 26.1336 16.7733C26.1336 17.4358 26.6707 17.9729 27.3332 17.9729Z" fill="#0F2028"/>
</g>
<defs>
<clipPath id="clip0_4689_117069">
<rect width="20" height="20" fill="white" transform="translate(12 12.1064)"/>
</clipPath>
</defs>
</svg>
