<svg width="44" height="45" viewBox="0 0 44 45" fill="none" xmlns="http://www.w3.org/2000/svg">
<rect y="0.106445" width="44" height="44" rx="12" fill="#F8F7F7"/>
<g clip-path="url(#clip0_4689_117065)">
<path fill-rule="evenodd" clip-rule="evenodd" d="M16.5509 31.6461V18.7724H12.2725V31.646H16.5509V31.6461ZM14.4121 17.0154C15.9037 17.0154 16.8328 16.026 16.8328 14.7907C16.8046 13.5279 15.9037 12.5664 14.4401 12.5664C12.9763 12.5664 12.0195 13.5279 12.0195 14.7907C12.0195 16.0261 12.9481 17.0154 14.384 17.0154L14.4121 17.0154ZM18.9189 31.6461C18.9189 31.6461 18.975 19.9803 18.9189 18.7725H23.198V20.6394H23.1696C23.7323 19.7609 24.746 18.4702 27.054 18.4702C29.8698 18.4702 31.9804 20.3101 31.9804 24.2644V31.6461H27.702V24.7591C27.702 23.0286 27.0829 21.8477 25.5341 21.8477C24.3523 21.8477 23.648 22.6438 23.3387 23.4133C23.2256 23.6872 23.198 24.072 23.198 24.4567V31.6461H18.9189Z" fill="#0F2028"/>
</g>
<defs>
<clipPath id="clip0_4689_117065">
<rect width="20" height="20" fill="white" transform="translate(12 12.1064)"/>
</clipPath>
</defs>
</svg>
