<svg width="46" height="25" viewBox="0 0 46 25" fill="none" xmlns="http://www.w3.org/2000/svg">
<rect y="0.640747" width="24" height="24" rx="12" fill="#1D9B5E"/>
<g clip-path="url(#clip0_4902_24364)">
<path fill-rule="evenodd" clip-rule="evenodd" d="M15.5 18.6407C17.99 18.6407 20 17.6407 20 16.1407V6.64075C20 5.64075 18 4.64075 15.5 4.64075C13 4.64075 11 5.64075 11 6.64075V10.1407C12.17 10.6307 13.17 11.4507 13.88 12.4907C14.37 12.5867 14.91 12.6397 15.5 12.6397C16.81 12.6397 17.9 12.3787 18.68 11.9537C18.7907 11.8929 18.8985 11.8268 19.003 11.7557V13.1357C19.003 13.3707 18.816 13.7357 18.201 14.0717C17.605 14.3967 16.691 14.6357 15.501 14.6357C15.263 14.6357 15.0363 14.6267 14.821 14.6087C14.901 14.9374 14.9543 15.2741 14.981 15.6187C15.1497 15.6281 15.323 15.6327 15.501 15.6327C16.811 15.6327 17.901 15.3717 18.681 14.9467C18.7917 14.8859 18.8995 14.8198 19.004 14.7487V16.1287C19.004 16.3647 18.855 16.7147 18.213 17.0607C17.581 17.4007 16.633 17.6287 15.503 17.6287C15.273 17.6287 15.0503 17.6194 14.835 17.6007C14.7581 17.9331 14.6548 18.2588 14.526 18.5747C14.8407 18.6101 15.166 18.6277 15.502 18.6277L15.5 18.6407ZM18.2 11.0807C18.815 10.7447 19.002 10.3797 19.002 10.1447V8.76475C18.8987 8.83541 18.791 8.90141 18.679 8.96275C17.901 9.38775 16.809 9.64875 15.499 9.64875C14.189 9.64875 13.099 9.38775 12.319 8.96275C12.2083 8.90189 12.1005 8.83581 11.996 8.76475V10.1447C11.996 10.3797 12.183 10.7447 12.798 11.0797C13.394 11.4047 14.308 11.6437 15.498 11.6437C16.688 11.6437 17.598 11.4047 18.198 11.0797L18.2 11.0807ZM12 7.14075C12 6.85275 12.125 6.57575 12.358 6.40675C12.485 6.31475 12.623 6.22275 12.732 6.17275C13.005 6.04675 14.372 5.63975 15.502 5.63975C16.632 5.63975 17.612 5.86675 18.272 6.17275C18.396 6.22975 18.533 6.31875 18.654 6.40675C18.885 6.57375 19.004 6.84875 19.004 7.13375V7.13975C19.004 7.37475 18.817 7.73975 18.202 8.07575C17.606 8.40075 16.692 8.63975 15.502 8.63975C14.312 8.63975 13.402 8.39975 12.802 8.07575C12.187 7.74075 12 7.37475 12 7.14075Z" fill="white"/>
<path fill-rule="evenodd" clip-rule="evenodd" d="M13 16.1407C13 18.6307 10.99 20.6407 8.5 20.6407C6.01 20.6407 4 18.6307 4 16.1407C4 13.6507 6.01 11.6407 8.5 11.6407C10.99 11.6407 13 13.6507 13 16.1407ZM12 16.1407C12 18.0707 10.43 19.6407 8.5 19.6407C6.57 19.6407 5 18.0707 5 16.1407C5 14.2107 6.57 12.6407 8.5 12.6407C10.43 12.6407 12 14.2107 12 16.1407Z" fill="white"/>
</g>
<defs>
<clipPath id="clip0_4902_24364">
<rect width="16" height="16" fill="white" transform="translate(4 4.64075)"/>
</clipPath>
</defs>
</svg>
