<svg width="31" height="31" viewBox="0 0 31 31" fill="none" xmlns="http://www.w3.org/2000/svg">
<circle cx="15.5" cy="15.5" r="15.5" fill="#1D9B5E"/>
<path d="M15.9999 22.7143C16.8483 22.7124 17.5721 21.9886 17.7142 21H14.2856C14.4277 21.9886 15.1516 22.7124 15.9999 22.7143Z" fill="white"/>
<path d="M21.9442 20.5135C21.9298 20.4929 20.5 18.4154 20.5 16.6923V13.6154C20.5 11.0664 18.4853 9 16 9C13.5147 9 11.5 11.0664 11.5 13.6154V16.6923C11.5 18.4154 10.0702 20.4929 10.0558 20.5135C9.99055 20.6073 9.98184 20.7307 10.0333 20.8332C10.0847 20.9356 10.1877 21 10.3 21H21.7C21.8123 21 21.9153 20.9356 21.9667 20.8332C22.0182 20.7307 22.0095 20.6073 21.9442 20.5135Z" fill="white"/>
</svg>
