<svg width="86" height="37" viewBox="0 0 86 37" fill="none" xmlns="http://www.w3.org/2000/svg">
<path d="M18.5 0.5C28.4411 0.500003 36.5 8.55888 36.5 18.5C36.5 28.4411 28.4411 36.5 18.5 36.5C8.55888 36.5 0.5 28.4411 0.5 18.5C0.5 8.55887 8.55888 0.5 18.5 0.5Z" fill="#8A8D8E" stroke="white"/>
<path d="M43 0.499969C52.9411 0.499973 61 8.55885 61 18.5C61 28.4411 52.9411 36.5 43 36.5C33.0589 36.5 25 28.4411 25 18.5C25 8.55884 33.0589 0.499969 43 0.499969Z" fill="#8A8D8E" stroke="white"/>
<path d="M67.5 0.5C77.4411 0.500003 85.5 8.55888 85.5 18.5C85.5 28.4411 77.4411 36.5 67.5 36.5C57.5589 36.5 49.5 28.4411 49.5 18.5C49.5 8.55887 57.5589 0.5 67.5 0.5Z" fill="#1D9B5E" stroke="white"/>
</svg>
