<svg width="60" height="60" viewBox="0 0 60 60" fill="none" xmlns="http://www.w3.org/2000/svg">
<rect x="2" y="2" width="56" height="56" rx="28" fill="#1D9B5E"/>
<rect x="1.25" y="1.25" width="57.5" height="57.5" rx="28.75" stroke="#0A1519" stroke-opacity="0.08" stroke-width="1.5"/>
<path d="M30.3334 27.3332C31.5577 27.3332 32.5617 28.2761 32.659 29.4751L32.6667 29.6665V41.0001C32.6667 42.2243 31.7239 43.2283 30.5247 43.3257L30.3334 43.3334H19.0001C17.7759 43.3334 16.7718 42.3906 16.6745 41.1914L16.6667 41.0001V29.6665C16.6667 28.4423 17.6096 27.4383 18.8087 27.3409L19.0001 27.3332H30.3334ZM24.0001 29.3321L19.0001 29.3331C18.8423 29.3331 18.7101 29.4429 18.6755 29.5901L18.6667 29.6665V41.0001C18.6667 41.1578 18.7764 41.2901 18.9237 41.3246L19.0001 41.3334L24.0001 41.3321V29.3321ZM30.3334 29.3331L25.3334 29.3321V41.3321L30.3334 41.3334C30.4911 41.3334 30.6234 41.2238 30.6579 41.0765L30.6667 41.0001V29.6665C30.6667 29.5087 30.5571 29.3766 30.4098 29.3419L30.3334 29.3331ZM28.1667 38.0001C28.719 38.0001 29.1667 38.4478 29.1667 39.0001C29.1667 39.5063 28.7905 39.9247 28.3025 39.991L28.1667 40.0001H27.5001C26.9478 40.0001 26.5001 39.5523 26.5001 39.0001C26.5001 38.4938 26.8763 38.0754 27.3643 38.0091L27.5001 38.0001H28.1667ZM21.8334 38.0001C22.3857 38.0001 22.8334 38.4478 22.8334 39.0001C22.8334 39.5063 22.4572 39.9247 21.9691 39.991L21.8334 40.0001H21.1667C20.6145 40.0001 20.1667 39.5523 20.1667 39.0001C20.1667 38.4938 20.5429 38.0754 21.0311 38.0091L21.1667 38.0001H21.8334ZM40.3334 16.6667C41.9213 16.6667 43.2209 17.9003 43.3265 19.4613L43.3334 19.6667V31.6667C43.3334 33.2546 42.0998 34.5542 40.5387 34.6598L40.3334 34.6667H36.6721V37.3334H38.3334C38.8857 37.3334 39.3334 37.7811 39.3334 38.3334C39.3334 38.8397 38.9571 39.2581 38.4691 39.3243L38.3334 39.3334H34.0001V37.3334H34.6721V34.6667H34.0001V32.6667H40.3334C40.8397 32.6667 41.2581 32.2905 41.3243 31.8025L41.3334 31.6667V19.6667C41.3334 19.1145 40.8857 18.6667 40.3334 18.6667H22.3334C21.8271 18.6667 21.4088 19.0429 21.3425 19.5311L21.3334 19.6667V26.0001H19.3334V19.6667C19.3334 18.0789 20.567 16.7792 22.128 16.6737L22.3334 16.6667H40.3334Z" fill="white"/>
</svg>
