<svg width="60" height="59" viewBox="0 0 60 59" fill="none" xmlns="http://www.w3.org/2000/svg">
<rect x="2" y="1.5" width="56" height="56" rx="28" fill="#1D9B5E"/>
<rect x="1.25" y="0.75" width="57.5" height="57.5" rx="28.75" stroke="#0A1519" stroke-opacity="0.08" stroke-width="1.5"/>
<path fill-rule="evenodd" clip-rule="evenodd" d="M28.5933 15.1667H31.4064C33.2298 15.1667 34.6996 15.1667 35.8556 15.3221C37.0557 15.4835 38.0661 15.8287 38.8688 16.6312C39.2666 17.0292 39.5521 17.4783 39.7585 17.9762C41.0013 18.1319 42.0446 18.4739 42.8688 19.2979C43.6713 20.1005 44.0165 21.111 44.1778 22.3111C44.3332 23.4671 44.3332 24.9369 44.3332 26.7603V32.2399C44.3332 34.0634 44.3332 35.5331 44.1778 36.6891C44.0165 37.8893 43.6713 38.8998 42.8688 39.7023C42.0446 40.5265 41.0013 40.8683 39.7585 41.0241C39.5521 41.5219 39.2666 41.971 38.8688 42.369C38.0661 43.1715 37.0557 43.5167 35.8556 43.6781C34.6996 43.8334 33.2298 43.8334 31.4064 43.8334H28.5933C26.7699 43.8334 25.3001 43.8334 24.1442 43.6781C22.944 43.5167 21.9335 43.1715 21.131 42.369C20.7331 41.971 20.4476 41.5219 20.2412 41.0241C18.9984 40.8683 17.9551 40.5265 17.131 39.7023C16.3284 38.8998 15.9832 37.8893 15.8219 36.6891C15.6665 35.5331 15.6665 34.0634 15.6665 32.2399V26.7603C15.6665 24.9369 15.6665 23.4671 15.8219 22.3111C15.9832 21.111 16.3284 20.1005 17.131 19.2979C17.9551 18.4739 18.9984 18.1319 20.2411 17.9762C20.4475 17.4783 20.733 17.0292 21.131 16.6312C21.9335 15.8287 22.944 15.4835 24.1442 15.3221C25.3001 15.1667 26.7699 15.1667 28.5933 15.1667ZM19.7711 20.0874C19.1876 20.228 18.8238 20.4335 18.5452 20.7122C18.1762 21.0812 17.9356 21.5993 17.804 22.5776C17.6686 23.5848 17.6665 24.9196 17.6665 26.8335V32.1669C17.6665 34.0807 17.6686 35.4155 17.804 36.4226C17.9356 37.401 18.1762 37.9191 18.5452 38.2881C18.8239 38.5667 19.1876 38.7723 19.7711 38.9129C19.6665 37.8313 19.6665 36.5047 19.6665 34.9066V24.0936C19.6665 22.4954 19.6665 21.169 19.7711 20.0874ZM40.2286 38.9129C40.8121 38.7723 41.1758 38.5667 41.4545 38.2881C41.8236 37.9191 42.0641 37.401 42.1957 36.4226C42.331 35.4155 42.3332 34.0807 42.3332 32.1669V26.8335C42.3332 24.9196 42.331 23.5848 42.1957 22.5776C42.0641 21.5993 41.8236 21.0812 41.4545 20.7122C41.1758 20.4335 40.8121 20.228 40.2286 20.0874C40.3332 21.169 40.3332 22.4955 40.3332 24.0936V34.9066C40.3332 36.5047 40.3332 37.8313 40.2286 38.9129ZM24.4107 17.3043C23.4323 17.4358 22.9142 17.6764 22.5452 18.0454C22.1762 18.4144 21.9356 18.9325 21.804 19.9109C21.6686 20.918 21.6665 22.2529 21.6665 24.1667V34.8334C21.6665 36.7473 21.6686 38.0821 21.804 39.0893C21.9356 40.0677 22.1762 40.5857 22.5452 40.9547C22.9142 41.3238 23.4323 41.5643 24.4107 41.6959C25.4178 41.8313 26.7526 41.8334 28.6665 41.8334H31.3332C33.247 41.8334 34.5818 41.8313 35.589 41.6959C36.5674 41.5643 37.0854 41.3238 37.4545 40.9547C37.8236 40.5857 38.0641 40.0677 38.1957 39.0893C38.331 38.0821 38.3332 36.7473 38.3332 34.8334V24.1667C38.3332 22.2529 38.331 20.918 38.1957 19.9109C38.0641 18.9325 37.8236 18.4144 37.4545 18.0454C37.0854 17.6764 36.5674 17.4358 35.589 17.3043C34.5818 17.1689 33.247 17.1667 31.3332 17.1667H28.6665C26.7526 17.1667 25.4178 17.1689 24.4107 17.3043ZM24.9998 25.5001C24.9998 24.9478 25.4476 24.5001 25.9998 24.5001H33.9998C34.5521 24.5001 34.9998 24.9478 34.9998 25.5001C34.9998 26.0524 34.5521 26.5001 33.9998 26.5001H25.9998C25.4476 26.5001 24.9998 26.0524 24.9998 25.5001ZM24.9998 30.8334C24.9998 30.2811 25.4476 29.8334 25.9998 29.8334H33.9998C34.5521 29.8334 34.9998 30.2811 34.9998 30.8334C34.9998 31.3857 34.5521 31.8334 33.9998 31.8334H25.9998C25.4476 31.8334 24.9998 31.3857 24.9998 30.8334ZM24.9998 36.1667C24.9998 35.6145 25.4476 35.1667 25.9998 35.1667H29.9998C30.5521 35.1667 30.9998 35.6145 30.9998 36.1667C30.9998 36.719 30.5521 37.1667 29.9998 37.1667H25.9998C25.4476 37.1667 24.9998 36.719 24.9998 36.1667Z" fill="white"/>
</svg>
