<svg width="44" height="45" viewBox="0 0 44 45" fill="none" xmlns="http://www.w3.org/2000/svg">
<rect y="0.106445" width="44" height="44" rx="12" fill="#F8F7F7"/>
<path fill-rule="evenodd" clip-rule="evenodd" d="M18.29 30.1062C25.837 30.1062 29.965 23.9498 29.965 18.6116C29.965 18.4364 29.965 18.2624 29.953 18.0892C30.756 17.5181 31.449 16.8091 32 15.9978C31.252 16.3247 30.457 16.5391 29.644 16.6336C30.5 16.1285 31.141 15.335 31.448 14.3987C30.642 14.8693 29.761 15.2015 28.842 15.3797C27.288 13.7532 24.689 13.6744 23.036 15.2044C21.971 16.1909 21.518 17.6618 21.849 19.0647C18.55 18.9013 15.476 17.3674 13.392 14.844C12.303 16.69 12.86 19.0507 14.663 20.2361C14.01 20.2174 13.371 20.0443 12.8 19.7312V19.7825C12.801 21.7053 14.178 23.361 16.092 23.742C15.488 23.9044 14.854 23.928 14.24 23.8108C14.777 25.457 16.318 26.5845 18.073 26.617C16.62 27.7413 14.825 28.3519 12.977 28.3499C12.651 28.3489 12.325 28.3302 12 28.2918C13.877 29.4772 16.06 30.1063 18.29 30.1033" fill="#0F2028"/>
</svg>
