<svg width="24" height="24" viewBox="0 0 24 24" fill="none" xmlns="http://www.w3.org/2000/svg">
<rect width="24" height="24" rx="12" fill="#1D9B5E"/>
<path d="M11.9999 18.6667C11.1666 18.6667 10.3861 18.5085 9.65857 18.192C8.93101 17.8756 8.29768 17.4478 7.75857 16.9087C7.21946 16.3696 6.79168 15.7362 6.47524 15.0087C6.15879 14.2811 6.00035 13.5005 5.9999 12.6667C5.99946 11.8329 6.1579 11.0525 6.47524 10.3253C6.79257 9.59824 7.22012 8.9649 7.7579 8.42535C8.29568 7.88579 8.92901 7.45801 9.6579 7.14201C10.3868 6.82601 11.1675 6.66757 11.9999 6.66668C12.8323 6.66579 13.613 6.82424 14.3419 7.14201C15.0708 7.45979 15.7041 7.88757 16.2419 8.42535C16.7797 8.96313 17.2075 9.59646 17.5252 10.3253C17.843 11.0542 18.0012 11.8347 17.9999 12.6667C17.9986 13.4987 17.8403 14.2793 17.5252 15.0087C17.2101 15.738 16.7823 16.3713 16.2419 16.9087C15.7015 17.446 15.0681 17.8738 14.3419 18.192C13.6157 18.5102 12.835 18.6685 11.9999 18.6667ZM13.8666 15.4667L14.7999 14.5333L12.6666 12.4V9.33335H11.3332V12.9333L13.8666 15.4667ZM7.73324 5.56668L8.66657 6.50001L5.83324 9.33335L4.8999 8.40001L7.73324 5.56668ZM16.2666 5.56668L19.0999 8.40001L18.1666 9.33335L15.3332 6.50001L16.2666 5.56668ZM11.9999 17.3333C13.2999 17.3333 14.4028 16.8807 15.3086 15.9753C16.2143 15.07 16.667 13.9671 16.6666 12.6667C16.6661 11.3662 16.2135 10.2636 15.3086 9.35868C14.4037 8.45379 13.3008 8.0009 11.9999 8.00001C10.699 7.99913 9.59635 8.45201 8.6919 9.35868C7.78746 10.2653 7.33457 11.368 7.33324 12.6667C7.3319 13.9653 7.78479 15.0682 8.6919 15.9753C9.59901 16.8825 10.7017 17.3351 11.9999 17.3333Z" fill="white"/>
</svg>
